<?xml version="1.0" encoding="UTF-8"?>
<!DOCTYPE svg PUBLIC "-//W3C//DTD SVG 1.1//EN" "http://www.w3.org/Graphics/SVG/1.1/DTD/svg11.dtd">
<!-- Creator: CorelDRAW 2020 (64-Bit) -->
<svg xmlns="http://www.w3.org/2000/svg" xml:space="preserve" width="62.3393mm" height="70.0528mm" version="1.1" style="shape-rendering:geometricPrecision; text-rendering:geometricPrecision; image-rendering:optimizeQuality; fill-rule:evenodd; clip-rule:evenodd"
viewBox="0 0 1968.9 2212.52"
 xmlns:xlink="http://www.w3.org/1999/xlink"
 xmlns:xodm="http://www.corel.com/coreldraw/odm/2003">
 <defs>
  <style type="text/css">
   <![CDATA[
    .fil7 {fill:#FDB92E}
    .fil6 {fill:#D19C2C}
    .fil2 {fill:#6F2B38}
    .fil3 {fill:#A73C4C}
    .fil0 {fill:#007848}
    .fil5 {fill:#0065A0}
    .fil4 {fill:#005484}
    .fil1 {fill:#00A859}
   ]]>
  </style>
 </defs>
 <g id="Capa_x0020_1">
  <metadata id="CorelCorpID_0Corel-Layer"/>
  <path class="fil0" d="M402.16 209.03c-10.86,125.79 82.3,236.63 208.1,247.51 125.82,10.87 236.68,-82.36 247.54,-208.15 10.89,-125.82 -82.36,-236.65 -208.18,-247.52 -125.79,-10.86 -236.6,82.34 -247.46,208.17zm933.84 -132.98c173.69,-146.05 434.45,146.1 233.76,314.91l-500.48 420.87c-88.64,74.54 -222.13,63 -296.71,-25.62l-231.57 -275.39c-0.65,-8.75 -1.38,0.57 0,0 108.62,69.43 197.13,48.92 278.24,-2.95 181.58,-116.06 351.58,-292.91 516.76,-431.82z"/>
  <path class="fil1" d="M402.16 209.03c-10.86,125.79 82.3,236.63 208.1,247.51 125.82,10.87 236.68,-82.36 247.54,-208.15 10.89,-125.82 -82.36,-236.65 -208.18,-247.52 -125.79,-10.86 -236.6,82.34 -247.46,208.17zm933.84 -132.98c150.06,-126.19 365.11,74.74 291.35,240.6 -167.18,213.73 -435.58,341.41 -726.01,316.32 -129.07,-11.15 -248.71,-51.3 -353.02,-113.45l-7.32 -8.71c-0.65,-8.75 -1.38,0.57 0,0 108.62,69.43 197.13,48.92 278.24,-2.95 181.58,-116.06 351.58,-292.91 516.76,-431.82z"/>
  <path class="fil2" d="M209 1699.92c125.8,10.87 236.65,-82.33 247.52,-208.14 10.87,-125.8 -82.36,-236.67 -208.16,-247.52 -125.79,-10.87 -236.62,82.36 -247.5,208.17 -10.85,125.78 82.33,236.63 208.14,247.49zm-132.96 -933.86c-146.06,-173.67 146.12,-434.45 314.89,-233.72l420.92 500.48c74.52,88.61 62.98,222.14 -25.63,296.68l-275.43 231.57c-8.75,0.65 0.55,1.38 0,0 69.46,-108.62 48.94,-197.11 -2.94,-278.25 -116.05,-181.58 -292.88,-351.58 -431.8,-516.76z"/>
  <path class="fil3" d="M209 1699.92c125.8,10.87 236.65,-82.33 247.52,-208.14 10.87,-125.8 -82.36,-236.67 -208.16,-247.52 -125.79,-10.87 -236.62,82.36 -247.5,208.17 -10.85,125.78 82.33,236.63 208.14,247.49zm-132.96 -933.86c-126.16,-150.04 74.76,-365.08 240.6,-291.34 213.69,167.19 341.44,435.6 316.35,726.02 -11.15,129.07 -51.33,248.7 -113.46,353.02l-8.75 7.31c-8.75,0.65 0.55,1.38 0,0 69.46,-108.62 48.94,-197.11 -2.94,-278.25 -116.05,-181.58 -292.88,-351.58 -431.8,-516.76z"/>
  <path class="fil4" d="M1759.9 543.77c-125.84,-10.87 -236.67,82.36 -247.52,208.16 -10.89,125.8 82.33,236.63 208.17,247.51 125.77,10.87 236.63,-82.35 247.49,-208.16 10.87,-125.78 -82.34,-236.65 -208.13,-247.51zm132.93 933.88c146.06,173.67 -146.06,434.42 -314.87,233.73l-420.88 -500.47c-74.55,-88.64 -63.02,-222.17 25.62,-296.71l275.38 -231.56c8.77,-0.67 -0.53,-1.4 0,0 -69.46,108.62 -48.92,197.11 2.94,278.22 116.06,181.58 292.91,351.57 431.8,516.78z"/>
  <path class="fil5" d="M1759.9 543.77c-125.84,-10.87 -236.67,82.36 -247.52,208.16 -10.89,125.8 82.33,236.63 208.17,247.51 125.77,10.87 236.63,-82.35 247.49,-208.16 10.87,-125.78 -82.34,-236.65 -208.13,-247.51zm132.93 933.88c126.18,150.06 -74.72,365.11 -240.58,291.33 -213.73,-167.17 -341.41,-435.6 -316.32,-726.03 11.15,-129.07 51.3,-248.68 113.45,-353l8.71 -7.31c8.77,-0.67 -0.53,-1.4 0,0 -69.46,108.62 -48.92,197.11 2.94,278.22 116.06,181.58 292.91,351.57 431.8,516.78z"/>
  <path class="fil6" d="M1534.2 1982.99c3.94,-126.2 -95.2,-231.79 -221.4,-235.74 -126.2,-3.94 -231.79,95.22 -235.73,221.44 -3.95,126.2 95.22,231.74 221.43,235.69 126.21,3.94 231.76,-95.18 235.71,-221.39zm-925.17 183.98c-165.39,155.35 -441.81,-122.09 -250.64,-301.6l476.65 -447.73c84.39,-79.27 218.34,-75.06 297.64,9.34l246.32 262.3c1.12,8.73 1.35,-0.62 0,0 -112.26,-63.39 -199.51,-38.06 -277.68,18.2 -174.95,125.85 -334.99,311.72 -492.3,459.5z"/>
  <path class="fil7" d="M1534.2 1982.99c3.94,-126.2 -95.2,-231.79 -221.4,-235.74 -126.2,-3.94 -231.79,95.22 -235.73,221.44 -3.95,126.2 95.22,231.74 221.43,235.69 126.21,3.94 231.76,-95.18 235.71,-221.39zm-925.17 183.98c-142.9,134.21 -368.65,-54.63 -304.1,-224.27 155.22,-222.55 416.22,-364.82 707.58,-355.68 129.48,4.04 251.14,37.63 358.71,93.92l7.79 8.33c1.12,8.73 1.35,-0.62 0,0 -112.26,-63.39 -199.51,-38.06 -277.68,18.2 -174.95,125.85 -334.99,311.72 -492.3,459.5z"/>
 </g>
</svg>
