<?xml version="1.0" encoding="UTF-8"?>
<!DOCTYPE svg PUBLIC "-//W3C//DTD SVG 1.1//EN" "http://www.w3.org/Graphics/SVG/1.1/DTD/svg11.dtd">
<!-- Creator: CorelDRAW 2020 (64-Bit) -->
<svg xmlns="http://www.w3.org/2000/svg" xml:space="preserve" width="91.972mm" height="69.625mm" version="1.1" style="shape-rendering:geometricPrecision; text-rendering:geometricPrecision; image-rendering:optimizeQuality; fill-rule:evenodd; clip-rule:evenodd"
viewBox="0 0 8619.01 6524.79"
 xmlns:xlink="http://www.w3.org/1999/xlink"
 xmlns:xodm="http://www.corel.com/coreldraw/odm/2003">
 <defs>
  <style type="text/css">
   <![CDATA[
    .str0 {stroke:#FEFEFE;stroke-width:49.59;stroke-miterlimit:22.9256;stroke-opacity:0.788235}
    .fil0 {fill:#638FBF;fill-opacity:0.788235}
   ]]>
  </style>
 </defs>
 <g id="Capa_x0020_1">
  <metadata id="CorelCorpID_0Corel-Layer"/>
  <path id="caldas" class="fil0 str0" d="M3988.75 6047.05c4.74,-33.19 10.27,-92.47 12.64,-105.9 2.37,-13.44 4.55,-37.94 3.56,-45.84 -0.99,-7.91 -20.15,-18.38 -26.28,-21.73 -6.13,-3.35 -82.79,-37.54 -87.13,-46.04 -4.34,-8.49 -56.7,-106.49 -59.07,-121.9 -2.38,-15.41 0.39,-42.08 -6.13,-51.17 -6.52,-9.09 -20.16,-15.61 -23.51,-24.5 -3.35,-8.89 -10.27,-56.71 -10.47,-72.31 -0.2,-15.61 4.73,-39.92 0.38,-63.63 -4.34,-23.71 -10.66,-62.43 -7.1,-74.29 3.55,-11.85 6.71,-24.1 25.68,-30.43 18.97,-6.32 75.48,-28.84 86.14,-37.54 10.67,-8.69 11.85,-13.83 12.25,-27.65 0.4,-13.83 11.46,-24.1 21.73,-35.96 10.28,-11.85 25.69,-46.63 34.78,-63.62 9.09,-16.99 20.54,-33.99 24.1,-48.21 3.56,-14.23 5.53,-20.54 5.93,-34.37 0.39,-13.83 2.37,-17.39 7.9,-28.85 5.53,-11.45 9.88,-23.31 11.46,-50.58 1.57,-27.26 7.52,-67.59 4.16,-82.01 -3.35,-14.42 -2.58,-20.75 -13.44,-26.08 -10.86,-5.33 -30,-21.54 -41.85,-35.38 -11.85,-13.82 -33.98,-37.14 -45.04,-37.14 -11.07,0 -21.35,7.51 -33.6,1.18 -12.24,-6.32 -17.38,-11.46 -19.36,-26.87 -1.97,-15.41 -14.22,-33.98 -28.84,-42.28 -14.62,-8.29 -20.15,-11.06 -18.57,-21.34 1.57,-10.27 30.63,-88.5 31.41,-92.06 0.8,-3.56 4.15,-32.41 1.19,-38.33 -2.97,-5.93 -8.89,-19.76 -3.36,-26.48 5.53,-6.71 26.88,-24.69 32.01,-26.47 5.14,-1.77 31.21,-23.11 37.53,-29.83 6.32,-6.72 32.79,-30.04 43.86,-43.07 11.06,-13.04 35.17,-26.47 43.46,-31.61 8.29,-5.14 66.79,-53.34 77.85,-68.76 11.06,-15.41 13.04,-41.89 24.5,-50.58 11.46,-8.7 21.33,-10.28 34.77,-30.43 13.44,-20.15 41.89,-46.23 47.42,-51.77 5.54,-5.53 19.36,-33.58 34.78,-43.06 15.41,-9.48 49.39,-13.83 64.8,-10.67 15.41,3.16 77.85,28.06 88.91,34.37 11.07,6.33 92.86,43.07 106.3,45.05 13.43,1.98 39.91,17.38 56.89,14.23 16.99,-3.16 22.53,-5.14 48.61,-26.08 26.08,-20.94 35.17,-36.35 54.93,-33.59 19.75,2.76 17.78,18.57 42.67,3.17 24.9,-15.42 19.76,-19.76 32.01,-35.56 12.25,-15.81 24.1,-15.42 28.84,-26.48 4.74,-11.06 8.3,-35.16 16.99,-55.32 8.7,-20.15 20.94,-40.31 33.59,-50.97 12.64,-10.66 25.69,-12.64 46.23,-15.8 20.55,-3.17 65.99,-7.12 79.03,-11.86 13.04,-4.74 37.94,-17.38 46.24,-26.87 8.29,-9.48 23.32,-9.88 35.56,-8.69 12.25,1.18 22.52,9.08 41.88,5.14 19.36,-3.95 39.13,-12.26 47.03,-3.56 7.9,8.7 30.82,28.85 41.09,32.8 10.27,3.95 35.96,11.07 41.09,19.75 5.14,8.7 20.55,29.24 32.8,29.24 12.25,0 31.62,11.47 43.87,7.52 12.24,-3.95 29.63,-22.53 39.12,-24.1 9.48,-1.58 20.55,10.26 38.72,2.76 18.18,-7.51 39.12,-15.02 40.7,-24.11 1.58,-9.08 -13.04,-13.04 -13.83,-29.63 -0.79,-16.6 1.58,-37.54 5.54,-52.95 3.95,-15.41 -10.28,-33.19 10.66,-44.65 20.94,-11.46 39.52,-12.25 40.31,-26.47 0.79,-14.23 7.9,-64.41 20.15,-91.28 12.26,-26.87 31.62,-71.52 41.1,-79.03 9.47,-7.51 28.45,-9.88 33.98,-24.89 5.53,-15.02 0.39,-28.07 10.27,-34.38 9.88,-6.32 25.69,-9.09 32,-18.97 6.33,-9.88 38.34,-57.69 45.05,-73.5 6.72,-15.8 30.43,-59.26 39.13,-68.75 8.69,-9.48 20.15,-6.72 35.16,-16.6 15.02,-9.88 22.14,-23.71 28.84,-43.87 6.72,-20.15 -7.5,-28.84 1.58,-46.23 9.09,-17.38 13.44,-43.46 27.27,-62.04 13.82,-18.57 22.13,-29.64 42.67,-30.82 20.55,-1.18 63.22,-4.34 81.4,-4.74 18.18,-0.39 39.13,-2.37 51.77,-15.01 12.64,-12.65 7.9,-37.94 18.18,-50.18 10.27,-12.25 12.64,-7.11 38.72,-9.48 26.08,-2.37 35.56,-6.33 52.16,-14.23 16.59,-7.91 17.78,-16.6 33.59,-15.01 15.8,1.57 65.98,9.09 80.6,11.06 14.62,1.98 36.75,8.7 53.35,8.7 16.59,0 49.39,-15.02 59.67,-22.53 10.27,-7.5 37.54,-15.41 52.55,-16.59 15.01,-1.19 39.12,-29.64 48.6,-35.17 9.48,-5.53 52.55,-1.18 64.41,-5.53 11.85,-4.35 24.1,-20.16 32.8,-28.06 8.69,-7.91 3.16,3.95 26.87,-7.11 23.71,-11.07 43.07,-30.03 49.39,-35.96 6.33,-5.93 36.36,-4.74 47.42,-2.37 11.07,2.37 45.84,20.54 54.53,20.54 8.7,0 33.59,0.39 50.18,-0.79 16.6,-1.18 39.13,5.53 52.95,12.64 13.83,7.11 52.17,47.42 61.25,49.4 9.09,1.98 31.22,14.23 38.33,11.07 7.11,-3.17 16.6,-15.81 36.35,-5.14 19.75,10.66 33.19,11.45 49,9.88 15.8,-1.58 37.14,23.31 47.42,15.8 10.27,-7.51 23.7,-32.8 30.03,-44.25 6.33,-11.46 5.14,-19.37 19.75,-21.74 14.63,-2.36 24.51,-7.9 45.44,-21.33 20.94,-13.44 27.27,-32.8 45.44,-39.52 18.18,-6.72 27.66,-5.92 39.13,-4.74 11.45,1.18 67.57,-9.88 82.98,-12.64 15.41,-2.76 63.61,-3.95 70.33,-0.8 6.71,3.17 66.39,63.62 78.63,67.18 12.25,3.55 33.59,24.89 43.07,20.54 9.47,-4.35 33.98,-3.56 43.46,2.37 9.48,5.93 35.56,30.43 44.65,28.84 9.09,-1.57 64.41,1.98 77.45,3.17 13.04,1.18 28.06,-8.3 38.33,1.18 10.27,9.48 30.43,31.22 39.91,47.03 9.48,15.8 8.52,24.32 17.41,18.78 8.89,-5.53 15.22,-16 20.35,-13.04 5.14,2.96 15.01,19.75 23.32,25.69 8.29,5.92 18.56,17.78 28.64,20.15 10.08,2.37 22.92,-6.13 33.6,-14.42 10.66,-8.3 22.52,-23.51 28.84,-21.93 6.32,1.58 20.54,20.35 27.46,18.56 6.92,-1.77 19.16,-6.92 28.65,-6.12 9.48,0.79 15.81,4.74 17.79,-8.7 1.97,-13.43 14.62,-74.29 19.75,-82.98 5.14,-8.69 30.63,-40.31 46.24,-51.77 15.6,-11.46 62.63,-36.35 66.58,-46.23 3.95,-9.88 13.63,-57.1 15.41,-71.92 1.78,-14.82 7.9,-83.38 15.61,-96.62 7.7,-13.23 36.35,-47.41 43.86,-60.85 7.52,-13.44 5.14,-34.38 0,-45.05 -5.14,-10.67 -30.42,-55.72 -30.42,-66.39 0,-10.67 -3.56,-12.26 3.95,-20.94 7.52,-8.7 13.44,-10.27 20.94,-3.95 7.52,6.33 23.32,24.1 32.01,28.06 8.69,3.95 13.82,12.26 33.58,11.85 19.76,-0.39 52.17,-6.72 74.69,-32.8 22.52,-26.08 28.05,-35.16 24.1,-54.53 -3.95,-19.36 -42.68,-62.03 -45.44,-78.23 -2.76,-16.2 -6.72,-39.52 -5.14,-59.27 1.57,-19.75 -2.76,-21.34 7.51,-24.1 10.27,-2.76 25.69,-0.39 33.59,3.95 7.9,4.34 34.78,24.1 48.6,20.94 13.83,-3.17 32,-12.26 36.35,-26.88 4.35,-14.62 7.51,-42.68 6.72,-57.3 -0.79,-14.62 -9.48,-26.47 -19.36,-48.21 -9.88,-21.73 -35.96,-52.55 -47.03,-69.15 -11.06,-16.6 -20.94,-26.47 -13.43,-40.31 7.51,-13.83 23.7,-27.66 32.79,-32.41 9.09,-4.74 24.51,-13.04 36.75,-13.04 12.25,0 47.02,13.04 54.93,12.64 7.9,-0.39 34.77,5.93 44.25,-1.18 9.48,-7.11 13.83,-18.18 6.72,-27.66 -7.11,-9.48 -40.31,-16.6 -47.03,-35.56 -6.71,-18.97 -20.54,-75.86 -25.28,-97.2 -4.74,-21.34 -17.39,-79.23 -16.6,-92.47 0.79,-13.24 -33.98,-142.25 -30.04,-156.08 3.95,-13.83 1.58,-23.71 1.58,-34.77 0,-11.07 4.35,-36.35 16.99,-45.84 12.64,-9.48 53.34,-23.71 62.83,-30.43 9.48,-6.72 40.32,-23.32 54.14,-48.21 13.83,-24.9 50.58,-74.69 56.11,-82.98 5.54,-8.3 30.83,-82.19 28.45,-98 -2.37,-15.8 -22.13,-48.99 -30.82,-59.27 -8.69,-10.27 -45.04,-32.4 -55.32,-39.12 -10.27,-6.72 -30.03,-27.26 -26.46,-40.31 3.55,-13.04 15.41,-43.46 25.28,-55.71 9.88,-12.25 29.24,-33.98 32.79,-45.05 3.56,-11.07 24.51,-88.51 26.09,-108.27 1.57,-19.76 -3.95,-48.22 2.36,-58.88 6.33,-10.66 33.19,-32.41 45.84,-39.12 12.64,-6.72 34.77,-12.64 37.94,-21.34 3.16,-8.7 17.78,-34.38 11.06,-67.17 -6.72,-32.8 -33.19,-59.27 -39.12,-74.69 -5.93,-15.41 -20.55,-64.8 -19.37,-89.3 1.19,-24.5 0.4,-67.57 7.91,-85.75 7.51,-18.17 22.52,-35.56 27.26,-49.4 4.74,-13.82 9.88,-107.47 4.74,-123.28 -5.14,-15.81 -20.94,-48.6 -34.37,-56.12 -13.43,-7.51 -62.43,-5.92 -80.22,-5.92 -17.78,0 -29.63,11.46 -42.27,-29.64 -12.65,-41.09 -53.35,-111.43 -51.77,-129.21 1.58,-17.78 7.11,-24.89 10.67,-41.49 3.55,-16.6 -4.35,-58.88 -11.46,-82.59 -7.11,-23.7 -17.38,-71.52 -22.13,-88.91 -4.74,-17.38 -24.5,-24.89 -34.78,-28.45 -10.27,-3.55 -48.99,-39.91 -54.93,-50.58 -5.92,-10.66 -12.25,-21.73 -24.1,-21.73 -11.85,0 -31.22,5.93 -41.88,14.62 -10.67,8.7 -58.09,40.31 -70.34,41.09 -12.25,0.8 -19.36,-0.79 -40.7,0.4 -21.34,1.18 -22.91,3.16 -34.37,-3.56 -11.46,-6.72 -22.91,-9.89 -28.45,-3.17 -5.53,6.73 -9.08,33.6 -6.32,45.05 2.76,11.46 5.14,27.66 5.14,43.47 0,15.8 -1.58,26.87 -9.09,24.5 -7.51,-2.37 -4.74,-14.23 -19.36,-15.01 -14.62,-0.8 -22.14,-7.52 -24.1,8.29 -1.98,15.81 -9.48,54.53 -20.55,64.02 -11.06,9.48 -24.1,35.95 -17.78,55.32 6.33,19.36 20.15,75.47 15.8,85.35 -4.34,9.88 -28.05,43.86 -35.96,57.69 -7.9,13.83 -13.43,20.15 -5.14,29.63 8.3,9.49 18.97,17 13.44,28.85 -5.54,11.85 -10.28,15.41 -31.61,7.9 -21.34,-7.51 -27.66,-5.93 -35.56,6.72 -7.91,12.64 4.74,28.44 -3.17,37.53 -7.9,9.09 -26.87,9.88 -48.21,12.65 -21.34,2.76 -47.81,5.92 -81.79,11.85 -33.98,5.93 -52.95,12.65 -64.41,24.11 -11.45,11.45 -11.85,27.26 -33.98,16.19 -22.13,-11.06 -25.29,-26.08 -57.3,-35.16 -32,-9.09 -51.77,-3.95 -66.78,-18.97 -15.01,-15.02 -28.05,-26.88 -37.93,-21.34 -9.89,5.53 -28.84,17.78 -43.87,11.85 -15.01,-5.93 -26.87,-37.94 -35.96,-53.34 -9.09,-15.42 -32.4,-5.93 -51.36,-6.33 -18.97,-0.4 -54.93,-22.13 -72.71,-39.52 -17.78,-17.38 -22.52,-31.61 -25.68,-51.76 -3.17,-20.16 -5.14,-24.1 -11.46,-39.13 -6.33,-15.01 -18.97,-53.34 -32.01,-60.06 -13.04,-6.72 -39.51,-15.8 -56.11,-25.28 -16.6,-9.48 -50.18,-24.1 -65.98,-29.25 -15.81,-5.14 -65.99,-12.64 -82.59,-11.06 -16.6,1.57 -36.75,-5.54 -47.42,0.39 -10.66,5.92 -22.91,20.15 -30.42,28.45 -7.52,8.29 -28.07,21.73 -40.71,24.89 -12.64,3.16 -31.61,1.58 -51.76,7.9 -20.15,6.33 -35.96,13.04 -60.45,15.02 -24.5,1.98 -46.63,-0.8 -66.39,4.74 -19.75,5.53 -53.34,8.69 -74.29,9.09 -20.94,0.39 -40.31,9.88 -47.03,16.59 -6.71,6.72 -23.32,27.27 -36.75,30.43 -13.44,3.16 -27.66,-1.58 -45.84,9.88 -18.18,11.46 -15.01,24.1 -37.94,30.43 -22.91,6.33 -55.71,5.14 -71.13,12.64 -15.41,7.52 -33.98,18.17 -51.36,18.57 -17.38,0.39 -41.89,-9.09 -61.25,-9.88 -19.36,-0.79 -20.15,1.98 -42.67,6.33 -22.53,4.34 -38.33,5.53 -39.91,15.8 -1.58,10.27 12.64,24.89 11.07,35.56 -1.58,10.67 -0.8,22.53 -15.81,25.29 -15.01,2.76 -33.98,11.85 -38.72,21.73 -4.74,9.88 -17.38,35.17 -18.57,48.99 -1.19,13.83 -3.55,26.47 -9.88,34.38 -6.33,7.9 -30.43,35.56 -43.07,43.46 -12.64,7.9 -30.82,24.5 -40.31,24.9 -9.48,0.39 -42.68,4.34 -52.55,9.47 -9.88,5.14 -24.89,13.44 -34.37,26.47 -9.48,13.04 -28.85,24.9 -44.26,29.64 -15.41,4.74 -33.59,15.01 -45.05,25.68 -11.45,10.67 -14.62,17.79 -29.24,17.79 -14.62,0 -21.73,-4.74 -31.22,-12.25 -9.48,-7.51 -20.94,-13.83 -44.65,-11.46 -23.7,2.37 -33.98,-6.32 -47.41,3.95 -13.44,10.27 -32.01,27.66 -39.12,33.19 -7.11,5.53 -14.63,18.97 -28.45,16.2 -13.83,-2.77 -45.44,-21.35 -59.27,-19.76 -13.83,1.58 -30.03,13.04 -35.96,21.73 -5.93,8.7 -14.23,16.2 -18.18,25.69 -3.95,9.48 -13.82,19.75 -15.8,29.63 -1.98,9.88 -11.85,22.53 -11.85,36.36 0,13.82 16.19,81 25.68,89.3 9.48,8.29 13.82,15.42 13.43,25.69 -0.39,10.28 -3.56,22.14 0.39,31.23 3.95,9.08 11.85,27.26 13.04,37.14 1.18,9.88 -3.95,30.82 -11.85,35.96 -7.9,5.14 -24.5,9.89 -21.34,18.57 3.16,8.7 8.7,22.52 19.36,26.87 10.66,4.35 23.71,19.76 24.5,32.41 0.8,12.64 -16.19,35.56 -18.56,48.6 -2.37,13.04 -3.17,39.91 -9.48,46.23 -6.33,6.33 -44.26,29.25 -50.98,37.94 -6.72,8.7 -30.81,27.66 -44.65,34.38 -13.83,6.71 -28.06,9.48 -32.41,18.18 -4.35,8.69 -10.66,26.08 -18.97,28.84 -8.29,2.76 -20.15,0 -24.89,13.04 -4.74,13.04 -13.83,36.35 -26.08,38.72 -12.25,2.37 -50.18,32.41 -52.95,48.21 -2.76,15.81 -5.53,34.38 -6.72,48.22 -1.18,13.82 -0.39,32.79 -10.27,47.02 -9.88,14.23 -8.7,32 -19.36,41.49 -10.67,9.48 -19.37,15.81 -32.8,14.23 -13.43,-1.57 -35.96,-11.45 -64.41,-8.29 -28.45,3.16 -20.94,5.14 -53.34,9.88 -32.41,4.74 -46.63,0 -69.54,9.48 -22.92,9.48 -68.76,18.57 -78.63,21.73 -9.88,3.17 -35.17,25.69 -46.23,26.08 -11.07,0.39 -58.88,2.37 -68.36,7.11 -9.48,4.74 -21.73,19.37 -29.24,33.19 -7.51,13.83 -20.55,33.19 -28.45,38.72 -7.9,5.53 -18.57,3.55 -34.37,7.11 -15.81,3.56 -51.37,25.69 -59.27,33.59 -7.9,7.91 -86.94,136.72 -97.6,153.32 -10.66,16.61 -52.15,87.73 -62.04,96.82 -9.88,9.09 -33.98,30.04 -39.12,41.09 -5.14,11.07 -20.94,49.79 -30.43,65.99 -9.48,16.2 -85.36,140.28 -94.85,149.76 -9.48,9.48 -10.27,19.76 -28.84,28.06 -18.57,8.3 -28.84,2.76 -33.98,-15.8 -5.14,-18.57 4.75,-39.12 -4.73,-78.63 -9.48,-39.51 -22.92,-64.02 -27.66,-96.41 -4.74,-32.41 -22.92,-27.66 -8.7,-64.8 14.23,-37.15 23.72,-48.99 19.76,-73.5 -3.95,-24.5 -5.54,-27.65 -26.88,-27.65 -21.33,0 -48.99,-5.54 -77.44,-0.8 -28.45,4.74 -28.45,-11.85 -54.53,-14.22 -26.08,-2.38 -60.06,9.48 -58.48,-20.55 1.57,-30.04 -10.28,-24.5 -4.74,-60.06 5.53,-35.56 3.95,-51.37 14.23,-82.19 10.27,-30.82 21.34,-22.13 15.8,-41.09 -5.53,-18.97 -8.69,-49.79 -20.54,-60.86 -11.85,-11.07 -31.61,-5.54 -47.42,-23.71 -15.81,-18.18 -41.09,-22.92 -45.05,-42.68 -3.95,-19.75 -11.06,-37.14 -4.74,-49.79 6.33,-12.64 9.49,-26.87 11.85,-37.93 2.37,-11.07 -4.74,-17.39 -15.8,-28.45 -11.07,-11.07 -20.55,-54.53 -11.07,-61.64 9.48,-7.11 33.19,-19.76 20.55,-43.46 -12.65,-23.71 -52.16,-41.88 -62.43,-75.07 -10.28,-33.19 -0.01,-52.16 -15.81,-74.29 -15.8,-22.14 -30.04,-28.45 -27.66,-38.73 2.38,-10.27 11.07,-39.51 2.38,-48.99 -8.7,-9.48 -15.81,-12.64 -43.47,-12.64 -27.65,0 -82.19,6.32 -97.2,-15.81 -15.01,-22.13 -12.65,-86.14 -18.97,-107.48 -6.33,-21.34 -11.85,-24.5 -51.37,-41.09 -39.51,-16.6 -59.26,-21.34 -42.67,-34.77 16.59,-13.44 57.69,-28.45 67.17,-45.05 9.47,-16.6 32.4,-45.84 30.03,-79.03 -2.37,-33.19 4.74,-48.21 -10.27,-80.61 -15.02,-32.4 -29.24,-42.68 -32.41,-64.02 -3.16,-21.33 -3.95,-37.14 -21.33,-41.88 -17.39,-4.74 -111.43,-15.01 -111.43,-15.01 0,0 -18.18,-18.18 -35.56,-26.08 -17.38,-7.9 -26.87,4.74 -37.94,-3.16 -11.07,-7.91 -18.17,-43.47 -32.4,-63.23 -14.23,-19.75 -24.51,-38.72 -53.74,-38.72 -29.24,0 -42.68,6.33 -51.36,1.58 -8.7,-4.74 -15.02,-4.75 -26.08,3.95 -11.07,8.7 -11.85,23.71 -26.87,22.92 -15.02,-0.8 -18.97,0.79 -28.45,12.64 -9.48,11.85 -3.17,29.24 -18.18,30.82 -15.01,1.58 -19.75,5.53 -39.51,8.7 -19.76,3.16 -39.51,5.53 -51.37,19.75 -11.85,14.23 -26.07,43.46 -33.98,52.16 -7.9,8.69 -15.81,28.45 -39.52,35.55 -23.7,7.11 -37.14,-1.58 -52.94,7.11 -15.81,8.7 -13.44,30.82 -30.82,16.6 -17.39,-14.23 -41.89,-19.75 -49,-35.55 -7.11,-15.81 4.74,-30.83 -8.69,-44.26 -13.44,-13.44 -82.98,-33.98 -91.68,-44.25 -8.69,-10.28 -13.43,-21.34 -18.96,-9.48 -5.54,11.85 0.79,21.33 -13.44,21.33 -14.23,0 -35.56,-11.85 -60.06,-41.09 -24.51,-29.24 -18.97,-47.42 -30.04,-49.79 -11.06,-2.36 -8.7,10.28 -20.54,11.85 -11.85,1.58 -12.65,-8.69 -27.66,0.8 -15.01,9.48 -15.81,28.45 -30.04,22.13 -14.22,-6.32 -7.9,-4.74 -21.33,-26.87 -13.44,-22.14 -32.41,-30.82 -40.31,-60.86 -7.91,-30.03 -16.61,-41.08 -7.91,-52.95 8.7,-11.85 19.76,-6.32 11.86,-30.81 -7.91,-24.51 -8.12,-22.14 -15.43,-25.5 -7.31,-3.35 -38.33,-11.45 -51.17,-18.96 -12.85,-7.51 -54.53,-9.1 -77.65,-6.72 -23.12,2.37 -41.89,6.13 -60.45,-0.98 -18.57,-7.12 -32.2,-24.7 -42.48,-32.41 -10.27,-7.7 -52.95,-32.8 -64.21,-37.74 -11.26,-4.94 -54.73,-15.41 -63.23,-13.64 -8.49,1.78 -12.44,2.37 -12.64,23.71 -0.2,21.34 -2.36,91.88 0,100.56 2.37,8.7 11.26,15.42 14.43,27.27 3.16,11.85 6.71,19.36 1.77,34.18 -4.94,14.82 -18.17,83.18 -16.2,92.86 1.98,9.68 5.33,55.91 5.73,64.21 0.39,8.29 0.79,16.19 -1.18,23.7 -1.98,7.52 0.39,17.79 15.41,24.1 15.01,6.33 126.45,47.03 135.93,50.59 9.48,3.55 19.75,11.46 20.54,23.71 0.8,12.25 1.98,30.81 -14.62,41.49 -16.6,10.66 -46.62,23.32 -52.15,30.04 -5.54,6.71 -25.29,28.84 -29.64,41.88 -4.35,13.04 -10.27,16.99 -9.88,32.8 0.39,15.8 -1.57,29.24 9.48,45.84 11.07,16.6 26.87,50.18 26.87,64.41 0,14.23 -2.76,42.28 -0.79,56.9 1.98,14.62 15.81,42.67 19.75,58.48 3.95,15.81 -2.37,37.15 -2.37,48.61 0,11.46 0,39.12 1.98,53.34 1.98,14.23 9.48,39.91 14.62,49.79 5.14,9.88 12.64,26.87 12.64,41.88 0,15.02 4.74,79.43 3.17,93.66 -1.58,14.23 1.98,60.85 1.98,79.42 0,18.57 -1.58,34.77 7.9,48.99 9.48,14.23 23.71,28.06 27.27,38.73 3.55,10.66 5.53,75.27 4.35,85.34 -1.19,10.08 4.15,28.07 -6.32,43.68 -10.48,15.6 -20.94,23.7 -31.41,26.08 -10.48,2.37 -13.24,2.36 -38.14,0.2 -24.89,-2.17 -62.63,-9.29 -70.53,-7.31 -7.9,1.98 -28.65,0.59 -36.15,-2.17 -7.51,-2.76 -25.69,-10.28 -30.23,-16.4 -4.55,-6.12 -23.32,-25.48 -34.37,-28.45 -11.07,-2.96 -30.04,-25.29 -43.47,-29.44 -13.43,-4.15 -15,-11.85 -28.44,-3.56 -13.44,8.3 -41.1,30.63 -63.03,31.42 -21.93,0.79 -29.24,4.94 -47.62,-4.35 -18.38,-9.29 -36.15,-24.11 -62.24,-22.73 -26.08,1.39 -43.47,0.2 -55.52,8.7 -12.05,8.49 -15.22,23.71 -27.86,23.12 -12.64,-0.6 -29.24,-10.28 -47.03,-15.61 -17.78,-5.33 -67.96,-10.08 -95.22,14.82 -27.27,24.9 -31.02,30.04 -49.59,36.75 -18.57,6.72 -33.6,6.92 -47.22,3.76 -13.64,-3.16 -33.39,-10.66 -39.52,-20.35 -6.12,-9.68 -14.03,-46.04 -19.56,-55.92 -5.53,-9.88 -16.2,-31.02 -19.75,-39.52 -3.56,-8.49 -14.82,-10.86 -24.69,-17.97 -9.89,-7.11 -10.48,-16.4 -16.8,-27.27 -6.32,-10.86 -12.25,-32.59 -37.73,-42.67 -25.49,-10.07 -47.62,-25.69 -58.09,-34.58 -10.47,-8.88 -14.62,-26.87 -21.93,-37.53 -7.31,-10.67 -19.56,-10.48 -28.25,-5.34 -8.69,5.14 -34.58,33.4 -51.57,46.43 -16.98,13.04 -45.04,25.49 -62.83,25.69 -17.78,0.2 -61.64,5.92 -76.26,12.64 -14.62,6.72 -28.84,-1.78 -33.98,11.25 -5.14,13.04 -11.26,55.53 -17.38,66.79 -6.13,11.25 -13.04,20.35 -38.33,-0.8 -25.29,-21.14 -28.25,-26.07 -39.52,-21.93 -11.26,4.15 -64.41,57.3 -72.11,64.02 -7.7,6.72 -28.65,24.69 -38.33,26.87 -9.68,2.17 -26.67,-0.39 -31.61,7.11 -4.94,7.51 -14.42,30.63 -15.22,38.13 -0.79,7.51 -1.18,31.41 -12.05,37.14 -10.86,5.74 -41.29,11.07 -51.56,14.62 -10.28,3.56 -70.93,45.24 -79.03,60.66 -8.11,15.42 -1.78,39.31 -8.11,55.12 -6.33,15.81 -1.18,24.9 -31.61,32.8 -30.43,7.9 -69.15,7.9 -83.77,1.98 -14.62,-5.93 -30.04,-21.93 -40.7,-29.04 -10.67,-7.12 -11.46,-10.28 -18.97,-4.55 -7.52,5.73 -21.14,12.84 -14.82,22.52 6.32,9.68 13.43,22.32 16.39,34.37 2.97,12.06 -0.2,27.27 3.36,37.94 3.55,10.67 10.27,32.8 8.1,42.48 -2.17,9.68 -10.66,21.54 -11.46,34.97 -0.79,13.43 1.98,17.98 7.11,28.45 5.14,10.47 -6.52,15.8 -10.86,31.81 -4.35,16.01 5.33,73.89 5.33,81.79 0,7.9 -6.92,25.69 -16.99,45.64 -10.07,19.96 -15.8,54.53 -12.05,69.35 3.75,14.83 29.04,30.04 32.2,48.22 3.17,18.18 2.38,35.98 5.14,50.99 2.76,15.01 7.51,19.36 3.16,29.63 -4.34,10.28 -6.72,22.14 -6.32,37.94 0.39,15.81 10.27,28.06 3.55,36.75 -6.72,8.69 -10.66,24.89 -12.25,42.27 -1.58,17.39 -5.14,33.59 -10.67,37.54 -5.53,3.95 -14.62,12.65 -11.45,24.51 3.16,11.85 8.7,18.97 3.95,30.81 -4.74,11.85 -15.02,19.76 -12.65,33.99 2.37,14.23 22.92,4.34 28.06,2.76 5.14,-1.57 19.36,0.8 30.43,7.52 11.06,6.72 52.16,17.38 65.2,18.97 13.04,1.57 24.5,10.66 28.84,22.91 4.35,12.26 9.88,28.84 17.38,27.66 7.51,-1.18 20.55,-14.62 28.06,-21.73 7.51,-7.11 18.97,-0.8 27.66,1.98 8.69,2.76 27.65,5.14 40.7,7.51 13.04,2.37 24.1,-5.53 30.42,-6.72 6.33,-1.18 15.81,10.67 27.66,8.3 11.85,-2.38 65.59,-11.47 77.84,-19.76 12.26,-8.29 22.53,-21.73 32.8,-16.2 10.27,5.54 20.94,18.97 32.41,3.95 11.46,-15.01 44.65,-37.94 53.74,-41.49 9.09,-3.56 42.28,-20.94 52.55,-31.22 10.27,-10.28 21.73,-20.55 32.8,-28.84 11.07,-8.3 17.38,-16.2 26.47,-18.18 9.09,-1.98 39.51,-3.95 49.79,-0.39 10.27,3.55 24.1,6.32 33.59,5.14 9.48,-1.18 33.59,10.27 42.27,10.27 8.7,0 29.64,0.79 20.16,-13.44 -9.48,-14.22 -12.25,-24.88 -5.54,-39.9 6.72,-15.02 10.28,-30.04 19.37,-31.61 9.09,-1.58 37.93,9.88 51.76,5.92 13.83,-3.95 31.62,-9.48 41.1,-7.9 9.48,1.58 45.84,30.81 52.15,36.35 6.33,5.53 23.32,21.34 31.23,18.97 7.9,-2.37 26.07,-7.51 37.53,-3.55 11.46,3.95 21.34,28.45 23.32,41.49 1.98,13.04 0.39,31.22 10.27,39.51 9.88,8.3 22.13,21.74 24.9,25.29 2.76,3.55 13.82,17.78 27.26,16.2 13.43,-1.58 43.07,19.75 51.37,32 8.29,12.26 11.06,24.5 23.31,29.24 12.25,4.74 51.77,26.87 56.51,30.82 4.74,3.95 23.31,13.44 33.98,17.79 10.67,4.35 12.65,19.75 26.08,24.5 13.44,4.74 40.31,3.16 52.55,-2.37 12.25,-5.53 28.45,-6.72 37.14,6.33 8.7,13.04 20.16,51.76 36.36,58.87 16.2,7.11 35.55,9.89 44.25,13.04 8.7,3.16 24.14,5.14 23.34,22.14 -0.79,17 1.98,49.79 -0.79,56.9 -2.77,7.11 0.79,26.87 1.97,40.31 1.19,13.44 -3.55,88.92 -15.01,98.4 -11.46,9.47 -17.38,8.29 -31.61,2.36 -14.23,-5.92 -36.35,1.19 -41.49,-4.35 -5.14,-5.53 -17.79,-5.92 -22.92,6.33 -5.14,12.25 -9.87,33.19 -18.17,44.26 -8.3,11.07 -26.87,31.61 -33.98,41.09 -7.12,9.48 -18.57,27.26 -17.39,45.44 1.19,18.18 -13.83,44.26 -16.99,50.58 -3.16,6.33 -1.18,14.64 -0.39,23.72 0.79,9.09 12.26,25.29 -11.46,43.47 -23.71,18.17 -86.53,35.95 -107.09,52.15 -20.54,16.2 -44.65,22.92 -54.52,18.97 -9.88,-3.95 -10.67,-21.73 -31.61,-24.5 -20.94,-2.76 -65.99,4.35 -87.33,-0.39 -21.34,-4.74 -22.91,-6.72 -53.74,-6.72 -30.82,0 -52.16,-11.06 -68.76,-15.01 -16.6,-3.95 -45.04,-2.77 -51.76,-15.42 -6.72,-12.64 -40.31,-35.55 -50.18,-45.84 -9.88,-10.27 -11.46,-18.56 -20.55,-39.12 -9.09,-20.55 -11.46,-31.62 -19.36,-30.04 -7.9,1.58 -14.62,-3.95 -27.27,5.53 -12.64,9.48 -33.58,43.46 -48.99,52.55 -15.42,9.09 -64.02,13.83 -80.61,5.14 -16.59,-8.7 -88.51,-70.34 -94.83,-75.87 -6.33,-5.53 -14.23,-18.18 -25.29,-10.27 -11.06,7.9 -19.75,28.84 -26.47,34.37 -6.72,5.53 -21.72,13.82 -28.84,11.46 -7.11,-2.37 -23.71,-3.17 -28.84,1.18 -5.14,4.35 -60.45,56.11 -73.1,58.49 -12.65,2.37 -29.24,-5.93 -38.33,0 -9.09,5.92 -22.52,8.29 -21.73,24.89 0.79,16.6 3.95,61.64 8.29,71.13 4.35,9.48 12.64,57.3 12.64,64.02 0,6.72 13.44,30.04 24.51,40.7 11.06,10.66 25.28,25.69 30.42,27.26 5.14,1.58 31.22,-5.14 38.72,0.79 7.52,5.93 11.85,22.14 14.62,41.1 2.77,18.97 4.35,50.58 2.77,62.83 -1.58,12.25 -19.76,57.3 -19.76,69.94 0,12.65 7.52,36.75 19.37,46.63 11.85,9.88 15,28.84 3.95,49.39 -11.06,20.55 -13.83,32.8 -20.94,39.91 -7.11,7.11 -18.18,-1.98 -29.24,5.93 -11.06,7.9 -20.54,17.38 -20.54,28.05 0,10.67 6.71,18.97 1.18,26.87 -5.53,7.91 -13.44,7.91 -15.01,18.57 -1.58,10.67 -13.83,26.88 -20.55,31.62 -6.72,4.73 -13.43,13.82 -14.23,25.28 -0.79,11.46 -1.97,28.06 -8.29,32.41 -6.33,4.35 -11.46,6.33 -13.83,19.75 -2.37,13.44 -7.52,35.17 -13.83,43.86 -6.32,8.7 -22.13,10.67 -26.87,18.57 -4.74,7.9 -13.82,12.64 -11.46,18.57 2.37,5.93 18.97,13.04 9.89,37.94 -9.09,24.89 -9.49,47.03 -13.04,53.34 -3.55,6.33 -4.74,6.72 -5.14,17.79 -0.39,11.06 -3.16,7.9 -12.64,19.36 -9.48,11.46 -11.07,18.57 -5.54,27.65 5.54,9.09 7.12,17 6.72,28.84 -0.39,11.85 4.35,16.2 0.79,28.85 -3.55,12.64 -11.45,25.68 -18.56,26.87 -7.11,1.18 -23.31,16.59 -28.44,24.88 -5.14,8.29 -16.2,21.34 -24.11,12.45 -7.9,-8.89 -80.21,-62.23 -84.95,-81.99 -4.74,-19.76 -16.2,-40.5 -23.12,-57.1 -6.92,-16.6 -42.48,-39.12 -54.53,-41.09 -12.05,-1.98 -27.06,4.15 -38.13,9.88 -11.06,5.73 -39.51,10.47 -53.14,10.27 -13.64,-0.2 -44.26,18.57 -47.42,31.22 -3.16,12.64 -8.49,23.51 -10.47,35.56 -1.98,12.05 -11.46,36.55 -12.65,48.79 -1.19,12.25 -16.6,41.89 -21.73,49.4 -5.14,7.51 -8.7,17 -12.65,27.66 -3.95,10.66 -20.54,21.73 -30.81,34.77 -10.28,13.04 -51.77,73.5 -54.14,88.91 -2.37,15.42 -11.46,37.15 -3.16,41.5 8.29,4.35 16.99,16.59 11.06,29.63 -5.92,13.04 -13.43,19.75 -13.43,37.94 0,18.17 9.09,25.68 -0.8,39.12 -9.88,13.44 -26.87,40.7 -29.63,51.77 -2.76,11.07 -13.04,26.87 -13.04,47.81 0,20.94 16.99,50.58 24.1,58.48 7.11,7.91 32.4,58.09 43.46,61.25 11.06,3.16 44.65,15.41 49.79,32 5.14,16.61 10.66,50.98 3.95,61.65 -6.71,10.66 -16.6,35.16 -15.41,49.39 1.18,14.23 4.35,24.1 7.51,37.14 3.16,13.04 3.95,20.94 3.55,33.6 -0.39,12.64 5.93,28.84 10.67,37.14 4.74,8.3 13.04,28.84 17.79,35.17 4.73,6.33 9.48,15.01 13.04,37.14 3.55,22.14 9.09,39.13 17.38,47.82 8.29,8.69 19.36,18.77 22.53,37.34 3.16,18.57 -0.6,33.6 23.9,39.91 24.51,6.32 42.88,3.93 44.46,12.81 1.58,8.89 -0.79,29.63 10.48,36.35 11.25,6.72 66.98,46.43 80.01,51.77 13.04,5.33 26.67,13.04 30.63,20.35 3.95,7.32 -5.93,12.85 -9.48,19.37 -3.56,6.51 -10.07,22.52 5.33,27.65 15.42,5.14 27.66,20.94 45.05,22.73 17.39,1.78 22.14,2.17 41.5,5.14 19.36,2.96 51.76,9.48 58.08,9.09 6.33,-0.39 16.99,8.1 34.57,8.89 17.59,0.79 33,-13.04 48.4,-20.35 15.42,-7.31 36.56,-16.6 45.84,-7.7 9.29,8.88 53.14,54.33 67.57,45.04 14.42,-9.28 36.75,-30.22 43.66,-46.82 6.93,-16.6 10.28,-28.65 18.97,-30.03 8.7,-1.39 53.55,8.88 62.83,-9.29 9.29,-18.18 30.42,-71.72 27.65,-77.85 -2.76,-6.13 -29.83,-35.56 -30.63,-46.23 -0.79,-10.67 -8.48,-42.74 -12.23,-53.61 -3.76,-10.86 -6.13,-16 2.76,-26.07 8.88,-10.08 23.11,-19.17 23.11,-35.17 0,-16.01 -11.25,-24.7 -6.51,-36.75 4.74,-12.05 20.54,-20.74 27.26,-27.06 6.72,-6.33 13.64,-23.51 13.24,-36.95 -0.39,-13.43 1.19,-32.01 5.54,-44.26 4.35,-12.25 20.55,-33.98 24.89,-48.21 4.35,-14.23 -1.98,-38.33 8.7,-39.51 10.66,-1.19 6.32,15.01 22.91,15.01 16.6,0 30.04,3.95 34.78,-5.92 4.74,-9.89 2.58,-17.53 2.58,-17.53 0,0 -12.28,-10.12 -13.25,-21.19 -0.97,-11.08 -5.31,-23.73 3.97,-34.98 9.29,-11.26 15.41,-17.19 26.47,-19.96 11.07,-2.76 32.6,-3.75 41.68,-18.17 9.09,-14.43 17.58,-35.56 18.18,-54.14 0.59,-18.57 21.34,-40.32 35.17,-49.41 13.83,-9.09 27.26,-28.84 37.54,-30.43 10.27,-1.57 28.06,5.14 30.03,18.57 1.98,13.44 20.16,76.66 27.66,83.38 7.51,6.72 29.63,28.45 35.56,37.94 5.92,9.48 -1.98,12.64 2.37,26.08 4.35,13.43 44.25,84.16 58.87,114.2 14.63,30.03 31.22,92.06 32.41,102.34 1.19,10.28 15.03,26.47 19.77,36.35 4.74,9.88 13.04,29.24 11.45,35.17 -1.57,5.92 0.39,36.75 2.76,48.99 2.37,12.25 3.96,76.66 9.89,82.98 5.92,6.32 43.07,12.64 56.11,35.16 13.04,22.53 32.4,41.89 48.21,44.65 15.81,2.76 50.18,1.18 69.94,3.56 19.75,2.37 40.31,7.5 54.74,-2.38 14.42,-9.88 37.53,-1.77 54.33,0.99 16.8,2.76 28.65,9.68 60.46,3.75 31.81,-5.92 44.45,-18.37 51.96,-33.78 7.51,-15.41 -2.18,-52.55 5.14,-62.04 7.31,-9.48 34.78,-14.42 38.92,-24.3 4.15,-9.88 12.65,-35.16 24.1,-37.15 11.46,-1.98 25.69,-4.35 23.32,-12.25 -2.37,-7.9 -8.3,-15.01 -2.37,-19.36 5.93,-4.35 14.23,-5.53 30.43,-1.58 16.2,3.95 31.61,7.52 46.23,7.52 14.62,0 29.63,-1.98 28.84,8.69 -0.79,10.67 -5.92,17.39 1.19,26.88 7.1,9.48 15.41,17.78 22.52,23.7 7.11,5.93 3.95,20.94 7.51,28.84 3.56,7.91 24.5,27.66 24.1,69.55 -0.39,41.88 -10.66,59.26 -7.11,73.88 3.56,14.62 -0.39,22.14 14.62,21.35 15.02,-0.8 20.94,-7.91 43.87,-1.19 22.91,6.72 64.79,17.78 73.49,25.69 8.7,7.9 25.29,18.18 36.75,-6.72 11.45,-24.9 15.02,-41.11 20.55,-49.8 5.54,-8.7 14.83,-13.83 18.78,-15.42 3.95,-1.57 18.77,0.8 35.76,6.33 16.99,5.53 41.69,-2.37 51.37,-10.28 9.68,-7.9 21.14,-0.79 24.89,7.32 3.76,8.1 14.03,18.97 26.67,18.77 12.65,-0.21 13.04,-4.36 23.12,23.11 10.07,27.47 27.26,53.74 34.37,54.14 7.12,0.39 37.15,8.29 50,-3.75 12.84,-12.05 27.06,-18.97 32.59,-9.48 5.54,9.48 12.45,53.35 23.12,59.08 10.66,5.73 42.48,12.45 59.27,2.96 16.79,-9.48 47.42,-34.97 56.9,-37.34 9.48,-2.37 68.17,-6.92 94.25,-6.33 26.08,0.6 54.72,21.34 84.16,26.08 29.44,4.74 62.64,20.55 74.48,27.07 11.85,6.52 17.98,12.05 10.48,24.5 -7.51,12.45 -6.52,27.47 8.88,35.17 15.42,7.7 34.97,13.83 37.15,20.16 2.17,6.32 6.52,16.01 10.67,43.46 4.15,27.47 12.04,48.21 27.46,54.73 15.42,6.52 59.08,3.56 73.11,8.3 14.03,4.74 28.45,19.56 28.65,33.78 0.2,14.23 0.2,50.39 7.9,65.01 7.71,14.62 43.87,53.54 49.4,65.39 5.54,11.85 15.21,26.08 28.84,35.37 13.64,9.29 17.59,23.51 18.97,33.19 1.39,9.68 9.3,27.66 3.95,33.79 -5.33,6.12 -10.48,18.17 -3.36,29.63 7.12,11.46 7.91,37.34 25.7,44.65 17.78,7.31 27.46,15.8 27.85,27.06 0.39,11.26 -0.79,33.2 3.95,47.63 4.74,14.42 12.64,46.81 26.87,59.46 14.23,12.64 35.95,17.38 56.89,30.81 20.94,13.44 32.8,21.35 50.18,32.01 17.39,10.66 28.06,21.34 42.68,10.27 14.62,-11.07 16.2,-20.94 33.98,-11.85 17.78,9.09 43.47,30.82 63.62,36.75 20.15,5.92 33.98,12.64 57.69,-0.4 23.71,-13.04 28.05,-7.51 45.84,-41.88 17.78,-34.38 31.61,-54.53 47.42,-69.54 15.8,-15.01 59.26,-53.74 63.61,-65.99 4.35,-12.25 11.46,-61.25 20.16,-75.48 8.69,-14.23 18.18,-13.43 32.4,-18.56 14.23,-5.14 24.1,-21.73 56.12,-54.14 32,-32.41 69.94,-52.55 80.6,-63.61 10.67,-11.07 32.01,-30.43 32.01,-37.15 0,-6.72 1.94,-19.09 1.94,-19.09z"/>
 </g>
</svg>
