<?xml version="1.0" encoding="UTF-8"?>
<!DOCTYPE svg PUBLIC "-//W3C//DTD SVG 1.1//EN" "http://www.w3.org/Graphics/SVG/1.1/DTD/svg11.dtd">
<!-- Creator: CorelDRAW 2020 (64-Bit) -->
<svg xmlns="http://www.w3.org/2000/svg" xml:space="preserve" width="39.2419mm" height="48.9183mm" version="1.1" style="shape-rendering:geometricPrecision; text-rendering:geometricPrecision; image-rendering:optimizeQuality; fill-rule:evenodd; clip-rule:evenodd"
viewBox="0 0 1845.85 2301.01"
 xmlns:xlink="http://www.w3.org/1999/xlink"
 xmlns:xodm="http://www.corel.com/coreldraw/odm/2003">
 <defs>
  <style type="text/css">
   <![CDATA[
    .str0 {stroke:#FEFEFE;stroke-width:24.89;stroke-miterlimit:22.9256;stroke-opacity:0.788235}
    .fil0 {fill:#00A859;fill-opacity:0.788235}
   ]]>
  </style>
 </defs>
 <g id="Capa_x0020_1">
  <metadata id="CorelCorpID_0Corel-Layer"/>
  <path id="quindio" class="fil0 str0" d="M517.99 2282.67c5.4,-1.11 9.05,-2.86 11.27,-6.03 2.22,-3.18 6.03,-6.51 6.35,-10.32 0.32,-3.81 -1.75,-10.32 -1.75,-14.76 0,-4.44 1.59,-7.3 4.45,-12.54 2.86,-5.24 9.52,-17.62 11.58,-20.79 2.06,-3.18 1.27,-10.95 5.56,-13.33 4.29,-2.38 10.16,-5.24 15.08,-7.14 4.92,-1.91 11.75,-2.22 14.6,-7.46 2.86,-5.24 -0.32,-17.62 -0.95,-23.65 -0.64,-6.03 -2.86,-11.27 -0.48,-14.44 2.38,-3.17 8.1,-3.65 10.95,-2.86 2.86,0.79 15.08,5.4 19.52,5.4 4.45,0 8.89,2.06 20.47,-0.48 11.59,-2.54 11.9,-0.16 15.4,-5.72 3.49,-5.55 1.43,-15.71 2.38,-22.38 0.95,-6.67 0.95,-13.01 6.03,-16.98 5.08,-3.97 10.95,-8.09 16.82,-8.09 5.87,0 13.81,1.91 16.82,1.43 3.02,-0.48 12.7,-11.9 14.92,-14.28 2.22,-2.38 11.43,-1.43 13.17,-1.75 1.75,-0.32 21.11,-12.06 24.13,-16.66 3.02,-4.6 4.92,-11.43 2.54,-16.19 -2.38,-4.76 -14.6,-16.35 -15.71,-21.11 -1.11,-4.76 0.48,-6.19 3.49,-10.95 3.02,-4.76 8.42,-9.05 7.46,-14.28 -0.95,-5.24 -4.45,-11.27 -7.3,-11.9 -2.86,-0.64 -11.58,0.32 -12.85,-2.86 -1.27,-3.18 -2.86,-6.19 2.38,-8.89 5.24,-2.7 10.31,-3.49 14.92,-8.25 4.6,-4.76 20.47,-21.59 25.87,-29.2 5.4,-7.62 45.7,-67.13 45.7,-67.13 0,0 7.46,-11.75 10.95,-13.49 3.49,-1.75 17.78,-11.59 27.3,-14.13 9.52,-2.54 18.25,-4.44 23.01,-10.31 4.76,-5.88 18.09,-32.7 21.11,-34.76 3.02,-2.06 11.27,-5.08 22.85,-18.25 11.59,-13.17 14.6,-18.57 17.14,-28.25 2.54,-9.68 5.87,-25.87 10.79,-33.01 4.92,-7.14 22.85,-47.76 24.76,-50.94 1.91,-3.18 23.49,-37.61 28.41,-43.01 4.92,-5.4 29.04,-27.62 33.96,-31.11 4.92,-3.49 23.33,-18.73 29.04,-22.22 5.71,-3.49 19.36,-12.7 22.53,-18.73 3.18,-6.03 5.4,-23.97 3.97,-29.52 -1.43,-5.56 -5.24,-26.82 -4.45,-34.92 0.79,-8.09 7.94,-17.77 10.95,-23.49 3.02,-5.71 8.1,-25.55 8.57,-34.44 0.48,-8.89 0.79,-46.97 0.79,-52.84 0,-5.88 0.79,-45.23 2.86,-54.43 2.06,-9.21 8.09,-42.85 8.73,-49.83 0.64,-6.99 -0.95,-37.45 0,-41.26 0.95,-3.81 7.15,-28.88 8.57,-33.8 1.43,-4.92 14.13,-55.54 14.92,-59.19 0.79,-3.65 8.57,-33.8 10.8,-38.88 2.22,-5.08 7.78,-16.35 10,-24.92 2.22,-8.57 9.21,-48.4 10.48,-56.97 1.27,-8.57 1.43,-29.36 3.02,-38.08 1.59,-8.73 8.89,-30.16 11.43,-38.25 2.54,-8.1 8.25,-24.12 13.17,-30.15 4.92,-6.03 21.42,-26.03 29.83,-33.17 8.42,-7.14 16.98,-14.6 24.12,-19.52 7.15,-4.92 36.35,-33.17 43.17,-38.09 6.83,-4.92 39.83,-31.26 44.91,-37.45 5.08,-6.19 6.98,-11.11 9.21,-30.95 2.22,-19.84 1.27,-66.81 1.75,-81.41 0.48,-14.6 3.65,-44.75 6.35,-52.05 2.7,-7.3 10,-23.17 16.35,-28.72 6.35,-5.56 30.47,-32.85 36.5,-37.3 6.03,-4.44 20.31,-15.08 24.44,-17.61 4.13,-2.54 48.08,-39.68 52.37,-42.53 4.29,-2.86 10.95,-3.02 13.18,-9.21 2.22,-6.19 1.27,-13.49 5.56,-21.11 4.28,-7.62 5.55,-11.59 16.34,-17.14 10.79,-5.56 69.35,-16.98 72.52,-18.09 3.18,-1.11 36.19,-8.57 42.37,-10.16 6.19,-1.59 20.8,-2.38 27.79,-4.28 6.99,-1.91 22.85,-4.29 33.8,-11.43 10.95,-7.14 22.54,-15.4 25.55,-22.22 3.02,-6.83 8.73,-34.28 8.41,-46.66 -0.32,-12.38 -3.49,-41.74 -3.49,-48.72 0,-6.98 -2.7,-41.1 -0.32,-56.49 2.38,-15.4 6.19,-28.09 9.05,-35.39 2.86,-7.3 15.08,-43.17 20.32,-52.05 5.24,-8.89 19.84,-25.55 24.91,-31.26 5.08,-5.72 20.47,-20.63 24.44,-25.55 3.97,-4.92 11.75,-8.41 15.24,-11.9 3.49,-3.49 12.54,-12.06 12.38,-20.31 -0.16,-8.26 -2.38,-26.19 -4.13,-28.57 -1.75,-2.38 -5.4,-4.92 -11.9,-6.03 -6.51,-1.11 -20.95,-0.79 -25.87,-0.95 -4.92,-0.16 -13.01,1.27 -16.82,3.65 -3.81,2.38 -23.49,19.2 -27.3,23.17 -3.81,3.97 -15.4,17.46 -18.09,20.79 -2.7,3.33 -14.13,20.32 -16.35,22.7 -2.22,2.38 -9.21,11.74 -13.97,12.86 -4.76,1.11 -25.71,6.98 -31.74,9.05 -6.03,2.06 -19.2,3.33 -23.49,8.25 -4.29,4.92 -12.54,17.3 -17.14,20.63 -4.6,3.33 -14.13,11.59 -20.16,13.17 -6.03,1.59 -21.11,3.65 -27.77,2.7 -6.67,-0.95 -35.86,-2.22 -42.53,-2.22 -6.67,0 -10.47,-3.49 -17.3,-1.27 -6.83,2.22 -14.92,4.44 -19.84,9.05 -4.92,4.6 -18.89,21.9 -22.22,25.07 -3.33,3.18 -9.84,9.37 -14.44,11.59 -4.6,2.22 -11.74,6.19 -17.46,2.38 -5.71,-3.81 -20.79,-18.09 -25.39,-23.01 -4.6,-4.92 -15.39,-15.39 -19.52,-21.42 -4.13,-6.03 -14.13,-21.27 -19.05,-26.19 -4.92,-4.92 -20.63,-18.25 -25.39,-22.06 -4.76,-3.81 -11.74,-9.52 -16.35,-10.32 -4.6,-0.79 -13.33,-0.64 -18.73,-0.79 -5.4,-0.16 -17.93,1.59 -30.94,-2.7 -13.02,-4.29 -42.53,-17.14 -46.02,-18.41 -3.49,-1.27 -16.98,-6.51 -23.49,-5.87 -6.51,0.64 -12.54,3.18 -18.89,3.81 -6.35,0.64 -11.11,2.86 -19.2,0.64 -8.1,-2.22 -16.98,-1.11 -21.9,-3.65 -4.92,-2.54 -7.14,-3.81 -10.95,-7.3 -3.81,-3.49 -0.64,-3.33 -9.36,-5.56 -8.73,-2.22 -8.57,-3.49 -13.33,-4.13 -4.76,-0.64 -7.62,-2.54 -15.08,0.48 -7.46,3.02 -14.92,6.03 -17.93,8.41 -3.02,2.38 -1.27,2.7 -5.88,4.13 -4.6,1.43 -6.83,1.11 -11.9,-0.48 -5.08,-1.59 -7.3,-6.51 -14.29,-9.68 -6.98,-3.17 -7.61,-4.92 -16.19,-5.08 -8.57,-0.16 -13.33,-1.27 -16.03,1.91 -2.7,3.17 -8.73,10.48 -13.49,14.76 -4.76,4.29 -8.09,8.57 -15.08,9.68 -6.98,1.11 -24.12,-3.02 -29.36,-5.56 -5.24,-2.54 -4.13,-6.82 -10.48,-5.71 -6.35,1.11 -8.73,-0.95 -15.39,0 -6.67,0.95 -11.27,0.48 -15.08,0 -3.81,-0.48 -9.69,0.63 -14.6,-1.11 -4.92,-1.75 -6.03,-3.18 -11.27,-5.24 -5.24,-2.06 -2.06,0.16 -6.98,-4.44 -4.92,-4.6 -6.35,-7.3 -9.68,-5.08 -3.33,2.22 -16.03,5.4 -18.41,7.78 -2.38,2.38 -8.73,10.95 -10.47,15.71 -1.75,4.76 -0.64,9.21 -6.35,9.84 -5.71,0.64 -10.63,-2.38 -19.84,-5.08 -9.2,-2.7 -15.08,-1.43 -22.22,-10.95 -7.14,-9.52 -7.14,-14.12 -14.6,-15.71 -7.46,-1.59 -17.3,-10.63 -25.71,-15.71 -8.41,-5.08 -11.75,-6.82 -17.94,-6.82 -6.19,0 -9.21,-3.33 -20,-11.59 -10.79,-8.25 -13.01,-6.67 -17.93,-7.94 -4.92,-1.27 -16.03,-3.18 -19.84,-1.91 -3.81,1.27 -14.6,6.35 -17.3,8.57 -2.7,2.22 -9.53,5.24 -11.75,6.19 -2.22,0.95 -4.76,3.81 -4.76,7.3 0,3.49 3.49,56.02 3.81,59.83 0.32,3.81 6.51,44.12 6.51,49.35 0,5.24 7.62,43.01 8.41,47.77 0.79,4.76 3.02,25.08 2.54,29.36 -0.48,4.29 0.16,7.46 -2.7,10.31 -2.86,2.86 -15.87,10.64 -39.2,7.94 -23.33,-2.7 -44.43,-7.14 -51.73,-8.73 -7.3,-1.59 -14.76,-3.97 -22.85,-3.49 -8.1,0.48 -23.96,3.33 -29.36,6.82 -5.4,3.49 -16.82,11.11 -22.69,12.22 -5.87,1.11 -19.36,4.29 -34.44,-2.7 -15.08,-6.99 -38.56,-16.83 -49.04,-19.68 -10.48,-2.86 -26.66,-6.19 -32.53,-5.24 -5.87,0.95 -23.17,4.44 -31.58,5.87 -8.41,1.43 -22.54,7.14 -37.29,0.95 -14.76,-6.19 -20.95,-11.43 -25.39,-13.02 -4.45,-1.59 -10.32,-2.54 -17.46,-3.97 -7.14,-1.43 -8.73,-5.4 -13.97,-5.4 -5.24,0 -6.51,1.75 -8.57,6.99 -2.06,5.24 -14.44,31.42 -17.78,37.61 -3.33,6.19 -12.69,15.87 -18.72,21.11 -6.03,5.24 -23.01,16.66 -29.84,20.16 -6.83,3.49 -14.92,7.46 -16.82,10.95 -1.91,3.49 -3.81,7.62 -4.29,17.78 -0.48,10.16 -1.43,13.97 -4.45,16.19 -3.02,2.22 -7.3,11.91 -10.47,17.3 -3.18,5.4 -6.99,11.74 -11.59,16.19 -4.6,4.45 -4.29,10.64 -13.33,13.49 -9.05,2.86 -21.11,2.38 -21.43,11.11 -0.32,8.73 -4.92,15.08 0.79,21.27 5.72,6.19 14.92,12.06 15.55,18.09 0.64,6.03 -0.48,4.6 0.79,11.59 1.27,6.99 2.38,3.81 3.18,8.89 0.79,5.08 2.38,10.16 -3.02,11.59 -5.4,1.43 -19.52,7.3 -25.87,14.29 -6.35,6.98 -9.69,5.87 -10.64,17.93 -0.95,12.06 -0.64,11.11 3.18,16.51 3.81,5.4 8.57,5.56 10.47,10.79 1.91,5.24 0.48,7.94 4.76,7.94 4.28,0 8.73,-0.48 7.78,4.29 -0.95,4.76 -3.65,12.06 -4.76,16.35 -1.11,4.28 0.32,8.09 -3.33,10.63 -3.65,2.54 -5.4,-0.32 -7.62,4.45 -2.22,4.76 -2.22,6.67 -3.81,10.79 -1.59,4.13 -0.64,3.97 -6.03,6.51 -5.4,2.54 -13.33,5.72 -12.86,9.68 0.48,3.97 -5.24,11.27 -3.17,13.65 2.06,2.38 11.27,3.01 13.65,6.66 2.38,3.65 7.46,4.76 6.51,10.8 -0.95,6.03 -0.79,12.38 -4.92,13.49 -4.13,1.11 -10.47,-2.06 -13.65,1.59 -3.18,3.65 -9.84,6.82 -11.9,15.55 -2.06,8.73 -3.65,18.89 -2.38,24.44 1.27,5.56 -3.18,9.36 0,11.43 3.17,2.06 5.24,5.55 10.32,7.3 5.08,1.75 11.42,1.11 12.38,3.17 0.95,2.06 2.38,2.7 1.11,8.73 -1.27,6.03 -2.06,4.92 1.43,10 3.49,5.08 3.65,5.24 3.97,13.81 0.32,8.57 -2.06,12.06 -2.38,16.66 -0.32,4.6 0.16,21.11 -1.59,29.36 -1.75,8.25 -2.38,14.44 -5.08,20.15 -2.7,5.72 -0.95,8.41 -2.86,14.76 -1.91,6.35 -2.38,12.86 -5.4,18.41 -3.01,5.56 -6.66,3.49 -6.03,7.62 0.63,4.13 -0.32,7.3 7.14,12.06 7.46,4.76 11.74,-0.48 13.81,4.92 2.06,5.4 3.81,15.71 1.11,20.31 -2.7,4.6 -1.75,9.05 -3.02,12.06 -1.27,3.02 -3.65,3.97 -8.89,3.97 -5.24,0 -13.97,4.6 -16.35,8.41 -2.38,3.81 -5.08,6.99 0.64,8.57 5.71,1.59 7.62,-0.32 7.14,3.65 -0.48,3.97 -2.54,5.08 -1.43,10.48 1.11,5.39 4.45,7.77 8.57,11.42 4.13,3.65 9.84,5.4 12.86,8.57 3.02,3.18 8.09,10.79 13.65,8.73 5.56,-2.06 5.4,3.18 -5.55,6.83 -10.95,3.65 -23.02,8.89 -28.09,10.16 -5.08,1.27 -9.84,1.98 -12.22,4.6 -2.38,2.62 -4.92,6.51 -5,9.29 -0.08,2.78 -0.95,7.46 -1.98,10.16 -1.03,2.7 -5.16,3.65 -7.14,4.92 -1.98,1.27 -7.22,6.51 -8.65,12.3 -1.43,5.79 -2.22,16.11 -1.83,19.76 0.4,3.65 1.35,6.51 -0.24,9.29 -1.59,2.78 -2.3,6.67 -6.19,7.7 -3.89,1.03 -7.54,3.18 -8.57,0.71 -1.03,-2.46 -3.09,-8.33 -5.71,-5.56 -2.62,2.78 -5.95,5.56 -4.13,10.32 1.83,4.76 6.67,8.65 8.49,10.4 1.83,1.75 1.83,4.84 -1.35,7.3 -3.18,2.46 -5.88,5.24 -5.95,8.25 -0.08,3.02 2.94,5.4 5.16,5.88 2.22,0.48 6.99,2.54 9.29,4.28 2.3,1.75 6.03,5.24 8.41,6.59 2.38,1.35 5,5.08 11.19,3.65 6.19,-1.43 7.38,-3.33 11.35,-2.06 3.97,1.27 8.89,6.03 14.44,5.79 5.56,-0.24 18.89,-0.63 24.2,-0.32 5.32,0.32 11.82,-1.35 16.66,-2.94 4.84,-1.59 11.43,-3.26 14.6,-5.32 3.18,-2.06 5.56,-5.56 11.19,-4.53 5.63,1.03 11.35,5.87 13.97,9.05 2.62,3.18 19.68,18.33 25.71,22.46 6.03,4.13 20.39,12.94 31.34,13.17 10.95,0.24 17.22,0.71 23.89,-7.38 6.67,-8.09 7.54,-11.43 9.84,-11.35 2.3,0.08 6.9,3.49 10.08,9.76 3.18,6.27 4.14,9.69 7.32,13.5 3.18,3.81 6.35,6.67 10.32,8.41 3.97,1.75 9.52,4.29 15.71,3.81 6.19,-0.48 13.81,-2.7 23.17,1.27 9.36,3.97 16.98,7.3 20.31,12.38 3.33,5.08 5.5,10.71 4.29,13.02 -1.21,2.3 -3.48,3.89 -4.27,6.95 -0.79,3.05 -1.35,5.24 -0.75,9.05 0.59,3.81 -0.52,8.97 -0.36,12.34 0.16,3.37 1.15,15.43 0.44,17.42 -0.71,1.98 -2.74,3.85 -1.19,7.34 1.55,3.49 5.16,3.37 5.99,6.55 0.83,3.18 -0.79,11.7 0.32,14.32 1.11,2.62 6.79,11.43 9.88,12.65 3.1,1.23 10.39,0.79 12.46,3.53 2.06,2.74 11.19,15.04 11.59,17.81 0.4,2.78 0.83,8.09 0.67,10.71 -0.16,2.62 0.32,4.92 3.41,7.46 3.1,2.54 4.96,2.97 6.59,6.11 1.62,3.13 0.16,6.99 -1.19,9.48 -1.35,2.5 -8.22,12.14 -8.34,15.47 -0.12,3.33 -0.43,14.16 -0.2,16.59 0.24,2.42 0.52,12.18 1.31,14.68 0.79,2.5 3.77,9.21 2.02,14.16 -1.75,4.96 -10.91,16.7 -11.15,24 -0.24,7.3 1.75,17.22 0.95,20.71 -0.79,3.49 -1.27,3.41 -2.94,10.79 -1.67,7.38 -3.1,6.75 -1.19,11.75 1.91,5 3.65,9.76 4.45,15.87 0.79,6.11 2.94,12.62 5.56,14.84 2.62,2.22 8.89,4.13 10.59,5.88 1.71,1.74 3.73,7.3 3.65,10.35 -0.08,3.05 2.94,10.95 4.21,12.18 1.27,1.23 4.81,6.35 4.25,9.29 -0.56,2.94 -4.72,13.81 -5.4,15.67 -0.68,1.86 -6.15,10.6 -7.93,12.26 -1.79,1.67 -2.82,0.87 -3.61,3.85 -0.79,2.98 -3.02,12.58 -4.13,15.75 -1.11,3.17 -12.33,23.17 -11.94,26.58 0.4,3.41 -2.22,12.78 -3.09,17.7 -0.87,4.92 -1.11,7.46 -2.54,11.11 -1.43,3.65 -11.75,11.82 -14.84,13.33 -3.1,1.51 -17.93,12.94 -18.57,16.51 -0.64,3.57 -2.22,16.19 -2.06,20.31 0.16,4.13 -3.33,16.03 -5.48,19.84 -2.14,3.81 -11.9,11.35 -12.78,14.68 -0.87,3.33 -7.62,16.03 -11.66,21.19 -4.05,5.16 -24.12,31.98 -25.63,35.07 -1.51,3.1 -7.3,15 -10.08,18.17 -2.78,3.18 -7.54,9.76 -7.3,13.41 0.24,3.65 1.19,9.84 0.4,18.33 -0.79,8.49 -1.03,20.07 -0.95,21.58 0.08,1.51 1.83,11.43 2.62,17.38 0.79,5.95 4.6,23.65 5.56,26.98 0.95,3.33 2.94,10.87 1.83,16.9 -1.11,6.03 -5.95,19.76 -9.44,23.41 -3.49,3.65 -15,18.41 -16.74,23.49 -1.75,5.08 -0.4,14.05 -5.32,24.44 -4.92,10.39 -7.62,20.55 -10.16,23.88 -2.54,3.33 -10.4,5.87 -11.9,9.13 -1.51,3.26 -2.7,10.08 -4.21,14.05 -1.51,3.97 -5.08,6.82 -4.05,13.89 1.03,7.06 5.95,17.22 6.43,19.52 0.48,2.3 0.79,5.48 -0.64,8.89 -1.43,3.41 -3.65,6.43 -2.86,8.73 0.79,2.3 3.18,9.2 4.45,12.46 1.27,3.26 7.94,6.82 3.57,17.14 -4.37,10.32 -6.35,8.89 -5.16,16.43 1.19,7.54 2.46,12.7 6.59,15.56 4.13,2.86 10.95,10.31 12.94,13.25 1.98,2.94 5,3.01 7.38,5.24 2.38,2.22 6.03,3.73 5.56,11.59 -0.48,7.86 -3.02,15.79 -4.92,17.14 -1.91,1.35 -3.41,1.98 -5.32,7.46 -1.91,5.48 -4.29,9.45 -4.13,17.3 0.16,7.86 1.51,11.5 7.54,11.74 6.03,0.24 30.39,1.27 33.96,2.38 3.57,1.11 8.97,2.14 12.86,0.95 3.89,-1.19 10.95,-7.15 15.79,-6.35 4.84,0.79 17.46,10.24 20.47,11.43 3.02,1.19 28.33,5.32 35.23,5.08 6.91,-0.24 33.49,-0.87 41.26,-1.67 7.78,-0.79 23.88,-3.41 28.57,-3.57 4.68,-0.16 15,-2.54 16.74,4.29 1.75,6.82 6.67,21.74 7.54,24.2 0.87,2.46 2.54,5 1.27,8.01 -1.27,3.02 -10.32,16.19 -11.19,18.57 -0.87,2.38 -3.02,5.87 -1.43,8.65 1.59,2.78 0.56,5.08 3.97,6.19 3.41,1.11 13.73,1.75 21.03,0.08 7.3,-1.67 38.72,-1.51 42.61,-2.22 3.89,-0.71 23.97,-2.66 23.97,-2.66z"/>
 </g>
</svg>
