<?xml version="1.0" encoding="UTF-8"?>
<!DOCTYPE svg PUBLIC "-//W3C//DTD SVG 1.1//EN" "http://www.w3.org/Graphics/SVG/1.1/DTD/svg11.dtd">
<!-- Creator: CorelDRAW 2020 (64-Bit) -->
<svg xmlns="http://www.w3.org/2000/svg" xml:space="preserve" width="127.893mm" height="202.39mm" version="1.1" style="shape-rendering:geometricPrecision; text-rendering:geometricPrecision; image-rendering:optimizeQuality; fill-rule:evenodd; clip-rule:evenodd"
viewBox="0 0 11921.97 18866.41"
 xmlns:xlink="http://www.w3.org/1999/xlink"
 xmlns:xodm="http://www.corel.com/coreldraw/odm/2003">
 <defs>
  <style type="text/css">
   <![CDATA[
    .str0 {stroke:#FEFEFE;stroke-width:49.33;stroke-miterlimit:22.9256;stroke-opacity:0.788235}
    .fil1 {fill:#FDB92E;fill-opacity:0.788235}
    .fil0 {fill:#80384F;fill-opacity:0.788235}
    .fil3 {fill:#28744B;fill-opacity:0.788235}
    .fil2 {fill:#00A859;fill-opacity:0.788235}
   ]]>
  </style>
 </defs>
 <g id="Capa_x0020_1">
  <metadata id="CorelCorpID_0Corel-Layer"/>
  <g id="_1694983826800">
   <path id="tolima" class="fil0" d="M2968.3 18866.41c-23.62,-11.49 -58.1,-25.54 -80.46,-47.89 -22.34,-22.35 -35.12,-24.27 -67.04,-64.5 -31.93,-40.22 -27.45,-49.81 -48.53,-52.36 -21.07,-2.55 -31.93,-4.47 -43.42,5.11 -11.49,9.58 9.58,28.11 -18.51,16.6 -28.11,-11.49 -38.31,-19.79 -43.42,-30.65 -5.11,-10.85 -25.54,10.85 -33.85,-26.82 -8.31,-37.67 10.22,-47.89 -14.68,-55.55 -24.91,-7.66 -27.46,1.28 -70.24,-19.16 -42.79,-20.43 -30.01,41.51 -40.87,-3.2 -10.86,-44.7 14.04,-44.05 -19.16,-43.42 -33.2,0.64 -40.22,-5.74 -61.93,-0.63 -21.72,5.11 -30.66,0.63 -45.34,15.96 -14.68,15.33 -8.95,28.74 -26.18,15.97 -17.24,-12.77 -35.12,-52.36 -37.03,-67.69 -1.92,-15.33 5.73,-23.63 -17.25,-47.25 -22.99,-23.63 7.02,-17.24 -32.56,-41.51 -39.59,-24.26 -31.28,-11.49 -56.19,-33.84 -24.91,-22.35 -40.24,-26.19 -45.98,-46.63 -5.74,-20.43 -11.49,-15.97 -12.77,-54.28 -1.28,-38.3 18.52,-34.48 -1.28,-71.51 -19.79,-37.04 -10.86,-60.67 -33.2,-65.77 -22.34,-5.11 1.92,3.18 -42.77,-14.7 -44.7,-17.88 -79.18,-21.72 -120.05,-56.2 -40.88,-34.47 -24.27,-48.52 -63.86,-71.51 -39.59,-22.99 -26.81,5.1 -68.95,-35.76 -42.14,-40.87 -72.79,-14.06 -65.13,-44.7 7.66,-30.65 37.03,-8.94 26.81,-43.42 -10.21,-34.48 8.3,-26.82 -10.23,-44.38 -18.51,-17.56 -14.05,-1.28 -19.16,-30.97 -5.11,-29.69 -6.38,-52.68 -19.15,-51.73 -12.77,0.96 -2.89,9.57 -33.86,3.2 -30.96,-6.39 -50.11,-12.14 -74.38,-18.84 -24.27,-6.7 -34.48,-4.47 -46.94,-16.28 -12.45,-11.82 -26.18,-2.88 -20.43,-23.31 5.74,-20.43 4.15,0 12.13,-30.97 7.99,-30.97 18.51,-31.61 12.77,-54.91 -5.74,-23.3 -4.47,-20.12 -12.77,-46.29 -8.31,-26.18 -2.23,-36.72 -22.03,-60.35 -19.8,-23.62 -10.22,-24.59 -37.35,-47.89 -27.15,-23.3 -42.15,-45.01 -63.22,-50.13 -21.08,-5.11 -11.81,-2.86 -48.21,-6.38 -36.39,-3.51 -39.27,7.99 -50.44,-15.97 -11.18,-23.95 -17.25,-18.84 -9.26,-34.48 7.98,-15.64 3.5,-12.77 24.26,-22.99 20.76,-10.22 80.47,-30.01 101.22,-38.95 20.75,-8.94 45.65,-0.64 60.66,-16.29 15.01,-15.65 35.12,-22.99 33.85,-41.51 -1.28,-18.51 -10.53,-27.14 -9.57,-52.68 0.95,-25.54 13.72,-7.98 14.04,-33.52 0.32,-25.54 8.31,-16.92 -3.82,-31.93 -12.14,-15.01 -21.39,-51.08 -34.16,-57.15 -12.77,-6.06 -36.08,-1.92 -37.04,-17.56 -0.95,-15.64 -7.66,-8.61 4.79,-27.77 12.45,-19.17 28.1,-7.66 23.31,-39.27 -4.79,-31.61 3.83,-33.84 -16.29,-48.85 -20.12,-15.01 -41.51,-8.31 -50.45,-28.74 -8.94,-20.43 -15.64,-5.43 -11.81,-41.5 3.83,-36.08 11.49,-31.29 8.94,-58.44 -2.55,-27.15 -12.13,-20.43 -0.32,-44.06 11.81,-23.62 5.43,-22.34 28.73,-26.49 23.3,-4.16 19.8,-9.9 45.98,1.27 26.18,11.18 40.23,27.46 60.67,23.95 20.43,-3.5 28.1,3.51 46.61,-15.64 18.52,-19.16 30.03,-27.47 40.24,-46.63 10.22,-19.16 30.66,-47.89 25.87,-68.96 -4.79,-21.08 -20.44,-17.25 -24.91,-52.68 -4.47,-35.44 -9.25,-22.67 0.64,-45.66 9.89,-22.99 29.69,-32.24 37.99,-44.05 8.31,-11.82 33.85,-37.36 52.04,-43.1 18.2,-5.75 34.16,-10.54 28.41,-29.37 -5.74,-18.84 -13.72,-38 -28.73,-59.71 -15.01,-21.71 -28.41,-2.55 -31.93,-41.18 -3.51,-38.64 -21.39,-50.77 -13.73,-83.01 7.66,-32.24 47.25,-48.85 50.77,-69.61 3.5,-20.75 -0.96,-20.12 10.53,-37.35 11.49,-17.24 21.08,-17.24 14.05,-32.56 -7.02,-15.33 -18.83,-21.08 -20.43,-41.19 -1.59,-20.12 -9.26,-46.29 -17.24,-60.02 -7.99,-13.72 -40.88,-28.41 -56.84,-56.51 -15.96,-28.1 -25.87,1.92 -15.01,-34.16 10.86,-36.08 14.05,-31.93 10.22,-56.19 -3.83,-24.26 -4.17,-29.06 -13.58,-43.1 -9.42,-14.06 -6.23,-4.47 -20.92,-20.75 -14.68,-16.29 -37.35,-26.5 -15.01,-38.64 22.34,-12.13 22.35,-10.86 42.14,-24.91 19.79,-14.04 36.39,-17.24 40.22,-37.03 3.83,-19.8 -7.67,-22.99 0.63,-43.42 8.31,-20.43 7.83,-25.23 29.21,-34.65 21.39,-9.42 32.57,-1.92 49.33,-12.29 16.76,-10.38 38,-34.8 38.8,-49.65 0.79,-14.85 8.3,-30.65 -5.11,-38 -13.41,-7.35 -22.51,3.83 -48.86,-15.01 -26.34,-18.83 -27.29,-55.87 -25.38,-72.63 1.92,-16.77 24.89,-38.15 19.78,-89.55 -5.1,-51.4 -19.15,-63.85 -9.89,-96.42 9.26,-32.57 25.22,-52.04 26.18,-85.89 0.96,-33.84 19.16,-13.73 39.27,-45.01 20.12,-31.29 21.72,-13.75 25.86,-47.28 4.15,-33.52 28.75,-33.52 30.33,-74.07 1.59,-40.55 -33.52,-61.62 -25.86,-90.03 7.66,-28.42 11.18,-36.4 39.91,-75.99 28.74,-39.59 48.85,-43.74 78.86,-88.44 30.02,-44.7 42.46,-33.52 38,-50.12 -4.47,-16.6 -28.11,-33.85 -4.16,-58.75 23.96,-24.91 28.73,-8.62 39.27,-45.34 10.54,-36.71 22.35,-55.56 37.04,-87.8 14.69,-32.24 39.27,-34.79 38.96,-58.42 -0.32,-23.63 -33.85,-50.12 -26.18,-80.46 7.66,-30.33 47.57,-51.08 28.73,-98.02 -18.84,-46.94 -48.85,-62.9 -54.6,-100.26 -5.75,-37.35 -9.58,-42.79 -0.64,-57.15 8.95,-14.36 30.01,-4.78 30.98,-38.3 0.96,-33.53 10.22,-36.73 -2.88,-61.63 -13.09,-24.9 -31.6,-34.48 -23.62,-62.26 7.98,-27.77 6.39,-46.29 22.04,-49.16 15.64,-2.87 46.29,16.93 59.38,6.07 13.09,-10.86 23.94,-10.85 22.34,-38.63 -1.59,-27.78 -4.47,-37.04 3.84,-48.21 8.3,-11.18 11.17,-15.97 42.14,-27.14 30.97,-11.18 75.99,-5.11 92.58,-47.57 16.6,-42.47 15.65,-72.48 5.75,-95.15 -9.9,-22.67 -29.06,-41.18 -30.98,-73.75 -1.91,-32.57 -17.88,-24.91 -8.62,-58.75 9.27,-33.85 10.22,-42.46 30.33,-55.55 20.12,-13.1 57.48,-12.46 63.54,-39.92 6.07,-27.45 -3.51,-27.77 6.07,-51.08 9.58,-23.3 18.2,-27.45 36.39,-44.05 18.21,-16.61 7.66,-0.64 40.88,-21.72 33.2,-21.07 30.96,0.33 58.42,-28.09 27.46,-28.41 39.59,-23.63 41.83,-57.8 2.24,-34.16 7.35,-26.49 16.92,-57.79 9.58,-31.28 15.64,-39.27 21.71,-66.08 6.07,-26.82 10.22,-36.73 22.67,-58.44 12.45,-21.7 30.32,-22.34 34.8,-55.23 4.47,-32.88 -7.66,-30.96 4.47,-58.74 12.13,-27.78 -6.07,-0.97 26.18,-32.89 32.25,-31.93 32.89,-47.9 28.41,-57.47 -4.47,-9.58 -7.02,-10.23 1.92,-19.8 8.94,-9.57 14.68,-11.17 24.9,-12.13 10.22,-0.96 29.37,5.11 44.06,-12.45 14.69,-17.56 4.79,-5.43 14.69,-17.56 9.89,-12.14 34.16,-4.79 45.01,-23.3 10.86,-18.52 52.36,-88.13 55.23,-119.1 2.88,-30.96 5.43,-42.13 22.35,-53.95 16.92,-11.82 39.59,-2.55 40.55,-19.8 0.95,-17.25 -0.01,-18.2 -11.5,-37.67 -11.49,-19.48 -23.3,-30.98 -24.58,-64.18 -1.27,-33.2 -7.35,-60.67 7.98,-82.05 15.33,-21.39 59.07,-57.47 72.16,-73.12 13.09,-15.64 59.71,-86.83 67.05,-94.18 7.35,-7.35 24.26,-39.6 36.71,-22.99 12.45,16.6 16.6,59.38 37.04,51.08 20.43,-8.31 40.23,-24.91 45.01,-46.62 4.79,-21.71 8.31,-35.76 25.22,-56.51 16.93,-20.75 53.96,-68.33 53.96,-107.59 0,-39.27 -0.32,-30.65 2.24,-58.11 2.55,-27.45 -0.97,-33.51 8.93,-57.47 9.9,-23.95 21.39,-20.12 36.08,-39.91 14.68,-19.79 61.62,-66.09 56.19,-115.25 -5.43,-49.17 -1.92,-49.82 -11.49,-63.86 -9.58,-14.04 -18.2,-20.11 -12.45,-51.07 5.75,-30.98 5.75,-47.9 10.54,-64.18 4.78,-16.28 11.8,-33.84 21.7,-38.63 9.9,-4.79 23.3,-6.7 37.68,4.15 14.36,10.86 28.1,35.44 40.55,27.78 12.44,-7.66 43.75,-55.87 45.66,-67.36 1.91,-11.5 7.34,-25.22 17.24,-36.08 9.9,-10.85 55.23,-42.14 64.17,-53.64 8.94,-11.49 40.55,-38.95 53.96,-58.42 13.4,-19.48 15.64,-21.71 28.73,-39.59 13.09,-17.88 21.7,-20.43 32.56,-38.64 10.86,-18.2 21.39,-19.79 15.01,-38 -6.39,-18.2 -46.61,-40.23 -58.42,-54.27 -11.82,-14.05 -33.53,-42.14 -32.25,-61.62 1.28,-19.48 2.87,-48.21 9.58,-69.61 6.7,-21.38 10.22,-34.16 16.92,-45.98 6.7,-11.81 13.73,-35.76 45.01,-49.81 31.29,-14.05 46.94,-9.26 53,-23.95 6.07,-14.68 -0.63,-26.81 1.28,-47.57 1.91,-20.75 -3.52,-20.43 1.91,-22.99 5.43,-2.55 13.74,-8.94 26.18,-1.91 12.44,7.02 14.68,14.04 30.65,10.85 15.97,-3.19 35.12,4.47 36.39,-11.81 1.28,-16.29 1.28,-37.04 6.71,-53.64 5.43,-16.6 8.93,-25.22 19.47,-30.33 10.53,-5.11 35.76,-1.29 57.79,-15.33 22.03,-14.05 35.44,-15.96 52.36,-28.1 16.92,-12.14 34.48,-20.75 34.8,-38 0.33,-17.25 -3.18,-25.22 -1.59,-47.57 1.59,-22.35 -4.15,-24.26 4.15,-41.83 8.31,-17.56 10.23,-14.68 8.63,-32.56 -1.6,-17.88 -6.08,-22.03 3.5,-39.27 9.58,-17.25 41.18,-41.18 52.36,-55.23 11.18,-14.06 33.2,-42.14 40.87,-49.81 7.66,-7.66 40.55,-24.26 45.01,-41.83 4.47,-17.56 4.79,-37.04 17.88,-52.04 13.1,-15.01 44.38,-23.62 60.35,-41.5 15.96,-17.88 26.18,-55.87 21.07,-67.69 -5.11,-11.82 -38,-23.3 -38.96,-35.44 -0.95,-12.14 10.86,-27.78 21.4,-37.04 10.53,-9.27 87.48,-18.21 121,-71.84 33.52,-53.63 54.6,-74.06 51.73,-92.58 -2.87,-18.51 -6.71,-27.78 0,-42.46 6.7,-14.68 24.26,-15.64 37.35,-32.57 13.1,-16.92 16.93,-37.35 26.18,-53.64 9.26,-16.28 17.87,-22.34 37.99,-29.05 20.12,-6.71 43.1,-3.83 58.76,-16.29 15.64,-12.45 34.8,-18.84 42.78,-35.44 7.98,-16.6 7.66,-16.91 1.28,-27.77 -6.39,-10.86 -31.93,-16.93 -28.73,-55.56 3.19,-38.64 22.34,-73.75 26.18,-94.5 3.83,-20.75 7.98,-34.16 11.18,-58.75 3.19,-24.58 6.7,-28.42 4.78,-47.25 -1.91,-18.84 -19.79,-52.36 -18.2,-68.33 1.6,-15.96 26.82,-47.89 29.06,-63.21 2.24,-15.33 3.83,-24.91 0.32,-40.55 -3.5,-15.64 0.32,-23 5.43,-45.66 5.11,-22.66 16.61,-30.97 19.48,-53.95 2.87,-22.99 2.86,-42.79 8.61,-68.96 5.75,-26.18 29.38,-52.36 38,-91.63 8.62,-39.27 19.16,-84.93 19.47,-108.55 0.33,-23.63 1.93,-44.37 -1.91,-66.73 -3.83,-22.35 -10.22,-64.81 -1.91,-80.77 8.3,-15.97 31.27,-87.17 27.14,-110.79 -4.15,-23.63 -4.15,-28.42 3.2,-41.19 7.34,-12.77 35.75,-23.3 45.33,-39.91 9.58,-16.59 22.03,-41.18 37.68,-54.27 15.64,-13.09 33.51,-14.68 52.99,-24.58 19.48,-9.9 52.67,-47.89 73.75,-82.69 21.08,-34.81 40.55,-45.66 58.1,-57.47 17.56,-11.82 61.63,-25.87 61.94,-55.87 0.32,-30.01 -13.4,-57.79 -10.22,-79.18 3.19,-21.39 27.78,-73.12 28.74,-95.46 0.95,-22.34 -16.29,-53.64 -9.9,-71.52 6.38,-17.88 41.51,-68.96 48.53,-77.26 7.02,-8.31 42.46,-44.37 55.55,-48.21 13.09,-3.83 47.57,-23.94 57.15,-36.39 9.58,-12.45 44.37,-58.11 52.68,-66.42 8.31,-8.3 44.38,-47.57 62.26,-52.68 17.88,-5.11 44.38,-22.03 50.13,-34.48 5.74,-12.44 20.42,-50.76 40.54,-61.93 20.12,-11.18 190.93,-26.83 190.93,-26.83 0,0 44.38,-1.27 47.57,-9.89 3.19,-8.62 3.19,-9.9 3.19,-9.9 0,0 6.71,-17.56 16.61,-22.34 9.9,-4.79 58.09,-47.58 63.84,-66.09 5.75,-18.51 6.08,-66.41 -0.95,-82.69 -7.03,-16.29 -25.86,-76.3 -27.14,-91.63 -1.28,-15.33 -1.6,-58.43 4.47,-71.52 6.07,-13.09 17.88,-55.23 27.46,-75.98 9.57,-20.76 71.2,-69.61 80.46,-86.21 9.26,-16.59 36.39,-70.88 52.99,-80.14 16.61,-9.26 49.49,-17.24 58.75,-30.97 9.26,-13.73 21.08,-36.72 14.69,-54.6 -6.39,-17.88 -33.85,-47.24 -14.05,-74.39 19.79,-27.14 52.03,-45.66 49.81,-66.09 -2.24,-20.42 -14.68,-20.11 -21.71,-37.35 -7.03,-17.25 -7.34,-25.54 -18.84,-44.7 -11.49,-19.15 -15.65,-31.61 -8.94,-48.21 6.7,-16.6 28.74,-56.19 39.92,-83.64 11.17,-27.45 17.24,-36.08 16.92,-66.41 -0.33,-30.33 3.2,-49.49 3.83,-69.28 0.63,-19.8 14.36,-93.23 18.2,-111.75 3.83,-18.51 15.33,-40.87 25.22,-61.62 9.9,-20.76 46.94,-64.17 55.88,-74.07 8.93,-9.9 47.24,-66.73 50.76,-81.73 3.51,-15.01 11.5,-38.96 18.52,-45.02 7.02,-6.06 60.98,-17.24 75.67,-39.91 14.68,-22.67 51.41,-51.07 67.37,-65.45 15.96,-14.36 50.12,-72.15 52.36,-96.73 2.24,-24.59 21.39,-100.57 15.33,-113.99 -6.07,-13.4 -11.49,-17.55 -41.5,-34.16 -30.02,-16.6 -79.18,-53.95 -88.76,-79.81 -9.58,-25.87 -42.46,-127.39 -51.4,-136.97 -8.95,-9.57 -30.33,-39.91 -30.33,-73.11 0,-33.2 -5.43,-94.82 -5.75,-109.51 -0.32,-14.69 -1.91,-50.45 8.94,-61.63 10.85,-11.17 82.05,-24.26 93.87,-45.01 11.81,-20.75 23.94,-55.23 38.31,-75.98 14.36,-20.75 45.66,-59.71 51.08,-77.59 5.43,-17.88 5.74,-27.46 10.53,-52.04 4.79,-24.58 11.81,-62.25 14.36,-89.39 2.55,-27.15 10.22,-20.76 9.9,-45.98 -0.32,-25.22 -8.94,-49.48 -20.75,-61.29 -11.81,-11.82 -36.73,-55.24 -56.52,-58.76 -19.79,-3.5 -34.16,8.94 -51.4,-10.22 -17.24,-19.15 -31.94,-34.16 -41.83,-48.85 -9.89,-14.68 -19.81,2.24 -16.61,-36.08 3.2,-38.31 16.59,-55.55 20.43,-78.54 3.83,-22.99 -11.49,-46.62 -0.64,-62.58 10.86,-15.97 132.17,-132.17 157.72,-151.34 25.55,-19.16 86.84,-70.87 97.06,-90.67 10.22,-19.79 51.72,-57.47 68.33,-76.63 16.6,-19.16 36.4,-52.36 58.11,-58.1 21.7,-5.75 35.11,-19.17 104.07,11.48 68.97,30.66 155.17,86.21 195.39,73.44 40.23,-12.77 38.95,-19.79 63.85,-35.76 24.91,-15.96 68.97,0 89.41,-26.18 20.42,-26.18 37.67,-42.79 52.99,-83.65 15.33,-40.87 32.56,-53.63 50.44,-67.69 17.88,-14.05 38.31,-17.88 77.9,-29.37 39.59,-11.49 50.44,-23.62 76.63,-33.2 26.18,-9.57 87.49,-12.14 105.36,-8.31 17.87,3.84 47.89,6.39 66.4,22.35 18.52,15.96 50.45,42.79 68.33,48.53 17.88,5.75 33.2,13.41 56.83,5.75 23.63,-7.66 43.42,-1.28 61.3,-10.22 17.88,-8.95 36.4,-8.31 37.68,-31.29 1.28,-22.99 -13.41,-34.47 -7.03,-58.1 6.39,-23.63 10.22,-42.78 25.54,-56.84 15.33,-14.05 25.54,-35.76 30.65,-58.75 5.11,-22.99 14.69,-45.98 29.37,-72.79 14.68,-26.82 26.18,-60.66 40.87,-75.98 14.69,-15.33 50.45,-60.67 61.94,-72.16 11.48,-11.49 56.18,-94.5 68.32,-107.28 12.14,-12.77 20.43,-14.69 44.05,-38.31 23.63,-23.63 39.59,-54.27 39.59,-72.15 0,-17.88 12.77,-65.77 24.26,-81.74 11.49,-15.96 47.25,-29.36 67.69,-32.56 20.43,-3.2 67.05,-4.47 84.93,-14.69 17.87,-10.22 36.39,-21.7 40.86,-37.03 4.47,-15.33 12.14,-15.97 26.18,-23 14.05,-7.02 70.23,-26.81 94.5,-28.73 24.26,-1.92 56.19,11.49 75.35,10.22 19.16,-1.28 77.9,11.49 93.23,2.55 15.33,-8.94 44.7,-19.8 67.69,-30.02 22.98,-10.22 30,-22.99 51.72,-33.84 21.71,-10.86 33.2,0.63 61.93,-10.86 28.74,-11.48 30.65,-10.85 63.22,-29.37 32.57,-18.51 31.93,-35.12 56.83,-36.39 24.91,-1.28 46.62,5.11 67.69,10.22 21.08,5.11 65.13,5.11 86.21,10.85 21.07,5.75 62.57,30.02 82.37,40.23 19.8,10.22 63.85,22.34 81.09,23.62 17.25,1.28 58.11,19.8 74.08,16.6 15.96,-3.19 40.87,-7.66 52.36,-22.99 11.48,-15.33 14.04,-24.9 30.64,-33.2 16.61,-8.3 34.49,-24.89 50.45,-38.3 15.97,-13.41 26.85,-24.23 50.47,-31.89 23.63,-7.66 69.62,-0.63 90.04,-5.74 20.43,-5.11 33.85,-8.31 58.11,-7.66 24.26,0.63 51.07,23.62 64.49,33.84 13.41,10.22 22.98,27.47 47.25,37.68 24.26,10.22 28.1,17.88 52.36,21.08 24.26,3.19 31.29,22.34 50.44,26.81 19.16,4.47 66.42,8.94 78.55,8.94 12.13,0 33.2,-14.68 62.58,16.6 29.37,31.29 39.58,53 56.83,56.84 17.24,3.83 62.57,33.84 78.54,22.99 15.97,-10.86 15.97,-25.54 29.38,-32.57 13.4,-7.02 32.56,-3.2 45.97,3.83 13.41,7.03 34.49,23.63 43.42,38.31 8.94,14.69 18.52,42.14 21.08,54.28 2.55,12.14 5.74,72.15 6.39,91.95 0.64,19.79 5.75,30.01 9.57,47.25 3.83,17.24 14.05,31.29 15.97,45.33 1.91,14.05 0,37.68 -3.83,44.7 -3.83,7.03 -29.38,20.43 -31.94,44.7 -2.55,24.27 -9.57,70.24 -7.02,79.82 2.55,9.58 12.77,10.21 6.39,30.01 -6.39,19.8 -22.35,18.52 -22.99,33.85 -0.63,15.33 -15.96,35.76 5.11,44.7 21.07,8.94 32.56,2.56 47.25,10.22 14.69,7.66 40.23,15.32 47.25,41.5 7.03,26.18 18.52,37.04 18.52,61.3 0,24.26 -5.75,64.5 -11.49,86.21 -5.75,21.71 -22.35,60.67 -33.85,74.07 -11.49,13.41 -34.48,32.56 -40.22,49.16 -5.75,16.61 -11.49,32.57 -10.22,53.64 1.27,21.08 3.82,30.02 0,49.81 -3.83,19.8 -9.58,25.55 -2.55,40.23 7.02,14.68 46.61,27.45 60.02,42.78 13.4,15.33 35.12,14.05 37.04,39.59 1.91,25.54 0,38.96 -2.55,53 -2.55,14.05 -4.47,15.97 -7.03,36.4 -2.55,20.43 2.55,38.96 -3.19,56.83 -5.75,17.88 -23.63,18.52 -26.82,45.34 -3.2,26.81 -13.41,32.56 -13.41,52.36 0,19.79 -10.84,83.65 -14.04,100.26 -3.2,16.6 -14.69,64.49 -22.99,81.73 -8.3,17.24 -27.45,61.94 -31.28,82.37 -3.84,20.43 -9.59,96.42 -17.9,116.22 -8.3,19.79 -35.12,37.04 -35.12,64.49 0,27.46 -10.22,42.79 -1.92,53.65 8.31,10.85 61.3,25.53 81.1,35.12 19.8,9.58 74.07,12.77 91.95,30.65 17.88,17.88 45.98,29.37 45.98,45.98 0,16.6 1.92,38.96 -5.11,49.81 -7.03,10.85 -26.18,29.37 -68.33,21.08 -42.13,-8.31 -84.28,-17.25 -97.69,-0.64 -13.41,16.6 -63.21,52.99 -70.24,71.52 -7.02,18.51 -30.65,32.56 -27.46,60.66 3.2,28.1 8.31,53 28.11,64.5 19.79,11.49 58.11,21.07 72.79,35.76 14.68,14.69 23.62,5.1 18.51,42.78 -5.11,37.68 3.2,69.6 -18.51,88.76 -21.72,19.16 -26.18,14.05 -30.02,32.57 -3.83,18.51 -9.57,15.97 -4.47,40.87 5.1,24.9 -3.84,24.9 17.87,39.59 21.72,14.68 34.48,21.71 31.29,35.76 -3.2,14.05 -13.4,51.72 -22.99,60.02 -9.57,8.3 -12.77,27.46 -38.95,10.22 -26.18,-17.25 -54.28,-42.14 -61.31,-33.2 -7.02,8.93 -24.9,17.24 -23.62,38.31 1.28,21.07 -6.39,47.24 -5.74,63.85 0.63,16.6 7.02,25.54 6.38,43.42 -0.63,17.88 28.74,21.07 -10.21,67.69 -38.96,46.61 -72.16,51.72 -69.61,79.81 2.55,28.1 3.83,35.77 15.97,53 12.13,17.24 55.54,81.73 56.83,86.84 1.28,5.11 14.04,12.13 25.54,30.01 11.49,17.88 45.97,67.69 47.25,97.7 1.28,30.01 20.43,72.79 -4.47,102.17 -24.91,29.37 -41.52,33.2 -61.31,41.51 -19.79,8.3 -85.56,32.56 -97.05,49.8 -11.49,17.25 -40.88,60.03 -44.06,74.08 -3.19,14.05 -11.49,30.65 -1.92,41.5 9.58,10.86 30.02,20.43 19.17,31.93 -10.86,11.49 -44.05,16.61 -55.56,17.88 -11.49,1.28 -86.21,3.84 -102.17,17.88 -15.97,14.05 -47.9,29.38 -68.32,49.17 -20.43,19.79 -37.68,29.37 -53,49.81 -15.33,20.43 -36.39,37.68 -19.16,72.79 17.25,35.12 67.69,77.89 79.18,97.69 11.49,19.8 33.85,40.87 27.46,70.87 -6.39,30.02 -28.09,75.35 -28.73,95.79 -0.64,20.43 -14.69,45.34 14.68,63.22 29.36,17.87 50.44,27.44 78.54,49.15 28.1,21.72 59.39,47.9 48.53,67.69 -10.85,19.8 -51.07,33.21 -60.02,49.82 -8.94,16.6 -20.42,35.76 -24.26,56.19 -3.84,20.43 -6.39,37.04 -24.27,53.64 -17.88,16.6 -39.59,25.53 -50.44,40.22 -10.86,14.69 -31.29,10.86 -28.74,38.96 2.55,28.1 4.49,37.67 18.54,48.54 14.05,10.86 54.28,26.18 68.33,35.76 14.04,9.57 32.56,15.95 37.03,31.93 4.47,15.97 26.82,39.59 8.31,44.7 -18.52,5.11 -54.91,-7.66 -67.69,-4.47 -12.77,3.2 -43.42,-0.64 -48.53,14.05 -5.11,14.69 -16.6,22.36 -8.93,42.15 7.66,19.79 47.24,42.78 50.44,58.74 3.19,15.97 14.05,15.33 0.63,47.25 -13.4,31.94 -25.53,33.21 -14.68,60.67 10.85,27.45 21.71,17.88 26.18,39.59 4.47,21.71 15.33,12.76 8.94,45.98 -6.39,33.2 -14.05,34.48 -2.55,55.56 11.49,21.07 22.34,3.19 37.67,37.67 15.33,34.48 8.94,32.56 20.44,54.91 11.49,22.34 1.91,14.04 17.88,33.84 15.96,19.8 27.45,20.44 29.36,37.04 1.92,16.59 -7.66,25.53 -22.99,37.67 -15.32,12.14 -19.79,8.94 -28.73,34.48 -8.94,25.54 -20.43,42.79 -25.54,67.04 -5.11,24.26 -19.8,61.31 -21.71,90.04 -1.91,28.74 -9.89,56.83 -14.36,71.83 -4.47,15.01 -15.33,39.27 -23.62,51.4 -8.31,12.14 -21.72,33.21 -29.7,38 -7.98,4.79 -27.78,24.26 -44.06,20.12 -16.28,-4.15 -45.01,-17.24 -58.74,-8.62 -13.73,8.62 -29.37,24.26 -30.65,38.96 -1.29,14.68 -4.79,44.05 -2.88,61.93 1.92,17.88 11.19,32.89 7.66,51.41 -3.51,18.51 1.29,16.6 -5.43,41.5 -6.7,24.9 3.51,32.57 -0.32,53.32 -3.83,20.75 -15.33,42.46 -21.71,59.38 -6.39,16.92 -14.68,48.86 -16.6,73.12 -1.92,24.26 -0.32,45.66 -18.2,65.13 -17.88,19.47 -30.66,22.04 -48.21,38.96 -17.56,16.93 -25.54,18.84 -25.22,36.72 0.32,17.88 6.39,34.16 5.11,51.41 -1.28,17.24 -1.6,33.52 -5.43,53.95 -3.82,20.43 -4.78,56.51 -15.64,79.18 -10.85,22.67 -46.94,38 -60.66,46.29 -13.73,8.3 -37.68,19.8 -50.77,33.52 -13.09,13.73 -23.3,25.55 -36.72,36.72 -13.4,11.18 -28.73,13.4 -29.06,27.14 -0.32,13.73 -9.89,21.39 2.24,32.57 12.14,11.17 30.02,-4.15 43.42,4.47 13.41,8.61 26.83,20.43 7.67,34.16 -19.17,13.73 -48.21,21.71 -56.84,32.56 -8.62,10.86 -31.33,27.46 -32.92,41.84 -1.59,14.36 -4.15,23.94 2.24,38.95 6.39,15.01 24.26,36.08 26.18,55.87 1.91,19.8 11.17,23.31 17.88,42.14 6.7,18.84 8.94,41.18 30.97,42.79 22.03,1.59 33.52,0.96 59.39,-9.26 25.86,-10.22 45.33,-6.08 70.56,-12.14 25.22,-6.07 67.05,-19.17 89.71,-28.41 22.67,-9.26 56.83,-22.99 105.36,-68.65 48.53,-45.66 53.96,-49.17 68.96,-56.84 15,-7.66 21.38,-23.62 29.69,-2.23 8.3,21.38 13.4,27.14 22.99,35.44 9.58,8.3 26.18,14.36 52.04,4.47 25.86,-9.9 31.61,-21.38 58.75,-15.01 27.14,6.39 56.19,8.3 72.79,27.78 16.6,19.47 23.94,27.45 19.79,41.5 -4.15,14.06 -11.17,31.61 -11.17,46.3 0,14.68 -6.39,17.24 3.19,24.9 9.58,7.66 20.43,9.58 30.65,9.58 10.22,0 29.06,22.34 31.29,30.32 2.23,7.99 11.81,22.67 21.07,29.37 9.27,6.71 31.61,9.9 46.29,2.87 14.69,-7.02 25.87,-18.51 35.44,-18.51 9.58,0 24.58,17.56 27.78,25.54 3.2,7.98 12.13,16.29 14.69,31.61 2.55,15.33 0.62,42.47 8.93,50.45 8.31,7.98 26.83,-10.86 36.73,-22.67 9.89,-11.82 20.75,-28.74 29.36,-10.86 8.62,17.88 39.92,54.91 46.62,61.3 6.7,6.39 27.77,34.16 42.46,30.02 14.69,-4.16 35.44,-15.64 51.73,-5.11 16.28,10.53 34.8,22.67 36.39,36.39 1.6,13.73 -6.7,10.85 4.79,29.69 11.49,18.85 24.58,5.11 23.3,26.18 -1.27,21.07 -7.98,39.27 12.77,44.05 20.76,4.79 103.77,6.7 116.22,5.43 12.44,-1.28 84.6,-11.18 97.38,-13.41 12.77,-2.24 71.82,-23.62 73.11,-6.7 1.28,16.92 -3.2,87.49 6.39,91.63 9.58,4.15 65.13,-20.11 78.54,-36.72 13.41,-16.6 19.8,-30.01 33.21,-52.04 13.4,-22.03 8.61,-37.67 45.33,-45.98 36.72,-8.3 54.27,-23.94 57.15,-44.05 2.87,-20.12 9.9,-61.31 9.9,-77.9 0,-16.6 -2.24,-36.4 1.59,-49.81 3.83,-13.41 14.05,-27.78 41.18,-37.04 27.14,-9.27 53.95,-21.71 66.73,-34.16 12.77,-12.45 41.19,10.22 50.77,-4.47 9.58,-14.68 17.25,-30.32 31.29,-37.03 14.05,-6.71 86.21,-8.31 98.02,-15.01 11.81,-6.71 34.8,-23.96 54.27,-25.54 19.47,-1.59 44.38,4.47 66.73,18.83 22.35,14.37 56.85,46.33 65.16,54.95 8.31,8.61 55.56,60.33 68.65,68.96 13.09,8.62 38.96,29.05 58.75,37.03 19.79,7.99 42.14,20.13 50.77,39.28 8.61,19.16 41.17,97.06 42.46,106.63 1.28,9.57 14.05,82.05 16.92,93.23 2.87,11.18 17.25,52.36 25.87,62.58 8.61,10.22 23.95,9.26 30.33,25.22 6.38,15.96 3.2,30.96 18.2,42.14 15,11.18 53.63,23.95 68.64,37.35 15.01,13.41 28.1,13.09 29.06,43.74 0.96,30.65 2.24,64.82 3.83,83.65 1.59,18.84 6.07,68.65 5.75,82.05 -0.33,13.4 10.53,60.03 18.51,74.07 7.98,14.05 26.5,23.94 26.5,40.87 0,16.93 -2.89,115.57 -22.05,155.8 -19.16,40.23 -90.68,113.67 -102.81,123.24 -12.13,9.57 -57.46,29.37 -61.93,39.59 -4.47,10.22 -9.58,15.97 -14.05,30.65 -4.47,14.68 -13.41,23.63 -21.71,30.65 -8.3,7.02 -33.85,14.05 -35.76,30.01 -1.91,15.97 -6.39,45.98 -13.41,61.94 -7.02,15.96 -24.9,14.05 -36.39,36.4 -11.49,22.34 -22.35,48.52 -25.54,63.84 -3.2,15.33 -6.39,19.79 -8.94,38.96 -2.55,19.16 -0.01,49.81 6.39,64.49 6.39,14.69 24.26,45.34 12.13,94.5 -12.13,49.17 -13.41,69.61 -22.99,91.96 -9.57,22.34 -22.34,24.26 -21.07,50.44 1.28,26.18 5.74,54.91 5.11,81.73 -0.63,26.82 -13.41,62.58 9.58,83.65 22.99,21.07 62.57,40.86 76.62,51.07 14.06,10.22 38.31,25.55 37.04,47.26 -1.28,21.71 -7.66,110.46 -14.05,138.56 -6.38,28.1 -18.51,54.28 -31.28,65.13 -12.77,10.86 -23.63,45.34 -25.54,80.46 -1.92,35.12 -8.31,143.67 -19.16,165.38 -10.85,21.72 -61.3,143.68 -69.61,173.69 -8.3,30.01 -11.5,72.16 -11.5,93.23 0,21.08 15.96,37.04 21.71,55.56 5.74,18.51 14.68,35.12 6.38,53.64 -8.3,18.51 -26.82,19.79 -22.34,58.75 4.47,38.95 22.99,35.12 -5.11,61.93 -28.1,26.82 -47.89,54.91 -55.55,86.21 -7.66,31.28 -18.52,72.79 -31.29,98.34 -12.77,25.54 -58.11,143.03 -71.52,156.44 -13.4,13.41 -83.01,71.52 -112.38,91.32 -29.37,19.8 -76.63,51.08 -93.23,64.49 -16.6,13.41 -79.82,65.13 -93.87,77.9 -14.04,12.78 -80.45,92.59 -120.68,120.69 -40.23,28.1 -90.03,61.93 -120.05,75.98 -30.02,14.06 -76.63,23.63 -91.31,46.62 -14.69,22.99 -23,31.93 -45.34,36.39 -22.34,4.47 -34.48,3.83 -45.33,22.99 -10.86,19.17 -57.47,65.14 -65.77,79.82 -8.3,14.68 -14.06,37.04 -26.82,56.84 -12.77,19.79 -31.28,22.34 -38.95,39.59 -7.66,17.24 -17.88,27.45 -17.25,54.91 0.64,27.45 -8.95,58.1 -12.14,74.7 -3.19,16.59 -12.14,37.04 -22.99,40.87 -10.86,3.83 12.77,8.3 -25.54,12.13 -38.31,3.83 -67.04,-15.33 -77.9,-4.47 -10.85,10.85 -31.28,36.39 -39.59,58.74 -8.31,22.35 -44.7,56.2 -54.91,69.61 -10.22,13.41 -35.12,39.58 -30.01,71.52 5.11,31.93 17.87,63.86 24.26,86.21 6.39,22.34 18.52,26.18 30.02,38.95 11.49,12.77 23.63,26.18 15.33,48.53 -8.3,22.35 -29.37,74.71 -42.79,93.23 -13.4,18.52 -57.47,70.88 -73.43,77.9 -15.96,7.03 -46.62,-1.27 -57.47,-5.74 -10.85,-4.47 -90.66,7.66 -102.8,26.18 -12.14,18.52 -38.95,79.19 -45.98,101.53 -7.02,22.34 -37.04,95.15 -31.93,121.96 5.11,26.82 0,57.48 6.39,77.91 6.39,20.42 30.65,66.41 47.25,81.09 16.6,14.68 65.77,49.16 70.24,68.96 4.47,19.79 4.47,70.24 -9.58,86.84 -14.04,16.6 -83.01,85.56 -106.63,101.53 -23.63,15.96 -95.14,53.63 -118.77,68.95 -23.62,15.33 -91.95,51.08 -98.97,67.69 -7.03,16.61 -19.79,10.22 -14.05,33.85 5.74,23.62 14.69,21.07 5.74,39.59 -8.94,18.51 -54.27,32.56 -59.38,53.64 -5.11,21.07 -20.43,83 -26.82,94.5 -6.39,11.49 -76.63,83.01 -81.73,88.12 -5.11,5.11 -41.55,44.68 -42.83,73.41 -1.28,28.74 3.83,37.68 -30.02,61.94 -33.84,24.26 -61.3,39.59 -75.98,52.99 -14.68,13.41 -5.74,18.52 -30.01,20.43 -24.26,1.92 -33.2,8.95 -45.98,36.4 -12.77,27.45 -48.53,52.99 -63.85,74.07 -15.33,21.07 -67.05,83.65 -88.75,99.61 -21.71,15.97 -20.43,28.73 -45.34,28.1 -24.9,-0.64 -58.1,-9.57 -75.35,8.31 -17.24,17.87 -38.96,18.51 -69.6,21.7 -30.65,3.2 -53.65,14.69 -83.65,23.63 -30.01,8.94 -35.12,5.75 -58.1,9.58 -22.99,3.82 -25.54,28.73 -56.84,15.96 -31.28,-12.77 -51.72,-24.26 -80.45,-30.65 -28.74,-6.39 -49.81,-22.35 -67.05,-12.77 -17.25,9.57 -40.86,25.54 -65.77,35.76 -24.91,10.22 -77.27,34.48 -98.98,-1.92 -21.7,-36.39 -37.68,-50.45 -53.64,-53.64 -15.96,-3.19 -181.35,-2.55 -204.33,-8.3 -22.98,-5.75 -101.52,-3.83 -113.65,-19.79 -12.14,-15.97 -32.57,-25.54 -22.35,-52.36 10.22,-26.83 17.24,-37.69 33.84,-52.37 16.61,-14.68 42.14,-36.39 38.96,-54.27 -3.19,-17.88 -14.68,-20.44 -1.28,-47.9 13.41,-27.45 15.97,-54.91 15.97,-70.24 0,-15.33 10.85,-23.62 1.27,-44.7 -9.57,-21.07 -27.45,-45.33 -16.59,-65.77 10.85,-20.43 17.24,-39.6 17.24,-66.41 0,-26.82 -10.22,-40.23 -0.64,-71.52 9.58,-31.29 13.41,-28.11 44.7,-42.79 31.29,-14.68 79.19,-28.1 100.89,-56.84 21.71,-28.73 68.96,-42.78 11.49,-81.09 -57.47,-38.31 -78.54,-49.16 -72.78,-74.07 5.74,-24.91 26.18,-47.25 34.48,-72.15 8.3,-24.91 -5.18,-22.06 -19.87,-28.28 -14.68,-6.23 -75.83,-20.75 -85.88,-20.75 -10.06,0 -80.94,-2.08 -100.74,-2.4 -19.8,-0.32 -295.47,-4 -295.47,-4 0,0 -33.52,-7.99 -41.83,-5.75 -8.3,2.24 -9.26,12.13 -23.94,13.4 -14.69,1.29 -44.39,10.54 -53.65,0.96 -9.25,-9.57 -11.8,-13.4 -39.91,-13.4 -28.1,0 -76.3,2.23 -81.09,9.26 -4.79,7.03 -14.69,15.64 -9.9,29.37 4.79,13.73 15.33,29.05 13.41,39.27 -1.92,10.22 7.98,29.69 -28.74,38.95 -36.72,9.27 -98.66,4.47 -113.03,25.22 -14.36,20.75 -15.33,36.72 -12.77,63.85 2.55,27.14 11.82,66.73 12.45,83.01 0.63,16.29 10.85,40.22 -2.55,53.95 -13.4,13.73 -53.31,4.16 -81.09,-3.5 -27.78,-7.66 -74.71,-10.54 -84.29,-29.7 -9.58,-19.16 -19.21,-28.09 -18.25,-53.95 0.95,-25.86 16.6,-52.69 13.09,-66.41 -3.5,-13.73 -10.54,-29.06 -25.22,-33.85 -14.68,-4.78 -44.05,-6.39 -64.49,-15.33 -20.44,-8.93 -61.93,-17.24 -79.5,-16.59 -17.56,0.63 -35.77,7.35 -51.09,22.34 -15.33,15.01 -47.57,53.64 -54.27,68.65 -6.7,15.01 -20.12,23.31 -19.47,53.95 0.63,30.65 -1.6,51.72 -8.31,66.41 -6.7,14.69 -14.36,66.73 -24.26,76.63 -9.9,9.9 -34.81,4.15 -58.75,-24.58 -23.95,-28.74 -38.35,-31.62 -52.4,-41.52 -14.05,-9.9 -30.02,-26.5 -48.21,-26.18 -18.2,0.33 -45.98,-23.3 -67.69,-35.76 -21.71,-12.45 -47.26,-22.99 -64.17,-38 -16.92,-15.01 -33.84,-34.8 -50.77,-47.89 -16.92,-13.09 -28.42,-6.08 -34.81,-29.37 -6.38,-23.3 -12.76,-35.43 -27.45,-41.5 -14.68,-6.07 -33.52,-30.98 -46.29,-24.59 -12.77,6.39 -19.8,9.27 -20.43,24.91 -0.64,15.64 2.54,29.37 -9.58,41.83 -12.13,12.44 -24.91,25.53 -49.81,29.69 -24.9,4.15 -36.39,17.55 -55.87,1.91 -19.48,-15.64 -41.51,-23.3 -54.6,-17.56 -13.09,5.75 -34.81,10.54 -51.08,-3.82 -16.29,-14.37 -56.52,-16.93 -65.13,-4.47 -8.62,12.45 -23.63,27.15 -27.46,43.1 -3.83,15.96 -3.51,27.14 -5.43,45.33 -1.91,18.2 -22.99,54.28 -25.22,64.18 -2.23,9.89 2.55,17.23 -7.34,33.51 -9.9,16.29 -42.47,12.14 -53.33,12.14 -10.85,0 -50.11,-15.01 -66.4,-7.98 -16.29,7.03 -23.31,7.34 -35.12,19.16 -11.81,11.81 -14.05,24.58 -30.65,24.58 -16.6,0 -40.55,-18.19 -50.44,-3.19 -9.9,15 -25.22,34.8 -36.08,48.2 -10.85,13.41 -27.46,29.69 -35.76,44.06 -8.3,14.36 -38.96,35.76 -62.26,43.74 -23.3,7.99 -36.39,10.22 -49.16,-7.02 -12.77,-17.25 -14.69,-35.12 -46.3,-32.57 -31.6,2.55 -70.24,3.83 -96.73,-4.15 -26.5,-7.98 -54.9,-21.41 -66.06,-23.32 -11.18,-1.92 -33.52,-9.57 -39.92,2.24 -6.39,11.81 -9.25,18.83 -15.64,38.95 -6.39,20.12 -24.26,42.14 -25.22,76.63 -0.95,34.48 14.05,37.99 1.28,62.89 -12.77,24.91 -39.91,50.12 -47.89,52.04 -7.98,1.91 -39.28,10.53 -51.09,4.47 -11.8,-6.06 -33.19,-24.26 -53.31,-23.94 -20.12,0.32 -48.53,3.83 -63.85,13.4 -15.33,9.58 -46.93,25.54 -38,41.51 8.94,15.96 10.54,25.86 14.05,44.38 3.51,18.51 5.11,57.79 -4.15,74.7 -9.26,16.92 -26.5,33.53 -34.48,54.91 -7.98,21.39 -10.54,35.12 -30.02,52.99 -19.47,17.89 -56.18,44.71 -67.04,81.74 -10.86,37.04 -18.84,72.48 -42.47,88.75 -23.62,16.29 -70.56,45.01 -80.77,61.3 -10.22,16.29 -49.82,67.37 -61.62,102.17 -11.81,34.8 -27.78,33.86 -19.8,54.6 7.99,20.75 22.35,41.84 19.47,54.6 -2.87,12.76 -6.03,66.09 -13.69,91.63 -7.66,25.54 -15.62,12.75 -15.62,45.97 0,33.2 5.74,27.77 -0.64,46.93 -6.39,19.17 -36.72,38 -37.35,64.18 -0.63,26.18 10.85,30.02 0.96,53.95 -9.9,23.95 -29.38,36.08 -23.31,68 6.08,31.93 -2.22,5.75 9.28,38.31 11.49,32.56 21.71,20.43 33.85,37.04 12.13,16.6 12.77,21.07 8.3,34.48 -4.47,13.4 -16.6,33.2 -21.07,59.38 -4.47,26.18 0,70.88 -27.46,81.73 -27.45,10.85 -56.18,4.47 -78.54,31.94 -22.35,27.45 -44.06,58.1 -53,68.32 -8.94,10.22 -121.96,116.85 -121.96,116.85l-140.48 94.5c0,0 -61.93,33.85 -70.87,40.87 -8.95,7.03 -76.63,34.48 -113.67,74.71 -37.03,40.22 -125.79,130.26 -136.64,139.84 -10.86,9.58 -136.65,75.36 -157.72,87.49 -21.08,12.13 -126.44,76.63 -148.14,92.58 -21.71,15.97 -153.26,99.62 -180.07,120.69 -26.82,21.08 -141.76,83.65 -148.78,125.15 -7.03,41.51 -18.52,117.49 -22.99,140.48 -4.47,22.99 -31.93,169.21 -33.85,186.45 -1.91,17.24 -28.1,117.49 -43.42,140.48 -15.33,22.99 -61.3,65.13 -75.35,81.1 -14.05,15.96 0.63,17.87 -42.14,38.3 -42.78,20.43 -64.5,11.49 -94.5,18.52 -30.01,7.02 -94.05,7.07 -94.05,7.07z"/>
   <path id="risarlada" class="fil1" d="M5573.15 5971.42c-10.19,-18.91 -24.01,-42.93 -26.19,-58.94 -2.19,-16.01 -3.64,-26.91 -4.37,-46.56 -0.73,-19.65 0.73,-25.47 -5.09,-32.75 -5.83,-7.27 -21.83,-14.55 -40.02,-14.55 -18.2,0 -42.21,8.73 -61.12,-8 -18.91,-16.74 -19.65,-21.83 -22.56,-42.94 -2.91,-21.1 0.73,-33.47 -8,-44.38 -8.73,-10.92 -34.93,-9.46 -38.56,-25.47 -3.64,-16.01 -7.28,-22.56 -5.1,-34.2 2.18,-11.64 13.82,-21.1 -14.55,-32.01 -28.38,-10.92 -29.83,-9.46 -51.66,-15.29 -21.82,-5.82 -35.66,-16.72 -47.3,-23.28 -11.63,-6.55 -37.11,-3.64 -61.11,-3.64 -24.01,0 -61.85,4.36 -74.22,8.01 -12.37,3.64 -9.83,12.01 -26.19,21.47 -16.38,9.45 -35.29,13.1 -51.66,15.64 -16.37,2.54 -30.56,9.83 -43.29,-16.73 -12.74,-26.57 -1.82,-33.47 -12.01,-43.66 -10.19,-10.19 -20.01,-7.63 -27.66,-2.54 -7.63,5.09 -23.29,26.92 -47.29,16.01 -24.01,-10.92 -29.1,-16.73 -36.38,-37.84 -7.28,-21.1 -2.18,-34.93 -18.55,-38.2 -16.38,-3.27 -23.3,-0.73 -28.75,-12.01 -5.45,-11.27 -6.54,-20.37 -17.46,-14.91 -10.92,5.46 -29.47,14.55 -46.2,13.46 -16.74,-1.09 -20.74,-11.28 -35.66,-9.82 -14.91,1.45 -25.1,9.45 -31.29,20 -6.18,10.55 -16.37,40.02 -25.83,49.12 -9.46,9.1 -15.64,20.01 -27.28,9.46 -11.64,-10.55 -23.28,-14.19 -46.56,-22.2 -23.29,-8.01 -27.66,-15.65 -45.48,-10.92 -17.82,4.74 -33.47,7.27 -40.38,-1.82 -6.92,-9.1 1.09,-23.65 1.09,-37.11 0,-13.46 0.73,-44.38 -2.54,-67.3 -3.27,-22.92 -9.46,-32.02 -14.19,-51.66 -4.74,-19.65 -14.56,-22.92 -21.47,-36.75 -6.91,-13.82 -3.27,-20.74 -6.19,-33.11 -2.91,-12.37 -23.28,-18.92 -42.56,-20.01 -19.28,-1.08 -39.29,-12.36 -54.93,-2.54 -15.64,9.82 2.18,12.37 -17.1,25.1 -19.29,12.72 -17.47,15.64 -23.29,25.82 -5.82,10.19 -18.92,26.2 -33.11,30.93 -14.19,4.73 -12.37,8.37 -14.91,26.19 -2.54,17.82 0.36,24.01 -7.28,38.2 -7.63,14.19 -18.91,29.83 -33.83,32.74 -14.91,2.92 -26.19,7.64 -45.84,4.01 -19.64,-3.64 -45.11,-14.91 -63.3,-10.92 -18.2,4 -20.74,10.92 -46.21,10.92 -25.47,0 -20.38,-4.74 -46.94,-4.74 -26.56,0 -46.57,7.28 -57.84,-5.82 -11.28,-13.1 -38.2,-46.93 -52.39,-52.39 -14.19,-5.46 -31.68,-5.11 -33.49,-20.02 -1.83,-14.91 -8.01,-51.3 -10.19,-84.05 -2.18,-32.74 -2.54,-69.12 -9.83,-78.58 -7.27,-9.45 -10.92,-29.47 -22.92,-62.58 -12.01,-33.1 -48.02,-90.59 -60.75,-117.51 -12.73,-26.92 -19.65,-62.94 -24.38,-72.04 -4.74,-9.09 -18.91,-17.46 -25.1,-32.37 -6.19,-14.91 -22.2,-54.57 -28.74,-72.77 -6.55,-18.19 -14.2,-41.84 -25.47,-42.93 -11.28,-1.09 -32.75,11.28 -41.85,20.01 -9.09,8.73 -28.38,20 -32.74,30.19 -4.37,10.19 -5.46,42.93 -12.01,55.3 -6.54,12.37 -12.01,24.74 -23.29,29.47 -11.28,4.74 -17.82,1.45 -33.47,8.01 -15.64,6.55 -24.39,20.01 -26.57,29.1 -2.18,9.1 -3.64,21.1 3.64,33.11 7.28,12.01 19.64,22.56 11.28,30.19 -8.37,7.64 -9.83,18.92 -29.48,10.92 -19.64,-8 -15.28,-18.19 -25.83,-19.64 -10.54,-1.45 -12,14.91 -11.27,26.56 0.73,11.64 -1.09,26.56 -8.73,34.19 -7.64,7.64 -14.2,5.83 -12.37,15.64 1.82,9.83 4.36,13.83 12.37,21.47 8,7.64 16.73,19.29 0.36,25.47 -16.37,6.19 -23.65,4.01 -22.92,21.83 0.73,17.82 -0.36,17.47 -14.55,23.65 -14.19,6.18 -30.19,20.74 -25.1,33.84 5.09,13.09 4.36,26.19 -5.82,43.65 -10.19,17.46 -13.46,28.74 -9.1,42.93 4.36,14.2 6.55,34.2 11.64,50.21 5.09,16.01 20.38,30.57 22.2,40.38 1.82,9.83 -1.1,26.57 -7.64,42.21 -6.55,15.64 -7.26,25.46 -9.81,32 -2.54,6.55 -4.91,12.19 -11.64,11.64 -6.73,-0.55 -24.2,-6.73 -37.47,-3.27 -13.28,3.46 -26.02,15.82 -32.38,28.93 -6.37,13.1 -29.1,41.84 -33.1,42.93 -4.01,1.09 -11.73,5.17 -27.1,-1.64 -15.37,-6.82 -32.75,-17.56 -41.94,-27.47 -9.18,-9.92 -12.73,-19.18 -29.47,-9.91 -16.73,9.28 -45.12,27.28 -52.94,29.1 -7.82,1.82 -19.09,-6 -28.74,-8.91 -9.64,-2.92 -32.92,4.9 -43.84,1.82 -10.92,-3.09 -27.83,-15.46 -40.02,-16.56 -12.18,-1.09 -21.28,1.82 -32.92,-3.27 -11.64,-5.1 -25.64,-14.92 -32.38,-20.2 -6.73,-5.27 -20.73,-16.37 -16.55,-24.37 4.18,-8.01 4.36,-20.01 -2.19,-27.11 -6.54,-7.09 -37.29,-34.38 -54.21,-43.29 -16.92,-8.91 -15.46,-5.28 -30.19,-13.28 -14.74,-8.01 -16.19,-14.55 -16.38,-20.55 -0.18,-6 -4,-16.92 -16.19,-20.38 -12.18,-3.45 -40.56,-2.72 -48.57,-15.09 -8,-12.37 -10.73,-23.29 -10.37,-33.47 0.36,-10.19 -13.47,-30.57 -18.75,-39.48 -5.28,-8.92 -8.36,-30.93 -10.92,-45.84 -2.54,-14.91 -4.73,-22.75 -9.64,-30.2 -4.91,-7.46 -24.93,-40.56 -27.28,-47.84 -2.37,-7.27 -4.91,-18.19 -5.83,-34.92 -0.9,-16.74 -6.54,-17.83 -9.82,-32.56 -3.28,-14.74 -1.09,-27.83 0.73,-37.85 1.82,-10 22.55,-44.02 17.09,-69.86 -5.45,-25.83 -14.2,-34.93 -24.38,-40.38 -10.18,-5.45 -25.1,1.09 -40.02,-28.38 -14.91,-29.48 -38.93,-42.2 -45.84,-57.12 -6.92,-14.91 -16.74,-32.01 -13.11,-48.74 3.64,-16.74 9.46,-35.66 14.92,-47.66 5.45,-12.01 13.1,-23.65 22.19,-33.84 9.1,-10.19 16.38,-14.91 13.82,-25.47 -2.54,-10.55 -16.37,-22.56 -12.01,-35.29 4.37,-12.73 14.19,-16.01 16.38,-27.65 2.18,-11.64 -6.55,-15.64 -7.28,-27.28 -0.73,-11.64 -1.82,-34.57 9.83,-57.12 11.64,-22.55 48.39,-75.31 57.85,-84.76 9.45,-9.46 21.1,-16.73 34.56,-45.48 13.46,-28.74 15.64,-46.57 20.01,-64.03 4.36,-17.46 -1.82,-27.29 9.82,-48.39 11.64,-21.1 23.29,-38.57 37.11,-40.03 13.82,-1.45 29.1,0.73 41.47,-5.09 12.37,-5.82 24.01,-10.92 33.47,-16.73 9.46,-5.83 33.47,-7.28 44.38,4.36 10.92,11.64 29.84,13.82 36.38,29.83 6.55,16.01 13.82,40.02 16.73,53.12 2.92,13.11 5.83,35.66 20.38,41.48 14.55,5.82 31.28,20.37 41.47,27.65 10.19,7.27 24.74,31.28 35.66,21.1 10.92,-10.18 13.1,-22.55 24.74,-29.83 11.64,-7.28 24.74,-3.64 30.56,-20.37 5.83,-16.74 8.01,-32.02 5.83,-46.57 -2.18,-14.55 -10.92,-29.83 -10.92,-40.02 0,-10.19 11.64,-10.92 15.28,-23.29 3.64,-12.37 13.1,-40.02 15.28,-52.39 2.18,-12.37 9.46,-29.11 8.01,-39.29 -1.45,-10.19 -21.1,-26.19 -14.55,-32.02 6.54,-5.82 28.38,-10.91 37.11,-37.1 8.73,-26.2 12.36,-38.56 21.1,-47.3 8.73,-8.73 8.73,-32.01 21.83,-47.3 13.1,-15.28 24.01,-22.55 30.56,-37.11 6.54,-14.55 5.09,-29.83 9.46,-44.38 4.36,-14.55 14.55,-22.56 22.55,-25.47 8.01,-2.91 41.48,-41.47 45.12,-50.93 3.64,-9.46 13.1,-26.19 2.91,-39.29 -10.18,-13.1 -31.28,-13.1 -20.37,-61.12 10.91,-48.02 18.91,-60.4 16.73,-88.04 -2.18,-27.65 0,-60.39 -10.19,-62.57 -10.19,-2.18 -40.75,2.18 -51.66,-11.64 -10.92,-13.82 -33.47,-31.29 -40.02,-58.21 -6.55,-26.92 -18.19,-56.75 -19.64,-78.58 -1.45,-21.82 -10.92,-48.74 -2.19,-62.58 8.73,-13.82 14.56,-11.63 30.57,-11.63 16.01,0 29.1,-10.93 50.93,-26.2 21.82,-15.28 39.29,-29.83 45.84,-34.92 6.55,-5.1 29.84,14.55 42.21,0 12.36,-14.55 14.54,-26.92 23.28,-37.11 8.73,-10.19 14.55,-16.01 40.02,13.1 25.47,29.1 58.21,52.39 70.58,56.02 12.37,3.64 53.12,14.56 68.39,9.46 15.28,-5.1 44.38,-24.74 53.84,-39.29 9.46,-14.55 10.2,-21.47 24.75,-24.38 14.55,-2.91 24.74,-12.73 38.93,26.92 14.19,39.65 40.39,45.84 46.94,52.75 6.54,6.92 9.1,28.38 36.02,35.66 26.92,7.28 67.3,21.83 94.22,21.1 26.92,-0.73 75.67,9.1 92.77,6.54 17.1,-2.54 60.02,4.01 71.3,13.11 11.29,9.09 21.47,16.73 62.21,-2.19 40.75,-18.91 88.77,-33.47 103.32,-48.39 14.55,-14.91 4.01,-30.92 8.37,-52.75 4.36,-21.82 14.91,-36.01 18.55,-59.66 3.64,-23.65 16.74,-39.29 30.2,-60.76 13.46,-21.47 22.92,-49.48 31.28,-60.76 8.37,-11.28 16.01,-23.29 35.66,-18.2 19.65,5.1 44.75,17.83 52.75,12.38 8.01,-5.46 27.65,-58.58 26.56,-76.05 -1.09,-17.46 -9.82,-46.2 -6.18,-61.48 3.64,-15.28 12,-45.48 7.27,-58.58 -4.73,-13.1 -33.1,-20 -45.47,-25.83 -12.37,-5.82 -34.93,-25.09 -40.02,-36.38 -5.1,-11.28 -10.2,-36.01 -24.75,-36.74 -14.55,-0.73 -27.65,0 -39.29,8.01 -11.64,8.01 -26.19,8.73 -40.75,-4.37 -14.55,-13.09 4.37,-16.37 -26.19,-28.01 -30.57,-11.64 -38.93,-29.83 -62.21,-39.29 -23.28,-9.46 -43.65,-34.92 -56.75,-50.21 -13.1,-15.28 -20.38,-16.37 -34.2,-15.64 -13.82,0.73 -22.92,-9.09 -36.02,-21.47 -13.1,-12.37 -27.28,-28.01 -33.1,-50.57 -5.83,-22.56 -3.27,-41.11 -16.01,-41.11 -12.74,0 -18.92,8.01 -37.84,-2.54 -18.92,-10.55 -36.75,-31.29 -50.21,-39.65 -13.46,-8.37 -15.28,-15.64 -34.2,-10.92 -18.91,4.73 -40.02,7.27 -53.48,4.73 -13.46,-2.54 -35.29,-3.64 -44.75,13.1 -9.45,16.73 -15.64,21.1 -13.1,32.02 2.55,10.92 16.01,23.28 2.19,27.65 -13.82,4.36 -39.65,-4.36 -53.48,-5.09 -13.82,-0.74 -21.83,-0.73 -36.75,-4.74 -14.92,-4 -20.74,-2.18 -42.94,7.64 -22.19,9.83 -72.76,51.3 -86.22,55.66 -13.46,4.36 -37.47,21.1 -49.48,30.2 -12.01,9.09 -14.91,21.1 -27.65,24.37 -12.73,3.28 -34.57,3.64 -45.84,7.28 -11.27,3.64 -49.83,19.64 -74.58,22.56 -24.74,2.91 -22.91,-7.28 -36.37,-5.83 -13.46,1.45 -13.46,9.83 -28.01,8.01 -14.56,-1.82 -15.29,-2.55 -31.29,-5.1 -16.01,-2.54 -18.91,-14.55 -30.92,-8.73 -12.01,5.82 -14.56,18.91 -22.2,18.91 -7.64,0 -13.82,13.1 -21.47,-8 -7.63,-21.1 -15.64,-36.38 -26.92,-36.75 -11.28,-0.36 -47.65,1.09 -57.84,-5.09 -10.19,-6.19 -14.92,-16.38 -29.11,-18.2 -14.19,-1.82 -26.92,6.18 -33.1,2.54 -6.19,-3.64 7.27,-34.57 5.45,-44.02 -1.82,-9.46 -7.28,-25.84 -0.73,-37.11 6.55,-11.28 20.74,-10.55 18.92,-24.38 -1.82,-13.82 -3.28,-44.03 1.82,-53.12 5.09,-9.1 2.18,-31.66 4,-45.48 1.82,-13.82 14.2,-32.74 10.19,-46.93 -4,-14.2 -1.09,-22.56 -4,-37.47 -2.92,-14.92 -0.36,-28.38 -9.46,-39.65 -9.1,-11.28 -24.01,-18.56 -26.56,-32.02 -2.54,-13.46 -3.64,-46.57 3.27,-61.85 6.92,-15.28 25.83,-32.37 22.92,-61.49 -2.91,-29.1 -6.54,-67.67 -1.09,-78.58 5.45,-10.92 0.36,-17.46 -0.36,-30.92 -0.73,-13.46 5.82,-22.2 7.64,-41.85 1.82,-19.64 2.91,-34.56 1.82,-57.84 -1.1,-23.29 -7.28,-31.29 -14.56,-47.3 -7.27,-16.01 -6.54,-23.64 -1.45,-33.1 5.1,-9.46 9.83,-19.65 6.92,-33.47 -2.91,-13.82 -8.01,-24.38 -20.01,-33.47 -12.01,-9.1 -29.83,-17.82 -37.47,-3.64 -7.63,14.19 -15.63,52.76 -17.46,67.3 -1.82,14.55 -1.09,29.83 -12.37,28.01 -11.28,-1.82 -18.91,-12.36 -39.29,0.37 -20.38,12.72 -43.29,32.37 -54.21,38.56 -10.92,6.18 -77.13,7.27 -100.78,6.91 -23.65,-0.36 -41.84,-18.55 -73.48,-27.65 -31.66,-9.1 -52.75,-25.84 -69.86,-41.85 -17.1,-16.01 -24.01,-19.64 -22.56,-40.75 1.46,-21.1 -7.63,-36.02 -12.37,-41.11 -4.73,-5.09 -39.29,-11.64 -62.58,-11.28 -23.28,0.36 -91.67,0.73 -106.23,3.64 -14.55,2.91 -30.56,13.45 -40.02,9.45 -9.45,-4 -8,-32.01 -26.92,-38.56 -18.91,-6.54 -35.29,0.73 -54.93,-12.37 -19.65,-13.1 -27.29,-20.37 -43.3,-24.01 -16.01,-3.64 -18.91,-20.74 -39.28,-42.56 -20.38,-21.82 -34.93,-33.47 -46.94,-30.19 -12.01,3.27 -34.57,-6.92 -34.2,-42.21 0.36,-35.28 -22.92,-96.41 -26.92,-116.42 -4,-20 -20.37,-90.95 -27.65,-106.23 -7.28,-15.28 -61.12,-73.12 -82.58,-85.5 -21.47,-12.37 -40.03,-31.65 -61.12,-28.74 -21.1,2.91 -164.45,76.04 -179.72,87.68 -15.28,11.64 -152.8,126.25 -164.44,141.52 -11.64,15.28 -47.66,70.95 -47.66,87.68 0,16.73 5.45,66.58 12.01,85.13 6.54,18.56 16.73,60.76 12.73,75.31 -4.01,14.56 8.36,62.94 12,78.96 3.64,16.01 -5.45,74.58 -14.18,98.59 -8.73,24.01 9.09,73.49 16.37,93.87 7.27,20.37 16.37,56.02 -7.64,91.32 -24.01,35.29 -32.02,44.02 -52.39,46.93 -20.37,2.92 -51.66,4.74 -76.4,39.3 -24.74,34.56 -24.37,57.48 -72.39,61.11 -48.03,3.64 -125.15,10.19 -161.9,13.11 -36.75,2.91 -133.15,14.91 -152.8,17.82 -19.64,2.91 -73.12,12.73 -89.14,24.74 -16.01,12.01 -93.5,90.23 -104.05,101.51 -10.54,11.28 -43.65,58.58 -53.84,66.58 -10.19,8.01 -20.73,32.75 -33.83,36.02 -13.11,3.27 -63.31,7.64 -77.14,9.46 -13.81,1.82 -34.92,5.82 -41.47,18.91 -6.54,13.1 -10.92,26.19 -11.27,38.2 -0.36,12.01 6.18,56.4 3.64,68.77 -2.54,12.37 4.73,46.2 -19.29,48.38 -24.01,2.19 -98.95,-12.37 -124.05,-14.55 -25.1,-2.18 -70.21,-14.91 -81.13,-11.28 -10.93,3.64 -24.38,4.36 -26.57,30.2 -2.18,25.83 -5.82,67.67 -11.64,75.67 -5.82,8 -21.46,37.46 -22.55,52.39 -1.09,14.91 -8.37,34.57 -17.47,49.12 -9.09,14.55 -11.64,42.19 -22.55,48.74 -10.92,6.55 -33.47,10.93 -45.12,14.92 -11.64,4 -24.38,11.63 -25.47,20.37 -1.09,8.73 -6.18,34.19 -21.47,44.74 -15.28,10.56 -49.11,24.75 -52.02,39.66 -2.91,14.91 3.28,29.47 -2.91,38.93 -6.18,9.46 -4.36,21.1 -14.19,20.37 -9.83,-0.73 -23.28,-8 -45.11,-8 -21.83,0 -39.29,4.73 -52.39,22.2 -13.1,17.46 -16.01,24.74 -12.73,35.28 3.27,10.55 5.45,25.1 20,28.75 14.55,3.64 24.01,6.91 39.65,0 15.65,-6.92 22.2,-13.82 27.28,-9.1 5.1,4.73 15.29,9.82 10.92,27.28 -4.36,17.46 0.36,38.93 12.37,48.75 12.01,9.83 29.48,16.73 30.93,30.92 1.45,14.2 -5.46,30.92 9.09,36.38 14.56,5.45 33.47,-0.36 40.03,8.37 6.54,8.73 6.53,18.94 12.35,17.66 5.83,-1.28 25.29,-12.01 30.93,-9.64 5.63,2.36 3.82,26.56 -3.45,32.38 -7.28,5.82 -5.1,14.55 5.09,26.92 10.19,12.37 23.29,0.73 29.1,14.55 5.83,13.82 -8.73,34.2 7.28,37.84 16.01,3.64 38.56,2.18 45.11,9.46 6.55,7.28 11.64,21.1 -2.18,25.47 -13.82,4.36 -32.02,8.73 -29.83,26.19 2.18,17.46 10.19,51.66 13.1,60.4 2.91,8.73 16.73,11.64 22.56,22.55 5.82,10.92 10.19,101.87 5.09,119.33 -5.09,17.47 -14.55,45.84 -10.19,58.94 4.37,13.1 21.1,52.4 26.92,66.94 5.83,14.55 12.37,40.75 21.1,50.21 8.73,9.46 46.56,26.92 58.93,55.3 12.38,28.38 26.93,26.93 18.2,72.04 -8.73,45.11 -25.47,106.23 -28.38,125.88 -2.91,19.64 -10.93,43.65 5.82,57.48 16.74,13.82 60.4,21.83 77.86,16.01 17.46,-5.83 82.95,-33.47 96.77,-56.76 13.83,-23.29 39.3,-93.86 47.3,-106.96 8.01,-13.1 23.29,-49.48 43.65,-56.03 20.38,-6.54 113.51,-42.93 129.52,-48.02 16.01,-5.09 93.87,-22.56 109.88,-22.56 16.01,0 56.75,-5.1 86.59,5.09 29.83,10.19 144.07,45.84 192.82,101.14 48.74,55.3 80.76,86.58 93.13,104.78 12.36,18.2 28.37,40.03 34.92,72.04 6.55,32.01 17.47,104.05 21.1,125.15 3.64,21.1 0.73,44.38 26.92,61.11 26.19,16.74 79.31,49.48 96.77,56.76 17.47,7.27 33.47,2.91 53.84,35.65 20.38,32.75 56.02,70.58 64.03,93.87 8.01,23.28 9.46,50.93 8.73,77.86 -0.73,26.92 1.45,138.97 2.18,153.53 0.73,14.55 5.1,40.75 19.65,51.66 14.55,10.91 18.91,32.01 22.56,43.65 3.64,11.64 1.45,6.54 26.92,16.73 25.47,10.19 46.56,29.83 61.11,41.47 14.56,11.64 10.92,27.66 16.01,40.03 5.09,12.36 10.18,26.18 17.46,46.56 7.27,20.38 -5.1,40.03 2.91,53.12 8.01,13.1 34.2,48.75 41.47,70.58 7.28,21.82 29.11,56.75 31.29,72.03 2.18,15.29 4.36,26.2 13.1,48.03 8.73,21.83 12.37,42.93 16.73,66.21 4.36,23.29 16.73,46.57 29.1,56.02 12.37,9.46 49.48,32.02 58.21,43.66 8.73,11.64 32.02,32.74 45.84,42.2 13.82,9.46 46.57,32.75 62.58,45.12 16.01,12.37 29.1,25.46 39.29,26.18 10.19,0.74 41.47,-7.27 42.93,31.29 1.45,38.56 -6.54,83.67 -9.45,98.95 -2.92,15.29 -3.64,28.38 -2.92,42.21 0.73,13.82 -11.64,18.91 -5.82,42.2 5.82,23.29 16.01,42.93 29.83,56.03 13.82,13.1 24.01,37.1 39.29,45.84 15.28,8.73 37.11,30.56 68.39,23.29 31.29,-7.28 35.66,-18.2 64.76,-13.82 29.11,4.36 68.4,6.54 92.41,15.28 24.01,8.73 79.32,6.54 96.05,-17.47 16.73,-24 35.29,-40.38 46.57,-49.48 11.28,-9.1 29.83,-29.1 35.28,-20.38 5.46,8.73 11.28,44.39 18.92,59.31 7.64,14.91 38.93,43.66 46.21,49.84 7.27,6.18 25.1,17.1 16.73,30.19 -8.37,13.1 -20.01,13.46 -20.01,22.92 0,9.46 19.29,49.48 14.19,62.58 -5.09,13.1 -24.73,43.65 -32.01,51.65 -7.27,8.01 -8.36,29.84 -10.54,52.02 -2.19,22.2 -9.1,44.75 -22.92,44.39 -13.82,-0.36 -16.38,-5.45 -34.57,-7.64 -18.19,-2.18 -33.11,1.1 -49.48,13.11 -16.37,12 -55.3,24.38 -54.93,34.19 0.36,9.83 19.65,9.46 21.83,19.29 2.18,9.82 1.09,26.92 14.19,29.83 13.1,2.91 26.18,-6.19 32.74,-6.55 6.55,-0.36 17.83,2.18 23.29,19.29 5.46,17.1 19.65,17.82 16.01,32.01 -3.64,14.2 2.18,21.83 -16.01,25.83 -18.19,4.01 -39.65,0.74 -43.66,12.02 -4,11.27 -3.26,21.1 14.92,32.37 18.19,11.28 32.01,16.73 18.91,25.83 -13.1,9.1 -21.83,-10.19 -28.38,1.82 -6.54,12.01 0,16.37 -7.28,32.75 -7.27,16.37 -12.72,44.38 2.19,39.65 14.91,-4.73 33.1,-29.84 38.93,-20.01 5.82,9.83 -7.63,40.38 -12.37,47.3 -4.74,6.92 14.19,16.73 26.92,10.19 12.73,-6.55 20.74,-20.74 26.92,-13.46 6.18,7.27 18.56,17.46 4,32.37 -14.55,14.91 -11.64,21.47 16.01,28.38 27.66,6.92 42.56,0.74 64.03,-13.81 21.47,-14.56 26.93,-19.65 46.21,-10.93 19.29,8.73 41.47,17.11 57.49,3.64 16.01,-13.46 34.2,-12.37 37.47,-33.84 3.27,-21.46 16.73,-37.47 30.19,-44.74 13.46,-7.28 11.28,-19.65 17.82,-32.02 6.55,-12.37 13.1,6.92 33.84,3.64 20.74,-3.28 74.95,-32.38 90.59,-32.02 15.64,0.36 30.19,8.73 34.93,34.2 4.73,25.46 9.83,41.84 9.83,64.76 0,22.91 -6.55,57.48 -7.64,70.58 -1.09,13.1 -0.74,31.29 -4.01,50.21 -3.27,18.92 -27.28,51.3 -19.64,65.49 7.63,14.19 17.1,21.47 30.19,26.92 13.1,5.46 52.02,-19.28 62.21,-30.19 10.19,-10.92 19.64,-23.29 36.02,-15.28 16.37,8 70.58,16.37 87.68,31.28 17.1,14.91 50.93,20.38 63.67,21.47 12.72,1.09 23.28,5.09 31.65,17.1 8.37,12.01 20.38,26.92 33.84,33.47 13.46,6.54 46.2,14.55 63.66,6.19 17.47,-8.37 37.47,-13.47 56.4,-8.01 18.91,5.45 53.84,47.65 84.76,55.3 30.93,7.64 95.32,-1.82 110.6,0.36 15.28,2.18 54.93,18.2 74.22,17.83 19.28,-0.37 89.14,-14.55 101.5,-17.83 12.37,-3.27 42.56,-13.1 55.31,-22.2 12.73,-9.09 22.55,-14.55 41.47,-23.28 18.91,-8.73 37.84,-5.1 52.02,0.72 14.19,5.83 41.48,27.28 57.49,30.93 16.01,3.64 68.38,36.38 78.94,40.02 10.55,3.64 54.22,40.75 73.49,43.66 19.29,2.91 32.02,8.73 44.75,-8.37 12.72,-17.1 29.1,-29.11 40.38,-32.38 11.27,-3.27 26.56,-4.73 41.11,1.83 14.55,6.54 21.1,14.91 79.67,20.73 58.57,5.82 55.67,25.83 78.58,17.46 22.92,-8.36 38.94,-28.01 64.03,-36.75 25.1,-8.73 58.21,2.18 76.04,11.64 17.82,9.46 57.85,0 73.49,-4.73 15.64,-4.73 53.84,-3.27 80.76,-0.73 26.92,2.54 59.66,1.45 69.85,6.55 10.19,5.09 30.19,12.36 55.3,16.73 25.1,4.36 110.6,38.56 116.78,40.75 6.19,2.18 25.14,15.27 40.78,16.72 15.64,1.45 27.65,-3.26 44.74,-2.54 17.11,0.73 37.85,-1.82 41.12,3.64 3.27,5.45 2.91,20.37 8.73,26.56 5.83,6.18 24.74,21.47 30.93,25.1 6.18,3.64 25.82,9.09 34.19,30.92 8.37,21.83 36.38,47.66 46.57,62.21 10.19,14.55 21.46,25.83 47.29,30.56 25.84,4.74 45.12,16.01 60.76,7.64 15.65,-8.37 6.55,-5.83 28.38,-29.84 21.83,-24 38.21,-45.11 51.67,-50.56 13.46,-5.46 36.01,-12.73 64.39,-13.1 28.38,-0.37 54.94,13.45 79.68,-2.19 24.74,-15.64 29.47,-40.02 31.28,-50.21 1.82,-10.18 -8.73,-36.01 2.54,-45.11 11.28,-9.1 20.01,-17.82 37.47,-14.55 17.46,3.27 34.2,19.64 52.39,14.91 18.2,-4.73 30.56,-14.55 37.11,-16.37 6.55,-1.82 35.29,0.36 52.39,-30.93 17.1,-31.28 36.38,-40.02 49.48,-49.83 13.1,-9.83 24.01,-23.66 38.93,-31.66 14.91,-8.01 14.55,13.46 40.38,-14.19 25.83,-27.65 66.58,-62.94 67.3,-74.22 0.73,-11.28 -21.82,-18.91 -29.1,-41.11 -7.27,-22.2 -24.01,-53.48 -24.01,-66.94 0,-13.46 7.28,-33.11 15.64,-50.94 8.37,-17.82 28.74,-46.21 35.66,-69.48 6.92,-23.29 -1.45,-49.12 1.09,-64.76 2.54,-15.64 15.28,-43.29 16.74,-68.39 1.45,-25.1 6.18,-55.66 8.73,-69.86 2.54,-14.19 5.83,-22.92 -5.82,-25.83 -11.64,-2.91 -19.29,1.45 -50.57,-2.18 -31.29,-3.64 -56.02,-29.11 -72.04,-36.02 -16.01,-6.91 -26.56,-3.28 -40.75,2.91 -14.19,6.19 -26.56,12.37 -37.47,2.19 -10.92,-10.19 -37.1,-24.38 -58.57,-35.66 -21.47,-11.28 -71.68,-31.29 -78.95,-58.94 -7.28,-27.65 -4.73,-74.22 -15.28,-86.23 -10.56,-12.01 -33.11,-21.46 -39.3,-40.02 -6.18,-18.55 -4.73,-32.38 -3.27,-55.66 1.45,-23.29 3.28,-30.92 -10.92,-48.03 -14.19,-17.11 -38.56,-33.47 -45.11,-39.65 -6.55,-6.19 -16.45,-10.95 -16.45,-10.95z"/>
   <path id="quindio" class="fil2 str0" d="M3532.78 11312.4c10.69,-2.2 17.93,-5.67 22.33,-11.95 4.41,-6.29 11.95,-12.9 12.58,-20.44 0.63,-7.55 -3.46,-20.44 -3.46,-29.25 0,-8.8 3.14,-14.47 8.81,-24.84 5.66,-10.38 18.87,-34.91 22.95,-41.2 4.09,-6.29 2.53,-21.7 11.01,-26.42 8.49,-4.72 20.14,-10.38 29.88,-14.15 9.75,-3.78 23.28,-4.4 28.93,-14.78 5.66,-10.38 -0.62,-34.91 -1.88,-46.86 -1.26,-11.95 -5.67,-22.33 -0.95,-28.62 4.73,-6.28 16.04,-7.22 21.7,-5.66 5.66,1.58 29.88,10.69 38.69,10.69 8.81,0 17.61,4.09 40.57,-0.94 22.96,-5.03 23.58,-0.32 30.51,-11.33 6.92,-11 2.82,-31.13 4.72,-44.34 1.88,-13.21 1.88,-25.78 11.95,-33.65 10.06,-7.86 21.7,-16.03 33.33,-16.03 11.63,0 27.36,3.78 33.33,2.82 5.98,-0.94 25.16,-23.58 29.56,-28.3 4.41,-4.72 22.64,-2.83 26.1,-3.46 3.47,-0.63 41.83,-23.9 47.81,-33.02 5.98,-9.13 9.74,-22.64 5.02,-32.09 -4.72,-9.43 -28.93,-32.39 -31.13,-41.83 -2.2,-9.43 0.94,-12.27 6.92,-21.7 5.98,-9.43 16.68,-17.93 14.78,-28.3 -1.88,-10.38 -8.81,-22.33 -14.47,-23.58 -5.66,-1.26 -22.95,0.62 -25.47,-5.67 -2.52,-6.29 -5.67,-12.27 4.72,-17.61 10.38,-5.35 20.43,-6.92 29.56,-16.35 9.12,-9.44 40.57,-42.78 51.26,-57.87 10.69,-15.09 90.57,-133.03 90.57,-133.03 0,0 14.78,-23.28 21.7,-26.73 6.93,-3.46 35.23,-22.96 54.09,-27.99 18.87,-5.02 36.17,-8.8 45.6,-20.43 9.43,-11.64 35.85,-64.8 41.83,-68.88 5.98,-4.09 22.33,-10.07 45.29,-36.17 22.96,-26.1 28.93,-36.79 33.97,-55.98 5.03,-19.18 11.63,-51.26 21.38,-65.42 9.75,-14.15 45.29,-94.65 49.06,-100.95 3.78,-6.29 46.54,-74.54 56.29,-85.23 9.75,-10.69 57.55,-54.73 67.3,-61.65 9.75,-6.92 46.23,-37.11 57.55,-44.03 11.32,-6.92 38.36,-25.16 44.65,-37.11 6.29,-11.95 10.7,-47.49 7.87,-58.49 -2.83,-11.01 -10.38,-53.15 -8.81,-69.2 1.58,-16.03 15.73,-35.22 21.7,-46.54 5.98,-11.32 16.04,-50.63 16.98,-68.24 0.94,-17.61 1.58,-93.09 1.58,-104.72 0,-11.64 1.57,-89.63 5.66,-107.87 4.08,-18.24 16.03,-84.91 17.29,-98.76 1.26,-13.84 -1.88,-74.22 0,-81.77 1.89,-7.55 14.16,-57.24 16.98,-66.99 2.83,-9.75 27.99,-110.07 29.56,-117.31 1.58,-7.23 16.99,-66.99 21.39,-77.05 4.4,-10.07 15.41,-32.39 19.81,-49.38 4.4,-16.98 18.24,-95.92 20.76,-112.91 2.52,-16.97 2.83,-58.18 5.98,-75.47 3.14,-17.3 17.61,-59.76 22.64,-75.8 5.03,-16.04 16.35,-47.8 26.1,-59.75 9.75,-11.96 42.45,-51.59 59.12,-65.74 16.68,-14.15 33.65,-28.93 47.8,-38.68 14.16,-9.75 72.03,-65.74 85.55,-75.48 13.53,-9.75 78.94,-61.95 89,-74.22 10.06,-12.27 13.83,-22.02 18.24,-61.33 4.4,-39.31 2.51,-132.41 3.46,-161.34 0.94,-28.93 7.23,-88.69 12.58,-103.16 5.35,-14.47 19.82,-45.91 32.39,-56.92 12.58,-11.01 60.39,-65.1 72.34,-73.91 11.95,-8.8 40.25,-29.88 48.43,-34.9 8.18,-5.03 95.29,-78.63 103.78,-84.29 8.5,-5.66 21.7,-5.98 26.11,-18.24 4.4,-12.27 2.52,-26.73 11.01,-41.83 8.48,-15.09 11,-22.96 32.38,-33.97 21.38,-11.01 137.43,-33.64 143.72,-35.85 6.29,-2.2 71.71,-16.98 83.97,-20.13 12.27,-3.14 41.23,-4.71 55.06,-8.48 13.84,-3.78 45.29,-8.49 66.99,-22.64 21.7,-14.15 44.66,-30.51 50.64,-44.03 5.98,-13.53 17.29,-67.94 16.67,-92.46 -0.62,-24.53 -6.92,-82.71 -6.92,-96.56 0,-13.83 -5.35,-81.45 -0.63,-111.95 4.72,-30.51 12.27,-55.67 17.93,-70.14 5.67,-14.47 29.88,-85.55 40.26,-103.16 10.38,-17.61 39.31,-50.63 49.37,-61.95 10.07,-11.33 40.57,-40.89 48.44,-50.64 7.87,-9.75 23.28,-16.67 30.19,-23.58 6.92,-6.92 24.84,-23.9 24.53,-40.25 -0.31,-16.36 -4.72,-51.89 -8.18,-56.61 -3.46,-4.72 -10.69,-9.75 -23.58,-11.95 -12.9,-2.21 -41.52,-1.58 -51.27,-1.89 -9.74,-0.32 -25.78,2.52 -33.33,7.23 -7.55,4.72 -46.55,38.05 -54.09,45.92 -7.55,7.86 -30.51,34.59 -35.85,41.19 -5.35,6.61 -27.99,40.26 -32.39,44.98 -4.41,4.72 -18.24,23.27 -27.68,25.48 -9.43,2.2 -50.95,13.83 -62.9,17.93 -11.95,4.08 -38.05,6.6 -46.54,16.35 -8.49,9.75 -24.84,34.29 -33.96,40.89 -9.13,6.61 -27.99,22.96 -39.94,26.1 -11.95,3.15 -41.83,7.23 -55.04,5.35 -13.21,-1.89 -71.07,-4.41 -84.29,-4.41 -13.21,0 -20.75,-6.92 -34.28,-2.51 -13.53,4.4 -29.56,8.8 -39.31,17.93 -9.75,9.12 -37.43,43.39 -44.04,49.69 -6.6,6.29 -19.49,18.56 -28.62,22.96 -9.12,4.4 -23.27,12.26 -34.59,4.72 -11.32,-7.54 -41.19,-35.85 -50.32,-45.6 -9.12,-9.75 -30.5,-30.5 -38.68,-42.45 -8.18,-11.96 -27.99,-42.15 -37.74,-51.89 -9.75,-9.75 -40.89,-36.17 -50.32,-43.72 -9.43,-7.54 -23.27,-18.87 -32.39,-20.44 -9.12,-1.57 -26.42,-1.26 -37.11,-1.57 -10.69,-0.32 -35.53,3.14 -61.32,-5.35 -25.79,-8.49 -84.29,-33.97 -91.2,-36.49 -6.92,-2.51 -33.65,-12.89 -46.54,-11.63 -12.89,1.26 -24.85,6.29 -37.43,7.55 -12.58,1.26 -22.01,5.66 -38.05,1.26 -16.04,-4.4 -33.65,-2.21 -43.4,-7.23 -9.75,-5.03 -14.15,-7.55 -21.7,-14.47 -7.54,-6.92 -1.26,-6.6 -18.55,-11.01 -17.3,-4.4 -16.98,-6.92 -26.42,-8.18 -9.43,-1.26 -15.1,-5.03 -29.88,0.94 -14.78,5.98 -29.56,11.95 -35.53,16.67 -5.98,4.73 -2.52,5.35 -11.64,8.18 -9.12,2.83 -13.53,2.21 -23.58,-0.94 -10.07,-3.14 -14.47,-12.89 -28.31,-19.18 -13.83,-6.28 -15.08,-9.75 -32.08,-10.06 -16.98,-0.32 -26.42,-2.52 -31.76,3.78 -5.35,6.28 -17.3,20.76 -26.73,29.24 -9.43,8.49 -16.03,16.98 -29.88,19.18 -13.83,2.2 -47.8,-5.98 -58.18,-11.01 -10.38,-5.02 -8.18,-13.52 -20.76,-11.32 -12.58,2.2 -17.3,-1.89 -30.5,0 -13.21,1.88 -22.34,0.94 -29.88,0 -7.55,-0.95 -19.19,1.25 -28.93,-2.2 -9.75,-3.46 -11.95,-6.29 -22.34,-10.38 -10.38,-4.08 -4.08,0.32 -13.83,-8.8 -9.75,-9.13 -12.58,-14.47 -19.18,-10.07 -6.61,4.4 -31.76,10.69 -36.49,15.41 -4.72,4.72 -17.29,21.7 -20.75,31.13 -3.46,9.43 -1.26,18.24 -12.58,19.5 -11.32,1.26 -21.07,-4.72 -39.31,-10.07 -18.23,-5.34 -29.88,-2.83 -44.03,-21.7 -14.15,-18.87 -14.15,-27.98 -28.93,-31.13 -14.78,-3.14 -34.28,-21.07 -50.94,-31.13 -16.67,-10.06 -23.28,-13.52 -35.54,-13.52 -12.27,0 -18.24,-6.61 -39.63,-22.96 -21.38,-16.35 -25.78,-13.21 -35.53,-15.73 -9.75,-2.52 -31.76,-6.29 -39.31,-3.78 -7.55,2.52 -28.93,12.58 -34.28,16.98 -5.35,4.4 -18.88,10.38 -23.28,12.27 -4.4,1.88 -9.43,7.54 -9.43,14.47 0,6.92 6.92,111.01 7.55,118.56 0.62,7.55 12.89,87.43 12.89,97.8 0,10.38 15.09,85.23 16.67,94.66 1.58,9.43 5.98,49.69 5.03,58.19 -0.94,8.49 0.32,14.78 -5.35,20.43 -5.66,5.67 -31.45,21.08 -77.68,15.73 -46.23,-5.34 -88.05,-14.15 -102.52,-17.29 -14.47,-3.15 -29.25,-7.86 -45.29,-6.92 -16.04,0.94 -47.49,6.6 -58.19,13.52 -10.69,6.92 -33.33,22.02 -44.97,24.22 -11.63,2.2 -38.37,8.49 -68.24,-5.34 -29.88,-13.84 -76.42,-33.34 -97.18,-39 -20.76,-5.66 -52.84,-12.27 -64.47,-10.38 -11.63,1.88 -45.92,8.8 -62.59,11.63 -16.67,2.83 -44.66,14.15 -73.9,1.89 -29.25,-12.27 -41.51,-22.64 -50.32,-25.79 -8.81,-3.14 -20.44,-5.02 -34.59,-7.86 -14.15,-2.83 -17.3,-10.7 -27.68,-10.7 -10.38,0 -12.89,3.47 -16.98,13.84 -4.08,10.38 -28.62,62.27 -35.23,74.54 -6.6,12.27 -25.15,31.45 -37.1,41.83 -11.96,10.38 -45.6,33.02 -59.13,39.94 -13.53,6.92 -29.56,14.78 -33.33,21.69 -3.78,6.93 -7.55,15.1 -8.49,35.23 -0.94,20.13 -2.83,27.68 -8.81,32.08 -5.98,4.41 -14.47,23.59 -20.75,34.29 -6.29,10.69 -13.84,23.27 -22.96,32.08 -9.13,8.81 -8.49,21.08 -26.42,26.73 -17.93,5.66 -41.83,4.72 -42.46,22.01 -0.62,17.3 -9.75,29.88 1.58,42.14 11.33,12.27 29.56,23.9 30.82,35.85 1.26,11.95 -0.94,9.13 1.58,22.96 2.52,13.84 4.72,7.55 6.29,17.61 1.57,10.07 4.72,20.14 -5.98,22.96 -10.69,2.83 -38.69,14.47 -51.26,28.31 -12.58,13.83 -19.19,11.63 -21.08,35.53 -1.88,23.9 -1.26,22.02 6.29,32.71 7.55,10.69 16.98,11.01 20.75,21.38 3.78,10.38 0.95,15.73 9.44,15.73 8.48,0 17.29,-0.94 15.41,8.49 -1.89,9.43 -7.24,23.9 -9.43,32.39 -2.2,8.48 0.62,16.03 -6.61,21.07 -7.23,5.03 -10.69,-0.62 -15.09,8.81 -4.41,9.43 -4.4,13.21 -7.55,21.38 -3.14,8.18 -1.26,7.86 -11.95,12.89 -10.69,5.03 -26.42,11.33 -25.48,19.18 0.94,7.87 -10.38,22.33 -6.28,27.05 4.08,4.72 22.33,5.97 27.04,13.2 4.72,7.24 14.78,9.44 12.89,21.39 -1.88,11.95 -1.58,24.53 -9.75,26.73 -8.18,2.2 -20.75,-4.08 -27.04,3.15 -6.29,7.23 -19.5,13.52 -23.58,30.82 -4.09,17.3 -7.23,37.43 -4.72,48.44 2.51,11.01 -6.29,18.55 0,22.64 6.28,4.08 10.38,11 20.44,14.47 10.06,3.46 22.63,2.2 24.53,6.28 1.89,4.09 4.72,5.35 2.2,17.3 -2.52,11.95 -4.08,9.75 2.83,19.82 6.92,10.06 7.23,10.38 7.86,27.36 0.62,16.98 -4.09,23.9 -4.72,33.02 -0.63,9.13 0.32,41.83 -3.14,58.19 -3.47,16.35 -4.73,28.62 -10.07,39.93 -5.35,11.33 -1.88,16.67 -5.66,29.25 -3.78,12.58 -4.73,25.48 -10.7,36.48 -5.97,11.01 -13.2,6.93 -11.94,15.1 1.25,8.18 -0.63,14.47 14.15,23.9 14.78,9.43 23.27,-0.94 27.36,9.75 4.08,10.69 7.55,31.13 2.2,40.25 -5.34,9.13 -3.46,17.93 -5.98,23.9 -2.52,5.98 -7.23,7.87 -17.61,7.87 -10.38,0 -27.69,9.13 -32.39,16.67 -4.72,7.54 -10.07,13.84 1.26,16.98 11.32,3.14 15.09,-0.63 14.15,7.23 -0.94,7.86 -5.03,10.07 -2.83,20.76 2.2,10.68 8.81,15.4 16.98,22.63 8.18,7.23 19.5,10.7 25.48,16.98 5.98,6.29 16.03,21.38 27.04,17.3 11.01,-4.09 10.69,6.29 -11,13.53 -21.7,7.23 -45.61,17.61 -55.67,20.13 -10.07,2.52 -19.49,3.92 -24.22,9.12 -4.72,5.19 -9.75,12.9 -9.91,18.4 -0.16,5.51 -1.88,14.78 -3.93,20.14 -2.04,5.34 -10.22,7.22 -14.15,9.74 -3.92,2.52 -14.31,12.89 -17.13,24.38 -2.83,11.48 -4.41,31.92 -3.62,39.15 0.78,7.23 2.68,12.89 -0.48,18.4 -3.14,5.51 -4.56,13.21 -12.27,15.25 -7.7,2.05 -14.93,6.29 -16.98,1.42 -2.04,-4.88 -6.12,-16.51 -11.32,-11.01 -5.19,5.51 -11.79,11.01 -8.18,20.44 3.62,9.43 13.21,17.14 16.83,20.6 3.62,3.46 3.62,9.59 -2.68,14.47 -6.29,4.88 -11.64,10.38 -11.79,16.35 -0.16,5.98 5.82,10.69 10.22,11.64 4.41,0.94 13.84,5.02 18.4,8.48 4.56,3.47 11.95,10.38 16.67,13.06 4.72,2.68 9.91,10.06 22.17,7.23 12.27,-2.83 14.63,-6.61 22.49,-4.09 7.86,2.52 17.61,11.95 28.62,11.48 11.01,-0.47 37.43,-1.25 47.96,-0.62 10.53,0.62 23.43,-2.68 33.02,-5.82 9.59,-3.14 22.64,-6.45 28.93,-10.53 6.29,-4.09 11.01,-11.01 22.18,-8.97 11.16,2.04 22.48,11.63 27.68,17.93 5.18,6.29 38.99,36.33 50.94,44.5 11.95,8.18 40.41,25.63 62.11,26.1 21.7,0.48 34.13,1.42 47.34,-14.63 13.21,-16.03 14.94,-22.64 19.5,-22.48 4.56,0.16 13.68,6.92 19.97,19.34 6.29,12.43 8.21,19.21 14.5,26.76 6.29,7.55 12.58,13.21 20.44,16.67 7.86,3.46 18.87,8.49 31.13,7.55 12.27,-0.94 27.36,-5.34 45.92,2.52 18.55,7.86 33.65,14.47 40.25,24.53 6.6,10.07 10.9,21.23 8.49,25.79 -2.41,4.57 -6.89,7.71 -8.45,13.77 -1.58,6.05 -2.68,10.38 -1.49,17.93 1.17,7.55 -1.03,17.77 -0.72,24.45 0.32,6.68 2.28,30.58 0.87,34.52 -1.41,3.92 -5.43,7.63 -2.36,14.54 3.07,6.92 10.23,6.68 11.88,12.98 1.65,6.29 -1.58,23.19 0.62,28.38 2.21,5.18 13.45,22.64 19.59,25.08 6.13,2.44 20.59,1.58 24.68,7 4.08,5.43 22.17,29.8 22.96,35.3 0.78,5.5 1.65,16.03 1.33,21.23 -0.32,5.19 0.63,9.75 6.77,14.78 6.13,5.03 9.83,5.89 13.05,12.11 3.22,6.21 0.31,13.84 -2.36,18.79 -2.68,4.95 -16.29,24.06 -16.52,30.66 -0.23,6.61 -0.86,28.07 -0.39,32.87 0.48,4.79 1.03,24.13 2.6,29.08 1.57,4.96 7.47,18.24 4.01,28.07 -3.46,9.83 -21.63,33.1 -22.09,47.57 -0.47,14.47 3.47,34.13 1.89,41.04 -1.58,6.92 -2.52,6.76 -5.83,21.38 -3.3,14.63 -6.13,13.37 -2.36,23.28 3.78,9.9 7.23,19.33 8.81,31.44 1.58,12.12 5.82,25 11.01,29.41 5.19,4.4 17.61,8.18 20.99,11.64 3.38,3.45 7.38,14.47 7.23,20.52 -0.16,6.05 5.82,21.7 8.33,24.14 2.52,2.43 9.53,12.58 8.43,18.4 -1.1,5.82 -9.36,27.36 -10.69,31.06 -1.34,3.69 -12.18,21 -15.72,24.3 -3.54,3.3 -5.58,1.72 -7.16,7.63 -1.57,5.9 -5.98,24.93 -8.18,31.22 -2.2,6.28 -24.44,45.91 -23.66,52.68 0.79,6.76 -4.4,25.32 -6.12,35.07 -1.73,9.74 -2.21,14.78 -5.03,22.01 -2.83,7.23 -23.28,23.43 -29.41,26.42 -6.13,2.99 -35.53,25.63 -36.79,32.71 -1.26,7.08 -4.4,32.08 -4.09,40.25 0.32,8.18 -6.6,31.77 -10.85,39.31 -4.24,7.55 -23.58,22.49 -25.32,29.09 -1.72,6.61 -15.09,31.76 -23.11,41.99 -8.03,10.22 -47.8,63.38 -50.79,69.5 -2.99,6.13 -14.47,29.72 -19.97,36.01 -5.51,6.29 -14.94,19.34 -14.47,26.58 0.47,7.23 2.36,19.5 0.78,36.33 -1.58,16.83 -2.04,39.78 -1.88,42.77 0.16,2.98 3.62,22.64 5.18,34.43 1.58,11.79 9.13,46.86 11.01,53.47 1.89,6.6 5.82,21.54 3.62,33.49 -2.2,11.95 -11.79,39.15 -18.71,46.39 -6.93,7.23 -29.72,36.48 -33.18,46.54 -3.47,10.07 -0.79,27.83 -10.54,48.44 -9.75,20.59 -15.09,40.73 -20.13,47.33 -5.03,6.61 -20.6,11.63 -23.58,18.08 -2.99,6.45 -5.35,19.98 -8.33,27.83 -2.99,7.86 -10.07,13.52 -8.03,27.52 2.05,13.99 11.8,34.12 12.74,38.68 0.94,4.57 1.58,10.86 -1.26,17.62 -2.83,6.76 -7.23,12.74 -5.67,17.3 1.58,4.56 6.29,18.23 8.81,24.68 2.52,6.45 15.73,13.52 7.08,33.96 -8.65,20.44 -12.58,17.62 -10.22,32.55 2.36,14.94 4.88,25.17 13.05,30.83 8.18,5.66 21.7,20.43 25.63,26.26 3.92,5.82 9.9,5.97 14.62,10.38 4.72,4.4 11.95,7.39 11.01,22.96 -0.94,15.57 -5.98,31.29 -9.75,33.97 -3.78,2.67 -6.76,3.92 -10.53,14.78 -3.78,10.85 -8.49,18.72 -8.18,34.29 0.32,15.57 2.99,22.79 14.94,23.27 11.95,0.48 60.22,2.52 67.29,4.72 7.08,2.21 17.78,4.25 25.48,1.89 7.71,-2.36 21.7,-14.16 31.29,-12.58 9.59,1.58 34.59,20.28 40.57,22.64 5.98,2.36 56.14,10.53 69.82,10.07 13.68,-0.48 66.36,-1.73 81.77,-3.3 15.41,-1.58 47.33,-6.77 56.61,-7.08 9.28,-0.32 29.72,-5.03 33.18,8.49 3.46,13.52 13.21,43.09 14.94,47.96 1.72,4.88 5.02,9.9 2.52,15.88 -2.52,5.98 -20.45,32.08 -22.18,36.8 -1.73,4.72 -5.98,11.63 -2.83,17.13 3.15,5.51 1.1,10.07 7.87,12.27 6.76,2.2 27.2,3.46 41.67,0.16 14.47,-3.3 76.74,-2.99 84.45,-4.4 7.7,-1.42 47.49,-5.27 47.49,-5.27z"/>
   <path id="caldas" class="fil3 str0" d="M6478.64 6015.09c4.72,-33.02 10.22,-91.98 12.58,-105.34 2.36,-13.37 4.52,-37.74 3.54,-45.6 -0.99,-7.87 -20.04,-18.28 -26.14,-21.62 -6.1,-3.34 -82.35,-37.34 -86.67,-45.8 -4.32,-8.45 -56.4,-105.92 -58.76,-121.26 -2.37,-15.33 0.39,-41.85 -6.1,-50.9 -6.49,-9.04 -20.05,-15.53 -23.39,-24.37 -3.34,-8.85 -10.22,-56.41 -10.41,-71.93 -0.2,-15.53 4.71,-39.71 0.38,-63.3 -4.32,-23.58 -10.61,-62.1 -7.07,-73.89 3.53,-11.79 6.67,-23.98 25.54,-30.27 18.87,-6.28 75.08,-28.69 85.69,-37.34 10.62,-8.64 11.79,-13.76 12.18,-27.51 0.4,-13.76 11.4,-23.98 21.62,-35.77 10.23,-11.79 25.55,-46.39 34.59,-63.29 9.04,-16.9 20.43,-33.81 23.98,-47.95 3.54,-14.15 5.5,-20.43 5.9,-34.19 0.39,-13.76 2.36,-17.3 7.86,-28.7 5.5,-11.39 9.83,-23.18 11.4,-50.31 1.57,-27.12 7.48,-67.23 4.14,-81.58 -3.34,-14.35 -2.56,-20.64 -13.37,-25.94 -10.8,-5.3 -29.84,-21.43 -41.63,-35.19 -11.78,-13.75 -33.8,-36.94 -44.8,-36.94 -11.01,0 -21.24,7.47 -33.42,1.17 -12.17,-6.28 -17.29,-11.4 -19.26,-26.73 -1.96,-15.33 -14.14,-33.8 -28.68,-42.06 -14.54,-8.25 -20.04,-11 -18.48,-21.23 1.57,-10.22 30.46,-88.04 31.25,-91.58 0.79,-3.54 4.13,-32.23 1.18,-38.13 -2.96,-5.9 -8.85,-19.66 -3.35,-26.34 5.5,-6.67 26.73,-24.56 31.84,-26.33 5.11,-1.76 31.04,-22.99 37.33,-29.67 6.28,-6.68 32.62,-29.88 43.63,-42.84 11,-12.97 34.98,-26.33 43.23,-31.44 8.25,-5.11 66.44,-53.06 77.44,-68.39 11,-15.33 12.97,-41.67 24.37,-50.31 11.4,-8.65 21.22,-10.23 34.58,-30.27 13.37,-20.04 41.67,-45.98 47.17,-51.49 5.51,-5.5 19.26,-33.4 34.59,-42.83 15.33,-9.43 49.13,-13.76 64.46,-10.62 15.33,3.14 77.44,27.91 88.44,34.19 11.01,6.29 92.37,42.84 105.74,44.81 13.36,1.97 39.7,17.29 56.59,14.15 16.9,-3.14 22.41,-5.11 48.35,-25.94 25.94,-20.82 34.98,-36.16 54.64,-33.41 19.65,2.75 17.68,18.48 42.44,3.15 24.77,-15.33 19.66,-19.66 31.84,-35.38 12.18,-15.73 23.98,-15.33 28.69,-26.34 4.72,-11 8.26,-34.98 16.9,-55.03 8.65,-20.04 20.83,-40.09 33.41,-50.7 12.58,-10.61 25.55,-12.58 45.98,-15.72 20.44,-3.15 65.64,-7.08 78.61,-11.8 12.98,-4.72 37.74,-17.29 45.99,-26.73 8.25,-9.43 23.19,-9.83 35.38,-8.64 12.18,1.17 22.4,9.03 41.66,5.11 19.26,-3.93 38.92,-12.19 46.78,-3.54 7.86,8.65 30.66,28.7 40.88,32.63 10.22,3.93 35.77,11.01 40.88,19.65 5.11,8.65 20.44,29.08 32.63,29.08 12.18,0 31.45,11.41 43.64,7.48 12.17,-3.93 29.48,-22.41 38.91,-23.98 9.43,-1.58 20.44,10.21 38.52,2.75 18.08,-7.47 38.91,-14.94 40.48,-23.98 1.58,-9.03 -12.98,-12.97 -13.76,-29.48 -0.78,-16.51 1.58,-37.34 5.51,-52.67 3.92,-15.33 -10.23,-33.02 10.61,-44.42 20.83,-11.4 39.31,-12.18 40.09,-26.33 0.78,-14.15 7.86,-64.07 20.04,-90.79 12.19,-26.73 31.45,-71.14 40.89,-78.61 9.42,-7.47 28.3,-9.83 33.8,-24.76 5.5,-14.94 0.39,-27.92 10.22,-34.2 9.83,-6.28 25.55,-9.04 31.83,-18.87 6.29,-9.83 38.14,-57.38 44.81,-73.11 6.68,-15.72 30.27,-58.95 38.92,-68.38 8.64,-9.43 20.04,-6.68 34.98,-16.51 14.94,-9.83 22.02,-23.58 28.69,-43.64 6.68,-20.04 -7.46,-28.69 1.58,-45.98 9.04,-17.29 13.37,-43.23 27.13,-61.71 13.75,-18.48 22.01,-29.48 42.44,-30.66 20.44,-1.17 62.88,-4.32 80.97,-4.72 18.08,-0.39 38.92,-2.36 51.49,-14.93 12.58,-12.58 7.86,-37.73 18.08,-49.92 10.22,-12.18 12.58,-7.08 38.52,-9.43 25.94,-2.36 35.38,-6.29 51.89,-14.15 16.5,-7.87 17.68,-16.51 33.41,-14.93 15.72,1.57 65.63,9.04 80.18,11 14.54,1.97 36.56,8.65 53.07,8.65 16.5,0 49.13,-14.94 59.35,-22.41 10.22,-7.46 37.34,-15.33 52.28,-16.5 14.93,-1.18 38.91,-29.48 48.34,-34.98 9.43,-5.5 52.28,-1.17 64.07,-5.5 11.79,-4.33 23.98,-20.05 32.63,-27.91 8.64,-7.87 3.14,3.93 26.73,-7.08 23.58,-11.01 42.84,-29.87 49.13,-35.77 6.29,-5.9 36.17,-4.72 47.17,-2.36 11.01,2.36 45.6,20.43 54.24,20.43 8.65,0 33.41,0.39 49.92,-0.78 16.51,-1.17 38.92,5.5 52.67,12.58 13.76,7.08 51.89,47.17 60.93,49.14 9.04,1.97 31.05,14.15 38.13,11.01 7.08,-3.15 16.51,-15.73 36.16,-5.11 19.65,10.61 33.02,11.39 48.74,9.83 15.72,-1.58 36.94,23.18 47.17,15.72 10.22,-7.47 23.57,-32.63 29.87,-44.02 6.29,-11.4 5.11,-19.27 19.65,-21.63 14.55,-2.35 24.38,-7.86 45.2,-21.22 20.83,-13.37 27.13,-32.63 45.2,-39.31 18.08,-6.68 27.52,-5.89 38.92,-4.72 11.39,1.17 67.21,-9.83 82.54,-12.58 15.33,-2.75 63.28,-3.93 69.96,-0.79 6.67,3.15 66.04,63.29 78.22,66.83 12.18,3.53 33.41,24.76 42.84,20.43 9.42,-4.33 33.8,-3.54 43.23,2.36 9.43,5.9 35.38,30.27 44.41,28.69 9.04,-1.57 64.07,1.97 77.04,3.15 12.97,1.17 27.91,-8.26 38.13,1.17 10.22,9.43 30.27,31.05 39.7,46.78 9.43,15.72 8.47,24.19 17.32,18.68 8.85,-5.5 15.14,-15.91 20.25,-12.97 5.11,2.95 14.93,19.65 23.19,25.55 8.25,5.89 18.47,17.68 28.49,20.04 10.03,2.36 22.8,-6.1 33.42,-14.35 10.61,-8.26 22.4,-23.39 28.69,-21.81 6.28,1.58 20.43,20.24 27.31,18.47 6.88,-1.76 19.06,-6.88 28.5,-6.09 9.43,0.78 15.73,4.72 17.69,-8.65 1.96,-13.36 14.54,-73.89 19.65,-82.54 5.11,-8.64 30.46,-40.09 45.99,-51.49 15.52,-11.4 62.3,-36.16 66.23,-45.98 3.92,-9.83 13.55,-56.8 15.33,-71.54 1.77,-14.74 7.86,-82.94 15.53,-96.11 7.66,-13.16 36.16,-47.16 43.63,-60.53 7.48,-13.37 5.11,-34.2 0,-44.81 -5.11,-10.62 -30.26,-55.43 -30.26,-66.04 0,-10.62 -3.54,-12.19 3.92,-20.83 7.48,-8.65 13.37,-10.22 20.83,-3.93 7.48,6.29 23.19,23.98 31.84,27.91 8.64,3.93 13.75,12.19 33.4,11.79 19.66,-0.39 51.89,-6.68 74.29,-32.63 22.4,-25.94 27.9,-34.98 23.98,-54.24 -3.93,-19.26 -42.45,-61.7 -45.2,-77.82 -2.75,-16.12 -6.68,-39.31 -5.11,-58.96 1.57,-19.65 -2.75,-21.23 7.47,-23.98 10.22,-2.75 25.55,-0.39 33.41,3.93 7.86,4.32 34.59,23.98 48.34,20.83 13.76,-3.15 31.83,-12.19 36.16,-26.73 4.33,-14.54 7.47,-42.45 6.68,-56.99 -0.78,-14.54 -9.43,-26.33 -19.26,-47.95 -9.83,-21.62 -35.77,-52.28 -46.78,-68.79 -11,-16.51 -20.82,-26.33 -13.36,-40.09 7.47,-13.76 23.57,-27.52 32.62,-32.23 9.04,-4.72 24.38,-12.97 36.56,-12.97 12.18,0 46.77,12.97 54.64,12.58 7.86,-0.39 34.58,5.9 44.02,-1.17 9.43,-7.08 13.76,-18.08 6.68,-27.52 -7.08,-9.43 -40.09,-16.51 -46.78,-35.38 -6.67,-18.87 -20.43,-75.46 -25.15,-96.69 -4.72,-21.23 -17.3,-78.82 -16.51,-91.98 0.78,-13.17 -33.8,-141.5 -29.88,-155.25 3.93,-13.76 1.58,-23.58 1.58,-34.58 0,-11.01 4.33,-36.16 16.9,-45.59 12.58,-9.43 53.06,-23.58 62.49,-30.27 9.43,-6.68 40.1,-23.19 53.85,-47.95 13.76,-24.77 50.31,-74.29 55.81,-82.54 5.51,-8.26 30.67,-81.75 28.3,-97.48 -2.36,-15.72 -22.01,-48.73 -30.66,-58.96 -8.64,-10.22 -44.8,-32.23 -55.03,-38.91 -10.22,-6.68 -29.87,-27.12 -26.32,-40.09 3.53,-12.97 15.33,-43.23 25.15,-55.42 9.83,-12.18 29.08,-33.8 32.62,-44.81 3.54,-11.01 24.38,-88.04 25.95,-107.69 1.57,-19.66 -3.93,-47.96 2.35,-58.57 6.29,-10.61 33.02,-32.23 45.6,-38.91 12.58,-6.68 34.58,-12.58 37.73,-21.23 3.14,-8.65 17.68,-34.2 11,-66.82 -6.68,-32.63 -33.02,-58.96 -38.91,-74.29 -5.9,-15.33 -20.44,-64.46 -19.27,-88.83 1.18,-24.37 0.4,-67.21 7.87,-85.29 7.47,-18.07 22.4,-35.38 27.12,-49.14 4.72,-13.75 9.83,-106.9 4.72,-122.63 -5.11,-15.73 -20.82,-48.34 -34.19,-55.82 -13.36,-7.47 -62.1,-5.89 -79.79,-5.89 -17.68,0 -29.48,11.4 -42.05,-29.48 -12.58,-40.88 -53.07,-110.84 -51.49,-128.53 1.58,-17.68 7.08,-24.76 10.62,-41.27 3.53,-16.51 -4.33,-58.57 -11.4,-82.15 -7.08,-23.57 -17.29,-71.14 -22.01,-88.44 -4.72,-17.29 -24.37,-24.76 -34.59,-28.3 -10.22,-3.53 -48.73,-39.7 -54.64,-50.31 -5.89,-10.61 -12.18,-21.62 -23.98,-21.62 -11.79,0 -31.05,5.9 -41.66,14.54 -10.62,8.65 -57.79,40.09 -69.97,40.88 -12.18,0.79 -19.26,-0.78 -40.48,0.4 -21.23,1.17 -22.79,3.14 -34.19,-3.54 -11.4,-6.68 -22.79,-9.83 -28.3,-3.15 -5.5,6.69 -9.03,33.42 -6.28,44.81 2.75,11.4 5.11,27.52 5.11,43.24 0,15.72 -1.58,26.73 -9.04,24.37 -7.47,-2.36 -4.72,-14.15 -19.26,-14.93 -14.54,-0.79 -22.02,-7.48 -23.98,8.25 -1.97,15.73 -9.43,54.24 -20.44,63.68 -11,9.43 -23.98,35.76 -17.68,55.03 6.29,19.26 20.04,75.07 15.72,84.9 -4.32,9.83 -27.9,43.63 -35.77,57.38 -7.86,13.76 -13.36,20.04 -5.11,29.48 8.26,9.44 18.87,16.91 13.37,28.7 -5.51,11.78 -10.23,15.33 -31.44,7.86 -21.23,-7.47 -27.52,-5.9 -35.38,6.68 -7.87,12.58 4.72,28.29 -3.15,37.33 -7.86,9.04 -26.73,9.83 -47.95,12.58 -21.23,2.75 -47.56,5.89 -81.36,11.78 -33.8,5.9 -52.67,12.58 -64.07,23.98 -11.39,11.39 -11.78,27.12 -33.8,16.11 -22.01,-11 -25.16,-25.94 -56.99,-34.98 -31.83,-9.04 -51.49,-3.93 -66.43,-18.87 -14.93,-14.94 -27.9,-26.73 -37.73,-21.23 -9.83,5.5 -28.69,17.68 -43.64,11.79 -14.93,-5.9 -26.73,-37.73 -35.77,-53.06 -9.04,-15.33 -32.23,-5.9 -51.09,-6.29 -18.87,-0.4 -54.64,-22.01 -72.33,-39.31 -17.68,-17.29 -22.4,-31.44 -25.54,-51.48 -3.15,-20.05 -5.11,-23.98 -11.4,-38.92 -6.29,-14.93 -18.87,-53.06 -31.84,-59.74 -12.97,-6.68 -39.3,-15.72 -55.81,-25.15 -16.51,-9.43 -49.92,-23.98 -65.63,-29.09 -15.73,-5.11 -65.64,-12.58 -82.15,-11 -16.51,1.57 -36.56,-5.51 -47.17,0.39 -10.61,5.89 -22.79,20.04 -30.26,28.3 -7.48,8.25 -27.92,21.62 -40.49,24.76 -12.58,3.14 -31.44,1.58 -51.48,7.86 -20.04,6.29 -35.77,12.97 -60.13,14.94 -24.37,1.97 -46.39,-0.79 -66.04,4.72 -19.65,5.5 -53.06,8.64 -73.89,9.04 -20.83,0.39 -40.09,9.83 -46.78,16.5 -6.67,6.68 -23.19,27.13 -36.55,30.27 -13.37,3.14 -27.52,-1.58 -45.59,9.83 -18.08,11.4 -14.93,23.98 -37.73,30.27 -22.79,6.29 -55.42,5.11 -70.75,12.58 -15.33,7.48 -33.8,18.07 -51.09,18.48 -17.29,0.39 -41.67,-9.04 -60.93,-9.83 -19.26,-0.78 -20.04,1.97 -42.44,6.29 -22.41,4.32 -38.13,5.5 -39.7,15.72 -1.58,10.22 12.58,24.76 11.01,35.38 -1.58,10.62 -0.79,22.41 -15.73,25.16 -14.93,2.75 -33.8,11.78 -38.52,21.62 -4.72,9.83 -17.29,34.98 -18.48,48.73 -1.18,13.76 -3.53,26.33 -9.83,34.2 -6.29,7.86 -30.27,35.38 -42.84,43.23 -12.58,7.86 -30.66,24.37 -40.09,24.77 -9.43,0.39 -42.45,4.32 -52.28,9.42 -9.83,5.12 -24.76,13.37 -34.19,26.33 -9.43,12.98 -28.7,24.77 -44.03,29.48 -15.33,4.72 -33.41,14.93 -44.81,25.54 -11.39,10.62 -14.54,17.69 -29.08,17.69 -14.54,0 -21.62,-4.72 -31.05,-12.18 -9.43,-7.47 -20.83,-13.76 -44.42,-11.4 -23.57,2.36 -33.8,-6.28 -47.16,3.93 -13.37,10.22 -31.84,27.52 -38.91,33.02 -7.08,5.5 -14.55,18.87 -28.3,16.12 -13.76,-2.76 -45.2,-21.24 -58.96,-19.66 -13.76,1.58 -29.87,12.98 -35.77,21.62 -5.9,8.65 -14.15,16.12 -18.08,25.55 -3.92,9.43 -13.75,19.65 -15.72,29.48 -1.97,9.83 -11.79,22.41 -11.79,36.17 0,13.75 16.11,80.57 25.54,88.83 9.43,8.25 13.75,15.33 13.36,25.55 -0.39,10.23 -3.54,22.02 0.39,31.06 3.93,9.03 11.79,27.12 12.98,36.94 1.17,9.83 -3.93,30.66 -11.79,35.77 -7.86,5.11 -24.37,9.83 -21.23,18.48 3.14,8.65 8.65,22.4 19.26,26.73 10.61,4.33 23.58,19.66 24.37,32.23 0.79,12.58 -16.11,35.38 -18.47,48.34 -2.36,12.98 -3.15,39.7 -9.43,45.98 -6.29,6.29 -44.03,29.09 -50.71,37.73 -6.68,8.65 -30.65,27.52 -44.41,34.2 -13.76,6.67 -27.91,9.43 -32.23,18.08 -4.33,8.64 -10.61,25.94 -18.87,28.69 -8.25,2.75 -20.04,0 -24.76,12.97 -4.72,12.98 -13.76,36.16 -25.94,38.52 -12.18,2.36 -49.92,32.23 -52.67,47.95 -2.75,15.73 -5.5,34.2 -6.68,47.96 -1.17,13.75 -0.39,32.62 -10.22,46.77 -9.83,14.15 -8.65,31.83 -19.26,41.27 -10.62,9.43 -19.27,15.73 -32.63,14.15 -13.36,-1.57 -35.77,-11.39 -64.07,-8.25 -28.3,3.14 -20.83,5.11 -53.06,9.83 -32.23,4.72 -46.39,0 -69.18,9.43 -22.8,9.43 -68.39,18.48 -78.22,21.62 -9.83,3.15 -34.98,25.55 -45.98,25.94 -11.01,0.39 -58.57,2.36 -68,7.08 -9.43,4.72 -21.62,19.27 -29.08,33.02 -7.47,13.76 -20.44,33.02 -28.3,38.52 -7.86,5.5 -18.48,3.53 -34.19,7.08 -15.73,3.54 -51.1,25.55 -58.96,33.41 -7.86,7.87 -86.48,136 -97.09,152.5 -10.61,16.52 -51.88,87.27 -61.71,96.3 -9.83,9.04 -33.8,29.88 -38.91,40.88 -5.11,11.01 -20.83,49.53 -30.27,65.64 -9.43,16.12 -84.91,139.54 -94.35,148.97 -9.43,9.43 -10.22,19.66 -28.69,27.91 -18.48,8.26 -28.69,2.75 -33.8,-15.72 -5.11,-18.48 4.73,-38.91 -4.71,-78.22 -9.43,-39.3 -22.8,-63.68 -27.52,-95.9 -4.72,-32.23 -22.8,-27.52 -8.65,-64.46 14.15,-36.95 23.59,-48.73 19.66,-73.11 -3.93,-24.37 -5.51,-27.51 -26.73,-27.51 -21.22,0 -48.73,-5.51 -77.04,-0.79 -28.3,4.72 -28.3,-11.78 -54.24,-14.14 -25.94,-2.37 -59.74,9.43 -58.17,-20.44 1.57,-29.88 -10.23,-24.37 -4.72,-59.74 5.5,-35.38 3.92,-51.1 14.15,-81.75 10.22,-30.66 21.23,-22.01 15.72,-40.88 -5.5,-18.87 -8.64,-49.53 -20.43,-60.54 -11.79,-11.01 -31.44,-5.51 -47.17,-23.58 -15.73,-18.08 -40.88,-22.8 -44.81,-42.45 -3.92,-19.65 -11,-36.94 -4.72,-49.53 6.29,-12.58 9.44,-26.73 11.79,-37.73 2.36,-11.01 -4.72,-17.3 -15.72,-28.3 -11.01,-11.01 -20.44,-54.24 -11.01,-61.32 9.43,-7.08 33.02,-19.66 20.44,-43.23 -12.58,-23.58 -51.89,-41.66 -62.1,-74.68 -10.23,-33.02 -0.01,-51.89 -15.73,-73.89 -15.72,-22.02 -29.88,-28.3 -27.52,-38.53 2.37,-10.22 11.01,-39.3 2.37,-48.73 -8.65,-9.43 -15.73,-12.58 -43.24,-12.58 -27.51,0 -81.75,6.28 -96.69,-15.73 -14.93,-22.01 -12.58,-85.69 -18.87,-106.91 -6.29,-21.23 -11.79,-24.37 -51.1,-40.88 -39.3,-16.51 -58.95,-21.23 -42.44,-34.58 16.5,-13.37 57.38,-28.3 66.82,-44.81 9.42,-16.51 32.23,-45.6 29.87,-78.61 -2.36,-33.02 4.72,-47.95 -10.22,-80.19 -14.94,-32.23 -29.08,-42.45 -32.23,-63.68 -3.14,-21.22 -3.92,-36.94 -21.22,-41.66 -17.3,-4.72 -110.85,-14.93 -110.85,-14.93 0,0 -18.08,-18.08 -35.38,-25.94 -17.29,-7.86 -26.73,4.72 -37.73,-3.14 -11.01,-7.87 -18.07,-43.24 -32.23,-62.89 -14.15,-19.65 -24.38,-38.52 -53.46,-38.52 -29.08,0 -42.45,6.29 -51.09,1.58 -8.65,-4.72 -14.94,-4.73 -25.94,3.92 -11.01,8.65 -11.79,23.58 -26.73,22.8 -14.94,-0.79 -18.87,0.78 -28.3,12.58 -9.43,11.79 -3.15,29.08 -18.08,30.66 -14.93,1.58 -19.65,5.5 -39.3,8.65 -19.66,3.14 -39.3,5.5 -51.1,19.65 -11.79,14.15 -25.93,43.23 -33.8,51.89 -7.86,8.64 -15.73,28.3 -39.31,35.37 -23.57,7.08 -36.94,-1.58 -52.66,7.08 -15.73,8.65 -13.37,30.66 -30.66,16.51 -17.3,-14.15 -41.67,-19.65 -48.74,-35.37 -7.08,-15.73 4.72,-30.67 -8.64,-44.03 -13.37,-13.37 -82.54,-33.8 -91.2,-44.02 -8.64,-10.23 -13.36,-21.23 -18.86,-9.43 -5.51,11.78 0.78,21.22 -13.37,21.22 -14.15,0 -35.38,-11.78 -59.74,-40.88 -24.38,-29.08 -18.87,-47.17 -29.88,-49.53 -11,-2.35 -8.65,10.23 -20.43,11.79 -11.79,1.58 -12.58,-8.64 -27.52,0.79 -14.93,9.43 -15.73,28.3 -29.88,22.01 -14.14,-6.28 -7.86,-4.72 -21.22,-26.73 -13.37,-22.02 -32.23,-30.66 -40.09,-60.54 -7.87,-29.87 -16.52,-40.87 -7.87,-52.67 8.65,-11.79 19.66,-6.28 11.8,-30.65 -7.87,-24.38 -8.07,-22.02 -15.34,-25.36 -7.27,-3.34 -38.13,-11.39 -50.9,-18.86 -12.78,-7.47 -54.24,-9.05 -77.24,-6.68 -23,2.36 -41.67,6.1 -60.13,-0.98 -18.48,-7.08 -32.03,-24.57 -42.26,-32.23 -10.22,-7.66 -52.67,-32.63 -63.87,-37.54 -11.2,-4.91 -54.44,-15.33 -62.89,-13.56 -8.45,1.77 -12.37,2.36 -12.58,23.58 -0.2,21.23 -2.35,91.39 0,100.03 2.36,8.65 11.2,15.33 14.36,27.13 3.14,11.79 6.67,19.26 1.76,34 -4.91,14.74 -18.07,82.74 -16.12,92.37 1.97,9.63 5.3,55.61 5.7,63.87 0.39,8.25 0.78,16.11 -1.17,23.57 -1.97,7.48 0.39,17.69 15.33,23.98 14.93,6.29 125.78,46.78 135.21,50.32 9.43,3.53 19.65,11.4 20.43,23.58 0.79,12.18 1.97,30.65 -14.54,41.27 -16.51,10.61 -46.38,23.19 -51.88,29.88 -5.51,6.67 -25.16,28.69 -29.48,41.66 -4.33,12.98 -10.22,16.9 -9.83,32.63 0.39,15.72 -1.57,29.08 9.43,45.59 11.01,16.51 26.73,49.92 26.73,64.07 0,14.15 -2.75,42.06 -0.78,56.6 1.97,14.54 15.73,42.44 19.65,58.17 3.93,15.73 -2.36,36.95 -2.36,48.35 0,11.4 0,38.91 1.97,53.06 1.97,14.15 9.43,39.7 14.54,49.53 5.11,9.83 12.58,26.73 12.58,41.66 0,14.94 4.72,79.01 3.15,93.16 -1.58,14.15 1.97,60.53 1.97,79 0,18.48 -1.58,34.58 7.86,48.73 9.43,14.15 23.58,27.91 27.13,38.53 3.53,10.61 5.5,74.87 4.33,84.89 -1.18,10.03 4.13,27.92 -6.28,43.45 -10.42,15.52 -20.83,23.57 -31.25,25.94 -10.42,2.36 -13.17,2.35 -37.94,0.2 -24.76,-2.16 -62.3,-9.24 -70.16,-7.27 -7.86,1.97 -28.5,0.59 -35.96,-2.16 -7.47,-2.75 -25.55,-10.23 -30.07,-16.31 -4.52,-6.09 -23.19,-25.35 -34.19,-28.3 -11.01,-2.95 -29.88,-25.16 -43.24,-29.28 -13.36,-4.13 -14.92,-11.79 -28.29,-3.54 -13.37,8.26 -40.89,30.46 -62.7,31.26 -21.81,0.78 -29.08,4.91 -47.36,-4.33 -18.28,-9.24 -35.96,-23.98 -61.91,-22.61 -25.94,1.38 -43.24,0.2 -55.22,8.65 -11.99,8.45 -15.14,23.58 -27.71,23 -12.58,-0.6 -29.08,-10.23 -46.78,-15.53 -17.68,-5.3 -67.6,-10.03 -94.72,14.74 -27.13,24.77 -30.86,29.88 -49.33,36.55 -18.48,6.68 -33.42,6.88 -46.97,3.74 -13.56,-3.14 -33.21,-10.61 -39.31,-20.24 -6.09,-9.63 -13.95,-45.8 -19.45,-55.62 -5.5,-9.83 -16.12,-30.86 -19.65,-39.31 -3.54,-8.45 -14.74,-10.8 -24.56,-17.88 -9.83,-7.08 -10.42,-16.31 -16.71,-27.13 -6.28,-10.8 -12.18,-32.42 -37.53,-42.44 -25.36,-10.02 -47.36,-25.55 -57.79,-34.4 -10.41,-8.84 -14.54,-26.73 -21.81,-37.33 -7.27,-10.62 -19.45,-10.42 -28.11,-5.31 -8.64,5.12 -34.4,33.22 -51.3,46.19 -16.89,12.97 -44.8,25.36 -62.49,25.55 -17.68,0.2 -61.32,5.89 -75.86,12.58 -14.54,6.68 -28.68,-1.77 -33.8,11.2 -5.11,12.98 -11.2,55.23 -17.29,66.44 -6.1,11.2 -12.98,20.24 -38.13,-0.79 -25.16,-21.03 -28.11,-25.93 -39.31,-21.81 -11.2,4.13 -64.07,56.99 -71.73,63.68 -7.66,6.68 -28.5,24.56 -38.13,26.73 -9.63,2.16 -26.53,-0.39 -31.44,7.08 -4.91,7.47 -14.35,30.46 -15.14,37.93 -0.78,7.47 -1.17,31.25 -11.99,36.94 -10.8,5.7 -41.07,11.01 -51.29,14.54 -10.23,3.54 -70.56,45.01 -78.61,60.34 -8.06,15.33 -1.77,39.1 -8.06,54.83 -6.29,15.73 -1.17,24.77 -31.44,32.63 -30.27,7.86 -68.79,7.86 -83.33,1.97 -14.54,-5.9 -29.88,-21.81 -40.48,-28.89 -10.62,-7.08 -11.4,-10.23 -18.87,-4.52 -7.48,5.7 -21.03,12.77 -14.74,22.4 6.28,9.63 13.36,22.2 16.3,34.19 2.96,12 -0.2,27.13 3.35,37.73 3.53,10.62 10.22,32.63 8.05,42.26 -2.16,9.63 -10.61,21.42 -11.4,34.79 -0.78,13.36 1.97,17.89 7.08,28.3 5.11,10.41 -6.49,15.72 -10.8,31.64 -4.33,15.92 5.3,73.5 5.3,81.36 0,7.86 -6.88,25.55 -16.9,45.4 -10.02,19.86 -15.72,54.24 -11.99,68.98 3.73,14.75 28.89,29.89 32.03,47.96 3.15,18.08 2.37,35.79 5.12,50.72 2.75,14.93 7.47,19.26 3.14,29.48 -4.32,10.23 -6.68,22.02 -6.28,37.73 0.39,15.73 10.22,27.91 3.53,36.56 -6.68,8.64 -10.61,24.76 -12.18,42.05 -1.58,17.3 -5.11,33.41 -10.62,37.34 -5.5,3.93 -14.54,12.58 -11.39,24.38 3.14,11.78 8.65,18.87 3.93,30.65 -4.72,11.79 -14.94,19.66 -12.58,33.81 2.36,14.15 22.8,4.32 27.91,2.74 5.11,-1.57 19.26,0.79 30.27,7.48 11,6.68 51.89,17.29 64.85,18.87 12.97,1.57 24.37,10.61 28.69,22.79 4.33,12.19 9.83,28.69 17.29,27.52 7.47,-1.17 20.44,-14.54 27.91,-21.62 7.47,-7.08 18.87,-0.79 27.52,1.97 8.64,2.75 27.51,5.11 40.48,7.47 12.97,2.36 23.98,-5.5 30.26,-6.68 6.29,-1.17 15.73,10.62 27.52,8.26 11.79,-2.37 65.24,-11.41 77.43,-19.66 12.19,-8.25 22.41,-21.62 32.63,-16.12 10.22,5.51 20.83,18.87 32.23,3.93 11.4,-14.93 44.41,-37.73 53.45,-41.27 9.04,-3.54 42.06,-20.83 52.28,-31.05 10.22,-10.23 21.62,-20.44 32.63,-28.69 11.01,-8.26 17.29,-16.12 26.33,-18.08 9.04,-1.97 39.3,-3.93 49.53,-0.39 10.22,3.53 23.98,6.28 33.41,5.11 9.43,-1.17 33.41,10.22 42.05,10.22 8.65,0 29.48,0.78 20.05,-13.37 -9.43,-14.14 -12.18,-24.75 -5.51,-39.69 6.68,-14.94 10.23,-29.88 19.27,-31.44 9.04,-1.58 37.73,9.83 51.48,5.89 13.76,-3.93 31.45,-9.43 40.89,-7.86 9.43,1.58 45.59,30.65 51.88,36.16 6.29,5.5 23.19,21.23 31.06,18.87 7.86,-2.36 25.93,-7.47 37.33,-3.53 11.4,3.92 21.23,28.3 23.19,41.27 1.97,12.97 0.39,31.05 10.22,39.3 9.83,8.26 22.01,21.63 24.77,25.16 2.75,3.53 13.75,17.68 27.12,16.12 13.36,-1.58 42.84,19.65 51.1,31.83 8.25,12.19 11,24.37 23.18,29.08 12.18,4.72 51.49,26.73 56.21,30.66 4.72,3.93 23.18,13.37 33.8,17.69 10.62,4.33 12.58,19.65 25.94,24.37 13.37,4.72 40.09,3.14 52.28,-2.36 12.18,-5.5 28.3,-6.68 36.94,6.29 8.65,12.97 20.05,51.48 36.17,58.56 16.12,7.08 35.37,9.83 44.02,12.98 8.65,3.14 24.01,5.12 23.22,22.02 -0.78,16.91 1.97,49.53 -0.78,56.6 -2.76,7.08 0.78,26.73 1.96,40.09 1.18,13.37 -3.53,88.45 -14.93,97.88 -11.4,9.42 -17.29,8.25 -31.44,2.35 -14.15,-5.89 -36.16,1.18 -41.27,-4.33 -5.11,-5.5 -17.69,-5.89 -22.8,6.29 -5.11,12.18 -9.82,33.02 -18.07,44.03 -8.26,11.01 -26.73,31.44 -33.8,40.88 -7.08,9.43 -18.48,27.12 -17.3,45.2 1.18,18.08 -13.76,44.03 -16.9,50.31 -3.14,6.29 -1.17,14.56 -0.39,23.59 0.78,9.04 12.19,25.16 -11.4,43.24 -23.58,18.07 -86.08,35.76 -106.52,51.88 -20.43,16.12 -44.41,22.8 -54.23,18.87 -9.83,-3.93 -10.62,-21.62 -31.44,-24.37 -20.83,-2.75 -65.64,4.33 -86.87,-0.39 -21.23,-4.72 -22.79,-6.68 -53.45,-6.68 -30.66,0 -51.89,-11 -68.39,-14.93 -16.51,-3.93 -44.8,-2.76 -51.48,-15.33 -6.68,-12.58 -40.09,-35.37 -49.92,-45.59 -9.83,-10.22 -11.4,-18.47 -20.44,-38.91 -9.04,-20.44 -11.4,-31.45 -19.26,-29.88 -7.86,1.58 -14.54,-3.93 -27.13,5.5 -12.58,9.43 -33.4,43.23 -48.73,52.28 -15.33,9.04 -63.68,13.76 -80.19,5.12 -16.5,-8.65 -88.04,-69.97 -94.33,-75.47 -6.29,-5.5 -14.15,-18.08 -25.16,-10.22 -11,7.86 -19.64,28.69 -26.33,34.19 -6.68,5.5 -21.61,13.75 -28.69,11.4 -7.08,-2.36 -23.58,-3.15 -28.69,1.17 -5.11,4.33 -60.13,55.81 -72.71,58.18 -12.58,2.36 -29.08,-5.9 -38.13,0 -9.04,5.89 -22.4,8.25 -21.62,24.76 0.78,16.51 3.93,61.32 8.25,70.75 4.33,9.43 12.58,56.99 12.58,63.68 0,6.68 13.37,29.88 24.38,40.48 11,10.61 25.15,25.55 30.26,27.12 5.12,1.58 31.05,-5.11 38.52,0.78 7.48,5.9 11.79,22.02 14.54,40.89 2.76,18.87 4.33,50.31 2.76,62.49 -1.58,12.18 -19.66,56.99 -19.66,69.57 0,12.58 7.48,36.56 19.27,46.39 11.78,9.83 14.92,28.69 3.92,49.13 -11,20.44 -13.76,32.63 -20.83,39.7 -7.08,7.08 -18.08,-1.97 -29.08,5.9 -11,7.86 -20.43,17.29 -20.43,27.9 0,10.62 6.67,18.87 1.17,26.73 -5.5,7.87 -13.37,7.87 -14.93,18.48 -1.58,10.62 -13.76,26.73 -20.44,31.45 -6.68,4.71 -13.36,13.75 -14.15,25.15 -0.78,11.4 -1.96,27.91 -8.25,32.23 -6.29,4.33 -11.4,6.29 -13.76,19.65 -2.36,13.37 -7.48,34.98 -13.76,43.63 -6.28,8.65 -22.01,10.62 -26.73,18.48 -4.72,7.86 -13.75,12.58 -11.4,18.48 2.36,5.9 18.87,12.97 9.83,37.73 -9.04,24.76 -9.44,46.78 -12.98,53.06 -3.53,6.29 -4.72,6.68 -5.11,17.69 -0.39,11 -3.14,7.86 -12.58,19.26 -9.43,11.4 -11.01,18.48 -5.51,27.51 5.51,9.04 7.08,16.91 6.68,28.69 -0.39,11.79 4.33,16.12 0.78,28.7 -3.53,12.58 -11.39,25.54 -18.47,26.73 -7.08,1.17 -23.18,16.5 -28.29,24.75 -5.12,8.25 -16.12,21.23 -23.98,12.38 -7.86,-8.85 -79.79,-61.9 -84.5,-81.56 -4.72,-19.66 -16.12,-40.29 -23,-56.8 -6.88,-16.51 -42.26,-38.91 -54.24,-40.88 -11.99,-1.97 -26.92,4.13 -37.93,9.83 -11,5.7 -39.3,10.41 -52.86,10.22 -13.56,-0.2 -44.03,18.48 -47.17,31.05 -3.14,12.58 -8.45,23.39 -10.41,35.38 -1.97,11.99 -11.4,36.36 -12.58,48.53 -1.18,12.18 -16.51,41.67 -21.62,49.14 -5.11,7.47 -8.65,16.91 -12.58,27.52 -3.92,10.61 -20.43,21.62 -30.65,34.58 -10.23,12.98 -51.49,73.11 -53.85,88.44 -2.36,15.33 -11.4,36.95 -3.14,41.28 8.25,4.33 16.9,16.5 11,29.48 -5.89,12.98 -13.36,19.65 -13.36,37.73 0,18.07 9.04,25.54 -0.79,38.91 -9.83,13.37 -26.73,40.48 -29.48,51.49 -2.75,11.01 -12.97,26.73 -12.97,47.56 0,20.83 16.9,50.31 23.98,58.17 7.08,7.87 32.23,57.79 43.23,60.93 11,3.14 44.41,15.33 49.53,31.83 5.11,16.52 10.61,50.71 3.92,61.33 -6.67,10.61 -16.51,34.98 -15.33,49.13 1.17,14.15 4.33,23.98 7.47,36.94 3.14,12.98 3.93,20.83 3.53,33.42 -0.39,12.58 5.9,28.69 10.62,36.94 4.72,8.26 12.98,28.69 17.69,34.98 4.71,6.29 9.43,14.93 12.97,36.94 3.53,22.02 9.04,38.92 17.29,47.57 8.25,8.64 19.26,18.67 22.41,37.14 3.14,18.48 -0.6,33.42 23.77,39.7 24.38,6.28 42.66,3.91 44.22,12.74 1.58,8.85 -0.78,29.48 10.42,36.16 11.2,6.68 66.62,46.19 79.59,51.49 12.97,5.3 26.53,12.97 30.46,20.24 3.93,7.28 -5.9,12.78 -9.43,19.27 -3.54,6.48 -10.02,22.4 5.3,27.51 15.33,5.12 27.52,20.83 44.81,22.61 17.3,1.77 22.02,2.16 41.28,5.11 19.26,2.95 51.48,9.43 57.78,9.04 6.29,-0.39 16.9,8.05 34.39,8.85 17.5,0.78 32.82,-12.98 48.15,-20.25 15.33,-7.27 36.36,-16.51 45.6,-7.66 9.24,8.84 52.86,54.04 67.21,44.8 14.35,-9.23 36.55,-30.06 43.43,-46.57 6.89,-16.51 10.23,-28.5 18.87,-29.87 8.65,-1.38 53.26,8.84 62.5,-9.24 9.24,-18.08 30.26,-71.34 27.51,-77.44 -2.75,-6.1 -29.67,-35.38 -30.46,-45.98 -0.78,-10.62 -8.44,-42.52 -12.16,-53.33 -3.74,-10.8 -6.1,-15.91 2.75,-25.93 8.84,-10.03 22.99,-19.07 22.99,-34.98 0,-15.92 -11.2,-24.57 -6.48,-36.56 4.72,-11.99 20.43,-20.63 27.12,-26.92 6.68,-6.29 13.57,-23.39 13.17,-36.76 -0.39,-13.36 1.18,-31.84 5.51,-44.03 4.33,-12.18 20.44,-33.8 24.76,-47.95 4.33,-14.15 -1.97,-38.13 8.65,-39.3 10.61,-1.18 6.28,14.93 22.79,14.93 16.51,0 29.88,3.93 34.59,-5.89 4.72,-9.83 2.56,-17.44 2.56,-17.44 0,0 -12.21,-10.07 -13.18,-21.08 -0.96,-11.02 -5.29,-23.6 3.95,-34.8 9.24,-11.2 15.33,-17.1 26.33,-19.86 11.01,-2.75 32.43,-3.73 41.46,-18.07 9.04,-14.36 17.49,-35.38 18.08,-53.85 0.59,-18.48 21.23,-40.1 34.98,-49.14 13.76,-9.04 27.12,-28.69 37.34,-30.27 10.22,-1.57 27.91,5.12 29.87,18.48 1.97,13.37 20.05,76.25 27.52,82.94 7.47,6.68 29.48,28.3 35.38,37.73 5.89,9.43 -1.97,12.58 2.36,25.94 4.33,13.36 44.02,83.72 58.56,113.6 14.55,29.87 31.05,91.58 32.23,101.79 1.18,10.23 14.95,26.33 19.67,36.16 4.72,9.83 12.97,29.08 11.39,34.98 -1.57,5.89 0.39,36.55 2.75,48.73 2.36,12.18 3.94,76.25 9.83,82.54 5.89,6.28 42.84,12.58 55.81,34.98 12.97,22.41 32.23,41.67 47.95,44.42 15.73,2.75 49.92,1.17 69.57,3.54 19.65,2.36 40.09,7.46 54.45,-2.37 14.35,-9.83 37.33,-1.76 54.04,0.99 16.71,2.75 28.5,9.63 60.14,3.73 31.64,-5.89 44.21,-18.27 51.69,-33.61 7.47,-15.33 -2.17,-52.28 5.11,-61.71 7.27,-9.43 34.59,-14.35 38.71,-24.17 4.13,-9.83 12.58,-34.98 23.98,-36.95 11.4,-1.97 25.55,-4.33 23.19,-12.18 -2.36,-7.86 -8.26,-14.93 -2.36,-19.26 5.9,-4.33 14.15,-5.5 30.27,-1.58 16.12,3.93 31.44,7.48 45.98,7.48 14.54,0 29.48,-1.97 28.69,8.64 -0.78,10.62 -5.89,17.3 1.18,26.73 7.07,9.43 15.33,17.68 22.4,23.57 7.08,5.9 3.92,20.83 7.47,28.69 3.54,7.87 24.37,27.52 23.98,69.19 -0.39,41.66 -10.61,58.95 -7.08,73.49 3.54,14.54 -0.39,22.02 14.54,21.24 14.94,-0.79 20.83,-7.87 43.64,-1.18 22.79,6.68 64.45,17.68 73.1,25.55 8.65,7.86 25.16,18.08 36.56,-6.68 11.39,-24.77 14.94,-40.89 20.44,-49.54 5.51,-8.65 14.75,-13.76 18.68,-15.33 3.93,-1.57 18.67,0.79 35.57,6.29 16.9,5.5 41.47,-2.36 51.1,-10.23 9.63,-7.86 21.03,-0.78 24.76,7.28 3.74,8.05 13.95,18.87 26.53,18.67 12.58,-0.21 12.98,-4.33 23,22.99 10.02,27.32 27.12,53.46 34.19,53.85 7.08,0.39 36.95,8.25 49.73,-3.73 12.77,-11.99 26.92,-18.87 32.42,-9.43 5.51,9.43 12.39,53.07 23,58.76 10.61,5.7 42.26,12.38 58.96,2.95 16.7,-9.43 47.17,-34.79 56.6,-37.15 9.43,-2.36 67.81,-6.88 93.75,-6.29 25.94,0.6 54.43,21.23 83.72,25.94 29.29,4.72 62.31,20.44 74.09,26.93 11.79,6.49 17.89,11.99 10.42,24.37 -7.47,12.39 -6.49,27.32 8.84,34.98 15.33,7.66 34.79,13.76 36.95,20.05 2.16,6.28 6.49,15.92 10.62,43.23 4.13,27.32 11.98,47.95 27.31,54.44 15.33,6.49 58.76,3.54 72.72,8.26 13.95,4.72 28.3,19.45 28.5,33.61 0.2,14.15 0.2,50.12 7.86,64.67 7.67,14.54 43.64,53.26 49.14,65.05 5.51,11.79 15.13,25.94 28.69,35.18 13.56,9.24 17.5,23.39 18.87,33.02 1.38,9.63 9.25,27.52 3.93,33.61 -5.3,6.09 -10.42,18.07 -3.35,29.48 7.08,11.4 7.87,37.15 25.56,44.42 17.68,7.27 27.31,15.72 27.7,26.92 0.39,11.2 -0.78,33.03 3.93,47.37 4.72,14.35 12.58,46.56 26.73,59.15 14.15,12.58 35.76,17.29 56.59,30.65 20.83,13.37 32.63,21.24 49.92,31.84 17.3,10.61 27.91,21.23 42.45,10.22 14.54,-11.01 16.12,-20.82 33.8,-11.79 17.68,9.04 43.24,30.66 63.29,36.56 20.04,5.89 33.8,12.58 57.38,-0.4 23.58,-12.97 27.9,-7.47 45.59,-41.66 17.68,-34.2 31.44,-54.24 47.17,-69.18 15.72,-14.93 58.95,-53.46 63.28,-65.64 4.33,-12.18 11.4,-60.93 20.05,-75.08 8.64,-14.15 18.08,-13.36 32.23,-18.47 14.15,-5.11 23.98,-21.62 55.82,-53.85 31.83,-32.23 69.57,-52.28 80.18,-63.28 10.62,-11.01 31.84,-30.27 31.84,-36.95 0,-6.68 1.93,-18.99 1.93,-18.99z"/>
  </g>
 </g>
</svg>
