<?xml version="1.0" encoding="UTF-8"?>
<!DOCTYPE svg PUBLIC "-//W3C//DTD SVG 1.1//EN" "http://www.w3.org/Graphics/SVG/1.1/DTD/svg11.dtd">
<!-- Creator: CorelDRAW 2020 (64-Bit) -->
<svg xmlns="http://www.w3.org/2000/svg" xml:space="preserve" width="64.9027mm" height="63.2147mm" version="1.1" style="shape-rendering:geometricPrecision; text-rendering:geometricPrecision; image-rendering:optimizeQuality; fill-rule:evenodd; clip-rule:evenodd"
viewBox="0 0 5405.22 5264.64"
 xmlns:xlink="http://www.w3.org/1999/xlink"
 xmlns:xodm="http://www.corel.com/coreldraw/odm/2003">
 <defs>
  <style type="text/css">
   <![CDATA[
    .fil0 {fill:#FDB92E;fill-opacity:0.788235}
   ]]>
  </style>
 </defs>
 <g id="Capa_x0020_1">
  <metadata id="CorelCorpID_0Corel-Layer"/>
  <path id="risarlada" class="fil0" d="M4979.1 4124.28c-9.1,-16.9 -21.45,-38.35 -23.4,-52.66 -1.96,-14.3 -3.25,-24.04 -3.91,-41.6 -0.65,-17.56 0.65,-22.75 -4.55,-29.26 -5.21,-6.5 -19.5,-13 -35.75,-13 -16.26,0 -37.71,7.8 -54.61,-7.15 -16.9,-14.96 -17.56,-19.5 -20.15,-38.36 -2.6,-18.85 0.65,-29.9 -7.15,-39.65 -7.8,-9.75 -31.21,-8.45 -34.45,-22.75 -3.25,-14.3 -6.5,-20.15 -4.56,-30.56 1.95,-10.4 12.35,-18.86 -13,-28.6 -25.35,-9.75 -26.65,-8.45 -46.15,-13.66 -19.5,-5.2 -31.86,-14.94 -42.26,-20.8 -10.39,-5.85 -33.15,-3.26 -54.6,-3.26 -21.45,0 -55.26,3.9 -66.31,7.15 -11.05,3.25 -8.78,10.73 -23.4,19.18 -14.63,8.44 -31.53,11.7 -46.15,13.97 -14.62,2.27 -27.3,8.78 -38.68,-14.95 -11.38,-23.74 -1.62,-29.91 -10.73,-39.01 -9.1,-9.1 -17.88,-6.82 -24.71,-2.27 -6.82,4.55 -20.8,24.05 -42.25,14.3 -21.45,-9.75 -26,-14.95 -32.5,-33.8 -6.5,-18.85 -1.95,-31.21 -16.57,-34.13 -14.63,-2.92 -20.81,-0.65 -25.68,-10.73 -4.87,-10.07 -5.85,-18.2 -15.6,-13.33 -9.75,4.88 -26.33,13 -41.27,12.03 -14.96,-0.97 -18.53,-10.08 -31.86,-8.77 -13.33,1.3 -22.43,8.44 -27.96,17.87 -5.52,9.43 -14.62,35.75 -23.08,43.88 -8.45,8.13 -13.97,17.88 -24.38,8.45 -10.4,-9.43 -20.8,-12.68 -41.6,-19.83 -20.8,-7.15 -24.71,-13.98 -40.63,-9.75 -15.92,4.23 -29.91,6.5 -36.08,-1.62 -6.18,-8.13 0.97,-21.13 0.97,-33.15 0,-12.03 0.65,-39.65 -2.27,-60.13 -2.92,-20.48 -8.45,-28.61 -12.68,-46.15 -4.23,-17.56 -13.01,-20.48 -19.18,-32.83 -6.17,-12.35 -2.92,-18.53 -5.53,-29.58 -2.6,-11.05 -20.8,-16.91 -38.03,-17.88 -17.22,-0.97 -35.1,-11.04 -49.08,-2.27 -13.97,8.77 1.95,11.05 -15.27,22.43 -17.23,11.37 -15.61,13.97 -20.8,23.07 -5.2,9.1 -16.91,23.41 -29.58,27.63 -12.68,4.22 -11.05,7.48 -13.33,23.4 -2.27,15.92 0.32,21.45 -6.5,34.13 -6.82,12.68 -16.9,26.65 -30.22,29.25 -13.33,2.61 -23.4,6.83 -40.96,3.58 -17.55,-3.25 -40.3,-13.33 -56.55,-9.75 -16.26,3.57 -18.53,9.75 -41.28,9.75 -22.75,0 -18.21,-4.23 -41.93,-4.23 -23.73,0 -41.61,6.5 -51.68,-5.2 -10.08,-11.7 -34.13,-41.92 -46.8,-46.8 -12.68,-4.88 -28.3,-4.56 -29.92,-17.89 -1.63,-13.33 -7.15,-45.83 -9.1,-75.09 -1.95,-29.25 -2.27,-61.75 -8.78,-70.21 -6.5,-8.44 -9.75,-26.33 -20.48,-55.91 -10.73,-29.57 -42.9,-80.93 -54.27,-104.99 -11.38,-24.05 -17.56,-56.23 -21.78,-64.36 -4.23,-8.12 -16.9,-15.6 -22.43,-28.92 -5.53,-13.33 -19.83,-48.75 -25.68,-65.01 -5.85,-16.25 -12.68,-37.38 -22.75,-38.35 -10.08,-0.97 -29.26,10.08 -37.39,17.88 -8.12,7.8 -25.35,17.87 -29.25,26.97 -3.91,9.1 -4.88,38.35 -10.73,49.4 -5.85,11.05 -10.73,22.1 -20.8,26.33 -10.08,4.23 -15.92,1.3 -29.9,7.15 -13.97,5.85 -21.79,17.88 -23.74,26 -1.95,8.13 -3.25,18.86 3.26,29.58 6.5,10.73 17.55,20.15 10.08,26.97 -7.48,6.83 -8.78,16.91 -26.33,9.75 -17.55,-7.15 -13.65,-16.25 -23.08,-17.55 -9.42,-1.3 -10.72,13.33 -10.07,23.73 0.65,10.4 -0.97,23.73 -7.8,30.55 -6.83,6.83 -12.68,5.21 -11.05,13.97 1.62,8.78 3.9,12.36 11.05,19.18 7.15,6.83 14.95,17.23 0.32,22.75 -14.62,5.53 -21.13,3.58 -20.48,19.5 0.65,15.92 -0.32,15.61 -13,21.13 -12.68,5.52 -26.97,18.53 -22.43,30.23 4.55,11.69 3.9,23.4 -5.2,39 -9.1,15.6 -12.03,25.68 -8.13,38.35 3.9,12.68 5.85,30.56 10.4,44.86 4.55,14.31 18.21,27.31 19.83,36.08 1.62,8.78 -0.98,23.74 -6.83,37.71 -5.85,13.97 -6.49,22.74 -8.76,28.59 -2.27,5.85 -4.39,10.89 -10.4,10.4 -6.01,-0.49 -21.62,-6.01 -33.48,-2.92 -11.87,3.09 -23.24,14.13 -28.93,25.84 -5.69,11.7 -26,37.38 -29.57,38.35 -3.58,0.97 -10.48,4.62 -24.21,-1.47 -13.73,-6.1 -29.26,-15.69 -37.47,-24.54 -8.2,-8.86 -11.38,-17.14 -26.33,-8.85 -14.95,8.29 -40.31,24.38 -47.3,26 -6.99,1.62 -17.06,-5.36 -25.68,-7.96 -8.61,-2.61 -29.42,4.38 -39.17,1.62 -9.75,-2.76 -24.87,-13.82 -35.75,-14.79 -10.88,-0.97 -19.01,1.62 -29.42,-2.92 -10.4,-4.56 -22.91,-13.33 -28.93,-18.05 -6.01,-4.71 -18.52,-14.62 -14.78,-21.77 3.73,-7.15 3.9,-17.88 -1.96,-24.22 -5.85,-6.34 -33.31,-30.71 -48.43,-38.68 -15.12,-7.96 -13.82,-4.71 -26.97,-11.87 -13.17,-7.15 -14.47,-13 -14.63,-18.36 -0.16,-5.36 -3.57,-15.12 -14.47,-18.21 -10.88,-3.08 -36.24,-2.43 -43.39,-13.48 -7.15,-11.05 -9.59,-20.8 -9.26,-29.91 0.32,-9.1 -12.03,-27.31 -16.75,-35.27 -4.71,-7.97 -7.47,-27.63 -9.75,-40.96 -2.27,-13.33 -4.22,-20.32 -8.61,-26.98 -4.39,-6.66 -22.27,-36.24 -24.38,-42.74 -2.12,-6.5 -4.39,-16.25 -5.21,-31.2 -0.81,-14.96 -5.85,-15.93 -8.77,-29.09 -2.93,-13.17 -0.97,-24.87 0.65,-33.81 1.62,-8.94 20.15,-39.33 15.27,-62.41 -4.87,-23.08 -12.68,-31.21 -21.78,-36.08 -9.09,-4.87 -22.43,0.97 -35.75,-25.35 -13.33,-26.33 -34.78,-37.7 -40.95,-51.04 -6.18,-13.33 -14.96,-28.6 -11.71,-43.55 3.26,-14.96 8.45,-31.86 13.33,-42.58 4.87,-10.73 11.7,-21.13 19.82,-30.23 8.13,-9.1 14.63,-13.33 12.35,-22.75 -2.27,-9.43 -14.62,-20.15 -10.73,-31.53 3.91,-11.38 12.68,-14.3 14.63,-24.7 1.95,-10.4 -5.85,-13.97 -6.5,-24.38 -0.65,-10.4 -1.62,-30.88 8.78,-51.04 10.4,-20.15 43.23,-67.28 51.68,-75.73 8.44,-8.45 18.85,-14.95 30.87,-40.63 12.03,-25.68 13.97,-41.61 17.88,-57.21 3.9,-15.6 -1.62,-24.38 8.77,-43.23 10.4,-18.86 20.8,-34.46 33.15,-35.76 12.35,-1.3 26,0.65 37.05,-4.55 11.05,-5.2 21.45,-9.75 29.91,-14.95 8.45,-5.21 29.9,-6.5 39.65,3.9 9.75,10.4 26.66,12.35 32.5,26.65 5.85,14.31 12.35,35.75 14.95,47.45 2.61,11.71 5.21,31.86 18.21,37.06 13,5.2 27.95,18.2 37.05,24.7 9.1,6.5 22.1,27.95 31.86,18.85 9.75,-9.09 11.7,-20.15 22.1,-26.65 10.4,-6.5 22.1,-3.25 27.3,-18.2 5.21,-14.96 7.15,-28.61 5.21,-41.61 -1.95,-13 -9.75,-26.65 -9.75,-35.75 0,-9.1 10.4,-9.75 13.65,-20.8 3.25,-11.05 11.7,-35.75 13.65,-46.8 1.95,-11.05 8.45,-26.01 7.15,-35.1 -1.3,-9.1 -18.86,-23.4 -13,-28.61 5.85,-5.2 25.35,-9.74 33.15,-33.15 7.8,-23.41 11.04,-34.45 18.85,-42.26 7.8,-7.8 7.8,-28.6 19.5,-42.26 11.7,-13.65 21.45,-20.15 27.3,-33.15 5.85,-13 4.55,-26.65 8.45,-39.65 3.9,-13 13,-20.15 20.15,-22.75 7.15,-2.6 37.06,-37.05 40.31,-45.51 3.25,-8.45 11.7,-23.4 2.6,-35.1 -9.09,-11.7 -27.95,-11.7 -18.2,-54.61 9.74,-42.9 16.9,-53.96 14.95,-78.66 -1.95,-24.7 0,-53.95 -9.1,-55.9 -9.1,-1.95 -36.4,1.95 -46.15,-10.4 -9.75,-12.35 -29.9,-27.96 -35.75,-52.01 -5.85,-24.05 -16.25,-50.7 -17.55,-70.21 -1.3,-19.5 -9.75,-43.55 -1.96,-55.91 7.8,-12.35 13.01,-10.39 27.31,-10.39 14.3,0 26,-9.76 45.51,-23.41 19.5,-13.65 35.1,-26.65 40.95,-31.2 5.85,-4.56 26.66,13 37.71,0 11.04,-13 12.99,-24.05 20.8,-33.15 7.8,-9.1 13,-14.3 35.75,11.7 22.75,26 52,46.8 63.06,50.05 11.05,3.26 47.45,13.01 61.1,8.45 13.65,-4.56 39.65,-22.1 48.1,-35.1 8.45,-13 9.11,-19.18 22.11,-21.78 13,-2.6 22.1,-11.38 34.78,24.05 12.68,35.43 36.09,40.96 41.93,47.13 5.85,6.18 8.13,25.36 32.18,31.86 24.05,6.5 60.13,19.5 84.18,18.86 24.05,-0.65 67.6,8.13 82.88,5.85 15.27,-2.27 53.63,3.58 63.7,11.71 10.09,8.12 19.18,14.95 55.58,-1.96 36.4,-16.9 79.31,-29.91 92.31,-43.23 13,-13.33 3.58,-27.62 7.48,-47.13 3.9,-19.5 13.33,-32.17 16.57,-53.3 3.26,-21.13 14.96,-35.1 26.98,-54.28 12.03,-19.18 20.48,-44.21 27.95,-54.28 7.48,-10.08 14.31,-20.8 31.86,-16.26 17.56,4.56 39.98,15.93 47.13,11.06 7.15,-4.88 24.7,-52.33 23.73,-67.94 -0.97,-15.6 -8.77,-41.27 -5.52,-54.92 3.25,-13.65 10.72,-40.63 6.5,-52.33 -4.22,-11.7 -29.57,-17.87 -40.62,-23.08 -11.05,-5.2 -31.21,-22.42 -35.75,-32.5 -4.56,-10.08 -9.11,-32.17 -22.11,-32.82 -13,-0.65 -24.7,0 -35.1,7.15 -10.4,7.15 -23.4,7.8 -36.4,-3.91 -13,-11.69 3.91,-14.62 -23.4,-25.03 -27.31,-10.4 -34.78,-26.65 -55.58,-35.1 -20.8,-8.45 -39,-31.2 -50.7,-44.86 -11.7,-13.65 -18.21,-14.62 -30.56,-13.97 -12.35,0.65 -20.48,-8.12 -32.18,-19.18 -11.7,-11.05 -24.38,-25.03 -29.57,-45.18 -5.21,-20.15 -2.92,-36.73 -14.3,-36.73 -11.38,0 -16.91,7.15 -33.8,-2.27 -16.91,-9.43 -32.83,-27.96 -44.86,-35.43 -12.03,-7.48 -13.65,-13.97 -30.56,-9.75 -16.9,4.22 -35.75,6.5 -47.78,4.22 -12.03,-2.27 -31.53,-3.25 -39.98,11.7 -8.44,14.95 -13.97,18.86 -11.7,28.61 2.28,9.75 14.31,20.8 1.96,24.7 -12.35,3.9 -35.43,-3.9 -47.78,-4.55 -12.35,-0.66 -19.5,-0.65 -32.83,-4.23 -13.33,-3.57 -18.53,-1.95 -38.36,6.83 -19.82,8.78 -65,45.83 -77.03,49.73 -12.03,3.9 -33.48,18.86 -44.21,26.98 -10.73,8.12 -13.33,18.85 -24.7,21.77 -11.38,2.93 -30.88,3.25 -40.96,6.5 -10.07,3.25 -44.52,17.55 -66.63,20.15 -22.1,2.6 -20.47,-6.5 -32.5,-5.21 -12.03,1.3 -12.03,8.78 -25.03,7.15 -13.01,-1.62 -13.66,-2.28 -27.96,-4.56 -14.3,-2.27 -16.9,-13 -27.62,-7.8 -10.73,5.2 -13.01,16.9 -19.83,16.9 -6.83,0 -12.35,11.7 -19.18,-7.15 -6.82,-18.86 -13.97,-32.5 -24.05,-32.83 -10.08,-0.32 -42.57,0.97 -51.68,-4.55 -9.1,-5.53 -13.33,-14.63 -26.01,-16.26 -12.68,-1.62 -24.05,5.52 -29.57,2.27 -5.53,-3.25 6.5,-30.88 4.87,-39.33 -1.62,-8.45 -6.5,-23.09 -0.65,-33.15 5.85,-10.08 18.53,-9.43 16.91,-21.78 -1.62,-12.35 -2.93,-39.33 1.62,-47.45 4.55,-8.13 1.95,-28.28 3.57,-40.63 1.62,-12.35 12.68,-29.25 9.1,-41.92 -3.57,-12.68 -0.97,-20.15 -3.57,-33.48 -2.61,-13.33 -0.32,-25.35 -8.45,-35.43 -8.13,-10.08 -21.45,-16.58 -23.73,-28.61 -2.27,-12.03 -3.26,-41.61 2.92,-55.26 6.18,-13.65 23.08,-28.92 20.48,-54.93 -2.6,-26 -5.85,-60.45 -0.97,-70.21 4.87,-9.75 0.32,-15.6 -0.32,-27.62 -0.65,-12.03 5.2,-19.83 6.83,-37.39 1.62,-17.55 2.6,-30.87 1.62,-51.68 -0.98,-20.8 -6.5,-27.96 -13.01,-42.26 -6.5,-14.3 -5.85,-21.12 -1.3,-29.57 4.56,-8.45 8.78,-17.56 6.18,-29.91 -2.6,-12.35 -7.15,-21.78 -17.88,-29.91 -10.73,-8.13 -26.65,-15.92 -33.48,-3.25 -6.82,12.68 -13.97,47.14 -15.6,60.13 -1.62,13 -0.97,26.65 -11.05,25.03 -10.08,-1.62 -16.9,-11.04 -35.1,0.33 -18.21,11.37 -38.68,28.92 -48.43,34.45 -9.75,5.52 -68.91,6.5 -90.04,6.17 -21.13,-0.32 -37.38,-16.57 -65.65,-24.7 -28.28,-8.13 -47.13,-23.09 -62.41,-37.39 -15.27,-14.3 -21.45,-17.55 -20.15,-36.4 1.31,-18.85 -6.82,-32.18 -11.05,-36.73 -4.22,-4.55 -35.1,-10.4 -55.91,-10.08 -20.8,0.32 -81.9,0.65 -94.91,3.26 -13,2.6 -27.3,12.02 -35.75,8.44 -8.44,-3.57 -7.15,-28.6 -24.05,-34.45 -16.9,-5.85 -31.53,0.65 -49.08,-11.05 -17.56,-11.7 -24.38,-18.2 -38.68,-21.45 -14.3,-3.25 -16.9,-18.53 -35.09,-38.03 -18.21,-19.5 -31.21,-29.9 -41.93,-26.97 -10.73,2.92 -30.88,-6.18 -30.56,-37.71 0.32,-31.52 -20.48,-86.13 -24.05,-104.01 -3.57,-17.87 -18.2,-81.26 -24.7,-94.91 -6.5,-13.65 -54.61,-65.33 -73.78,-76.39 -19.18,-11.05 -35.76,-28.27 -54.61,-25.68 -18.86,2.6 -146.92,67.93 -160.57,78.33 -13.65,10.4 -136.52,112.79 -146.91,126.44 -10.4,13.65 -42.58,63.39 -42.58,78.33 0,14.95 4.87,59.48 10.73,76.05 5.85,16.58 14.95,54.28 11.38,67.28 -3.58,13.01 7.47,56.23 10.72,70.54 3.26,14.3 -4.87,66.63 -12.67,88.08 -7.8,21.45 8.12,65.66 14.62,83.86 6.5,18.2 14.62,50.05 -6.83,81.58 -21.45,31.53 -28.61,39.33 -46.8,41.92 -18.2,2.61 -46.15,4.23 -68.26,35.11 -22.1,30.87 -21.77,51.35 -64.68,54.6 -42.91,3.26 -111.81,9.1 -144.64,11.71 -32.83,2.6 -118.96,13.33 -136.52,15.92 -17.55,2.6 -65.33,11.38 -79.63,22.1 -14.3,10.73 -83.53,80.61 -92.96,90.69 -9.42,10.08 -39,52.33 -48.1,59.48 -9.1,7.15 -18.52,29.26 -30.22,32.18 -11.71,2.92 -56.57,6.83 -68.92,8.45 -12.34,1.62 -31.2,5.2 -37.05,16.9 -5.85,11.7 -9.75,23.4 -10.07,34.13 -0.32,10.73 5.52,50.39 3.25,61.44 -2.27,11.05 4.22,41.27 -17.23,43.22 -21.45,1.96 -88.4,-11.05 -110.83,-13 -22.43,-1.95 -62.73,-13.33 -72.48,-10.08 -9.76,3.25 -21.78,3.9 -23.74,26.98 -1.95,23.08 -5.2,60.45 -10.4,67.61 -5.2,7.15 -19.17,33.47 -20.15,46.8 -0.97,13.33 -7.48,30.88 -15.61,43.88 -8.12,13 -10.4,37.69 -20.15,43.55 -9.75,5.85 -29.91,9.76 -40.31,13.33 -10.4,3.57 -21.78,10.39 -22.75,18.2 -0.97,7.8 -5.52,30.55 -19.18,39.98 -13.65,9.44 -43.87,22.11 -46.48,35.44 -2.6,13.33 2.93,26.33 -2.6,34.78 -5.52,8.45 -3.9,18.85 -12.68,18.2 -8.78,-0.65 -20.8,-7.15 -40.3,-7.15 -19.5,0 -35.1,4.22 -46.8,19.83 -11.7,15.6 -14.3,22.1 -11.38,31.52 2.92,9.43 4.87,22.43 17.87,25.68 13,3.25 21.45,6.17 35.43,0 13.98,-6.18 19.83,-12.35 24.38,-8.13 4.56,4.22 13.66,8.77 9.75,24.38 -3.9,15.6 0.32,34.78 11.05,43.56 10.73,8.78 26.33,14.95 27.63,27.62 1.3,12.68 -4.88,27.62 8.12,32.5 13.01,4.87 29.91,-0.32 35.76,7.48 5.85,7.8 5.84,16.92 11.03,15.78 5.21,-1.14 22.59,-10.73 27.63,-8.61 5.03,2.11 3.41,23.73 -3.08,28.93 -6.5,5.2 -4.56,13 4.55,24.05 9.1,11.05 20.8,0.65 26,13 5.21,12.35 -7.8,30.56 6.5,33.8 14.3,3.26 34.45,1.95 40.3,8.45 5.85,6.5 10.4,18.86 -1.95,22.75 -12.35,3.9 -28.61,7.8 -26.65,23.4 1.95,15.6 9.1,46.15 11.7,53.96 2.6,7.8 14.95,10.4 20.15,20.15 5.2,9.75 9.1,91.01 4.55,106.61 -4.55,15.61 -13,40.96 -9.1,52.66 3.91,11.7 18.86,46.81 24.05,59.8 5.21,13 11.05,36.4 18.86,44.86 7.8,8.45 41.6,24.05 52.65,49.4 11.06,25.36 24.06,24.06 16.26,64.36 -7.8,40.3 -22.75,94.91 -25.35,112.46 -2.6,17.55 -9.76,39 5.2,51.35 14.96,12.35 53.96,19.5 69.56,14.31 15.6,-5.21 74.1,-29.91 86.45,-50.71 12.36,-20.8 35.11,-83.86 42.26,-95.56 7.15,-11.7 20.8,-44.21 39,-50.06 18.21,-5.85 101.41,-38.35 115.71,-42.9 14.31,-4.55 83.86,-20.15 98.16,-20.15 14.3,0 50.7,-4.56 77.36,4.55 26.65,9.1 128.71,40.96 172.27,90.36 43.55,49.4 72.16,77.35 83.21,93.61 11.04,16.26 25.34,35.76 31.2,64.36 5.85,28.6 15.61,92.96 18.86,111.81 3.25,18.85 0.65,39.65 24.05,54.6 23.4,14.96 70.86,44.21 86.45,50.71 15.61,6.5 29.91,2.6 48.1,31.85 18.21,29.26 50.05,63.06 57.21,83.86 7.15,20.8 8.45,45.51 7.8,69.56 -0.65,24.05 1.3,124.16 1.95,137.17 0.65,13 4.56,36.4 17.56,46.15 13,9.74 16.9,28.6 20.15,39 3.25,10.4 1.3,5.85 24.05,14.95 22.75,9.1 41.6,26.65 54.6,37.05 13.01,10.4 9.75,24.71 14.31,35.76 4.55,11.04 9.09,23.39 15.6,41.6 6.5,18.21 -4.56,35.76 2.6,47.45 7.15,11.7 30.56,43.56 37.05,63.06 6.5,19.5 26.01,50.7 27.96,64.35 1.95,13.66 3.9,23.41 11.7,42.91 7.8,19.5 11.05,38.35 14.95,59.16 3.9,20.8 14.95,41.61 26,50.05 11.05,8.45 44.21,28.61 52,39.01 7.8,10.4 28.61,29.25 40.96,37.7 12.35,8.45 41.61,29.26 55.91,40.31 14.3,11.05 26,22.74 35.1,23.39 9.1,0.66 37.05,-6.5 38.35,27.96 1.3,34.45 -5.85,74.75 -8.44,88.4 -2.61,13.66 -3.25,25.36 -2.61,37.71 0.65,12.35 -10.4,16.9 -5.2,37.7 5.2,20.8 14.3,38.35 26.65,50.06 12.35,11.7 21.45,33.15 35.1,40.95 13.65,7.8 33.15,27.3 61.1,20.8 27.96,-6.5 31.86,-16.26 57.86,-12.35 26.01,3.9 61.11,5.85 82.56,13.65 21.45,7.8 70.86,5.85 85.81,-15.61 14.95,-21.45 31.53,-36.08 41.61,-44.21 10.08,-8.13 26.65,-26 31.52,-18.21 4.88,7.8 10.08,39.66 16.91,52.98 6.83,13.33 34.78,39.01 41.28,44.53 6.5,5.52 22.43,15.27 14.95,26.97 -7.48,11.7 -17.88,12.03 -17.88,20.48 0,8.45 17.23,44.21 12.68,55.91 -4.55,11.7 -22.09,39 -28.6,46.15 -6.5,7.15 -7.47,26.66 -9.42,46.48 -1.96,19.83 -8.13,39.98 -20.48,39.66 -12.35,-0.32 -14.63,-4.87 -30.88,-6.83 -16.25,-1.95 -29.58,0.98 -44.21,11.71 -14.62,10.72 -49.4,21.78 -49.08,30.55 0.32,8.78 17.56,8.45 19.5,17.23 1.95,8.77 0.97,24.05 12.68,26.65 11.7,2.6 23.39,-5.53 29.25,-5.85 5.85,-0.32 15.93,1.95 20.8,17.23 4.88,15.27 17.56,15.92 14.3,28.6 -3.25,12.68 1.95,19.5 -14.3,23.08 -16.25,3.58 -35.43,0.66 -39.01,10.74 -3.57,10.07 -2.91,18.85 13.33,28.92 16.25,10.08 28.6,14.95 16.9,23.08 -11.7,8.13 -19.5,-9.1 -25.35,1.62 -5.85,10.73 0,14.62 -6.5,29.26 -6.5,14.62 -11.37,39.65 1.96,35.43 13.33,-4.22 29.57,-26.66 34.78,-17.88 5.2,8.78 -6.82,36.08 -11.05,42.26 -4.23,6.18 12.68,14.95 24.05,9.1 11.38,-5.85 18.53,-18.53 24.05,-12.03 5.52,6.5 16.58,15.6 3.57,28.92 -13,13.33 -10.4,19.18 14.3,25.35 24.71,6.18 38.03,0.66 57.21,-12.34 19.18,-13.01 24.06,-17.56 41.28,-9.76 17.23,7.8 37.05,15.28 51.36,3.26 14.3,-12.03 30.56,-11.05 33.48,-30.23 2.92,-19.17 14.95,-33.48 26.97,-39.98 12.03,-6.5 10.08,-17.56 15.92,-28.61 5.85,-11.05 11.7,6.18 30.23,3.26 18.53,-2.93 66.96,-28.93 80.93,-28.61 13.97,0.32 26.97,7.8 31.21,30.56 4.22,22.74 8.78,37.38 8.78,57.86 0,20.47 -5.85,51.35 -6.83,63.05 -0.97,11.7 -0.66,27.96 -3.58,44.86 -2.92,16.91 -24.38,45.83 -17.55,58.51 6.82,12.68 15.27,19.18 26.97,24.05 11.7,4.88 46.48,-17.22 55.58,-26.97 9.1,-9.75 17.55,-20.8 32.18,-13.65 14.62,7.15 63.05,14.62 78.33,27.95 15.27,13.33 45.51,18.21 56.88,19.18 11.37,0.97 20.8,4.55 28.27,15.27 7.48,10.73 18.21,24.05 30.23,29.91 12.03,5.85 41.27,13 56.87,5.53 15.61,-7.48 33.48,-12.03 50.39,-7.15 16.9,4.87 48.1,42.57 75.73,49.4 27.63,6.83 85.16,-1.62 98.81,0.32 13.65,1.95 49.08,16.26 66.31,15.93 17.22,-0.33 79.63,-13 90.68,-15.93 11.05,-2.92 38.03,-11.7 49.41,-19.83 11.38,-8.12 20.15,-13 37.05,-20.8 16.9,-7.8 33.8,-4.56 46.48,0.64 12.68,5.21 37.06,24.38 51.36,27.63 14.3,3.25 61.1,32.5 70.52,35.75 9.43,3.26 48.44,36.4 65.66,39.01 17.23,2.6 28.61,7.8 39.98,-7.48 11.37,-15.27 26,-26.01 36.08,-28.93 10.07,-2.92 23.73,-4.22 36.73,1.63 13,5.85 18.86,13.33 71.18,18.52 52.33,5.2 49.74,23.08 70.21,15.6 20.48,-7.47 34.79,-25.03 57.21,-32.83 22.43,-7.8 52.01,1.95 67.93,10.4 15.92,8.45 51.68,0 65.66,-4.22 13.97,-4.22 48.1,-2.92 72.16,-0.65 24.05,2.27 53.3,1.3 62.4,5.85 9.1,4.55 26.97,11.04 49.4,14.95 22.43,3.9 98.81,34.45 104.34,36.4 5.53,1.95 22.46,13.64 36.44,14.94 13.97,1.3 24.7,-2.91 39.98,-2.27 15.28,0.65 33.81,-1.62 36.74,3.26 2.92,4.87 2.6,18.2 7.8,23.73 5.21,5.52 22.1,19.18 27.63,22.43 5.52,3.25 23.07,8.12 30.55,27.62 7.48,19.5 32.5,42.58 41.61,55.58 9.1,13 19.17,23.08 42.25,27.3 23.09,4.23 40.31,14.31 54.28,6.83 13.98,-7.48 5.85,-5.21 25.35,-26.66 19.5,-21.45 34.14,-40.3 46.16,-45.17 12.03,-4.88 32.17,-11.38 57.52,-11.7 25.36,-0.33 49.09,12.02 71.19,-1.96 22.1,-13.97 26.33,-35.75 27.95,-44.86 1.62,-9.09 -7.8,-32.17 2.27,-40.3 10.08,-8.13 17.88,-15.92 33.48,-13 15.6,2.92 30.56,17.55 46.8,13.33 16.26,-4.22 27.3,-13 33.15,-14.62 5.85,-1.62 31.53,0.32 46.8,-27.63 15.27,-27.95 32.5,-35.75 44.21,-44.52 11.7,-8.78 21.45,-21.14 34.78,-28.28 13.33,-7.15 13,12.03 36.08,-12.68 23.08,-24.7 59.48,-56.23 60.13,-66.31 0.65,-10.08 -19.5,-16.9 -26,-36.73 -6.5,-19.83 -21.45,-47.78 -21.45,-59.8 0,-12.03 6.5,-29.58 13.97,-45.51 7.48,-15.92 25.68,-41.28 31.86,-62.08 6.18,-20.8 -1.3,-43.88 0.97,-57.86 2.27,-13.97 13.65,-38.68 14.96,-61.1 1.3,-22.43 5.52,-49.73 7.8,-62.41 2.27,-12.68 5.21,-20.48 -5.2,-23.08 -10.4,-2.6 -17.23,1.3 -45.18,-1.95 -27.96,-3.25 -50.05,-26.01 -64.36,-32.18 -14.3,-6.17 -23.73,-2.93 -36.4,2.6 -12.68,5.53 -23.73,11.05 -33.48,1.96 -9.75,-9.1 -33.15,-21.78 -52.33,-31.86 -19.18,-10.08 -64.04,-27.96 -70.53,-52.66 -6.5,-24.7 -4.22,-66.31 -13.65,-77.04 -9.44,-10.73 -29.58,-19.17 -35.11,-35.75 -5.52,-16.57 -4.22,-28.93 -2.92,-49.73 1.3,-20.8 2.93,-27.62 -9.75,-42.91 -12.68,-15.28 -34.45,-29.91 -40.3,-35.43 -5.85,-5.53 -14.7,-9.79 -14.7,-9.79z"/>
 </g>
</svg>
