<?xml version="1.0" encoding="UTF-8"?>
<!DOCTYPE svg PUBLIC "-//W3C//DTD SVG 1.1//EN" "http://www.w3.org/Graphics/SVG/1.1/DTD/svg11.dtd">
<!-- Creator: CorelDRAW 2020 (64-Bit) -->
<svg xmlns="http://www.w3.org/2000/svg" xml:space="preserve" width="113.537mm" height="170.133mm" version="1.1" style="shape-rendering:geometricPrecision; text-rendering:geometricPrecision; image-rendering:optimizeQuality; fill-rule:evenodd; clip-rule:evenodd"
viewBox="0 0 11882.38 17805.57"
 xmlns:xlink="http://www.w3.org/1999/xlink"
 xmlns:xodm="http://www.corel.com/coreldraw/odm/2003">
 <defs>
  <style type="text/css">
   <![CDATA[
    .fil0 {fill:#80384F;fill-opacity:0.788235}
   ]]>
  </style>
 </defs>
 <g id="Capa_x0020_1">
  <metadata id="CorelCorpID_0Corel-Layer"/>
  <path id="tolima" class="fil0" d="M1830.03 17805.57c-26.52,-12.9 -65.23,-28.68 -90.33,-53.76 -25.09,-25.1 -39.42,-27.25 -75.27,-72.41 -35.84,-45.16 -30.82,-55.92 -54.48,-58.79 -23.65,-2.87 -35.84,-5.02 -48.75,5.74 -12.9,10.76 10.76,31.55 -20.78,18.64 -31.55,-12.9 -43.01,-22.22 -48.75,-34.41 -5.74,-12.18 -28.68,12.18 -38,-30.11 -9.32,-42.29 11.47,-53.76 -16.48,-62.36 -27.96,-8.6 -30.83,1.43 -78.86,-21.51 -48.04,-22.94 -33.69,46.6 -45.88,-3.59 -12.19,-50.18 15.76,-49.46 -21.51,-48.75 -37.28,0.72 -45.16,-6.45 -69.53,-0.71 -24.39,5.74 -34.42,0.71 -50.91,17.92 -16.48,17.21 -10.05,32.27 -29.4,17.93 -19.35,-14.34 -39.42,-58.79 -41.57,-75.99 -2.16,-17.21 6.44,-26.53 -19.36,-53.05 -25.81,-26.53 7.88,-19.35 -36.56,-46.6 -44.45,-27.24 -35.12,-12.9 -63.09,-37.99 -27.96,-25.1 -45.18,-29.41 -51.63,-52.35 -6.45,-22.94 -12.9,-17.93 -14.34,-60.94 -1.43,-43 20.8,-38.71 -1.43,-80.28 -22.22,-41.58 -12.19,-68.11 -37.28,-73.85 -25.09,-5.74 2.16,3.57 -48.02,-16.5 -50.18,-20.07 -88.9,-24.39 -134.78,-63.1 -45.89,-38.7 -27.25,-54.47 -71.7,-80.28 -44.45,-25.81 -30.1,5.72 -77.41,-40.15 -47.32,-45.88 -81.73,-15.78 -73.12,-50.18 8.6,-34.41 41.57,-10.04 30.1,-48.75 -11.46,-38.71 9.31,-30.11 -11.48,-49.83 -20.78,-19.72 -15.77,-1.43 -21.51,-34.77 -5.74,-33.33 -7.16,-59.14 -21.5,-58.07 -14.34,1.08 -3.24,10.75 -38.01,3.59 -34.76,-7.17 -56.26,-13.63 -83.51,-21.15 -27.25,-7.52 -38.71,-5.01 -52.69,-18.27 -13.98,-13.27 -29.4,-3.23 -22.94,-26.17 6.45,-22.94 4.66,0 13.62,-34.77 8.97,-34.77 20.78,-35.49 14.34,-61.65 -6.45,-26.16 -5.01,-22.58 -14.34,-51.97 -9.32,-29.4 -2.5,-41.22 -24.73,-67.75 -22.23,-26.52 -11.47,-27.61 -41.94,-53.76 -30.48,-26.16 -47.33,-50.54 -70.98,-56.28 -23.66,-5.74 -13.26,-3.21 -54.13,-7.16 -40.86,-3.95 -44.09,8.97 -56.63,-17.93 -12.55,-26.89 -19.36,-21.15 -10.39,-38.71 8.96,-17.56 3.94,-14.34 27.23,-25.81 23.31,-11.47 90.34,-33.69 113.64,-43.73 23.3,-10.04 51.25,-0.72 68.1,-18.28 16.85,-17.57 39.42,-25.81 38,-46.6 -1.43,-20.78 -11.83,-30.47 -10.75,-59.14 1.07,-28.68 15.41,-8.96 15.76,-37.63 0.36,-28.68 9.32,-19 -4.29,-35.84 -13.63,-16.85 -24.02,-57.35 -38.36,-64.17 -14.34,-6.8 -40.51,-2.16 -41.59,-19.72 -1.07,-17.56 -8.6,-9.67 5.38,-31.18 13.98,-21.52 31.54,-8.6 26.17,-44.09 -5.38,-35.49 4.3,-37.99 -18.28,-54.84 -22.58,-16.85 -46.6,-9.32 -56.64,-32.27 -10.04,-22.94 -17.56,-6.09 -13.26,-46.59 4.3,-40.51 12.9,-35.13 10.04,-65.61 -2.87,-30.48 -13.62,-22.94 -0.36,-49.47 13.26,-26.52 6.09,-25.09 32.26,-29.74 26.16,-4.67 22.23,-11.11 51.62,1.42 29.4,12.55 45.17,30.83 68.11,26.89 22.94,-3.94 31.54,3.95 52.33,-17.56 20.8,-21.51 33.71,-30.84 45.18,-52.35 11.47,-21.51 34.42,-53.76 29.04,-77.43 -5.38,-23.66 -22.95,-19.36 -27.96,-59.14 -5.01,-39.79 -10.38,-25.45 0.72,-51.26 11.1,-25.81 33.33,-36.2 42.65,-49.46 9.32,-13.27 38,-41.95 58.43,-48.39 20.43,-6.46 38.36,-11.84 31.9,-32.98 -6.45,-21.15 -15.41,-42.66 -32.26,-67.03 -16.85,-24.37 -31.9,-2.87 -35.84,-46.24 -3.95,-43.38 -24.02,-57 -15.42,-93.2 8.6,-36.2 53.05,-54.84 57,-78.15 3.94,-23.3 -1.08,-22.58 11.83,-41.94 12.9,-19.35 23.66,-19.35 15.77,-36.56 -7.88,-17.21 -21.14,-23.66 -22.94,-46.25 -1.79,-22.58 -10.39,-51.97 -19.35,-67.39 -8.97,-15.41 -45.89,-31.9 -63.81,-63.44 -17.92,-31.54 -29.04,2.16 -16.85,-38.36 12.19,-40.5 15.77,-35.84 11.47,-63.09 -4.3,-27.24 -4.68,-32.62 -15.25,-48.39 -10.57,-15.78 -6.99,-5.01 -23.48,-23.3 -16.48,-18.29 -41.94,-29.75 -16.85,-43.38 25.09,-13.62 25.1,-12.19 47.32,-27.96 22.22,-15.76 40.86,-19.35 45.16,-41.57 4.3,-22.23 -8.61,-25.81 0.71,-48.75 9.32,-22.94 8.79,-28.33 32.8,-38.9 24.02,-10.57 36.57,-2.16 55.38,-13.79 18.82,-11.65 42.66,-39.07 43.56,-55.74 0.89,-16.67 9.31,-34.41 -5.74,-42.66 -15.06,-8.25 -25.27,4.3 -54.85,-16.85 -29.58,-21.14 -30.64,-62.72 -28.5,-81.54 2.16,-18.83 27.94,-42.84 22.21,-100.54 -5.72,-57.71 -21.5,-71.69 -11.1,-108.25 10.39,-36.57 28.32,-58.43 29.39,-96.43 1.08,-37.99 21.51,-15.42 44.09,-50.54 22.58,-35.13 24.39,-15.44 29.03,-53.08 4.66,-37.63 32.28,-37.63 34.06,-83.16 1.79,-45.53 -37.63,-69.18 -29.03,-101.08 8.6,-31.91 12.55,-40.87 44.8,-85.32 32.27,-44.45 54.84,-49.1 88.54,-99.29 33.7,-50.18 47.67,-37.63 42.66,-56.27 -5.02,-18.64 -31.55,-38 -4.67,-65.95 26.9,-27.96 32.26,-9.68 44.09,-50.91 11.84,-41.21 25.1,-62.38 41.58,-98.58 16.49,-36.2 44.09,-39.06 43.74,-65.59 -0.36,-26.53 -38,-56.27 -29.39,-90.33 8.6,-34.06 53.41,-57.35 32.26,-110.05 -21.15,-52.69 -54.84,-70.62 -61.3,-112.56 -6.46,-41.94 -10.76,-48.04 -0.72,-64.17 10.05,-16.13 33.69,-5.37 34.78,-43 1.08,-37.65 11.47,-41.23 -3.23,-69.19 -14.69,-27.95 -35.48,-38.71 -26.52,-69.9 8.96,-31.18 7.17,-51.97 24.74,-55.2 17.56,-3.22 51.97,19.01 66.67,6.81 14.69,-12.19 26.88,-12.18 25.09,-43.37 -1.79,-31.19 -5.01,-41.59 4.31,-54.13 9.31,-12.55 12.54,-17.93 47.32,-30.47 34.77,-12.55 85.32,-5.74 103.95,-53.41 18.64,-47.68 17.57,-81.37 6.46,-106.82 -11.11,-25.45 -32.62,-46.24 -34.78,-82.8 -2.15,-36.57 -20.07,-27.96 -9.68,-65.95 10.4,-38 11.47,-47.67 34.06,-62.36 22.58,-14.7 64.53,-13.99 71.33,-44.81 6.81,-30.82 -3.95,-31.18 6.81,-57.35 10.76,-26.16 20.43,-30.82 40.86,-49.46 20.44,-18.65 8.6,-0.72 45.89,-24.39 37.28,-23.65 34.76,0.37 65.59,-31.53 30.83,-31.9 44.45,-26.53 46.96,-64.89 2.51,-38.36 8.25,-29.74 19,-64.88 10.76,-35.12 17.56,-44.09 24.37,-74.19 6.81,-30.11 11.47,-41.23 25.45,-65.61 13.98,-24.36 34.04,-25.09 39.07,-62.01 5.02,-36.91 -8.6,-34.76 5.02,-65.94 13.62,-31.19 -6.81,-1.09 29.39,-36.92 36.21,-35.84 36.92,-53.77 31.9,-64.52 -5.01,-10.76 -7.88,-11.48 2.16,-22.23 10.04,-10.75 16.48,-12.54 27.95,-13.62 11.47,-1.08 32.98,5.74 49.47,-13.98 16.49,-19.72 5.38,-6.09 16.49,-19.72 11.1,-13.63 38.35,-5.38 50.54,-26.16 12.19,-20.8 58.79,-98.94 62.01,-133.71 3.23,-34.76 6.09,-47.3 25.1,-60.56 19,-13.27 44.45,-2.87 45.53,-22.23 1.07,-19.36 -0.01,-20.43 -12.91,-42.29 -12.9,-21.87 -26.16,-34.78 -27.6,-72.06 -1.42,-37.28 -8.25,-68.11 8.96,-92.12 17.21,-24.02 66.32,-64.52 81.01,-82.09 14.69,-17.56 67.03,-97.49 75.28,-105.73 8.25,-8.25 27.24,-44.46 41.21,-25.81 13.98,18.64 18.64,66.67 41.58,57.35 22.94,-9.32 45.17,-27.96 50.54,-52.34 5.38,-24.37 9.32,-40.15 28.32,-63.44 19.01,-23.3 60.59,-76.71 60.59,-120.79 0,-44.09 -0.36,-34.41 2.51,-65.24 2.87,-30.82 -1.09,-37.62 10.03,-64.52 11.11,-26.89 24.02,-22.58 40.51,-44.8 16.48,-22.22 69.18,-74.2 63.09,-129.4 -6.09,-55.21 -2.16,-55.93 -12.9,-71.7 -10.76,-15.76 -20.43,-22.57 -13.98,-57.34 6.46,-34.78 6.46,-53.77 11.84,-72.06 5.37,-18.27 13.25,-37.99 24.36,-43.37 11.11,-5.38 26.16,-7.52 42.3,4.66 16.13,12.19 31.54,39.79 45.53,31.19 13.97,-8.6 49.12,-62.72 51.26,-75.62 2.15,-12.91 8.24,-28.32 19.35,-40.51 11.11,-12.18 62.01,-47.32 72.05,-60.22 10.04,-12.9 45.53,-43.73 60.59,-65.59 15.05,-21.87 17.56,-24.37 32.26,-44.45 14.69,-20.07 24.36,-22.94 36.56,-43.38 12.19,-20.43 24.02,-22.22 16.85,-42.66 -7.17,-20.43 -52.33,-45.17 -65.59,-60.93 -13.27,-15.77 -37.65,-47.32 -36.21,-69.18 1.43,-21.87 3.22,-54.13 10.76,-78.15 7.52,-24.01 11.47,-38.36 19,-51.62 7.52,-13.26 15.42,-40.15 50.54,-55.92 35.13,-15.77 52.69,-10.39 59.51,-26.89 6.81,-16.48 -0.71,-30.1 1.43,-53.41 2.15,-23.3 -3.96,-22.94 2.15,-25.81 6.1,-2.87 15.43,-10.04 29.4,-2.15 13.97,7.88 16.48,15.76 34.41,12.18 17.93,-3.58 39.42,5.02 40.86,-13.26 1.43,-18.28 1.43,-41.58 7.54,-60.22 6.09,-18.64 10.03,-28.32 21.86,-34.06 11.83,-5.74 40.15,-1.44 64.88,-17.21 24.73,-15.77 39.79,-17.92 58.79,-31.54 19,-13.63 38.71,-23.3 39.07,-42.66 0.37,-19.36 -3.57,-28.31 -1.79,-53.41 1.79,-25.1 -4.66,-27.24 4.66,-46.96 9.32,-19.72 11.48,-16.48 9.69,-36.56 -1.8,-20.07 -6.82,-24.73 3.94,-44.09 10.76,-19.36 46.24,-46.24 58.79,-62.01 12.55,-15.78 37.28,-47.32 45.88,-55.92 8.6,-8.6 45.53,-27.24 50.54,-46.96 5.02,-19.72 5.38,-41.58 20.07,-58.43 14.7,-16.85 49.83,-26.52 67.75,-46.59 17.92,-20.07 29.39,-62.73 23.65,-75.99 -5.74,-13.27 -42.66,-26.16 -43.74,-39.79 -1.07,-13.63 12.19,-31.19 24.03,-41.58 11.83,-10.4 98.21,-20.44 135.84,-80.66 37.63,-60.21 61.3,-83.15 58.07,-103.95 -3.22,-20.78 -7.54,-31.19 0,-47.67 7.52,-16.48 27.24,-17.56 41.94,-36.57 14.7,-19 19.01,-41.94 29.4,-60.22 10.39,-18.27 20.06,-25.09 42.65,-32.61 22.58,-7.54 48.39,-4.3 65.97,-18.28 17.56,-13.98 39.07,-21.15 48.03,-39.79 8.96,-18.64 8.6,-18.98 1.43,-31.18 -7.17,-12.19 -35.84,-19.01 -32.26,-62.38 3.58,-43.38 25.09,-82.8 29.39,-106.1 4.3,-23.3 8.96,-38.36 12.55,-65.95 3.58,-27.6 7.52,-31.91 5.37,-53.05 -2.15,-21.15 -22.22,-58.79 -20.43,-76.71 1.8,-17.92 30.11,-53.76 32.62,-70.97 2.51,-17.21 4.3,-27.96 0.36,-45.53 -3.94,-17.56 0.36,-25.82 6.09,-51.26 5.74,-25.44 18.65,-34.77 21.87,-60.58 3.22,-25.81 3.21,-48.04 9.67,-77.43 6.46,-29.4 32.99,-58.79 42.66,-102.88 9.68,-44.09 21.51,-95.35 21.86,-121.87 0.37,-26.53 2.17,-49.82 -2.15,-74.91 -4.3,-25.1 -11.47,-72.77 -2.15,-90.69 9.31,-17.93 35.11,-97.86 30.47,-124.38 -4.66,-26.53 -4.66,-31.91 3.59,-46.25 8.24,-14.34 40.14,-26.16 50.89,-44.8 10.76,-18.63 24.73,-46.24 42.3,-60.93 17.56,-14.69 37.62,-16.48 59.5,-27.6 21.87,-11.11 59.13,-53.76 82.8,-92.84 23.66,-39.08 45.53,-51.26 65.23,-64.52 19.72,-13.27 69.19,-29.04 69.54,-62.73 0.36,-33.69 -15.05,-64.88 -11.47,-88.9 3.58,-24.02 31.19,-82.09 32.27,-107.18 1.07,-25.09 -18.28,-60.22 -11.11,-80.29 7.16,-20.07 46.6,-77.43 54.48,-86.74 7.88,-9.32 47.67,-49.82 62.36,-54.13 14.69,-4.3 53.41,-26.88 64.17,-40.86 10.76,-13.98 49.82,-65.24 59.14,-74.57 9.32,-9.31 49.83,-53.41 69.9,-59.14 20.07,-5.74 49.83,-24.73 56.28,-38.71 6.45,-13.97 22.93,-56.99 45.52,-69.53 22.58,-12.55 214.36,-30.12 214.36,-30.12 0,0 49.83,-1.42 53.41,-11.1 3.58,-9.68 3.58,-11.11 3.58,-11.11 0,0 7.54,-19.72 18.65,-25.09 11.11,-5.38 65.22,-53.42 71.68,-74.2 6.46,-20.78 6.82,-74.56 -1.07,-92.84 -7.89,-18.28 -29.03,-85.66 -30.47,-102.88 -1.43,-17.21 -1.8,-65.6 5.01,-80.29 6.81,-14.69 20.07,-62.01 30.83,-85.31 10.75,-23.31 79.94,-78.15 90.33,-96.79 10.39,-18.63 40.86,-79.58 59.5,-89.97 18.65,-10.39 55.56,-19.35 65.95,-34.77 10.39,-15.42 23.66,-41.22 16.49,-61.3 -7.17,-20.07 -38,-53.04 -15.77,-83.52 22.22,-30.47 58.42,-51.26 55.92,-74.2 -2.51,-22.93 -16.48,-22.57 -24.37,-41.94 -7.89,-19.36 -8.24,-28.68 -21.15,-50.18 -12.9,-21.5 -17.57,-35.49 -10.04,-54.13 7.52,-18.64 32.27,-63.09 44.81,-93.91 12.54,-30.82 19.35,-40.5 19,-74.56 -0.37,-34.06 3.59,-55.56 4.3,-77.78 0.71,-22.23 16.13,-104.67 20.43,-125.46 4.3,-20.78 17.21,-45.88 28.31,-69.18 11.11,-23.31 52.71,-72.05 62.74,-83.16 10.03,-11.11 53.04,-74.91 56.99,-91.76 3.95,-16.85 12.91,-43.74 20.8,-50.55 7.88,-6.8 68.47,-19.35 84.95,-44.8 16.48,-25.45 57.72,-57.34 75.64,-73.48 17.92,-16.13 56.27,-81 58.79,-108.6 2.51,-27.61 24.02,-112.91 17.21,-127.97 -6.81,-15.05 -12.9,-19.71 -46.59,-38.36 -33.7,-18.64 -88.9,-60.58 -99.65,-89.61 -10.76,-29.04 -47.67,-143.02 -57.71,-153.77 -10.05,-10.75 -34.06,-44.8 -34.06,-82.08 0,-37.28 -6.09,-106.46 -6.46,-122.95 -0.36,-16.49 -2.15,-56.64 10.04,-69.19 12.18,-12.54 92.12,-27.23 105.39,-50.54 13.26,-23.3 26.88,-62.01 43.01,-85.31 16.13,-23.3 51.26,-67.03 57.35,-87.11 6.09,-20.07 6.45,-30.83 11.83,-58.43 5.38,-27.6 13.26,-69.89 16.13,-100.36 2.87,-30.48 11.47,-23.31 11.11,-51.63 -0.36,-28.32 -10.04,-55.55 -23.3,-68.81 -13.26,-13.27 -41.23,-62.02 -63.45,-65.97 -22.22,-3.94 -38.35,10.04 -57.71,-11.47 -19.35,-21.5 -35.86,-38.36 -46.96,-54.84 -11.1,-16.48 -22.24,2.51 -18.65,-40.5 3.59,-43.01 18.63,-62.36 22.94,-88.17 4.3,-25.81 -12.9,-52.34 -0.72,-70.26 12.19,-17.93 148.39,-148.39 177.07,-169.91 28.69,-21.51 97.5,-79.57 108.97,-101.8 11.47,-22.22 58.06,-64.52 76.71,-86.03 18.64,-21.51 40.87,-58.79 65.24,-65.23 24.36,-6.46 39.41,-21.52 116.84,12.89 77.44,34.42 174.21,96.79 219.37,82.45 45.17,-14.34 43.73,-22.22 71.69,-40.15 27.96,-17.92 77.44,0 100.38,-29.39 22.93,-29.4 42.29,-48.04 59.5,-93.92 17.21,-45.88 36.56,-60.21 56.63,-75.99 20.07,-15.77 43.01,-20.07 87.46,-32.98 44.45,-12.9 56.63,-26.52 86.03,-37.28 29.39,-10.75 98.22,-13.63 118.29,-9.32 20.06,4.31 53.76,7.18 74.55,25.1 20.8,17.92 56.64,48.04 76.71,54.48 20.07,6.46 37.28,15.06 63.8,6.46 26.53,-8.6 48.75,-1.43 68.82,-11.47 20.07,-10.05 40.87,-9.32 42.3,-35.13 1.43,-25.81 -15.06,-38.7 -7.89,-65.23 7.17,-26.53 11.47,-48.03 28.68,-63.81 17.21,-15.77 28.68,-40.15 34.41,-65.95 5.74,-25.81 16.49,-51.62 32.98,-81.73 16.48,-30.11 29.39,-68.1 45.88,-85.31 16.49,-17.22 56.64,-68.11 69.54,-81.01 12.89,-12.9 63.08,-106.1 76.7,-120.44 13.63,-14.34 22.94,-16.49 49.46,-43.01 26.53,-26.53 44.45,-60.93 44.45,-81 0,-20.07 14.34,-73.85 27.24,-91.77 12.9,-17.92 53.05,-32.97 75.99,-36.56 22.94,-3.59 75.28,-5.02 95.35,-16.49 20.06,-11.47 40.86,-24.36 45.87,-41.57 5.02,-17.22 13.63,-17.93 29.4,-25.82 15.77,-7.88 78.85,-30.1 106.1,-32.26 27.24,-2.16 63.09,12.9 84.59,11.47 21.51,-1.43 87.46,12.9 104.67,2.87 17.21,-10.04 50.18,-22.23 75.99,-33.7 25.8,-11.47 33.68,-25.81 58.06,-37.99 24.37,-12.19 37.28,0.71 69.53,-12.19 32.27,-12.89 34.41,-12.18 70.98,-32.98 36.57,-20.78 35.84,-39.42 63.8,-40.86 27.96,-1.43 52.34,5.74 75.99,11.47 23.66,5.74 73.12,5.74 96.79,12.18 23.65,6.46 70.25,33.7 92.47,45.17 22.23,11.47 71.69,25.09 91.04,26.52 19.36,1.43 65.24,22.23 83.17,18.64 17.92,-3.58 45.88,-8.6 58.79,-25.81 12.89,-17.21 15.76,-27.95 34.4,-37.28 18.65,-9.31 38.72,-27.94 56.64,-43 17.93,-15.06 30.14,-27.2 56.66,-35.8 26.53,-8.6 78.16,-0.71 101.09,-6.45 22.94,-5.74 38,-9.32 65.24,-8.6 27.23,0.71 57.34,26.52 72.4,37.99 15.06,11.47 25.8,30.84 53.05,42.3 27.24,11.47 31.54,20.07 58.79,23.66 27.24,3.58 35.13,25.09 56.63,30.1 21.51,5.02 74.57,10.04 88.18,10.04 13.62,0 37.28,-16.48 70.26,18.64 32.98,35.13 44.44,59.51 63.8,63.81 19.35,4.3 70.25,37.99 88.17,25.81 17.93,-12.19 17.93,-28.68 32.99,-36.57 15.05,-7.88 36.56,-3.59 51.61,4.3 15.06,7.89 38.72,26.53 48.75,43.01 10.04,16.49 20.8,47.32 23.66,60.94 2.87,13.63 6.45,81 7.17,103.23 0.72,22.22 6.46,33.69 10.75,53.05 4.3,19.35 15.77,35.13 17.93,50.89 2.15,15.77 0,42.3 -4.3,50.18 -4.3,7.89 -32.99,22.94 -35.86,50.18 -2.87,27.25 -10.75,78.86 -7.88,89.62 2.87,10.76 14.34,11.46 7.17,33.69 -7.17,22.23 -25.1,20.8 -25.81,38 -0.71,17.21 -17.92,40.15 5.74,50.18 23.65,10.04 36.56,2.88 53.05,11.47 16.49,8.6 45.17,17.2 53.05,46.59 7.89,29.4 20.8,41.59 20.8,68.82 0,27.24 -6.46,72.41 -12.9,96.79 -6.46,24.37 -25.1,68.11 -38,83.16 -12.9,15.06 -38.71,36.56 -45.16,55.2 -6.46,18.65 -12.9,36.57 -11.47,60.22 1.42,23.66 4.29,33.7 0,55.92 -4.3,22.23 -10.76,28.69 -2.87,45.17 7.88,16.48 52.33,30.82 67.39,48.03 15.05,17.22 39.42,15.77 41.58,44.45 2.15,28.68 0,43.74 -2.87,59.51 -2.87,15.77 -5.02,17.93 -7.89,40.87 -2.87,22.94 2.87,43.74 -3.58,63.8 -6.46,20.07 -26.53,20.8 -30.11,50.91 -3.59,30.1 -15.06,36.56 -15.06,58.79 0,22.22 -12.17,93.92 -15.76,112.56 -3.59,18.64 -16.49,72.4 -25.81,91.76 -9.31,19.35 -30.82,69.54 -35.12,92.47 -4.31,22.94 -10.77,108.26 -20.09,130.49 -9.31,22.22 -39.42,41.58 -39.42,72.4 0,30.83 -11.47,48.04 -2.16,60.23 9.32,12.18 68.82,28.67 91.05,39.42 22.23,10.76 83.16,14.34 103.23,34.41 20.07,20.07 51.62,32.98 51.62,51.62 0,18.64 2.16,43.74 -5.74,55.92 -7.89,12.18 -29.4,32.98 -76.71,23.66 -47.3,-9.32 -94.62,-19.36 -109.68,-0.72 -15.06,18.64 -70.97,59.5 -78.86,80.29 -7.88,20.78 -34.41,36.56 -30.83,68.1 3.59,31.54 9.32,59.51 31.55,72.41 22.22,12.9 65.24,23.65 81.73,40.15 16.48,16.49 26.52,5.72 20.78,48.03 -5.74,42.3 3.59,78.14 -20.78,99.65 -24.39,21.51 -29.4,15.77 -33.7,36.57 -4.3,20.78 -10.75,17.93 -5.01,45.88 5.72,27.95 -4.31,27.95 20.06,44.45 24.39,16.48 38.71,24.37 35.13,40.15 -3.59,15.77 -15.05,58.06 -25.81,67.39 -10.75,9.31 -14.34,30.83 -43.73,11.47 -29.4,-19.36 -60.94,-47.32 -68.83,-37.28 -7.88,10.03 -27.95,19.35 -26.52,43.01 1.43,23.65 -7.17,53.04 -6.45,71.69 0.71,18.64 7.88,28.68 7.16,48.75 -0.71,20.07 32.27,23.65 -11.46,75.99 -43.74,52.33 -81.01,58.06 -78.15,89.61 2.87,31.54 4.3,40.16 17.93,59.51 13.62,19.35 62.35,91.76 63.8,97.5 1.43,5.74 15.76,13.62 28.68,33.69 12.9,20.07 51.61,76 53.05,109.69 1.43,33.69 22.94,81.73 -5.01,114.7 -27.96,32.98 -46.61,37.28 -68.83,46.6 -22.22,9.31 -96.06,36.56 -108.96,55.91 -12.9,19.36 -45.89,67.4 -49.47,83.17 -3.58,15.77 -12.9,34.41 -2.16,46.59 10.76,12.19 33.7,22.94 21.52,35.84 -12.19,12.9 -49.46,18.65 -62.38,20.07 -12.9,1.43 -96.79,4.31 -114.7,20.07 -17.93,15.77 -53.77,32.99 -76.7,55.21 -22.94,22.22 -42.3,32.98 -59.51,55.92 -17.21,22.94 -40.86,42.3 -21.51,81.73 19.36,39.42 75.99,87.45 88.9,109.68 12.9,22.23 38,45.88 30.83,79.57 -7.17,33.7 -31.53,84.59 -32.26,107.55 -0.72,22.94 -16.49,50.91 16.48,70.98 32.97,20.06 56.63,30.81 88.17,55.19 31.54,24.39 66.68,53.77 54.48,75.99 -12.18,22.23 -57.34,37.29 -67.39,55.93 -10.04,18.64 -22.93,40.15 -27.23,63.09 -4.31,22.94 -7.18,41.58 -27.25,60.22 -20.07,18.64 -44.45,28.67 -56.63,45.16 -12.19,16.49 -35.13,12.19 -32.27,43.74 2.87,31.54 5.04,42.29 20.82,54.49 15.77,12.19 60.94,29.39 76.71,40.15 15.76,10.75 36.56,17.91 41.57,35.84 5.02,17.93 30.11,44.45 9.32,50.18 -20.8,5.74 -61.64,-8.6 -75.99,-5.02 -14.34,3.59 -48.75,-0.72 -54.48,15.77 -5.74,16.49 -18.64,25.11 -10.03,47.33 8.6,22.22 53.04,48.03 56.63,65.94 3.58,17.93 15.77,17.21 0.71,53.05 -15.05,35.86 -28.67,37.29 -16.48,68.11 12.18,30.82 24.37,20.07 29.39,44.45 5.02,24.37 17.21,14.33 10.04,51.62 -7.17,37.28 -15.77,38.71 -2.87,62.38 12.9,23.65 25.09,3.58 42.29,42.29 17.21,38.71 10.04,36.56 22.95,61.65 12.9,25.09 2.15,15.76 20.07,37.99 17.92,22.23 30.82,22.95 32.97,41.59 2.16,18.63 -8.6,28.67 -25.81,42.29 -17.2,13.63 -22.22,10.04 -32.26,38.71 -10.04,28.68 -22.94,48.04 -28.68,75.27 -5.74,27.24 -22.23,68.83 -24.37,101.09 -2.15,32.27 -11.1,63.8 -16.13,80.65 -5.02,16.85 -17.21,44.09 -26.52,57.71 -9.32,13.63 -24.39,37.29 -33.34,42.66 -8.96,5.38 -31.19,27.24 -49.47,22.58 -18.27,-4.66 -50.53,-19.35 -65.94,-9.68 -15.42,9.68 -32.98,27.24 -34.41,43.74 -1.44,16.48 -5.38,49.46 -3.23,69.53 2.16,20.07 12.56,36.92 8.6,57.72 -3.95,20.78 1.44,18.64 -6.09,46.59 -7.52,27.95 3.95,36.57 -0.36,59.86 -4.3,23.3 -17.22,47.67 -24.37,66.67 -7.17,19 -16.48,54.85 -18.64,82.09 -2.16,27.23 -0.36,51.26 -20.43,73.12 -20.07,21.86 -34.42,24.74 -54.13,43.74 -19.72,19.01 -28.68,21.15 -28.32,41.22 0.36,20.07 7.18,38.36 5.74,57.72 -1.43,19.35 -1.8,37.63 -6.1,60.58 -4.29,22.94 -5.37,63.44 -17.56,88.9 -12.18,25.45 -52.69,42.66 -68.1,51.97 -15.42,9.31 -42.3,22.23 -57,37.63 -14.69,15.42 -26.16,28.69 -41.22,41.22 -15.05,12.55 -32.26,15.05 -32.62,30.47 -0.36,15.42 -11.1,24.02 2.51,36.57 13.63,12.54 33.7,-4.66 48.75,5.02 15.06,9.67 30.12,22.94 8.61,38.35 -21.52,15.42 -54.13,24.37 -63.81,36.56 -9.68,12.19 -35.18,30.83 -36.96,46.97 -1.79,16.13 -4.66,26.88 2.51,43.73 7.17,16.85 27.24,40.51 29.4,62.73 2.15,22.23 12.54,26.17 20.07,47.32 7.52,21.15 10.04,46.24 34.77,48.04 24.73,1.79 37.63,1.08 66.68,-10.39 29.03,-11.47 50.89,-6.82 79.21,-13.63 28.32,-6.81 75.28,-21.52 100.72,-31.9 25.45,-10.39 63.8,-25.81 118.29,-77.07 54.48,-51.26 60.59,-55.21 77.43,-63.81 16.84,-8.6 24.01,-26.52 33.33,-2.5 9.31,24.01 15.05,30.47 25.81,39.79 10.76,9.31 29.39,16.13 58.43,5.01 29.03,-11.11 35.49,-24.01 65.95,-16.85 30.47,7.17 63.09,9.31 81.73,31.19 18.64,21.86 26.88,30.82 22.22,46.59 -4.66,15.78 -12.54,35.49 -12.54,51.98 0,16.48 -7.18,19.35 3.58,27.95 10.76,8.6 22.94,10.76 34.41,10.76 11.47,0 32.62,25.09 35.13,34.04 2.5,8.97 13.26,25.45 23.65,32.98 10.4,7.54 35.49,11.11 51.97,3.22 16.49,-7.88 29.04,-20.78 39.79,-20.78 10.76,0 27.6,19.72 31.19,28.68 3.59,8.96 13.62,18.28 16.49,35.49 2.87,17.21 0.7,47.68 10.03,56.64 9.32,8.96 30.12,-12.19 41.23,-25.45 11.1,-13.27 23.3,-32.27 32.97,-12.19 9.68,20.07 44.81,61.65 52.34,68.82 7.52,7.17 31.18,38.36 47.67,33.7 16.49,-4.67 39.79,-17.56 58.07,-5.74 18.27,11.83 39.07,25.45 40.86,40.86 1.8,15.42 -7.52,12.18 5.38,33.33 12.9,21.16 27.6,5.74 26.16,29.4 -1.42,23.65 -8.96,44.09 14.34,49.46 23.31,5.38 116.5,7.52 130.49,6.1 13.97,-1.43 94.98,-12.55 109.32,-15.06 14.34,-2.51 80.64,-26.52 82.08,-7.52 1.43,19 -3.59,98.22 7.17,102.88 10.76,4.66 73.12,-22.57 88.17,-41.22 15.06,-18.64 22.23,-33.69 37.29,-58.43 15.05,-24.73 9.67,-42.29 50.89,-51.62 41.22,-9.31 60.93,-26.88 64.17,-49.46 3.22,-22.58 11.11,-68.83 11.11,-87.46 0,-18.64 -2.51,-40.87 1.79,-55.92 4.3,-15.06 15.77,-31.19 46.24,-41.58 30.47,-10.4 60.58,-24.37 74.91,-38.36 14.34,-13.98 46.25,11.47 57,-5.02 10.76,-16.48 19.36,-34.04 35.13,-41.57 15.77,-7.54 96.79,-9.32 110.05,-16.85 13.26,-7.54 39.07,-26.9 60.93,-28.68 21.86,-1.79 49.83,5.01 74.91,21.14 25.1,16.14 63.83,52.01 73.16,61.7 9.32,9.67 62.38,67.73 77.07,77.43 14.69,9.68 43.74,32.61 65.95,41.57 22.22,8.97 47.32,22.6 57,44.1 9.67,21.51 46.23,108.97 47.67,119.72 1.43,10.75 15.77,92.12 19,104.67 3.22,12.55 19.36,58.79 29.04,70.26 9.67,11.47 26.89,10.39 34.06,28.32 7.16,17.92 3.59,34.76 20.43,47.32 16.84,12.55 60.21,26.89 77.06,41.94 16.85,15.06 31.54,14.69 32.62,49.1 1.08,34.41 2.51,72.78 4.3,93.92 1.79,21.15 6.81,77.07 6.46,92.12 -0.37,15.05 11.83,67.4 20.78,83.16 8.96,15.77 29.75,26.88 29.75,45.88 0,19.01 -3.24,129.75 -24.75,174.92 -21.51,45.17 -101.81,127.62 -115.43,138.37 -13.62,10.75 -64.51,32.98 -69.53,44.45 -5.02,11.47 -10.76,17.93 -15.77,34.41 -5.02,16.48 -15.06,26.53 -24.37,34.41 -9.31,7.88 -38,15.77 -40.15,33.69 -2.15,17.93 -7.17,51.63 -15.06,69.54 -7.88,17.92 -27.95,15.77 -40.86,40.87 -12.9,25.09 -25.1,54.47 -28.68,71.68 -3.59,17.21 -7.17,22.22 -10.04,43.74 -2.87,21.51 -0.01,55.92 7.17,72.4 7.17,16.49 27.24,50.91 13.62,106.1 -13.62,55.21 -15.06,78.15 -25.81,103.24 -10.75,25.09 -25.09,27.23 -23.65,56.63 1.43,29.39 6.45,61.65 5.74,91.76 -0.71,30.11 -15.06,70.26 10.76,93.92 25.81,23.65 70.25,45.87 86.02,57.34 15.78,11.47 43.01,28.69 41.58,53.06 -1.43,24.37 -8.6,124.02 -15.77,155.56 -7.16,31.54 -20.78,60.94 -35.12,73.12 -14.34,12.19 -26.53,50.91 -28.68,90.33 -2.16,39.42 -9.32,161.3 -21.51,185.67 -12.18,24.39 -68.82,161.31 -78.15,195.01 -9.31,33.69 -12.91,81.01 -12.91,104.67 0,23.66 17.92,41.58 24.37,62.38 6.45,20.78 16.48,39.43 7.16,60.22 -9.31,20.78 -30.11,22.22 -25.09,65.95 5.02,43.73 25.81,39.42 -5.74,69.53 -31.54,30.11 -53.76,61.65 -62.36,96.79 -8.6,35.12 -20.8,81.73 -35.13,110.4 -14.34,28.68 -65.24,160.59 -80.29,175.63 -15.05,15.06 -93.2,80.29 -126.17,102.52 -32.98,22.23 -86.03,57.35 -104.67,72.4 -18.64,15.06 -89.62,73.12 -105.39,87.46 -15.76,14.35 -90.32,103.96 -135.49,135.5 -45.17,31.54 -101.08,69.53 -134.78,85.31 -33.7,15.78 -86.03,26.53 -102.51,52.34 -16.49,25.81 -25.82,35.84 -50.91,40.86 -25.09,5.02 -38.71,4.3 -50.89,25.81 -12.19,21.52 -64.52,73.13 -73.85,89.62 -9.31,16.48 -15.78,41.59 -30.11,63.81 -14.34,22.22 -35.12,25.09 -43.73,44.45 -8.6,19.35 -20.07,30.82 -19.36,61.65 0.72,30.82 -10.05,65.23 -13.63,83.87 -3.58,18.63 -13.63,41.58 -25.81,45.88 -12.19,4.3 14.34,9.31 -28.68,13.62 -43.01,4.3 -75.27,-17.21 -87.46,-5.01 -12.18,12.18 -35.12,40.86 -44.45,65.94 -9.32,25.1 -50.18,63.1 -61.65,78.15 -11.47,15.06 -39.42,44.44 -33.69,80.29 5.74,35.84 20.06,71.7 27.23,96.79 7.18,25.09 20.8,29.4 33.7,43.73 12.9,14.34 26.53,29.39 17.21,54.48 -9.31,25.1 -32.98,83.88 -48.04,104.67 -15.05,20.8 -64.52,79.58 -82.44,87.46 -17.92,7.89 -52.34,-1.42 -64.52,-6.45 -12.18,-5.02 -101.79,8.6 -115.42,29.39 -13.63,20.8 -43.73,88.91 -51.62,113.99 -7.88,25.09 -41.58,106.82 -35.84,136.92 5.74,30.11 0,64.53 7.17,87.47 7.17,22.93 34.41,74.56 53.05,91.04 18.64,16.48 73.85,55.2 78.86,77.43 5.01,22.22 5.01,78.86 -10.76,97.5 -15.76,18.64 -93.2,96.06 -119.72,113.99 -26.53,17.92 -106.81,60.21 -133.34,77.41 -26.52,17.21 -103.23,57.35 -111.11,75.99 -7.89,18.65 -22.22,11.47 -15.77,38 6.45,26.52 16.49,23.65 6.45,44.45 -10.04,20.78 -60.93,36.56 -66.67,60.22 -5.74,23.65 -22.94,93.19 -30.11,106.1 -7.17,12.9 -86.03,93.2 -91.76,98.93 -5.74,5.74 -46.65,50.16 -48.09,82.42 -1.43,32.27 4.3,42.3 -33.7,69.54 -37.99,27.24 -68.82,44.45 -85.31,59.5 -16.48,15.06 -6.45,20.8 -33.69,22.94 -27.24,2.16 -37.28,10.05 -51.62,40.87 -14.34,30.82 -54.48,59.5 -71.69,83.16 -17.21,23.65 -75.28,93.92 -99.64,111.84 -24.37,17.93 -22.94,32.26 -50.91,31.54 -27.95,-0.72 -65.23,-10.75 -84.59,9.32 -19.35,20.06 -43.74,20.78 -78.14,24.36 -34.41,3.59 -60.23,16.49 -93.92,26.53 -33.69,10.04 -39.42,6.46 -65.23,10.76 -25.81,4.29 -28.68,32.26 -63.81,17.92 -35.12,-14.34 -58.06,-27.24 -90.32,-34.41 -32.27,-7.17 -55.92,-25.1 -75.28,-14.34 -19.36,10.75 -45.87,28.68 -73.84,40.15 -27.96,11.47 -86.75,38.71 -111.12,-2.16 -24.36,-40.86 -42.3,-56.64 -60.22,-60.22 -17.92,-3.58 -203.6,-2.87 -229.41,-9.31 -25.8,-6.46 -113.98,-4.3 -127.6,-22.22 -13.63,-17.93 -36.57,-28.68 -25.1,-58.79 11.47,-30.12 19.35,-42.31 37.99,-58.8 18.65,-16.48 47.32,-40.86 43.74,-60.93 -3.58,-20.07 -16.48,-22.95 -1.43,-53.77 15.06,-30.82 17.93,-61.65 17.93,-78.86 0,-17.21 12.18,-26.52 1.42,-50.18 -10.75,-23.65 -30.82,-50.89 -18.63,-73.84 12.18,-22.94 19.35,-44.46 19.35,-74.56 0,-30.11 -11.47,-45.17 -0.72,-80.29 10.76,-35.13 15.06,-31.55 50.18,-48.04 35.13,-16.48 88.91,-31.54 113.27,-63.81 24.37,-32.26 77.43,-48.03 12.9,-91.04 -64.52,-43.01 -88.17,-55.2 -81.72,-83.16 6.45,-27.96 29.39,-53.05 38.71,-81 9.31,-27.96 -5.82,-24.76 -22.31,-31.75 -16.48,-6.99 -85.14,-23.3 -96.42,-23.3 -11.29,0 -90.87,-2.33 -113.1,-2.69 -22.23,-0.36 -331.73,-4.49 -331.73,-4.49 0,0 -37.63,-8.97 -46.96,-6.46 -9.31,2.51 -10.39,13.62 -26.88,15.05 -16.49,1.44 -49.84,11.84 -60.23,1.08 -10.38,-10.75 -13.25,-15.05 -44.8,-15.05 -31.54,0 -85.66,2.5 -91.04,10.39 -5.38,7.89 -16.49,17.56 -11.11,32.98 5.38,15.42 17.21,32.61 15.06,44.09 -2.16,11.47 8.96,33.33 -32.27,43.73 -41.22,10.4 -110.77,5.02 -126.9,28.32 -16.13,23.3 -17.21,41.22 -14.34,71.69 2.87,30.47 13.27,74.92 13.98,93.2 0.71,18.28 12.18,45.16 -2.87,60.58 -15.05,15.42 -59.85,4.67 -91.04,-3.94 -31.19,-8.6 -83.88,-11.84 -94.63,-33.34 -10.76,-21.51 -21.57,-31.53 -20.49,-60.58 1.07,-29.03 18.64,-59.15 14.69,-74.56 -3.94,-15.42 -11.84,-32.62 -28.32,-38 -16.48,-5.37 -49.46,-7.17 -72.4,-17.21 -22.95,-10.03 -69.53,-19.35 -89.25,-18.63 -19.72,0.71 -40.16,8.25 -57.36,25.09 -17.21,16.85 -53.41,60.22 -60.93,77.07 -7.52,16.85 -22.58,26.17 -21.86,60.58 0.71,34.41 -1.8,58.06 -9.32,74.56 -7.52,16.49 -16.13,74.92 -27.24,86.03 -11.11,11.11 -39.08,4.66 -65.95,-27.6 -26.89,-32.27 -43.06,-35.5 -58.83,-46.61 -15.77,-11.11 -33.7,-29.75 -54.13,-29.4 -20.43,0.37 -51.62,-26.16 -75.99,-40.15 -24.37,-13.98 -53.06,-25.81 -72.05,-42.66 -19,-16.85 -37.99,-39.07 -57,-53.76 -19,-14.69 -31.91,-6.82 -39.08,-32.98 -7.16,-26.16 -14.33,-39.78 -30.82,-46.59 -16.48,-6.81 -37.63,-34.78 -51.97,-27.61 -14.34,7.17 -22.23,10.4 -22.94,27.96 -0.72,17.56 2.86,32.98 -10.76,46.96 -13.62,13.97 -27.96,28.67 -55.92,33.33 -27.95,4.66 -40.86,19.71 -62.72,2.15 -21.87,-17.56 -46.6,-26.16 -61.3,-19.72 -14.69,6.46 -39.08,11.84 -57.35,-4.29 -18.28,-16.14 -63.45,-19.01 -73.12,-5.02 -9.68,13.98 -26.53,30.48 -30.83,48.39 -4.3,17.92 -3.95,30.47 -6.09,50.89 -2.15,20.43 -25.81,60.94 -28.32,72.06 -2.5,11.1 2.87,19.34 -8.24,37.62 -11.11,18.29 -47.68,13.63 -59.87,13.63 -12.18,0 -56.26,-16.85 -74.55,-8.96 -18.28,7.89 -26.17,8.24 -39.43,21.51 -13.26,13.26 -15.77,27.6 -34.41,27.6 -18.64,0 -45.53,-20.42 -56.63,-3.58 -11.11,16.84 -28.32,39.07 -40.51,54.12 -12.18,15.06 -30.83,33.33 -40.15,49.47 -9.31,16.13 -43.74,40.15 -69.9,49.1 -26.16,8.97 -40.86,11.47 -55.2,-7.88 -14.34,-19.36 -16.49,-39.43 -51.98,-36.57 -35.48,2.87 -78.86,4.3 -108.6,-4.66 -29.75,-8.96 -61.63,-24.04 -74.17,-26.19 -12.55,-2.16 -37.63,-10.75 -44.81,2.51 -7.17,13.26 -10.38,21.14 -17.56,43.73 -7.17,22.58 -27.24,47.32 -28.32,86.03 -1.07,38.71 15.77,42.65 1.43,70.61 -14.34,27.96 -44.8,56.27 -53.76,58.43 -8.96,2.15 -44.1,11.83 -57.36,5.01 -13.25,-6.8 -37.27,-27.23 -59.85,-26.88 -22.58,0.36 -54.48,4.3 -71.69,15.05 -17.21,10.76 -52.68,28.68 -42.66,46.6 10.04,17.92 11.84,29.03 15.77,49.83 3.95,20.78 5.74,64.88 -4.66,83.87 -10.39,19 -29.75,37.65 -38.71,61.65 -8.96,24.02 -11.84,39.42 -33.7,59.5 -21.86,20.08 -63.08,50.19 -75.27,91.77 -12.19,41.58 -21.15,81.37 -47.68,99.64 -26.52,18.28 -79.21,50.54 -90.69,68.82 -11.47,18.28 -55.93,75.64 -69.18,114.7 -13.26,39.07 -31.19,38.01 -22.23,61.3 8.97,23.3 25.1,46.97 21.86,61.3 -3.22,14.33 -6.77,74.2 -15.37,102.88 -8.6,28.68 -17.54,14.32 -17.54,51.61 0,37.28 6.45,31.18 -0.72,52.68 -7.17,21.52 -41.22,42.66 -41.94,72.06 -0.71,29.39 12.18,33.7 1.08,60.58 -11.11,26.89 -32.99,40.51 -26.17,76.35 6.82,35.84 -2.49,6.46 10.41,43.01 12.9,36.56 24.37,22.94 38,41.58 13.62,18.64 14.34,23.65 9.31,38.71 -5.02,15.05 -18.64,37.28 -23.65,66.67 -5.02,29.4 0,79.58 -30.83,91.76 -30.82,12.18 -63.08,5.02 -88.17,35.86 -25.1,30.82 -49.47,65.23 -59.51,76.7 -10.04,11.47 -136.92,131.19 -136.92,131.19l-157.72 106.1c0,0 -69.53,38 -79.57,45.88 -10.05,7.89 -86.04,38.71 -127.62,83.88 -41.57,45.16 -141.22,146.25 -153.41,157 -12.19,10.76 -153.42,84.6 -177.07,98.22 -23.66,13.62 -141.96,86.03 -166.32,103.95 -24.37,17.93 -172.07,111.85 -202.17,135.5 -30.11,23.66 -159.15,93.92 -167.03,140.51 -7.89,46.6 -20.8,131.91 -25.81,157.72 -5.02,25.81 -35.84,189.97 -38,209.33 -2.15,19.35 -31.54,131.91 -48.75,157.72 -17.21,25.81 -68.82,73.12 -84.59,91.05 -15.77,17.92 0.71,20.06 -47.32,43 -48.03,22.94 -72.41,12.9 -106.1,20.8 -33.69,7.88 -105.59,7.93 -105.59,7.93z"/>
 </g>
</svg>
