<?xml version="1.0" encoding="UTF-8"?>
<!DOCTYPE svg PUBLIC "-//W3C//DTD SVG 1.1//EN" "http://www.w3.org/Graphics/SVG/1.1/DTD/svg11.dtd">
<!-- Creator: CorelDRAW 2020 (64-Bit) -->
<svg xmlns="http://www.w3.org/2000/svg" xml:space="preserve" width="39.2358mm" height="48.8579mm" version="1.1" style="shape-rendering:geometricPrecision; text-rendering:geometricPrecision; image-rendering:optimizeQuality; fill-rule:evenodd; clip-rule:evenodd"
viewBox="0 0 827.78 1030.79"
 xmlns:xlink="http://www.w3.org/1999/xlink"
 xmlns:xodm="http://www.corel.com/coreldraw/odm/2003">
 <defs>
  <style type="text/css">
   <![CDATA[
    .str0 {stroke:#FEFEFE;stroke-width:11.16;stroke-miterlimit:22.9256;stroke-opacity:0.600000}
    .fil0 {fill:#00A859;fill-opacity:0.600000}
   ]]>
  </style>
 </defs>
 <g id="Capa_x0020_1">
  <metadata id="CorelCorpID_0Corel-Layer"/>
  <path id="genova" class="fil0 str0" d="M401.93 807.67c-0.39,-0.85 -1.53,-2.64 -2.42,-3.88 -0.89,-1.24 -3.67,-4.66 -4.49,-6.26 -0.82,-1.6 -2.17,-3.56 -3.31,-4.91 -1.14,-1.35 -4.59,-4.13 -5.55,-4.38 -0.96,-0.25 -5.94,-2.31 -7.33,-4.45 -1.39,-2.14 -3.77,-7.62 -4.98,-9.11 -1.21,-1.5 -7.54,-4.63 -8.97,-4.88 -1.42,-0.25 -12.92,-0.89 -15.73,-0.82 -2.81,0.07 -9.75,-0.43 -13.24,-1.24 -3.49,-0.82 -9.72,-2.03 -11.25,-2.95 -1.53,-0.92 -3.6,-2.7 -5.45,-2.67 -1.85,0.04 -6.48,0.75 -8.33,1.64 -1.85,0.89 -9.83,4.38 -10.86,5.8 -1.03,1.42 -3.77,5.91 -5.19,7.87 -1.42,1.96 -8.4,4.91 -10.54,5.23 -2.14,0.32 -9.39,0.82 -11.32,0.36 -1.92,-0.46 -5.98,-3.7 -7.87,-5.37 -1.89,-1.67 -4.45,-3.74 -7.26,-5.59 -2.81,-1.85 -7.05,-3.81 -8.26,-5.59 -1.21,-1.78 -2.49,-3.17 -4.63,-5.87 -2.14,-2.7 -3.06,-3.56 -5.16,-4.66 -2.1,-1.1 -2.83,-2.08 -4.8,-2.6 -1.97,-0.51 -6.62,-0.11 -7.39,-0.43 -0.76,-0.32 -1.08,-0.35 -1.01,-2.56 0.07,-2.21 1.71,-5.22 2.28,-7.35 0.57,-2.14 0.93,-2.49 1.78,-5.55 0.85,-3.06 2.35,-6.76 3.56,-8.76 1.21,-1.99 4.98,-7.62 5.41,-9.33 0.43,-1.71 1,-3.85 1.46,-4.91 0.46,-1.07 1.6,-1.35 2.28,-3.6 0.68,-2.24 2.03,-7.19 1.67,-8.65 -0.36,-1.46 -1.89,-4.8 -2.64,-5.66 -0.75,-0.85 -4.02,-1.96 -5.37,-2.17 -1.35,-0.22 -2.03,-1.39 -3.63,-1.92 -1.6,-0.53 -3.63,-0.07 -5.3,-1.14 -1.67,-1.07 -4.09,-2.49 -6.08,-4.06 -1.99,-1.57 -4.77,-4.52 -7.08,-5.2 -2.31,-0.68 -7.65,-0.07 -9.57,-0.82 -1.92,-0.75 -2.5,-0.18 -4.03,-1.81 -1.53,-1.64 -1.32,-2.7 -3.28,-4.91 -1.96,-2.21 -1.57,-3.63 -3.17,-4.31 -1.6,-0.68 -4.23,0.39 -5.8,-0.85 -1.57,-1.24 -4.06,-5.02 -5.87,-6.05 -1.82,-1.03 -2.14,-0.75 -4.31,-2.06 -2.17,-1.32 -4.05,-2.67 -5.66,-3.95 -1.6,-1.28 -3.31,-2.99 -5.41,-3.1 -2.1,-0.11 -2.57,-0.5 -3.49,0.21 -0.92,0.72 -0.82,1.82 -0.18,3.6 0.64,1.78 0.68,3.31 1.6,4.13 0.92,0.82 2.09,0.77 3.24,1.78 1.15,1.01 2.65,2.62 2.96,3.69 0.31,1.06 0.53,3.86 1.49,5.68 0.96,1.81 3.03,4.02 2.78,5.69 -0.25,1.68 -2.09,8.85 -3.07,9.72 -0.97,0.86 -4.24,4.15 -4.52,5.24 -0.28,1.09 -2.64,8.76 -2.97,9.41 -0.33,0.65 -2.84,5.14 -3.08,6.22 -0.25,1.08 -0.91,3.32 -1.3,5.33 -0.39,2.01 -1.03,4.72 -1.29,6.25 -0.26,1.53 -0.71,4.3 -1.28,5.06 -0.57,0.76 -4.81,4.62 -5.64,5.11 -0.83,0.5 -8.63,5.78 -8.89,6.84 -0.27,1.06 -1.15,10.85 -1.37,11.89 -0.22,1.04 -2.11,6.77 -2.56,7.6 -0.45,0.83 -4.17,4.01 -4.81,5.08 -0.64,1.08 -8.83,14.48 -8.83,14.48l-10.44 15.62c0,0 -5.76,8.58 -5.81,9.63 -0.05,1.04 0.14,8.46 0.08,9.24 -0.06,0.78 -0.49,8.68 -0.4,9.4 0.09,0.73 1.59,10.31 1.78,11.26 0.19,0.95 2.45,10.82 2.55,11.44 0.1,0.62 0.23,4.69 -0.07,5.77 -0.29,1.08 -2.5,7.23 -3.07,8.14 -0.57,0.91 -5.84,8.53 -6.62,9.81 -0.78,1.28 -1.76,1.65 -2.37,5.61 -0.61,3.95 -3.63,11.64 -4.08,12.83 -0.45,1.19 -1.61,4.64 -2.32,5.33 -0.71,0.69 -5.06,3.4 -5.34,4.09 -0.27,0.69 -2.18,6.96 -2.33,7.23 -0.15,0.27 -2.09,3.25 -1.2,6.22 0.89,2.96 2.8,7.09 2.62,8.77 -0.18,1.67 -1.48,4.96 -1.48,5.96 0,1.01 2.44,6.46 2.65,7.03 0.21,0.57 1.74,2.7 1.35,5.27 -0.39,2.56 -2.67,6.19 -2.77,6.86 -0.1,0.68 0.02,6.02 2.07,8.62 2.05,2.6 4.88,4.45 5.69,5.46 0.81,1.01 4.08,3.72 5.11,5 1.03,1.28 2.35,3.06 1.96,5.51 -0.39,2.46 -1.85,5.19 -2.44,6.05 -0.59,0.86 -3.35,5.18 -3.75,7.13 -0.39,1.95 -0.56,6.59 0.02,7.5 0.59,0.91 1.25,1.67 3.39,1.76 2.14,0.09 13.12,0.79 13.12,0.79 0,0 2.11,0.64 3.86,0.78 1.74,0.14 2.81,0.47 4.55,-0.34 1.74,-0.82 3.42,-2.16 4.21,-2.37 0.78,-0.21 2.49,-0.2 3.89,0.59 1.41,0.79 5.73,3.95 7.12,4.3 1.38,0.35 11.21,2.06 13.5,2.17 2.3,0.11 12.2,-0.18 14.69,-0.29 2.49,-0.11 10.54,-0.91 12.7,-1.21 2.16,-0.3 6.62,-0.97 7.84,-0.87 1.22,0.1 3.66,-0.48 4.86,0.56 1.19,1.04 2.31,5.95 3.08,8.31 0.77,2.36 2.22,6.16 2.1,6.79 -0.12,0.62 -5.22,9.07 -5.59,10.07 -0.37,1 -0.47,2.39 0.08,3.81 0.55,1.42 0.55,2.4 4.34,2.39 3.79,-0.01 9.75,-0.8 11.6,-0.88 1.85,-0.08 10.82,0.15 14.04,-0.52 3.22,-0.67 13.03,-1.44 14.23,-2.44 1.2,-0.99 4.09,-3.15 4.23,-5.27 0.14,-2.12 -0.89,-4.64 -0.73,-6.38 0.16,-1.74 0.23,-3.2 1.61,-5.73 1.38,-2.53 4.22,-7.73 4.73,-8.61 0.51,-0.88 1.14,-2.93 1.31,-3.45 0.17,-0.52 1.05,-3.8 2.16,-4.19 1.11,-0.39 11.55,-4.53 12.32,-5.35 0.77,-0.83 1.37,-6.62 1.09,-8.33 -0.28,-1.71 -1.33,-6.43 -1.21,-7.85 0.12,-1.41 0.33,-2.6 1.62,-3.01 1.29,-0.41 2.27,-0.85 5.41,0.16 3.13,1.02 5.98,1.96 8.52,2 2.54,0.04 3.77,0.28 8.01,-0.38 4.23,-0.66 5,-0.14 6.42,-2.14 1.42,-2 1.15,-9.15 1.41,-11.17 0.26,-2.01 0.11,-4.89 2.18,-6.49 2.08,-1.61 4.64,-4.47 9.04,-3.95 4.4,0.52 5.57,1.08 6.47,0.6 0.9,-0.48 6.24,-6.41 7.08,-6.68 0.84,-0.27 3.39,-0.15 4.78,-0.47 1.4,-0.32 11.21,-6.29 11.64,-7.08 0.43,-0.78 2.36,-4.64 1.85,-5.8 -0.51,-1.16 -4.85,-6.14 -5.66,-7.98 -0.81,-1.84 -3.16,-3.2 -2.29,-5.12 0.87,-1.91 5,-7.19 5.01,-8.38 0.02,-1.19 -1.18,-4.67 -1.77,-5.34 -0.6,-0.67 -3.71,-0.93 -5.53,-1.83 -1.82,-0.9 -2.94,-2.3 -2.16,-3.24 0.78,-0.94 4.01,-1.96 5.65,-2.95 1.64,-1 8.39,-8.39 9.16,-9.25 0.77,-0.86 8.41,-10.94 9.31,-12.27 0.91,-1.33 18.08,-26.6 18.08,-26.6 0,0 2.62,-3.58 6.4,-5.3 3.78,-1.72 8.81,-4.24 11.23,-4.95 2.42,-0.71 6.26,-1.75 7.62,-3.62 1.36,-1.87 6.2,-10.34 6.92,-11.59 0.72,-1.25 1.89,-2.38 2.64,-3.34 0.75,-0.96 1.85,-1.97 1.72,-2.38z"/>
  <path id="pijao" class="fil0 str0" d="M423.5 772.93c1.24,-2.26 3.07,-5.92 3.32,-6.44 0.25,-0.52 7.97,-16.73 8.66,-17.84 0.69,-1.11 6.94,-10.85 7.77,-12.08 0.82,-1.23 10.35,-11.66 11.69,-12.88 1.34,-1.22 8.98,-7.64 10.08,-8.51 1.11,-0.88 3.64,-2.91 5.55,-4.38 1.91,-1.47 7.22,-5 8.91,-6.28 1.69,-1.27 4.69,-3.74 5.33,-4.68 0.63,-0.94 2.34,-4.62 2.45,-8.97 0.1,-4.36 -1.12,-9.41 -1.58,-13.81 -0.45,-4.4 -0.99,-7.37 0.41,-10.2 1.39,-2.83 4.86,-8.85 5.68,-11.92 0.82,-3.06 2.51,-26.53 2.52,-27.59 0.01,-1.06 0.91,-31.87 2.68,-38.29 1.77,-6.42 2.23,-9.73 1.7,-11.79 -0.53,-2.06 -5.55,-2.67 -7.69,-3.88 -2.14,-1.21 -4.13,0.71 -11.03,-5.19 -6.9,-5.91 -10.39,-7.9 -14.59,-14.02 -4.2,-6.12 -12.53,-12.95 -16.3,-13.1 -3.77,-0.14 -21.57,-1.71 -25.41,-0.78 -3.84,0.93 -7.54,3.27 -10.96,9.33 -3.42,6.05 -4.63,9.33 -8.4,13.1 -3.77,3.77 -5.27,6.9 -10.46,7.47 -5.2,0.57 -9.25,0.64 -18.94,1.71 -9.68,1.07 -11.81,2.14 -18.08,2.14 -6.26,0 -10.82,1.92 -17.58,3.27 -6.76,1.35 -13.45,2.56 -17.51,3.06 -4.06,0.5 -3.77,1.57 -6.48,0.14 -2.7,-1.42 -5.27,-2.63 -6.19,-6.05 -0.92,-3.42 -1.99,-4.84 -3.7,-7.76 -1.71,-2.92 -4.63,-4.41 -5.48,-6.9 -0.85,-2.49 0.64,-3.2 -2.85,-5.91 -3.49,-2.7 -3.92,-4.41 -5.84,-5.34 -1.92,-0.92 -3.06,0.36 -2.85,2.07 0.21,1.71 0.43,2.49 0.64,5.48 0.21,2.99 0.36,5.27 0.43,7.12 0.07,1.85 -0.21,2.85 -0.36,4.91 -0.14,2.06 -0.64,6.12 0.21,7.9 0.85,1.78 2.92,4.34 4.13,6.55 1.21,2.21 2.42,2.63 2.63,5.41 0.22,2.77 0.71,4.48 -0.92,5.91 -1.64,1.42 -5.56,4.84 -7.37,5.91 -1.82,1.07 -6.55,4.2 -11.21,4.2 -4.66,0 -17.4,0.14 -19.4,1.1 -1.99,0.96 -10.82,6.12 -14.06,7.72 -3.24,1.6 -8.93,0.78 -12.6,0.14 -3.67,-0.64 -10.32,-0.36 -14.06,-3.31 -3.74,-2.95 -4.52,-3.49 -4.87,-5.09 -0.36,-1.6 -0.18,-2.24 -1,-3.2 -0.82,-0.96 -2.35,-0.93 -3.03,-0.39 -0.68,0.53 -2.35,1.32 -3.52,0.85 -1.18,-0.46 -2.24,-1.96 -5.09,-3.84 -2.85,-1.89 -4.38,-3.81 -6.48,-4.84 -2.1,-1.03 -2.42,-2.42 -4.63,-1.35 -2.21,1.07 -14.06,9.36 -15.41,11.89 -1.35,2.53 -1.68,0.88 -3.03,2.77 -1.35,1.89 -1.98,2.92 -1.98,3.83 0,0.91 -0.01,2.6 0.35,3.96 0.36,1.36 0.64,3.57 -0.03,5.36 -0.68,1.8 -4.29,7.82 -4.46,8.72 -0.18,0.91 0.32,9.19 0.31,9.55 -0.01,0.36 -2.39,8.41 -2.33,9.24 0.06,0.82 1.34,5.64 2.18,6.53 0.84,0.89 2.4,0.12 3.78,0.51 1.38,0.38 2.63,1.17 5.33,3.02 2.7,1.85 6.95,4.46 7.76,4.81 0.8,0.35 3.63,1.77 4.27,2.63 0.64,0.85 3.18,3.56 4.03,4.26 0.85,0.7 2.07,1.17 3.39,1.14 1.33,-0.03 2.78,-0.3 3.46,0.5 0.68,0.8 2.97,3.32 3.6,4.78 0.63,1.47 1.29,3.72 2.74,4.55 1.45,0.84 4.17,1.92 6.62,2 2.46,0.07 6.1,-0.43 7.93,0.84 1.82,1.27 7.02,5.57 7.72,6.04 0.7,0.47 4.93,3.2 6.2,3.32 1.27,0.12 2.93,0.13 3.86,0.72 0.93,0.58 0.74,1.04 2.95,1.64 2.21,0.59 3.74,0.75 4.31,1.45 0.58,0.7 2.22,1.37 2.98,4.36 0.76,2.99 0.96,2.71 0.54,4.7 -0.42,1.99 -1.79,6.88 -2.05,7.28 -0.25,0.4 -1.84,1.22 -2.15,2.83 -0.31,1.61 -1.16,4.85 -1.58,5.67 -0.43,0.81 -5.5,9.16 -5.5,9.16 0,0 -3,7.42 -3.42,9.27 -0.42,1.85 -2.69,7.5 -3.04,8.74 -0.35,1.23 -0.72,2.78 -0.52,3.65 0.19,0.87 0.78,1.54 2.1,1.56 1.32,0.01 2.52,-0.04 3.81,0.04 1.29,0.07 3.36,0.39 4.95,1.42 1.59,1.03 3.43,1.86 4.42,2.77 0.99,0.91 6.35,9.01 7.32,9.45 0.97,0.44 6.16,3.81 8.61,4.95 2.46,1.14 10.64,9.59 13.04,10.36 2.41,0.78 9.42,2.45 14.86,0.49 5.45,-1.96 7.16,-3.23 8.13,-4.16 0.97,-0.93 5.39,-8.28 6.36,-9.01 0.97,-0.73 8.42,-5.45 12.59,-6.24 4.17,-0.79 5.59,-1.04 7.02,-0.74 1.43,0.3 5.09,2.76 7.35,3.34 2.26,0.58 13.3,2.79 14.79,2.92 1.49,0.13 12.82,0.5 14.73,0.61 1.91,0.1 8.61,0.28 10.29,0.96 1.67,0.68 6.5,3.74 7.31,5.15 0.81,1.41 3.85,8.22 5.27,9.31 1.42,1.09 5.76,2.95 7.03,3.78 1.27,0.83 4.45,3.24 5.57,4.76 1.12,1.51 3.36,5.61 3.78,6.13 0.43,0.51 4,5.45 4.61,6.04 0.61,0.59 1.75,1.86 3.01,1.39 1.26,-0.47 4.86,-3.36 5.34,-4.02 0.48,-0.66 5.27,-5.73 5.84,-6.41 0.57,-0.68 2.62,-3.77 3.25,-6.83 0.63,-3.06 2.19,-10.34 2.91,-11.64 0.72,-1.29 2.58,-4.92 2.58,-4.92z"/>
  <path id="buenavista" class="fil0 str0" d="M282.16 535.02c-0.92,-3.03 -2.1,-8.01 -2.56,-11.07 -0.46,-3.06 -0.53,-7.79 -1.67,-10.85 -1.14,-3.06 -1.07,-3.34 -3.13,-5.2 -2.07,-1.85 -4.13,-3.27 -6.19,-3.63 -2.07,-0.35 -2.06,-1.42 -5.12,-0.92 -3.06,0.5 -1.99,2.7 -6.05,2.42 -4.06,-0.28 -11.11,-0.78 -14.73,1.07 -3.63,1.85 -12.46,5.77 -14.81,9.04 -2.35,3.27 -2.77,5.27 -2.99,7.76 -0.22,2.49 0.14,7.33 0.35,10.25 0.21,2.92 0.28,8.76 -0.57,10.18 -0.85,1.42 -5.91,3.42 -9.04,4.84 -3.13,1.42 -14.95,11.75 -16.16,14.09 -1.21,2.35 -6.34,11.25 -6.76,13.67 -0.43,2.42 -1.64,8.19 -1.71,9.54 -0.07,1.35 -1.88,4.57 1.39,6.94 3.27,2.37 9.58,7.27 10.18,7.75 0.6,0.48 2.42,1.22 3.23,0.91 0.81,-0.31 1.19,-0.87 2.56,-0.93 1.38,-0.07 1.82,0.05 2.14,0.5 0.32,0.44 1.18,4.13 1.65,4.67 0.48,0.54 3.97,4.3 6.93,5.11 2.95,0.81 17.68,2.81 19.69,2.6 2.01,-0.21 6.37,-1.99 9.46,-3.73 3.09,-1.74 7.78,-4.79 9.32,-5.07 1.54,-0.28 16.95,-0.93 17.7,-0.94 0.75,-0 4.91,-0.35 6.9,-1.27 2,-0.92 10.71,-6.46 11.5,-7.39 0.8,-0.92 3.15,-1.57 2.51,-5.5 -0.65,-3.93 -0.33,-3.33 -1.94,-5.92 -1.6,-2.59 -4.91,-7.51 -5.2,-9.33 -0.29,-1.81 0.35,-3.76 0.22,-5.66 -0.14,-1.9 0,-8.97 -0.23,-11.89 -0.24,-2.92 -0.57,-5.45 -0.57,-5.45 0,0 -0.97,-4.22 -2.46,-7.5 -1.49,-3.27 -3.84,-9.07 -3.84,-9.07z"/>
  <path id="cordoba" class="fil0 str0" d="M506.77 526.62c0.5,-1.99 4.47,-17.97 4.87,-19.51 0.41,-1.53 2.97,-10.34 4.7,-14.39 1.72,-4.05 3.47,-9.68 4.02,-12.53 0.55,-2.85 3.21,-17.31 3.55,-19.91 0.35,-2.6 1.86,-8.95 0.74,-8.52 -1.12,0.43 -2.98,1.29 -6.11,4.49 -3.13,3.2 -12.38,12.67 -16.73,15.8 -4.34,3.13 -5.06,5.91 -9.33,5.55 -4.27,-0.35 -3.91,1.07 -9.68,-4.06 -5.77,-5.12 -8.54,-9.68 -11.39,-11.89 -2.85,-2.21 -2.2,-3.06 -5.62,-2.49 -3.42,0.57 -6.76,2.99 -11.1,4.63 -4.34,1.64 -11.46,3.2 -15.02,3.2 -3.56,0 -6.83,0.64 -9.04,2.42 -2.21,1.78 -4.77,4.56 -8.11,5.41 -3.35,0.85 -10.25,1.35 -14.59,2.49 -4.34,1.14 -6.19,1.92 -10.68,1.85 -4.48,-0.07 -2.49,1.49 -10.04,-1.28 -7.54,-2.77 -5.12,-4.27 -11.1,-3.42 -5.98,0.85 -9.54,0.85 -13.88,2.78 -4.34,1.92 -9.39,2.14 -16.8,2.14 -7.4,0 -19.5,-1.14 -23.99,-0.93 -4.49,0.21 -5.27,-0.14 -7.76,0.78 -2.49,0.93 -4.13,1 -7.62,0.36 -3.49,-0.64 -4.2,-2.7 -6.48,-2.42 -2.28,0.28 -2.35,1.14 -3.06,3.06 -0.71,1.92 -2.85,4.49 -3.91,6.34 -1.07,1.85 -1.71,3.84 -3.56,4.91 -1.85,1.07 -4.48,2.35 -7.54,3.42 -3.06,1.07 -5.41,0.71 -6.34,2.64 -0.92,1.92 -3.56,2.77 -5.77,3.63 -2.21,0.85 -3.49,1.71 -1.78,2.28 1.71,0.57 5.95,2.3 6.83,3.63 0.88,1.33 3.25,5.03 3.65,6.59 0.4,1.56 1.14,8.34 1.48,10.28 0.34,1.94 1.35,6.83 1.96,8.95 0.6,2.12 3.7,9.38 4.44,11.19 0.74,1.81 3.4,3.88 4.29,4.17 0.89,0.28 3.83,3.07 4.73,3.9 0.9,0.83 3.52,2.3 3.99,3.74 0.47,1.44 -0.27,2 0.85,3.89 1.12,1.9 3.82,4.6 4.47,5.47 0.65,0.87 4.4,8.91 5.01,10.09 0.61,1.18 3.06,4.08 5.56,4.97 2.5,0.89 4.91,0.85 9.26,0.13 4.34,-0.71 11.87,-2.51 14.07,-2.96 2.2,-0.45 12,-2.91 14.05,-3.14 2.04,-0.23 12.01,-0.98 14.76,-1.4 2.75,-0.42 15.79,-1.85 17.31,-1.97 1.52,-0.12 8.15,0 11.38,-1.17 3.23,-1.17 7.35,-5.88 8.3,-6.85 0.95,-0.98 7.75,-11.77 8.36,-12.84 0.61,-1.07 3.74,-5.52 4.77,-6.38 1.03,-0.87 3.02,-3.1 7.93,-3.65 4.91,-0.55 10.1,0.09 14.24,0.36 4.14,0.27 8.1,-0.12 11.24,0.94 3.13,1.06 10.32,7 12.55,9.89 2.23,2.89 6.22,7.91 7.62,9.16 1.4,1.25 7.74,7.31 11.33,9.44 3.59,2.13 7.32,3.12 10.18,4.07 2.87,0.95 2.1,1.81 4.58,1.62 2.48,-0.19 2.85,0.76 2.78,-4.43 -0.07,-5.19 -0.69,-13.61 -0.07,-16.1 0.62,-2.49 7.24,-28.42 7.24,-28.42z"/>
  <path id="calarca" class="fil0 str0" d="M531.1 423.29c1.11,-3.15 2.08,-6.2 3.4,-8.59 1.32,-2.39 2.6,-4.08 4.04,-5.81 1.45,-1.73 1.21,-4.73 0.64,-6.72 -0.57,-1.99 -3.84,-7.97 -5.12,-10.39 -1.28,-2.42 -3.42,-4.84 -5.55,-8.54 -2.14,-3.7 -3.13,-4.41 -2.85,-7.54 0.28,-3.13 0.28,-2.56 1.28,-6.69 1,-4.13 3.13,-7.12 1.85,-9.11 -1.28,-1.99 -2.99,-1.85 -4.55,-4.84 -1.57,-2.99 1.42,-5.27 -0.14,-7.69 -1.57,-2.42 -5.27,-6.12 -8.54,-9.11 -3.27,-2.99 -4.84,-4.41 -6.97,-8.54 -2.14,-4.13 -2.14,-4.55 -6.26,-6.55 -4.13,-1.99 -7.69,-1 -10.11,-5.41 -2.42,-4.41 -1.85,-7.54 -3.56,-10.25 -1.71,-2.7 -4.84,-5.12 -7.83,-6.83 -2.99,-1.71 -6.26,-10.96 -7.97,-13.66 -1.71,-2.7 -1.14,-3.77 -3.63,-2.85 -2.49,0.92 -8.68,2.92 -11.6,1.64 -2.92,-1.28 -4.06,-0.14 -4.06,-2.99 0,-2.85 1.07,-10.11 1.35,-12.67 0.28,-2.56 1.57,-3.84 1.99,-7.69 0.43,-3.84 -0.71,-10.25 -1.99,-12.6 -1.28,-2.35 -6.83,-6.62 -9.82,-7.33 -2.99,-0.71 -10.89,-2.35 -14.59,-2.78 -3.7,-0.43 -7.76,-1.21 -10.46,1.5 -2.7,2.7 -8.19,6.48 -10.11,9.25 -1.92,2.77 -4.91,6.19 -4.91,7.83 0,1.64 0.36,5.77 -0.5,7.54 -0.85,1.78 -4.13,5.27 -5.77,6.19 -1.64,0.93 -3.84,3.56 -5.84,6.48 -1.99,2.92 -7.33,7.69 -10.04,10.39 -2.71,2.7 -4.55,6.55 -6.12,8.61 -1.57,2.07 -5.62,9.25 -6.76,10.11 -1.14,0.85 -6.69,2.14 -8.54,4.27 -1.85,2.14 -0.07,2.78 -2.92,3.27 -2.85,0.5 -5.19,-2.63 -7.4,-2.21 -2.21,0.43 -5.98,0.85 -7.19,2.14 -1.21,1.28 0.29,1.71 -0.43,3.7 -0.71,1.99 -1.46,2.1 -2.1,2.95 -0.64,0.85 -3.2,7.58 -3.2,9.22 0,1.64 -4.77,20.14 -4.77,20.14 0,0 -0.93,2.81 -1.5,3.67 -0.57,0.85 -0.39,2.6 -1.32,3.74 -0.93,1.14 -2.38,1.39 -3.49,1.99 -1.1,0.61 -6.94,2.71 -8.19,5.66 -1.24,2.95 -4.23,7.19 -5.02,8.83 -0.78,1.64 -0.78,2.63 -1.28,2.92 -0.5,0.28 -1.46,0.82 -2.21,1.03 -0.75,0.21 -1,1.46 -1.1,2.46 -0.11,1 -0.35,4.13 -0.78,4.95 -0.43,0.82 -1.6,1.28 -1.71,2.35 -0.11,1.07 -0.68,2.88 -0.68,3.84 0,0.96 0.11,2.14 -0.61,3.17 -0.71,1.03 -2.06,0.82 -2.38,2.31 -0.32,1.5 0,4.81 -0.46,6.12 -0.46,1.32 -0.11,0.57 -1.89,1.28 -1.78,0.71 -4.55,-1.14 -4.77,2.06 -0.21,3.2 0.28,6.19 -0.71,7.76 -1,1.57 -2.49,2.92 -3.56,4.34 -1.07,1.42 -2.2,3.56 -1.64,4.84 0.57,1.28 -0.71,3.49 -2.35,4.77 -1.64,1.28 -1.42,2.78 -2.21,3.99 -0.78,1.21 -2.21,3.42 -3.06,3.42 -0.85,0 -0.71,-1.14 -2.35,0.43 -1.64,1.57 -3.34,1.42 -3.91,3.06 -0.57,1.64 -1.78,2.56 -3.13,2.7 -1.35,0.14 -3.63,1.78 -4.2,3.06 -0.57,1.28 -0.07,2.28 -2.56,2.92 -2.49,0.64 -2.99,-0.21 -4.63,2.85 -1.64,3.06 -1.64,5.27 -2.56,5.98 -0.93,0.71 -2.78,-0.14 -4.34,0.71 -1.57,0.85 -4.41,2.7 -5.55,2.2 -1.14,-0.5 -4.41,-1.49 -5.34,0 -0.92,1.5 -0.57,2.56 -0.64,5.41 -0.07,2.85 0.29,3.56 -1,4.41 -1.28,0.85 -3.77,3.13 -4.2,6.05 -0.43,2.92 -1.21,4.7 -2.21,7.05 -1,2.35 -1.64,6.05 -3.99,7.26 -2.35,1.21 -5.62,2.14 -7.76,2.99 -2.14,0.85 -5.62,4.13 -5.84,5.8 -0.21,1.67 -1.96,10.46 -2.6,11.96 -0.64,1.5 -0.5,4.34 -1.71,6.05 -1.21,1.71 -3.13,2.63 -5.12,2.85 -1.99,0.22 -10.04,-0.5 -12.6,-0.78 -2.56,-0.28 -4.41,-1.49 -5.55,-0.5 -1.14,1 -1.92,2.49 -4.27,3.42 -2.35,0.92 -4.48,0.92 -4.91,-0.14 -0.43,-1.07 0.64,-2.14 -0.85,-2.14 -1.5,0 -3.56,1.71 -4.63,1.21 -1.07,-0.5 -0.07,-2.28 -1.99,-2.21 -1.92,0.07 -4.13,0.35 -6.48,1.49 -2.35,1.14 -3.99,0.43 -5.13,0.14 -1.14,-0.28 -5.55,-1.21 -7.33,-1.64 -1.78,-0.43 -3.2,-1.85 -5.34,-1.21 -2.14,0.64 -3.56,1.51 -2.63,2.34 0.93,0.82 3.59,4.28 3.74,5.24 0.14,0.96 -0.2,2.5 -0.85,3.36 -0.65,0.87 -1.61,4.46 -1.55,6.15 0.07,1.69 0.18,11.59 0.15,12.27 -0.04,0.68 -1.83,3.04 -0.65,4.37 1.19,1.33 2.86,0.8 2.78,4.84 -0.08,4.04 -0.3,5 1.81,7.43 2.11,2.42 3.22,2.95 5.57,3.3 2.34,0.35 3.46,2.07 4.12,3 0.66,0.92 4.34,4.82 4.2,7.14 -0.14,2.32 -0.26,4.76 0.57,5.91 0.83,1.15 3.52,2.62 3.77,4.34 0.25,1.72 -2.5,6.5 -3.35,8.43 -0.85,1.93 -0.96,10.25 -0.9,11.32 0.06,1.07 0.19,2.26 0.97,1.32 0.79,-0.94 1.04,-2.42 1.89,-2.85 0.85,-0.43 1.41,-0.02 2.15,-1.13 0.74,-1.11 2.55,-3.19 3.76,-4.19 1.21,-1 8.9,-6.43 9.99,-7.36 1.08,-0.92 4.01,0.05 4.61,-2.49 0.6,-2.53 1.35,-6.86 1.82,-9.33 0.48,-2.47 0.52,-4.33 1.43,-6.34 0.9,-2 5.18,-11.16 6.53,-12.84 1.35,-1.67 7.72,-7.26 9.41,-8.64 1.7,-1.38 4.99,-4.05 6.66,-4.8 1.68,-0.74 5.94,-2.53 7.16,-3.38 1.22,-0.85 2.04,-0.39 2.21,-3.65 0.16,-3.26 -0.47,-17.85 -0.21,-19.27 0.27,-1.42 0.9,-4.53 2.72,-6.42 1.82,-1.9 6.89,-5.27 10.39,-6.99 3.5,-1.73 6.49,-3.05 9.3,-3.44 2.81,-0.38 9.65,0.69 10.96,0.14 1.31,-0.55 1.38,-0.4 3.07,-1.55 1.7,-1.14 3.48,-1.11 4.06,-0.98 0.58,0.13 2.08,-1.34 2.98,-1.71 0.9,-0.38 3.23,-1.13 4.29,-1.8 1.06,-0.67 1.79,-1.4 2.38,-2.2 0.59,-0.8 1.09,-1.81 3.05,-2.13 1.96,-0.32 8.37,-2.38 8.76,-2.81 0.39,-0.43 2.21,-0.68 5.32,-5.45 3.1,-4.77 3.68,-7.62 5.18,-9.06 1.5,-1.44 2.67,-1.37 4.07,-0.53 1.4,0.84 2.93,2.25 5.23,2.16 2.3,-0.09 1.51,1.03 5.52,-0.04 4,-1.07 7.03,-1.33 10.38,-1.26 3.35,0.08 17.58,0.91 20.79,0.93 3.2,0.02 11.78,-0.13 14.18,-0.72 2.4,-0.59 5.18,-1.86 7.24,-2.38 2.06,-0.52 8.27,-1.4 10.39,-1.68 2.12,-0.28 3.07,-1.62 9.3,2.21 6.23,3.84 5.91,2.55 7.56,2.63 1.64,0.08 8.45,-0.23 10.53,-0.74 2.08,-0.51 15.71,-3.01 17.78,-3.44 2.08,-0.42 6.47,-2.92 8.97,-4.8 2.49,-1.88 4.21,-3.19 8.07,-3.37 3.87,-0.18 13.48,-1.78 16.61,-3.07 3.13,-1.29 8.29,-4.29 10.79,-4.65 2.51,-0.36 4.87,0.77 6.53,2.3 1.67,1.53 7.12,7.69 7.12,7.69 0,0 6.32,6.93 8.58,7.55 2.26,0.63 5.46,1.24 7.15,0.64 1.69,-0.59 6.33,-4.46 8.16,-5.96 1.83,-1.5 15.75,-14.98 15.75,-14.98 0,0 3.9,-2.57 5.22,-4.29 1.31,-1.72 2.01,-13.91 2.86,-16.04 0.85,-2.14 4.84,-13.01 4.84,-13.01z"/>
  <path id="la_x0020_tebaida" class="fil0 str0" d="M208.89 475.59c2.85,-2.42 7.54,-3.13 7.97,-5.27 0.43,-2.14 0.71,-6.41 1.42,-12.1 0.71,-5.69 1.28,-7.12 2.56,-9.96 1.28,-2.85 2.85,-9.11 2.85,-11.96 0,-2.85 -2.28,-6.55 -3.7,-5.55 -1.42,1 -1.99,4.13 -5.41,4.84 -3.42,0.71 -7.83,1.57 -9.97,-0.43 -2.14,-1.99 -5.41,-2.85 -7.69,-2.85 -2.28,0 -1.28,-1.14 3.42,-3.13 4.7,-1.99 8.54,-1 9.97,-5.27 1.42,-4.27 2.99,-18.51 3.7,-22.64 0.71,-4.13 1.85,-4.77 0.36,-5.48 -1.5,-0.71 -6.19,1.64 -7.97,1.28 -1.78,-0.36 -1.35,-2.85 2.28,-5.2 3.63,-2.35 7.76,-5.62 12.31,-6.41 4.55,-0.78 11.1,-1.78 14.09,-4.77 2.99,-2.99 9.11,-5.27 8.97,-8.26 -0.14,-2.99 -7.54,-1.57 -12.81,-0.85 -5.27,0.71 -21.78,2.14 -25.2,4.41 -3.42,2.28 -5.12,4.13 -7.97,5.55 -2.85,1.42 -5.84,-2.14 -12.67,-1.85 -6.83,0.28 -22.07,4.56 -23.63,6.26 -1.57,1.71 -7.4,4.98 -7.54,7.26 -0.14,2.28 -4.84,5.27 -5.13,7.69 -0.28,2.42 0.57,4.84 -2.14,7.12 -2.7,2.28 -6.69,5.41 -9.39,9.11 -2.7,3.7 -3.56,4.84 -6.41,6.26 -2.85,1.42 -4.55,4.13 -6.69,4.55 -2.14,0.43 -14.38,-0.28 -19.93,0.28 -5.55,0.57 -10.25,0.28 -13.66,-1.85 -3.42,-2.14 -12.1,-5.27 -15.37,-7.69 -3.28,-2.42 -9.26,-4.27 -13.24,-4.98 -3.99,-0.71 -7.12,0.28 -7.83,3.7 -0.71,3.42 0.44,8.18 -1.99,8.83 -2.43,0.64 -2.28,1.91 -9.84,4.75 -7.56,2.84 -9.29,3.22 -11.37,3.88 -2.07,0.66 -5.3,3.97 -5.47,4.85 -0.17,0.88 -0.05,4.86 -1.26,5.81 -1.21,0.95 -6.2,4.03 -6.78,6.99 -0.57,2.96 -0.77,9.57 -0.7,10.8 0.07,1.23 -0.69,3.42 -1.02,4.03 -0.33,0.61 -1.51,1.85 -3.1,2.32 -1.59,0.47 -2.52,0.74 -2.82,0.01 -0.3,-0.73 -0.41,-2.2 -1.3,-2.48 -0.89,-0.28 -2,0.41 -2.59,1.45 -0.59,1.04 -0.93,2.76 -0.2,3.88 0.73,1.13 1.35,2.41 2.67,3.61 1.32,1.2 2.03,1.99 0.76,3.09 -1.27,1.1 -2.74,2.2 -2.98,3.21 -0.24,1.01 -0.54,2.64 2.07,3.64 2.61,1 5.08,2.88 6.65,3.96 1.57,1.09 2.79,2.58 4.29,2.61 1.5,0.03 3.76,-1.23 5.43,-1.11 1.67,0.12 4.93,1.91 5.7,2.2 0.78,0.29 4.48,0.45 5.47,0.42 1,-0.03 5.45,-0.11 6.52,-0.08 1.07,0.03 4.79,-0.16 6.1,-0.51 1.31,-0.34 5.73,-1.68 6.64,-2.01 0.91,-0.33 3.67,-1.45 4.45,-2.06 0.78,-0.61 1.52,-1.73 3.36,-1.07 1.84,0.67 6.09,4.14 7.2,5.2 1.12,1.05 9.21,8.11 10.39,8.89 1.18,0.78 9.02,5.68 12.88,5.81 3.86,0.14 5.69,0.39 7.29,-0.17 1.6,-0.56 3.35,-1.55 4.28,-2.67 0.92,-1.12 2.88,-4.2 3.44,-4.53 0.56,-0.33 0.75,-2.09 2.83,-0.27 2.08,1.82 3.95,5.73 4.4,6.66 0.45,0.93 3.03,5.79 7.05,7.12 4.02,1.33 5.89,1.44 8.66,1.22 2.78,-0.22 4.25,-0.95 8.23,0.82 3.98,1.76 5.34,2.95 8.12,2.24 2.77,-0.71 3.53,-1.09 4.69,-0.59 1.16,0.5 9.65,2.99 10.7,2.88 1.05,-0.12 2.36,0.23 4.36,-0.35 1.99,-0.58 3.93,-1.63 5.33,-1.42 1.4,0.2 2.04,-1.2 2.82,-0.01 0.78,1.19 -0.64,1.85 0.72,1.87 1.35,0.03 2.99,-0.48 3.77,-0.69 0.78,-0.22 0.99,-0.72 1.1,0.43 0.12,1.15 0.02,2.18 1.29,2.22 1.27,0.04 5.65,-0.96 6.33,-2.2 0.68,-1.24 1.71,-1.81 2.88,-2.42 1.18,-0.6 3.24,-0.71 3.88,-2.85 0.64,-2.14 2.46,-2.03 0.96,-3.81 -1.49,-1.78 -3.06,-0.85 -5.12,-4.13 -2.07,-3.27 -3.77,-6.19 -4.84,-8.68 -1.07,-2.49 -2.56,-4.55 -0.92,-6.62 1.64,-2.07 7.62,-6.19 10.53,-8.12 2.92,-1.92 12.52,-8.69 12.52,-8.69z"/>
  <path id="armenia" class="fil0 str0" d="M292.31 418.99c1.33,-1.51 3.14,-1.98 3.42,-4.53 0.29,-2.55 0.19,-6.04 0.35,-6.94 0.16,-0.9 0.3,-2.04 1.78,-1.97 1.49,0.07 3.5,0.46 4.18,-0.46 0.69,-0.92 0.71,-6.16 1.15,-7.04 0.44,-0.88 1.82,-0.79 2.38,-2.31 0.56,-1.53 0.99,-5.34 1.19,-6.38 0.19,-1.04 1.86,-2.14 2.15,-4.24 0.28,-2.1 -0.13,-4 0.71,-5.07 0.84,-1.07 2.96,-1.31 3.39,-2.53 0.42,-1.22 5.52,-10.37 5.52,-10.37 0,0 0.95,-3.03 5.45,-5.11 4.5,-2.08 6.69,-2.68 7.34,-4.95 0.64,-2.27 5.45,-19.23 5.45,-19.23 0,0 3.51,-13.85 4.08,-14.96 0.57,-1.11 2.89,-3.24 2.82,-4.61 -0.07,-1.37 -0.54,-2.83 0.57,-3.41 1.11,-0.59 5.56,-1.7 6.51,-1.81 0.95,-0.11 3.63,1.72 5.71,1.93 2.08,0.2 3.37,0.25 3.66,-0.36 0.29,-0.61 1.06,-2.68 1.96,-3.3 0.9,-0.61 5.07,-2.45 6.03,-2.83 0.96,-0.38 1.92,-0.64 2.8,-1.92 0.88,-1.28 7.21,-11.06 7.59,-11.68 0.39,-0.62 4.67,-6.27 6.74,-8.26 2.07,-1.99 9.86,-11.09 10.32,-11.62 0.46,-0.53 5.6,-4.88 6.4,-5.77 0.8,-0.9 3.14,-2.83 3.11,-6.4 -0.03,-3.57 -0.18,-5.08 0.58,-6.3 0.76,-1.22 4.09,-7.5 5.7,-8.37 1.61,-0.86 6.88,-5.24 7.79,-6.1 0.91,-0.86 0.83,-2.08 0.33,-3.93 -0.5,-1.85 -0.43,-3.49 -3.35,-4.27 -2.92,-0.78 -4.77,-1.57 -6.05,-0.5 -1.28,1.07 -4.48,2.92 -4.84,1.07 -0.36,-1.85 0.14,-5.12 1.07,-7.69 0.93,-2.56 2.56,-6.19 1.64,-8.61 -0.93,-2.42 -4.13,-6.69 -5.34,-4.2 -1.21,2.49 0.14,4.55 -2.21,6.9 -2.35,2.35 -7.26,4.77 -10.82,5.12 -3.56,0.36 -8.33,2.85 -9.68,4.91 -1.35,2.06 -5.34,5.98 -5.77,8.76 -0.43,2.78 -3.49,11.75 -4.31,13.03 -0.82,1.28 -4.13,8.12 -5.66,9.65 -1.53,1.53 -6.3,6.45 -8.22,7.05 -1.92,0.61 -9.61,2.67 -14.13,2.46 -4.52,-0.22 -10.29,-2.21 -13.67,-2.74 -3.38,-0.54 -8.54,-1.57 -12.1,0.57 -3.56,2.14 -11.71,6.69 -14.66,7.55 -2.95,0.85 -11.25,3.2 -14.7,3.74 -3.45,0.53 -7.37,2.35 -9.57,2.81 -2.21,0.46 -3.99,0.89 -7.19,1.35 -3.2,0.46 -6.3,1.57 -9.79,2.64 -3.49,1.07 -5.48,-0.71 -8.18,0 -2.7,0.71 -8.26,2.56 -11.46,1.92 -3.2,-0.64 -6.48,-3.42 -7.54,-2.21 -1.07,1.21 -10.75,1.71 -13.95,3.56 -3.2,1.85 -6.33,4.13 -7.33,5.62 -1,1.49 -4.55,2.56 -4.27,4.2 0.28,1.64 2.64,3.34 2.7,5.27 0.07,1.92 -1.78,6.41 -2.35,7.97 -0.57,1.57 -1.92,5.62 -5.2,7.33 -3.27,1.71 -7.54,6.55 -8.54,9.39 -1,2.85 -6.41,8.68 -6.69,10.96 -0.28,2.28 -0.57,4.41 -1.85,7.4 -1.28,2.99 -2.42,7.97 -4.7,11.39 -2.28,3.42 -6.97,6.98 -6.41,8.54 0.57,1.57 5.84,-0.85 6.41,0.85 0.57,1.71 -0.57,4.55 -1.99,6.69 -1.42,2.14 1.97,3.08 5.73,3.13 3.76,0.05 6.28,-0.02 8.4,0.93 2.12,0.95 4.83,1.47 8.81,-1.49 3.97,-2.96 7.37,-4.51 10.26,-5.02 2.89,-0.51 17,-2.32 17,-2.32 0,0 11.17,-1.25 11.42,-1.25 0.25,0.01 4.14,0.29 3.67,1.82 -0.46,1.53 -4.3,4.7 -6.06,5.97 -1.76,1.27 -4.79,4.03 -7.2,4.8 -2.41,0.77 -9.71,1.87 -12,2.82 -2.29,0.96 -7.91,4 -10.12,5.84 -2.21,1.83 -3.07,2.45 -3.28,3.8 -0.21,1.35 0.76,1.44 1.44,1.3 0.68,-0.14 5.74,-1.24 6.21,-1.28 0.48,-0.04 1.7,-0.22 1.72,0.46 0.02,0.68 0.06,2.22 -0.26,2.86 -0.32,0.64 -0.89,4.83 -0.92,5.07 -0.03,0.24 -1.95,13.61 -1.95,13.61 0,0 -0.62,6.93 -2.82,8.3 -2.2,1.37 -9.08,3.36 -10.3,3.99 -1.23,0.63 -2.54,0.66 -2.56,1.56 -0.02,0.89 1.67,0.89 2.61,1.04 0.94,0.14 3.53,0.74 4.55,1.44 1.01,0.7 1.93,1.82 3.23,2.07 1.31,0.24 5.57,0.04 7.04,-0.27 1.47,-0.31 3.13,-0.84 3.81,-1.61 0.69,-0.76 1.64,-2.24 2.06,-2.73 0.42,-0.49 0.8,-1.32 1.54,-0.87 0.74,0.45 1.79,1.58 2.22,3.16 0.43,1.58 1.02,2.91 0.62,4.57 -0.4,1.66 -1.44,6.02 -1.53,6.32 -0.09,0.3 -2.3,6.05 -2.42,6.41 -0.12,0.37 -2.06,13.03 -2.13,13.68 -0.07,0.64 -0.15,5.11 -0.82,5.93 -0.66,0.82 -5.85,3.45 -6.71,4.06 -0.87,0.61 -18.35,12.76 -18.35,12.76l-3.55 2.71c0,0 -3.54,2.49 -2.99,4.43 0.55,1.95 6.64,13.27 6.64,13.27 0,0 1.82,2.01 3.46,2.77 1.64,0.75 2.13,1.54 2.07,2.08 -0.06,0.53 -1.35,2.65 -1.63,3.18 -0.28,0.54 -2.46,1.86 -1.68,2.47 0.78,0.61 3.12,1.23 4.27,1.34 1.15,0.11 7.9,0.69 9.93,0.37 2.03,-0.32 4.6,-0.34 5.6,-2.26 1,-1.93 2.13,-6.95 2.55,-9.12 0.43,-2.17 1.96,-9.49 2.34,-10.11 0.39,-0.62 3,-3.82 4.78,-4.57 1.78,-0.75 6.11,-2.26 7.01,-2.66 0.9,-0.4 2.88,-0.72 4.1,-4.14 1.22,-3.42 2.93,-7.59 3.18,-8.76 0.25,-1.18 0.81,-4.26 1.91,-5.53 1.09,-1.27 3.1,-2.33 3.38,-3.26 0.28,-0.93 0.27,-5.73 0.31,-6.54 0.03,-0.81 0.19,-2.92 1.24,-3.18 1.05,-0.25 3.27,-0.03 4.03,0.26 0.76,0.29 1.39,0.77 3.61,-0.45 2.22,-1.23 3.55,-1.87 4.19,-1.88 0.64,-0.01 2.29,0.42 2.82,-0.31 0.53,-0.73 2.96,-6.68 2.96,-6.68 0,0 0.68,-1.46 1.67,-1.66 0.99,-0.2 3.46,-0.62 3.92,-1.03 0.46,-0.42 0.82,-1.76 1.19,-2.37 0.38,-0.61 2.53,-2.49 3.7,-2.96 1.18,-0.47 2.69,-0.76 3.21,-1.89 0.51,-1.13 0.99,-1.76 2.55,-2.76 1.56,-1 2.13,-1.84 2.7,-1.93 0.57,-0.09 1.18,0.75 1.88,0.13 0.7,-0.62 2.99,-3.98 3.19,-4.58 0.2,-0.6 1.87,-2.54 2.68,-3.65 0.81,-1.11 1.57,-1.99 1.44,-2.88 -0.13,-0.9 -0.37,-2.23 0.01,-3.11 0.39,-0.87 1.99,-3.26 1.99,-3.26z"/>
  <path id="montenegro" class="fil0 str0" d="M193.52 331.86c1,-2.21 4.73,-7.28 6.18,-8.43 1.45,-1.15 4.87,-2.77 6.12,-5.18 1.25,-2.41 3.79,-8.61 4.03,-10.38 0.24,-1.77 -1.79,-5.19 -2.24,-6.37 -0.46,-1.18 1.3,-2.6 2.48,-3.51 1.18,-0.91 5.09,-4.62 6.57,-5.55 1.48,-0.93 7.49,-2.98 10.48,-3.51 3,-0.54 3.82,-0.81 5.49,-1.25 1.66,-0.44 5.81,2.38 7.85,1.98 2.04,-0.4 8.85,-0.81 11.46,-1.92 2.61,-1.11 6.5,0.97 8.18,0 1.69,-0.97 6.1,-2.82 6.53,-3.96 0.43,-1.14 1.35,-3.34 2.78,-4.7 1.42,-1.35 1.14,-0.64 5.62,-3.84 4.49,-3.2 6.34,-3.7 4.98,-5.69 -1.35,-1.99 -3.27,-3.99 -3.42,-7.12 -0.14,-3.13 0.15,-5.41 1.43,-10.82 1.28,-5.41 4.13,-6.69 2.14,-9.97 -1.99,-3.27 -6.83,-5.12 -10.11,-5.84 -3.27,-0.71 -6.26,-4.27 -8.68,-6.69 -2.42,-2.42 -6.97,-2.14 -8.68,-0.14 -1.71,1.99 -3.7,1 -6.55,3.42 -2.85,2.42 -2.14,5.98 -6.26,7.83 -4.13,1.85 -7.69,2.14 -10.96,1.28 -3.27,-0.85 -9.4,1.28 -14.66,2.56 -5.27,1.28 -11.67,4.7 -17.08,5.12 -5.41,0.43 -21.21,1.14 -23.92,-0.14 -2.7,-1.28 -12.1,-3.13 -16.23,-5.69 -4.13,-2.56 -8.26,-3.13 -11.39,-4.84 -3.13,-1.71 -4.84,-2.14 -8.4,-1 -3.56,1.14 -6.41,2.42 -11.81,3.7 -5.41,1.28 -12.24,1.42 -13.95,0.71 -1.71,-0.71 -2.7,-3.27 -6.41,-3.27 -3.7,0 -6.12,1.42 -7.54,0.71 -1.42,-0.71 -1.14,-0.57 -1.07,-3.13 0.07,-2.56 -2.7,-5.77 -3.84,-4.27 -1.14,1.5 -1.85,4.55 -2.99,4.55 -1.14,0 -2.56,1.57 -5.76,0.43 -3.2,-1.14 -5.84,-2.85 -7.62,-5.2 -1.78,-2.35 -4.49,-4.06 -6.91,-4.91 -2.42,-0.85 -4.48,-2.06 -7.33,-1.35 -2.85,0.71 -4.98,2.07 -6.62,3.49 -1.64,1.42 -5.77,3.63 -4.84,5.34 0.92,1.71 2.85,2.49 2.99,3.77 0.14,1.28 0.04,3.48 -0.36,4.72 -0.39,1.24 -1.14,3.64 -1.21,4.52 -0.07,0.89 -0.14,2.51 -0.72,3.04 -0.58,0.53 -2.75,0.6 -3.37,1.56 -0.62,0.96 -2.34,6.36 -2.77,7.03 -0.43,0.67 -5.08,2.94 -5.91,3.49 -0.83,0.54 -2.06,1.7 -2.12,2.55 -0.06,0.85 -2.19,4.86 -1.62,5.65 0.58,0.78 2.43,1.48 3.35,1.8 0.92,0.32 2.22,1 3.18,1.96 0.96,0.95 2.51,2.24 2.63,3.03 0.12,0.8 -0.49,5.34 -0.49,5.34 0,0 -0.36,1.75 -1.16,2.02 -0.8,0.27 -3.02,0.18 -3.65,0.14 -0.63,-0.03 -1.38,-0.63 -3.8,1.61 -2.42,2.23 -3.48,3.88 -4.16,5.79 -0.68,1.91 -1.1,5.19 -1.21,6.33 -0.11,1.14 -0.41,3.81 -0.3,4.4 0.11,0.59 0.21,2.25 -0.07,3.25 -0.28,1 -0.69,2.13 0.62,3.03 1.3,0.9 3.69,2.63 4.65,2.85 0.97,0.22 4.56,0.45 4.93,1.08 0.37,0.63 1.11,2.08 0.69,3.91 -0.42,1.82 -0.64,2.8 -0.23,3.44 0.41,0.65 2.34,3.26 2.45,4.81 0.11,1.56 0.38,4.28 -0.13,6.4 -0.51,2.12 -0.76,11.6 -1.13,14.24 -0.36,2.64 -2.68,10.87 -3.03,12.64 -0.35,1.76 -1.23,6.83 -1.56,8.34 -0.34,1.51 -1.09,4.62 -1.75,5.57 -0.66,0.96 -2.84,2.2 -2.7,3.42 0.14,1.22 0.53,4.42 1.87,4.92 1.34,0.49 5.68,1.12 6.4,1.55 0.73,0.44 2.29,4.05 2.22,6.36 -0.08,2.31 -1.65,8.75 -1.95,9.3 -0.3,0.55 -0.39,0.98 -4.77,1.85 -4.39,0.87 -5.58,2.13 -6.54,3.71 -0.96,1.58 -2.05,3.15 -0.37,3.61 1.69,0.46 2.75,-0.57 3.3,0.65 0.55,1.22 -1.02,2.45 -0.23,4.4 0.8,1.95 0.48,4.52 5.11,7.5 4.63,2.99 4.65,4.63 7,5.06 2.35,0.43 4.38,2.03 6.83,0.64 2.45,-1.39 2.44,-3.42 2.69,-5.78 0.26,-2.36 1.15,-4.85 2.21,-5.37 1.06,-0.51 3.01,-1.17 5,-0.82 1.99,0.35 4,0.74 5.87,1.36 1.87,0.62 5.73,2.05 7.47,3.22 1.74,1.18 9.15,4.81 9.73,5.07 0.58,0.26 6.4,2.82 7.36,3.67 0.96,0.85 5.29,1.62 7.65,1.58 2.35,-0.04 12.24,-0.48 12.24,-0.48l10.82 0.08c0,0 2.56,-0.12 3.5,-0.83 0.94,-0.71 4.32,-3.35 5.53,-4.06 1.21,-0.71 4.98,-4.97 6.62,-6.86 1.64,-1.89 5.44,-5.52 6.67,-6.55 1.23,-1.03 3.6,-2.54 3.88,-4.29 0.28,-1.75 0.04,-3.08 0.35,-4.29 0.31,-1.2 1.9,-3.17 3.26,-4.88 1.36,-1.71 2.34,-4.45 3.12,-5.2 0.79,-0.75 5.61,-4.8 6.46,-5.31 0.85,-0.52 9.58,-3.51 10.49,-3.75 0.91,-0.23 6.7,-0.56 7.45,-1.68 0.74,-1.12 -1.24,-1.28 -1.27,-2.32 -0.03,-1.04 1.7,-4.32 1.7,-4.32 0,0 0.72,-2.82 0.6,-3.33 -0.12,-0.5 -0.2,-1.47 -1.45,-1.36 -1.24,0.11 -3.06,0.61 -3.7,0.56 -0.64,-0.05 -2.3,-0.33 -1.28,-1.44 1.03,-1.11 3.44,-3.87 3.68,-4.45 0.23,-0.58 3.88,-4.78 5.26,-8.78 1.38,-4 3.42,-9.69 3.61,-10.98 0.19,-1.29 0.55,-3.3 1.34,-4.51 0.79,-1.21 5.19,-7.64 5.19,-7.64z"/>
  <path id="quimbaya" class="fil0 str0" d="M70.25 159.14c0,0 4.02,-7.25 4.74,-8.38 0.72,-1.13 3.01,-3.31 3.27,-5.24 0.25,-1.93 0.8,-8.69 1.32,-9.98 0.53,-1.29 0.97,-2.99 3.63,-4.48 2.65,-1.49 7.92,-4.33 10.16,-5.82 2.23,-1.49 10.83,-7.99 13.17,-10.86 2.34,-2.87 7.04,-12.79 8.63,-15.34 1.6,-2.55 2.44,-6.05 3.23,-7.21 0.79,-1.16 1.86,-2.19 3.32,-1.93 1.46,0.27 2.89,1.4 4.58,1.91 1.68,0.51 6.36,0.62 9.51,2.29 3.15,1.67 7.51,4.14 9.45,4.99 1.94,0.85 4.25,2.05 7.03,2.06 2.78,0.01 6.38,-0.57 9.68,-1.22 3.3,-0.65 9.87,-1.89 10.85,-2.08 0.97,-0.19 4.87,-1.71 10.22,-0.7 5.34,1.01 13.76,3.39 15.69,4.14 1.93,0.75 12.9,5.36 14.03,5.88 1.13,0.51 5.56,2.76 9.13,2.77 3.58,0.01 8.2,-0.07 10.62,-1.14 2.42,-1.07 7.6,-5.17 9.25,-5.74 1.66,-0.57 2.71,2.75 3.99,4.53 1.28,1.78 3.77,5.2 5.06,9.4 1.28,4.2 1.28,8.68 1.64,10.32 0.35,1.64 0.28,2.63 1.28,5.12 1,2.49 2.14,5.2 2.35,6.83 0.21,1.64 1.28,3.27 -0.35,4.91 -1.64,1.64 -5.77,2.56 -6.69,4.34 -0.92,1.78 -3.99,7.69 -5.34,9.96 -1.35,2.28 -3.35,4.77 -3.27,5.77 0.07,1 6.62,6.83 9.32,7.9 2.71,1.07 6.19,5.34 12.53,4.63 6.34,-0.71 17.8,-3.77 20.22,-5.76 2.42,-1.99 10.04,-8.83 12.31,-10.54 2.28,-1.71 8.19,-4.06 9.4,-4.06 1.21,0 2.85,2.71 2.35,3.92 -0.5,1.21 -3.56,6.41 -3.06,7.69 0.5,1.28 6.83,2.35 8.11,2.35 1.28,0 2.85,1.92 2.7,3.92 -0.14,1.99 1.14,7.47 0.5,8.68 -0.64,1.21 -8.4,6.12 -9.82,7.54 -1.42,1.42 -7.19,6.62 -8.54,7.4 -1.35,0.78 -1.14,1.35 -2.28,2.85 -1.14,1.49 -3.28,3.84 -4.41,3.63 -1.14,-0.22 -2.64,-0.43 -3.77,1.42 -1.14,1.85 -4.98,4.98 -7.19,7.19 -2.21,2.21 -4.27,2.78 -6.55,3.7 -2.28,0.93 -3.27,0.93 -4.98,2.99 -1.71,2.06 -4.91,2.21 -7.33,3.92 -2.42,1.71 -5.15,4.05 -7.2,5.36 -2.05,1.31 -4.27,1.99 -4.66,2.19 -0.39,0.2 -2.94,2.24 -3.34,2.97 -0.41,0.74 -1.27,3.36 -2.08,4.24 -0.82,0.89 -7.96,3.21 -9.47,3.38 -1.5,0.17 -9.54,-0.46 -11.46,0.07 -1.92,0.53 -17.8,5.31 -19.22,5.98 -1.41,0.67 -16.94,1.94 -18.75,1.95 -1.82,0.01 -9.13,-0.19 -10.11,-0.59 -0.98,-0.4 -12.76,-4 -13.99,-4.55 -1.23,-0.54 -11.73,-5.05 -12.68,-5.49 -0.95,-0.45 -3.68,-2.46 -5.93,-2.25 -2.25,0.22 -14.41,4.06 -15.2,4.24 -0.79,0.19 -11.95,1.35 -13.13,1.07 -1.18,-0.27 -3.14,-1.99 -4.1,-2.52 -0.95,-0.53 -3.83,-1.27 -6.2,-0.79 -2.37,0.48 -4.12,0.85 -4.83,0.47 -0.71,-0.38 -0.85,-3.09 -1.16,-4.08 -0.31,-0.99 -0.9,-2.66 -1.66,-3.01 -0.76,-0.34 -1.53,-1.63 -2.47,0.26 -0.94,1.89 -1.3,2.92 -1.75,3.38 -0.45,0.46 -1.82,1.14 -3.17,1.29 -1.35,0.15 -3.41,0.07 -6.93,-2.11 -3.52,-2.17 -5.06,-4.54 -5.88,-5.22 -0.82,-0.68 -4.74,-2.96 -6.74,-3.65 -2,-0.68 -4.35,-1.18 -5.76,-0.76 -1.41,0.42 -7.02,3.61 -7.79,4.39 -0.77,0.78 -2.7,2.21 -3.38,2.85 -0.67,0.64 -0.98,1.12 -3.69,-1.43 -2.71,-2.56 -3.69,-3.23 -4.24,-4.98 -0.55,-1.74 -0.44,-4.63 -0.31,-5.67 0.12,-1.04 0.56,-3.45 1.73,-4.48 1.18,-1.03 6.16,-5.76 7.29,-6.38 1.13,-0.62 6.43,-2.78 7.31,-3.17 0.87,-0.38 1.96,-1.13 1.71,-2.83 -0.25,-1.7 -0.73,-3.09 -1.17,-4.31 -0.44,-1.22 -0.73,-3.38 -0.87,-5.45 -0.14,-2.07 -0.74,-3.74 -1.64,-4.69 -0.9,-0.95 -5.25,-4.18 -5.97,-6.52 -0.72,-2.35 -0.32,-3.74 -0.05,-6.13 0.26,-2.39 0.66,-4.3 1.95,-4.88 1.3,-0.59 9.27,-2.42 9.79,-3.07 0.52,-0.65 2.36,-2.78 2.74,-3.39 0.39,-0.62 4.81,-6.21 4.81,-6.21z"/>
  <path id="circasia" class="fil0 str0" d="M358.06 141.72c1.92,-3.13 4.77,-8.04 6.12,-10.04 1.35,-1.99 8.61,-10.68 9.89,-12.38 1.28,-1.71 4.77,-5.13 8.4,-7.12 3.63,-1.99 7.19,-4.48 8.19,-5.76 1,-1.28 8.68,-4.13 9.47,-4.77 0.78,-0.64 3.56,-2.77 7.12,-1.92 3.56,0.85 5.12,3.35 11.75,1.78 6.62,-1.57 16.23,-5.48 19.15,-6.62 2.92,-1.14 15.52,-9.33 17.22,-10.61 1.71,-1.28 3.99,-4.55 5.48,-5.55 1.49,-1 6.34,-3.13 9.47,-4.13 3.13,-1 8.19,-3.27 9.47,-2.85 1.28,0.43 2.28,5.12 2.35,7.47 0.07,2.35 -0.78,14.23 -1.35,16.23 -0.57,1.99 -8.04,11.1 -8.61,13.31 -0.57,2.21 -2.85,11.53 -3.99,14.1 -1.14,2.56 -4.55,8.97 -5.05,9.75 -0.5,0.78 -3.27,2.99 -5.91,5.12 -2.63,2.14 -6.69,7.12 -8.04,9.61 -1.35,2.49 -14.1,15.87 -15.8,18.86 -1.71,2.99 -10.11,15.8 -12.31,19.08 -2.2,3.27 -4.41,7.9 -6.97,10.32 -2.56,2.42 -8.75,8.76 -9.75,14.02 -1,5.27 -2.04,7.35 -2.54,8.72 -0.51,1.36 -3.05,4 -4.23,4.67 -1.18,0.68 -7.09,2.84 -7.99,2.97 -0.9,0.13 -7.44,2.68 -8.34,3.51 -0.9,0.84 -3.9,4.53 -4.83,5.84 -0.93,1.31 -2.15,3.95 -2.44,5.12 -0.29,1.17 -2.37,7.82 -2.7,8.71 -0.33,0.89 -2.34,5.11 -2.91,6.18 -0.57,1.07 -3.78,6.56 -4.2,6.98 -0.42,0.42 -6.91,6.53 -7.74,6.85 -0.84,0.31 -12.3,2.84 -14.32,2.67 -2.02,-0.16 -8.72,-1.57 -10.33,-1.96 -1.61,-0.39 -5.79,-1.17 -6.91,-1.29 -1.12,-0.12 -3.91,-0.4 -5.42,-0.08 -1.51,0.33 -2.38,0.58 -4.48,1.79 -2.1,1.21 -11.83,6.3 -12.7,6.6 -0.87,0.3 -13.57,3.65 -13.57,3.65 0,0 -3.87,0.7 -5.62,1.28 -1.75,0.58 -9.62,2.71 -10.88,2.91 -1.26,0.21 -7.7,1.63 -8.87,2 -1.17,0.37 2.95,-2.31 3.72,-3.89 0.77,-1.58 3.02,-4.38 3.65,-4.75 0.63,-0.37 7.04,-4.64 7.88,-5.26 0.84,-0.62 2.72,-1.5 2.11,-2.4 -0.62,-0.9 -3.22,-4.66 -3.49,-5.49 -0.27,-0.83 -1.1,-1.74 0.11,-8.89 1.21,-7.15 2.21,-8.26 2.78,-10.04 0.57,-1.78 1.14,-3.48 -0.24,-4.94 -1.37,-1.46 -4.09,-3.42 -5.72,-4.03 -1.63,-0.61 -4.08,-1.03 -5.31,-1.68 -1.23,-0.66 -6.34,-5.34 -7.24,-6.11 -0.9,-0.77 -4.88,-2.97 -3.26,-4.09 1.62,-1.12 7.57,-4.01 7.83,-4.49 0.26,-0.48 1.75,-1.91 2.56,-2.4 0.81,-0.5 4.72,-2.28 5.53,-2.6 0.82,-0.32 3.81,-2.03 5.34,-3.44 1.52,-1.41 5.83,-6.01 6.12,-6.23 0.3,-0.22 1.38,-1.73 2.37,-1.74 0.99,-0.01 2.24,0.3 3.12,-0.43 0.88,-0.73 3.76,-4.42 4.1,-4.87 0.34,-0.45 2.87,-1.95 4.21,-3.31 1.34,-1.35 6.26,-6.07 6.55,-6.25 0.28,-0.18 6.33,-4.35 6.33,-4.35 0,0 3.19,-1.41 5.19,-3.12 1.99,-1.71 5.98,-8.75 7.9,-10.46 1.92,-1.71 9.25,-5.91 10.82,-6.62 1.57,-0.71 9.47,-4.48 10.82,-6.26 1.35,-1.78 2.7,-3.56 4.48,-5.34 1.78,-1.78 2.56,-5.91 3.49,-7.33 0.93,-1.42 3.03,-4.24 3.03,-4.24z"/>
  <path id="salento" class="fil0 str0" d="M774.75 132.12c0,0 -0.73,-18.19 -0.68,-20.6 0.05,-2.41 1.04,-11.39 2.06,-15.07 1.02,-3.68 5.91,-17.39 5.91,-17.39 0,0 4.91,-12.82 6.12,-14.57 1.21,-1.75 9.48,-11.94 10.69,-13.24 1.21,-1.3 10.36,-11 11.39,-11.95 1.03,-0.94 4.19,-3.12 4.95,-3.69 0.77,-0.57 5.12,-5.22 5.55,-5.95 0.43,-0.73 1.61,-1.55 1.46,-4.33 -0.16,-2.78 -1.08,-10.83 -1.47,-11.82 -0.38,-0.99 -1.24,-2.01 -2.02,-2.42 -0.77,-0.41 -4.36,-1.46 -6.42,-1.54 -2.06,-0.08 -12.87,-0.08 -14.65,0.7 -1.78,0.78 -11.47,8.74 -12.75,9.96 -1.27,1.22 -11.56,13.54 -11.56,13.54 0,0 -3.49,5.06 -4.33,6.12 -0.83,1.06 -4.22,5.04 -5.19,5.73 -0.96,0.69 -4.78,1.84 -6.43,2.3 -1.65,0.46 -13.59,3.74 -15.19,4.2 -1.6,0.46 -4.19,1.21 -5.45,2.82 -1.26,1.61 -5.77,7.59 -6.81,8.39 -1.04,0.81 -5.54,4.23 -6.33,4.72 -0.78,0.48 -4.23,1.9 -6.15,2.18 -1.92,0.28 -4.78,0.65 -9.14,0.66 -4.36,0.01 -9.7,-0.71 -12.68,-0.83 -2.99,-0.12 -9.25,-0.65 -10.63,-0.87 -1.38,-0.22 -3.87,0.07 -5.58,0.64 -1.71,0.57 -5.97,2.25 -7.2,3.51 -1.23,1.26 -5.2,5.81 -5.8,6.51 -0.6,0.7 -4.46,5.06 -5.55,6.04 -1.09,0.98 -3.28,2.99 -4.75,3.72 -1.46,0.72 -4.84,2.19 -6.05,1.95 -1.21,-0.24 -8.64,-6.13 -11.08,-8.58 -2.44,-2.45 -8.87,-9.03 -10.03,-10.54 -1.16,-1.51 -8.45,-12.07 -9.7,-13.26 -1.25,-1.18 -11.22,-9.81 -12.69,-10.93 -1.46,-1.12 -4.22,-3.06 -5.13,-3.33 -0.91,-0.26 -3.39,-0.58 -7.24,-0.58 -3.85,-0 -9.04,0.15 -11.11,-0.18 -2.07,-0.33 -10.97,-3.33 -13.43,-4.33 -2.46,-1.01 -12.74,-5.29 -14.49,-5.87 -1.75,-0.58 -6.4,-2 -8.09,-1.75 -1.69,0.25 -4.92,1.11 -6.41,1.37 -1.5,0.27 -4.88,1.07 -6.84,1.03 -1.96,-0.05 -4.14,-0.65 -6.05,-0.86 -1.91,-0.21 -4.34,0.43 -5.41,1.07 -1.07,0.64 -5.05,2.99 -6.69,3.63 -1.64,0.64 -7.76,2.14 -8.97,3.06 -1.21,0.93 -4.06,4.84 -4.84,5.98 -0.78,1.14 -5.62,6.34 -6.97,7.26 -1.35,0.93 -6.69,3.35 -7.9,4.98 -1.21,1.64 -3.7,6.26 -4.27,7.97 -0.57,1.71 -0.87,6.66 -0.75,9.95 0.12,3.29 -0.19,8.66 -0.28,9.74 -0.09,1.09 -0.85,8.02 -1.04,8.39 -0.18,0.37 -7.31,10.75 -7.58,11.2 -0.27,0.45 -0.99,2.08 -1.14,2.66 -0.15,0.58 -3.13,11.5 -3.13,11.5 0,0 -5.1,10.46 -5.25,10.73 -0.15,0.27 -6.16,5.67 -6.89,6.36 -0.74,0.69 -7.29,8.89 -7.68,9.45 -0.39,0.55 -12.91,14.48 -12.91,14.48l-10.17 15.81 -10.83 16.6c0,0 -4.02,3.99 -5.42,5.73 -1.39,1.74 -3.99,5.65 -4.32,6.39 -0.33,0.74 -1.32,5.32 -1.27,5.6 0.05,0.28 1.49,1.89 2.33,3.19 0.84,1.3 1.74,2.78 1.76,3.75 0.02,0.96 -1.77,7.27 -1.88,7.57 -0.11,0.3 -1.09,3.85 -0.91,5.63 0.18,1.78 -0.41,3.38 0.68,3.03 1.09,-0.36 3.66,-2.28 4.39,-2.3 0.73,-0.02 4.48,0.32 5.66,0.76 1.19,0.44 2.27,0.68 2.44,1.5 0.17,0.82 1.03,2.52 1.15,3.8 0.12,1.28 1.58,0.79 2.9,0.5 1.32,-0.29 5.85,-0.27 8.17,0.08 2.32,0.34 9.8,1.75 10.97,2 1.17,0.25 4.91,1.15 6.41,2.12 1.5,0.96 6.3,4.91 6.76,5.96 0.47,1.04 1.75,6.17 1.87,7.37 0.12,1.2 0.05,6.27 -0.22,7.27 -0.27,1 -1.47,4.31 -1.59,5.24 -0.12,0.92 -1.16,9.51 -1.16,9.51 0,0 -0.6,4.78 0.08,5.23 0.68,0.45 2.5,0.83 3.27,1.14 0.77,0.31 3.15,0.8 5.11,0.43 1.96,-0.37 3.85,-0.82 5.08,-1.23 1.23,-0.41 2.23,-0.84 2.71,-0.91 0.48,-0.06 1.25,0.14 1.67,1 0.42,0.86 4.28,8.59 4.28,8.59l2.47 4.58c0,0 1.7,2.38 2.99,2.98 1.29,0.6 4.71,3.51 4.99,3.79 0.28,0.28 2.25,2.15 2.76,4.07 0.52,1.92 1.74,6.03 1.74,6.03 0,0 1.96,4.46 2.95,4.98 0.99,0.52 3.51,1.68 4.31,1.89 0.8,0.2 6.53,2.55 7.14,3.19 0.61,0.64 2.81,4.59 3.01,4.82 0.2,0.23 4.11,5.5 4.11,5.5l6.04 5.72 4.64 5.01c0,0 1.32,1.47 1.3,2.71 -0.02,1.24 -0.76,4.13 -0.51,4.95 0.25,0.82 2.45,4.12 3.33,4.73 0.88,0.62 1.78,1.47 1.85,2.21 0.07,0.74 -0.53,3.39 -0.69,3.81 -0.15,0.42 -1.3,3.81 -1.3,3.81l-0.83 3.33c0,0 -0.91,5.76 -0.41,6.92 0.5,1.15 2.92,5.22 2.92,5.22l4.51 6.76c0,0 4.82,13.97 6.23,13.42 1.4,-0.55 3.4,-0.76 6.53,-4.25 3.13,-3.49 14.31,-11.7 14.31,-11.7l9.27 -8.06 14.57 -12.45 10.76 -8.78c0,0 4.47,-3.63 5.57,-5.27 1.1,-1.64 2.92,-0.72 3.62,-12.29 0.69,-11.57 0.91,-37.63 0.91,-37.63 0,0 0.82,-11.9 1.4,-15.74 0.58,-3.84 2.39,-10.21 3.55,-12.48 1.16,-2.27 3.68,-6.54 4.67,-7.47 0.99,-0.93 9.8,-10.19 11.55,-12 1.75,-1.82 8.25,-7.39 10.21,-8.82 1.96,-1.43 18.27,-14.18 18.27,-14.18l11.34 -9.23c0,0 3.48,-1.13 4.55,-2.51 1.07,-1.39 1.91,-4.98 2.4,-6.94 0.5,-1.96 3.96,-8.12 4.64,-9.01 0.68,-0.88 4.7,-3.2 6.69,-3.81 2,-0.61 30.96,-7.41 30.96,-7.41l18.65 -4.42c0,0 5.21,-0.26 10.28,-1.43 5.07,-1.18 11.4,-2.64 12.68,-3.42 1.27,-0.78 10.24,-6.27 11.63,-7.53 1.39,-1.26 3.53,-3.63 3.85,-4.48 0.33,-0.85 2.4,-9.29 2.4,-9.29 0,0 1.24,-7.64 1.31,-9.35 0.07,-1.7 -0.89,-15.5 -0.89,-15.5l-0.51 -6.34z"/>
  <path id="finlandia" class="fil0 str0" d="M301.03 71.24c0,0 -2.52,-18.85 -2.87,-21.3 -0.35,-2.45 -1.74,-17.86 -1.86,-19.71 -0.12,-1.85 -0.65,-10.12 -0.73,-11.53 -0.08,-1.41 -0.28,-3.55 0.45,-5.02 0.74,-1.46 2.69,-1.75 4.24,-2.59 1.55,-0.84 7.35,-4.13 7.35,-4.13 0,0 2.37,-1.36 3.73,-1.39 1.36,-0.03 9.34,1.16 10.23,1.38 0.89,0.22 5.44,2.79 5.95,3.19 0.51,0.39 4.51,3.72 5.79,4.31 1.28,0.59 3.92,0.69 5.23,1.07 1.31,0.38 9.29,5.11 9.29,5.11 0,0 6.34,4.19 6.98,4.42 0.65,0.23 3.19,0.72 4.12,2.01 0.93,1.29 4.18,6.22 4.92,6.89 0.73,0.67 2.34,1.93 3.96,2.32 1.62,0.39 6.27,1.58 7.43,2 1.16,0.42 3.78,1.39 4.85,1.41 1.07,0.02 2.35,-0.06 2.76,-0.49 0.41,-0.43 1.17,-2.11 1.49,-3.41 0.31,-1.3 3.26,-5.9 3.72,-6.47 0.47,-0.56 1.59,-1.59 2.47,-1.94 0.88,-0.35 4.24,-1.54 4.9,-1.8 0.66,-0.26 2.22,-1.35 2.82,-1.19 0.6,0.16 3.6,3.49 4.16,3.72 0.56,0.23 5.16,2.31 5.86,2.63 0.7,0.31 7.16,1.28 8.8,1.21 1.64,-0.07 7.41,-0.22 7.87,-0.2 0.46,0.02 4.85,0.05 5.52,0.05 0.68,-0 1.55,0.43 2.66,1.4 1.11,0.97 6.17,3.01 8.05,3.12 1.88,0.11 6.26,0.79 7.29,0.48 1.03,-0.31 5.57,-3.4 7.65,-5.67 2.08,-2.27 4.13,-5.01 4.82,-5.43 0.69,-0.43 4.08,-0.7 4.94,-0.66 0.85,0.04 4.91,0.35 5.35,0.5 0.44,0.16 4.19,1.93 4.76,2.28 0.57,0.35 3.47,3.07 4.7,3.55 1.24,0.48 3.87,1.21 5.2,0.84 1.32,-0.37 2.27,-1.38 3.89,-2.31 1.62,-0.93 7.7,-3.4 7.7,-3.4 0,0 2.15,-1.12 3.7,-0.82 1.55,0.3 8.04,1.78 8.58,2.03 0.54,0.25 2.46,0.6 4.17,2.16 1.71,1.56 3.65,2.89 4.49,3.33 0.84,0.44 3.51,0.9 3.51,1.54 0,0.64 -1.32,1.84 -2.2,2.34 -0.88,0.5 -6.65,3.51 -7.69,3.43 -1.04,-0.08 -5.81,1.85 -6.31,2.34 -0.5,0.5 -7.29,8.86 -7.29,8.86 0,0 -3.9,3.94 -4.31,4.2 -0.41,0.26 -7.36,4.31 -7.69,4.73 -0.33,0.42 -2.02,3.15 -2.55,4.14 -0.52,0.99 -1.76,3.41 -1.94,4.09 -0.18,0.68 -0.49,1.89 -1.14,2.67 -0.64,0.78 -3.08,2.04 -4.06,2.03 -0.98,-0.01 -8.4,2.61 -9.24,2.93 -0.83,0.32 -7.03,2.7 -8.62,4.45 -1.59,1.75 -3.2,3.6 -3.76,4.07 -0.56,0.47 -9.02,6.02 -9.02,6.02l-6.99 4.19c0,0 -6.4,2.69 -7.38,3.06 -0.98,0.37 -10.63,3.67 -11.59,3.93 -0.96,0.26 -6.02,1.62 -8.57,0.64 -2.55,-0.99 -3.72,-1.78 -4.58,-1.88 -0.86,-0.1 -2.91,-0.33 -3.88,-0.04 -0.97,0.29 -3.26,1.62 -3.78,1.93 -0.52,0.3 -8.13,3.82 -8.13,3.82 0,0 -1.69,1.05 -2.1,1.57 -0.4,0.52 -5.35,3.95 -5.73,4.18 -0.38,0.22 -5.16,3.08 -5.32,3.22 -0.16,0.14 -8.79,9.84 -9.06,10.16 -0.27,0.33 -5.73,7.26 -5.73,7.26l-4.39 7.19 -2.38 3.72c0,0 -1.66,2.3 -1.96,2.75 -0.3,0.45 -1.38,3.06 -1.64,3.77 -0.27,0.71 -1.86,3.71 -2.33,4.2 -0.47,0.49 -3.77,4.61 -4.3,5.15 -0.53,0.54 -8.61,5.21 -8.61,5.21l-8.94 4.87c0,0 -4.11,2.59 -5.11,3.94 -1.01,1.35 -4.23,6.04 -4.47,6.38 -0.24,0.34 -2.04,3.04 -2.96,3.39 -0.92,0.35 -2.05,1.37 -2.24,-1.75 -0.19,-3.12 0,-6 -0.45,-6.88 -0.45,-0.88 -0.71,-2.65 -1.34,-2.8 -0.63,-0.15 -3.27,-1.05 -4.25,-1.01 -0.97,0.04 -4.43,-1.23 -4.72,-1.45 -0.3,-0.23 -0.62,-1.12 -0.39,-1.8 0.23,-0.69 2.7,-5.66 2.87,-6.21 0.17,-0.55 0.03,-1.9 -0.42,-2.55 -0.46,-0.65 -1.3,-1.63 -1.84,-1.55 -0.54,0.08 -4.89,1.63 -5.54,1.93 -0.65,0.3 -4.12,2.11 -5.13,3.14 -1.01,1.03 -7.69,6.64 -7.69,6.64 0,0 -3.44,2.87 -4.44,3.45 -1,0.58 -13.8,4.39 -16.09,4.75 -2.3,0.36 -5.03,0.43 -5.94,0.26 -0.91,-0.18 -4.68,-1.64 -6.1,-2.44 -1.42,-0.79 -4.29,-2.01 -5.61,-3.01 -1.32,-1 -6.59,-5.66 -6.74,-6.06 -0.15,-0.4 -0.72,-0.89 -0.25,-1.76 0.47,-0.87 4.39,-7.49 4.39,-7.49l3.1 -5.85c0,0 1.06,-1.96 1.76,-2.43 0.7,-0.47 5.31,-2.73 5.64,-3.22 0.34,-0.49 1.12,-1.6 1.05,-2.25 -0.06,-0.65 -1.15,-5.16 -1.35,-5.72 -0.2,-0.56 -2.39,-5.95 -2.6,-7.89 -0.22,-1.95 -1.46,-10.51 -2.01,-11.98 -0.54,-1.47 -4.31,-8.05 -4.75,-8.69 -0.44,-0.64 -2.25,-2.52 -2.04,-4.12 0.22,-1.6 3.64,-2.25 5.87,-2.54 2.23,-0.29 6.78,-0.46 8.92,-0 2.14,0.46 13.09,2.76 13.09,2.76l11.63 1.86 4.43 0.54c0,0 3.59,0.37 6.07,0.05 2.48,-0.32 6.64,-1.29 7.96,-1.99 1.33,-0.7 3.34,-1.81 3.55,-3.16 0.21,-1.35 0.23,-7.41 -0.08,-10.34 -0.32,-2.94 -2.07,-13.09 -2.24,-14.03 -0.18,-0.94 -1.25,-6.74 -1.25,-6.74z"/>
 </g>
</svg>
