<?xml version="1.0" encoding="UTF-8"?>
<!DOCTYPE svg PUBLIC "-//W3C//DTD SVG 1.1//EN" "http://www.w3.org/Graphics/SVG/1.1/DTD/svg11.dtd">
<!-- Creator: CorelDRAW 2020 (64-Bit) -->
<svg xmlns="http://www.w3.org/2000/svg" xml:space="preserve" width="65.1079mm" height="63.4769mm" version="1.1" style="shape-rendering:geometricPrecision; text-rendering:geometricPrecision; image-rendering:optimizeQuality; fill-rule:evenodd; clip-rule:evenodd"
viewBox="0 0 1372.75 1338.36"
 xmlns:xlink="http://www.w3.org/1999/xlink"
 xmlns:xodm="http://www.corel.com/coreldraw/odm/2003">
 <defs>
  <style type="text/css">
   <![CDATA[
    .str0 {stroke:#FEFEFE;stroke-width:11.16;stroke-miterlimit:22.9256;stroke-opacity:0.600000}
    .str1 {stroke:#FEFEFE;stroke-width:4.22;stroke-miterlimit:22.9256;stroke-opacity:0.600000}
    .fil0 {fill:#F8C22C;fill-opacity:0.600000}
   ]]>
  </style>
 </defs>
 <g id="Capa_x0020_1">
  <metadata id="CorelCorpID_0Corel-Layer"/>
  <g id="_2948249819056">
   <path id="pereira" class="fil0" d="M1288.09 1195.39c3.46,-2.63 7.41,-5.43 9.38,-6.91 1.98,-1.48 8.39,-3.78 10.53,-6.58 2.14,-2.8 9.71,-15.14 10.86,-18.6 1.15,-3.46 4.11,-6.91 5.92,-8.39 1.81,-1.48 4.77,-2.3 10.04,1.98 5.27,4.28 5.6,5.43 8.89,4.77 3.29,-0.66 4.94,-3.62 7.08,-6.09 2.14,-2.47 9.26,-7.08 11.02,-8.72 1.77,-1.65 2.55,-1.56 3.79,-2.55 1.23,-0.99 2.51,-1.77 4.36,-1.44 1.85,0.33 2.51,-0.04 2.39,2.18 -0.12,2.22 -1.48,19.46 -1.48,19.46 0,0 -1.57,8.02 -1.88,9.01 -0.31,0.99 -1.68,3.79 -1.65,6.29 0.03,2.5 0.61,8.75 0.43,10.46 -0.19,1.71 -1.99,7.19 -2.68,8.49 -0.69,1.31 -4.52,7.76 -5.43,9.64 -0.91,1.88 -2.98,6.68 -3.42,8.51 -0.43,1.83 -0.65,5.28 -0.18,6.66 0.46,1.37 2.54,6.45 3.22,8.12 0.68,1.67 2.38,6.44 3.45,7.67 1.07,1.23 3.78,2.97 4.32,4.54 0.54,1.57 0.97,2.43 -2.55,6.06 -3.51,3.63 -10.93,11.02 -10.93,11.02 0,0 -3.03,3.64 -4.55,4.11 -1.52,0.47 -2.65,-0.5 -4.22,-0.07 -1.57,0.43 -1.13,0.71 -4.37,2.97 -3.24,2.26 -6.34,4.86 -7.85,5.91 -1.52,1.05 -6.12,5.09 -7.03,6.38 -0.91,1.29 -2.72,3.62 -3.26,5.13 -0.53,1.51 -2.36,2.99 -4.29,3.79 -1.94,0.81 -6.27,1.5 -6.92,1.79 -0.64,0.29 -4.8,2.53 -6.14,2.98 -1.34,0.45 -2.78,1.06 -4.21,0.77 -1.43,-0.29 -4.26,-1.42 -5.4,-1.96 -1.14,-0.53 -3.85,-1.85 -5.5,-1.72 -1.66,0.12 -3.52,0.59 -5.06,1.91 -1.54,1.32 -3.04,2.34 -3.16,3.45 -0.12,1.11 0.2,4.59 0.34,5.64 0.14,1.05 0.28,1.31 0.2,2.08 -0.09,0.77 -1.24,4.38 -1.47,5.14 -0.23,0.76 -1.57,3.12 -2.33,3.94 -0.77,0.82 -3.18,3.21 -4.85,3.65 -1.68,0.44 -3.95,1.03 -5.83,0.85 -1.87,-0.18 -7.6,-1.14 -9.51,-1.14 -1.91,0 -8.01,0.67 -10.16,1.14 -2.15,0.47 -6.41,1.93 -7.36,2.71 -0.95,0.78 -6.12,6.31 -6.49,6.73 -0.38,0.43 -4.79,5.39 -5.17,5.86 -0.38,0.47 -1.16,1.51 -1.62,2.17 -0.46,0.66 -1.26,1.5 -1.69,1.76 -0.43,0.26 -2.62,1.5 -4.01,1.42 -1.39,-0.07 -4.88,-0.84 -6.13,-1.19 -1.25,-0.35 -4.23,-1.07 -5.03,-1.23 -0.8,-0.16 -4.78,-1.18 -5.26,-1.62 -0.47,-0.44 -3.81,-3.52 -4.54,-4.2 -0.73,-0.68 -4.9,-5.96 -5.52,-6.69 -0.62,-0.73 -3.98,-4.51 -4.59,-5.82 -0.61,-1.31 -1.5,-3.55 -2.07,-4.39 -0.57,-0.84 -1.56,-2.16 -3.83,-3.51 -2.27,-1.35 -5.68,-3.47 -6.45,-4.26 -0.77,-0.8 -3.85,-3.04 -4.02,-3.76 -0.17,-0.72 -0.23,-3.23 -0.83,-4.2 -0.6,-0.97 -1.2,-1.85 -2.66,-1.93 -1.46,-0.08 -11.19,-0.35 -12.81,-0.02 -1.63,0.33 -4.83,0.54 -5.72,0.14 -0.89,-0.39 -8.16,-3.41 -9.49,-3.92 -1.33,-0.51 -13.43,-5.15 -14.87,-5.74 -1.44,-0.6 -6.58,-2.39 -8.52,-2.76 -1.93,-0.37 -6.82,-1.26 -8.71,-1.88 -1.89,-0.62 -5.68,-2.82 -7.46,-2.85 -1.78,-0.03 -11.22,-0.53 -13.85,-0.75 -2.63,-0.22 -13.77,-0.47 -14.31,-0.43 -0.53,0.04 -2.79,0.42 -3.96,0.59 -1.17,0.17 -6.08,1.73 -7.84,1.7 -1.76,-0.03 -6.54,0.27 -7.66,-0.18 -1.12,-0.45 -5.99,-2.34 -7.94,-2.81 -1.95,-0.47 -5.6,-1.22 -7.44,-0.91 -1.84,0.31 -6.42,1.9 -7.74,2.84 -1.32,0.95 -6.38,4.36 -7.61,4.98 -1.23,0.62 -2.32,1.53 -4.77,1.11 -2.46,-0.42 -5.42,-2.19 -7.24,-2.57 -1.82,-0.38 -8.33,-1.4 -9.9,-1.59 -1.57,-0.19 -9.47,-1.65 -10.38,-1.97 -0.92,-0.32 -4.01,-2.08 -5.02,-2.39 -1,-0.31 -3.95,-1.41 -5.8,-1.15 -1.85,0.26 -5.3,0.76 -7.2,2.19 -1.91,1.44 -5.66,4.94 -5.96,5.45 -0.31,0.51 -0.36,1.42 -1.8,2.09 -1.44,0.67 -4.86,1.01 -7.65,0.22 -2.79,-0.8 -6.6,-2.69 -7.71,-3.45 -1.11,-0.76 -6.95,-4.88 -7.86,-5.41 -0.91,-0.53 -3.26,-2.06 -4.88,-2.82 -1.62,-0.76 -11.26,-6.01 -12.27,-6.44 -1.01,-0.43 -4.27,-1.27 -5.33,-2.06 -1.06,-0.78 -7.39,-4.45 -8.29,-4.94 -0.91,-0.49 -5.29,-2.38 -7.69,-2.25 -2.4,0.13 -4.73,0.56 -7.25,1.81 -2.52,1.25 -8.93,5.21 -8.93,5.21 0,0 -5.06,2.33 -6.33,2.77 -1.27,0.44 -8.71,2.45 -9.03,2.52 -0.32,0.07 -8.11,1.6 -9.17,1.79 -1.07,0.19 -6.56,1.15 -8.29,1.27 -1.73,0.12 -3.9,-0.01 -5.12,-0.28 -1.22,-0.27 -8.56,-2.38 -9.56,-2.67 -1,-0.29 -3.31,-1.06 -5.07,-1.03 -1.77,0.03 -13.91,0.65 -13.91,0.65l-7.39 -0.23c0,0 -4.79,-1.07 -6.52,-2.15 -1.73,-1.07 -7.7,-5.67 -8.83,-6.58 -1.13,-0.92 -4.64,-3.75 -5.99,-4.1 -1.35,-0.35 -2.44,-0.84 -4.64,-0.6 -2.2,0.24 -4.6,0.69 -6.22,1.36 -1.61,0.67 -3.56,1.74 -5.63,1.74 -2.07,-0 -6.34,-0.53 -8.28,-1.4 -1.94,-0.86 -5.02,-1.98 -6.62,-3.75 -1.6,-1.78 -3.89,-5.42 -5.36,-6.42 -1.48,-0.99 -3.19,-1.76 -5.53,-2.06 -2.34,-0.3 -9.08,-1.97 -11.15,-2.81 -2.07,-0.85 -3.71,-2.78 -6.01,-3.71 -2.3,-0.93 -11.13,-3.51 -11.92,-3.73 -0.79,-0.22 -5.03,-2.57 -7.04,-2.24 -2.01,0.32 -3.75,1.57 -5.73,3.44 -1.98,1.88 -4,3.54 -5.97,4.32 -1.98,0.78 -4.93,3.51 -7.57,2.92 -2.64,-0.59 -4.98,-1.59 -6.35,-3.6 -1.36,-2.01 -2.09,-3.53 -1.8,-4.8 0.29,-1.27 2.26,-5.46 2.49,-6.58 0.22,-1.12 2.01,-4.18 2.27,-6.15 0.27,-1.97 0.69,-9.43 0.83,-10.76 0.14,-1.33 0.87,-6.55 1.04,-7.84 0.16,-1.29 0.76,-9.38 0.61,-10.94 -0.15,-1.56 -1.58,-9.47 -2.01,-11.43 -0.42,-1.95 -2.67,-6.3 -3.29,-6.74 -0.62,-0.44 -3.1,-2.17 -5.46,-1.56 -2.36,0.61 -10.82,3.86 -11.83,4.29 -1.01,0.43 -5.57,2.16 -6.67,2.43 -1.09,0.27 -3.49,0.67 -4.67,0.1 -1.18,-0.57 -2.01,-1.65 -2.89,-1.39 -0.88,0.27 -1.57,0.75 -2.09,2.37 -0.51,1.63 -1.11,3.86 -1.64,4.44 -0.54,0.58 -4.07,3.25 -4.83,3.87 -0.76,0.62 -2.86,5 -3.15,6.03 -0.29,1.03 -0.91,3.35 -1.47,4.19 -0.57,0.83 -4.38,2.95 -5.49,3.65 -1.11,0.7 -1.94,1.61 -3.04,2.11 -1.1,0.5 -3.03,1.09 -4.62,0.83 -1.59,-0.27 -5.16,-1.4 -6.08,-1.8 -0.92,-0.4 -3.21,-1.61 -4.51,-1.52 -1.31,0.09 -2.57,0.54 -4.71,1.87 -2.15,1.32 -6.41,3.71 -7.43,4.22 -1.02,0.51 -4.86,1.03 -6.46,0.84 -1.6,-0.19 -6.07,-1.11 -6.97,-1.66 -0.89,-0.55 -1.76,-1.24 -1.45,-2.21 0.31,-0.97 0.8,-2.44 1.71,-3.25 0.91,-0.81 1.39,-2.16 1.38,-2.98 -0.01,-0.82 -1.29,-2.9 -1.88,-3.55 -0.59,-0.65 -1.76,-1.53 -2.64,-0.56 -0.89,0.98 -3.31,3.11 -4.5,3.21 -1.19,0.1 -4.85,-0.46 -5.18,-0.95 -0.33,-0.49 -0.48,-1.09 -0.25,-1.67 0.23,-0.58 2.26,-5.02 2.37,-5.45 0.1,-0.43 0.54,-2.26 0.54,-3.11 0,-0.84 0.37,-2.45 -0.62,-2.35 -1,0.1 -3.44,1.56 -4.19,2.35 -0.75,0.79 -2.33,1.78 -2.77,2.02 -0.44,0.24 -1.84,0.82 -2.32,0.54 -0.47,-0.29 -1.19,-1.57 -1.16,-2.29 0.04,-0.72 0.57,-3.59 0.69,-3.99 0.12,-0.4 1.39,-3.6 1.53,-4.22 0.14,-0.61 0.09,-3.04 0.38,-3.81 0.3,-0.77 0.35,-1.98 0.73,-2.27 0.38,-0.3 0.97,-1.14 1.98,-0.45 1.01,0.7 1.77,0.65 2.34,0.67 0.58,0.02 3.29,-0.04 3.09,-1.39 -0.2,-1.35 -1.11,-2.56 -2.37,-3.24 -1.25,-0.68 -5.18,-2.9 -5.81,-3.98 -0.64,-1.08 -0.93,-3 -0.71,-3.72 0.23,-0.72 0.29,-1.75 1.07,-2.16 0.78,-0.41 6.44,-1.2 8.15,-1.58 1.71,-0.39 3.45,-0.09 3.74,-1.48 0.3,-1.39 1.37,-5.34 1.09,-5.7 -0.28,-0.36 -1.83,-2.74 -2.43,-3.54 -0.6,-0.8 -2.09,-4.09 -2.58,-4.7 -0.48,-0.62 -1.67,-1.79 -2.56,-1.98 -0.89,-0.19 -3.17,0.21 -4.05,0.52 -0.88,0.32 -2.87,0.81 -4.15,0.73 -1.28,-0.09 -3.16,-1.25 -3.29,-2.02 -0.13,-0.77 -0.19,-2.64 -0.47,-3.56 -0.29,-0.92 -0.65,-1.85 -1.26,-2.42 -0.61,-0.58 -2.77,-1.06 -3.25,-1.76 -0.47,-0.69 -0.9,-1.35 -0.47,-1.88 0.43,-0.54 5.71,-3.72 5.71,-3.72l7.69 -4.32c0,0 5.24,-2.15 6.47,-2.2 1.22,-0.04 3.04,0.25 5.42,0.69 2.38,0.44 4.85,1.3 5.86,1.13 1.01,-0.17 2.31,-0.82 2.85,-1.76 0.54,-0.94 1.85,-4.87 2,-5.78 0.15,-0.92 1.11,-6.58 1.11,-8.11 0,-1.53 0.17,-3.54 0.78,-4.71 0.62,-1.17 2.23,-3.22 2.59,-3.75 0.36,-0.52 3.2,-4.97 3.58,-5.64 0.38,-0.67 1.71,-2.56 1.9,-3.73 0.19,-1.17 -0.08,-2.06 -0.51,-4.34 -0.42,-2.28 -1.78,-6.09 -2.2,-7.6 -0.42,-1.51 -1.04,-2.48 -0.18,-3.35 0.86,-0.87 2.66,-2.12 3.27,-2.85 0.61,-0.73 1.41,-1.7 1.4,-2.44 -0.01,-0.74 -0.19,-2.63 -1.18,-3.27 -1,-0.64 -7.73,-6.67 -8.28,-7.23 -0.55,-0.56 -4.58,-5.2 -4.91,-5.78 -0.33,-0.58 -1,-3.45 -1.99,-6.24 -0.98,-2.79 -2.01,-6.45 -2.38,-7.88 -0.37,-1.43 -1.19,-5.05 -1.19,-6.67 0,-1.63 1.01,-4.3 1.46,-4.9 0.45,-0.59 1.61,-2.86 5.31,-3.44 3.7,-0.58 5.93,-0.33 6.91,3.46 0.99,3.78 1.4,7.82 3.21,7.4 1.81,-0.41 7.65,-5.76 9.71,-7.73 2.06,-1.98 5.43,-7.57 7.16,-9.38 1.73,-1.81 4.94,-7.16 7.49,-6.91 2.55,0.25 8.31,2.39 12.01,4.03 3.7,1.65 7.16,4.2 9.38,6.66 2.22,2.47 6.83,3.7 12.92,5.6 6.09,1.89 14.4,7.65 18.02,9.3 3.62,1.65 7.57,6.83 10.29,6.26 2.71,-0.58 6.34,-1.23 6.99,-3.87 0.66,-2.63 1.48,-9.3 3.37,-13.17 1.89,-3.87 3.63,-6.92 4.94,-11.19 1.32,-4.28 6.91,-9.71 9.05,-13.66 2.14,-3.95 9.54,-7.08 11.68,-9.38 2.14,-2.3 4.28,-4.77 6.42,-2.3 2.14,2.47 8.89,14.81 9.87,18.43 0.99,3.62 10.2,8.89 12.84,9.38 2.63,0.49 12.18,2.14 15.63,2.14 3.46,0 7.24,-1.65 9.22,0.66 1.98,2.3 4.44,13.82 6.58,17.61 2.14,3.79 3.95,8.06 6.09,7.08 2.14,-0.99 3.78,2.3 7.57,-0.99 3.79,-3.29 6.42,-7.24 10.53,-10.04 4.11,-2.8 18.43,-9.05 22.05,-12.34 3.62,-3.29 9.54,-6.75 12.67,-6.09 3.13,0.66 7.24,1.81 10.86,4.11 3.62,2.3 4.77,5.43 8.56,4.77 3.78,-0.66 3.29,-3.29 6.91,1.15 3.62,4.44 7.57,14.98 9.88,16.62 2.3,1.64 8.39,0.82 7.08,4.28 -1.32,3.46 -8.72,15.63 -10.04,19.09 -1.32,3.46 -5.1,10.2 -6.42,19.42 -1.32,9.22 -0.99,14.98 -0.17,18.6 0.82,3.62 3.14,9.34 3.96,10.61 0.82,1.28 7.9,-0.29 9.96,-0.74 2.06,-0.45 12.75,0.25 15.02,0.99 2.26,0.74 10.08,2.59 12.71,3.87 2.63,1.28 9.22,5.47 12.59,6.95 3.37,1.48 12.96,6.83 14.4,8.35 1.44,1.52 11.89,9.01 13.5,9.38 1.6,0.37 13.21,6.13 14.52,7.74 1.32,1.6 6.29,4.52 5.47,6.5 -0.82,1.98 -3.62,4.36 -2.39,7.74 1.23,3.37 5.02,9.22 6.99,10.61 1.98,1.4 10.37,2.3 11.44,4.53 1.07,2.22 4.69,4.94 6.75,4.94 2.06,0 3.95,1.4 6.17,4.11 2.22,2.72 4.44,3.46 6.83,5.27 2.39,1.81 9.38,4.36 13.91,5.76 4.52,1.4 9.63,3.66 10.45,5.96 0.82,2.3 2.59,12.55 2.43,14.44 -0.16,1.89 -0.33,4.28 3.78,5.84 4.11,1.56 7.65,-0.58 9.05,1.56 1.4,2.14 5.84,7.74 8.15,9.13 2.3,1.4 13.58,5.35 16.62,7 3.04,1.65 14.24,8.56 15.47,10.04 1.23,1.48 12.01,12.92 15.63,14.48 3.62,1.56 17.41,8.43 19.5,9.3 2.1,0.86 6.87,3.58 7.36,5.47 0.49,1.89 1.64,5.1 5.68,6.17 4.03,1.07 12.59,0.9 14.32,-0.08 1.73,-0.99 5.84,-5.6 7.82,-7.9 1.98,-2.3 3.7,-4.53 5.43,-4.53 1.73,0 6.83,2.06 9.13,3.21 2.3,1.15 4.69,2.3 7.49,1.48 2.8,-0.82 8.89,-3.13 13.82,-5.92 4.94,-2.8 8.56,-6.75 10.53,-8.56 1.97,-1.81 9.92,-1.89 11.73,-3.46 1.81,-1.56 7,-0.99 9.54,-3.17 2.55,-2.18 2.88,-11.03 3.29,-12.88 0.41,-1.85 2.14,-6.42 4.65,-7.82 2.51,-1.4 6.34,-2.63 8.72,-2.06 2.38,0.58 3.99,2.59 7.4,0.33 3.42,-2.26 7.49,-7.98 7.74,-9.79 0.25,-1.81 2.26,-10.41 3.54,-12.34 1.28,-1.93 16.96,-18.16 16.96,-18.16z"/>
   <path id="dosquebradas" class="fil0 str0" d="M1003.37 1133.61c0.99,-3.46 2.22,-6.75 2.96,-8.23 0.74,-1.48 4.12,-3.95 4.2,-7.16 0.08,-3.21 0.49,-7.49 -1.24,-8.64 -1.73,-1.15 -8.64,-2.39 -7.24,-5.51 1.4,-3.13 2.22,-3.87 3.04,-7.32 0.82,-3.46 1.89,-3.7 2.38,-6.01 0.49,-2.3 -1.89,-8.14 -3.21,-11.27 -1.32,-3.13 -5.76,-9.22 -7.57,-14.07 -1.81,-4.86 -9.05,-16.13 -9.63,-18.68 -0.58,-2.55 -1.07,-5.1 -1.73,-8.39 -0.66,-3.29 -1.89,-6.66 -3.62,-8.15 -1.73,-1.48 -3.37,-4.61 -5.59,-5.92 -2.22,-1.32 -7.74,-2.88 -10.45,-2.3 -2.72,0.58 -7.57,0 -8.31,1.32 -0.74,1.32 -2.63,4.69 -4.11,5.18 -1.48,0.5 -3.21,0.5 -6.83,0.5 -3.62,0 -6.75,1.98 -11.19,0.58 -4.44,-1.4 -7.74,-4.69 -10.12,-7.16 -2.39,-2.47 -3.95,-5.18 -6.25,-3.29 -2.3,1.89 -14.32,12.43 -19.25,21.23 -4.94,8.8 -10.59,17.87 -10.59,17.87l-6.95 16.11 -1.89 8.16 -0.89 10.52c0,0 0.35,6.29 0.54,7.19 0.18,0.89 1.68,5.91 2.33,7.51 0.65,1.6 1.12,3.61 1.81,3.99 0.69,0.38 3.5,0.45 4.95,0.22 1.45,-0.24 4.86,-1.03 5.92,-1.06 1.06,-0.03 9.44,0.39 9.44,0.39 0,0 13.89,3.25 15.33,3.78 1.44,0.53 10.65,5.71 11.79,6.31 1.14,0.61 9.84,5.07 9.84,5.07 0,0 12.92,9.02 13.93,9.73 1.01,0.71 7.28,4.4 8.68,5.03 1.4,0.64 10.71,5.49 11.46,6.01 0.75,0.52 5.09,5.82 7.48,5.82 2.39,0 8.89,-1.07 12.1,-3.62 3.21,-2.55 7.08,-5.68 7.49,-8.8 0.41,-3.13 0.99,-6.91 0.99,-6.91z"/>
   <path id="santarosa_x0020_de_x0020_cabal" class="fil0 str0" d="M1260.53 1038.72c-0.59,-2.39 -1.35,-8.39 -1.45,-10.28 -0.1,-1.89 -0.04,-3.18 -0.2,-5.6 -0.16,-2.42 -0.49,-4.1 -1.48,-4.87 -0.98,-0.77 -4.75,-2.69 -6.97,-2.77 -2.22,-0.08 -5.45,1.04 -9.64,0.39 -4.19,-0.65 -6.23,-2.42 -7.49,-3.8 -1.26,-1.38 -2.76,-3.41 -3.12,-5.81 -0.36,-2.4 -0.62,-7.36 -0.79,-8.57 -0.17,-1.21 -0.78,-3.11 -1.49,-4 -0.71,-0.89 -4.41,-1.51 -6.25,-2.98 -1.84,-1.47 -2.1,-1.62 -2.8,-4.42 -0.7,-2.8 -0.92,-5.59 -0.52,-6.73 0.4,-1.14 1.14,-2.07 0.67,-3.35 -0.46,-1.27 -2.63,-2.55 -4.16,-3.13 -1.53,-0.58 -9.6,-2.93 -9.6,-2.93 0,0 -4.74,-1.35 -5.78,-1.83 -1.04,-0.49 -6.14,-3.3 -6.96,-3.94 -0.82,-0.64 -4.28,-0.98 -5.43,-0.98 -1.15,-0.01 -15.8,0.53 -15.8,0.53 0,0 -5.92,0.61 -7.67,1.01 -1.75,0.4 -3.02,0.76 -3.66,1.5 -0.64,0.74 -2.22,2.9 -4.25,3.89 -2.03,1 -7.19,2.63 -7.98,2.79 -0.78,0.16 -6.67,1.48 -8,1.26 -1.33,-0.22 -3,-0.58 -3.6,-1.78 -0.6,-1.2 -2.38,-3.63 -2.76,-5.46 -0.38,-1.83 -0.16,-3.21 -0.53,-4.64 -0.36,-1.43 -0.89,-3.73 -2.5,-3.86 -1.61,-0.13 -2.83,-0.87 -4.86,0.86 -2.02,1.74 -2.79,3.07 -4.5,3.47 -1.71,0.4 -2.99,1.83 -7,-0.22 -4.01,-2.05 -6.26,-4.21 -7.2,-7.55 -0.95,-3.34 -1.09,-5.05 -1.51,-6.29 -0.42,-1.24 -0.56,-1.92 -1.86,-2.65 -1.3,-0.74 -3.97,-0.4 -4.73,-0.9 -0.77,-0.5 -2.01,-0.32 -2.82,-2.15 -0.82,-1.83 -1.33,-3.68 -2.26,-3.68 -0.93,0 -1.44,0.41 -4.09,1.45 -2.65,1.04 -5.09,1.91 -7.64,1.7 -2.55,-0.21 -5.41,-1.35 -6.27,-1.83 -0.85,-0.48 -4.55,0.02 -5.85,0.91 -1.3,0.89 -3.47,3.41 -3.89,4.27 -0.41,0.86 -2.77,6.12 -3.24,7 -0.47,0.88 -2.18,3.6 -2.97,4.09 -0.79,0.49 -1.3,1.72 -2.25,2.01 -0.96,0.28 -2.06,0.19 -2.74,-0.39 -0.67,-0.58 -4.76,-2.87 -5.67,-3.46 -0.91,-0.59 -8.47,-3.15 -8.47,-3.15 0,0 -3.12,-1.42 -4.06,-1.46 -0.94,-0.04 -2.71,0.25 -4.13,0.57 -1.42,0.32 -4.97,0.76 -5.69,0.58 -0.72,-0.18 -3.02,-0.13 -2.88,-2.68 0.13,-2.55 0.86,-10.74 0.83,-12.39 -0.03,-1.65 -0.29,-7.77 -0.5,-9.22 -0.21,-1.44 -1.61,-6.87 -1.97,-7.94 -0.36,-1.07 -1.11,-4.61 -1.88,-6.16 -0.77,-1.56 -3.27,-4.32 -4.06,-6.07 -0.79,-1.76 -1.21,-4.75 -1.42,-6.77 -0.21,-2.02 -1.57,-3.51 -3.05,-4.11 -1.48,-0.61 -10.76,-2.23 -10.76,-2.23 0,0 -4.99,-0.97 -6.01,-0.76 -1.03,0.21 -3.64,1.27 -3.7,1.9 -0.06,0.63 -0.13,1.08 -0.37,1.91 -0.23,0.82 -3.49,3.55 -3.96,3.92 -0.48,0.37 -1.92,1.52 -2.45,2.53 -0.52,1.01 -3.14,5.46 -4.03,5.96 -0.9,0.5 -3.09,2.53 -4.55,3.14 -1.46,0.6 -2.34,0.79 -2.65,1.79 -0.3,1 -0.94,6.12 -0.94,6.12 0,0 -0.24,3.74 -0.55,4.62 -0.32,0.87 -2.91,5.34 -3.44,5.96 -0.53,0.61 -2.89,3.01 -4.89,3.45 -1.99,0.43 -4.01,1.12 -6.02,1.18 -2.01,0.06 -6.46,-0.65 -7.04,-0.81 -0.58,-0.16 -6.03,-1.66 -7.2,-1.83 -1.17,-0.17 -3.82,-0.34 -5.17,0.06 -1.35,0.4 -3.81,1.55 -5.38,1.86 -1.57,0.31 -6.11,0.37 -7.71,0.32 -1.6,-0.04 -5.7,-0.95 -7.43,-0.91 -1.73,0.04 -6.74,0.62 -8.48,0.45 -1.74,-0.17 -2.62,0.58 -4.87,-2.08 -2.25,-2.66 -6.62,-7.59 -7.46,-8.39 -0.84,-0.8 -2.38,-2.22 -3.14,-2.64 -0.76,-0.42 -3.66,-1.26 -4.75,-1.62 -1.09,-0.36 -3.54,-1.73 -4.79,0.84 -1.25,2.57 -2.06,6.83 -2.45,8.29 -0.39,1.46 -2.33,12.32 -1.75,14.17 0.58,1.85 4.56,8.97 5.31,11.03 0.74,2.06 2.14,7.86 3.62,9.42 1.48,1.56 8.89,5.47 9.79,7.69 0.9,2.22 5.64,10.29 8.52,11.93 2.88,1.64 14.61,9.21 15.59,10.65 0.99,1.44 2.92,2.39 2.76,4.86 -0.16,2.47 -2.3,6.42 -2.72,7.94 -0.41,1.52 -2.39,7.49 -1.98,8.97 0.41,1.48 2.4,4.19 3.22,5.1 0.82,0.91 6.83,6.31 7.48,6.7 0.66,0.39 4.46,2.27 6.25,2.27 1.78,0 4.29,-0.42 5.7,-0.66 1.41,-0.25 4.52,-0.37 5.54,-0.39 1.02,-0.02 3.46,0.14 4.41,-0.49 0.95,-0.62 1.43,-1.05 1.9,-1.69 0.47,-0.63 1.56,-2.34 1.89,-2.92 0.33,-0.58 1.09,-1.31 2.53,-1.42 1.44,-0.11 4.59,-0.21 5.6,-0.39 1.01,-0.17 2.95,-0.27 4.41,0.04 1.46,0.3 4.79,1.29 5.53,1.66 0.74,0.36 3.03,2.23 3.48,2.79 0.46,0.56 3.64,4.14 3.86,4.42 0.22,0.28 2.01,3.93 2.24,4.76 0.24,0.83 1.04,4.64 1.49,6.81 0.45,2.17 0.81,4.59 2.2,7.16 1.39,2.56 6.67,12.13 6.67,12.13 0,0 2.34,5.33 2.96,6.52 0.62,1.19 5.06,8.79 5.25,9.13 0.19,0.34 3.71,9 3.96,10.26 0.24,1.26 0.49,2.86 0.01,3.92 -0.48,1.06 -1.82,3.86 -2.01,4.63 -0.19,0.77 -1.34,4.11 -1.64,4.7 -0.3,0.59 -1.91,3.27 -1.71,3.99 0.2,0.72 1.45,2.13 2.82,2.7 1.37,0.57 3.75,1 4.33,1.76 0.58,0.77 1.66,0.94 1.6,4.31 -0.05,3.37 -0.16,5.64 -0.48,6.33 -0.32,0.69 -2.71,3.72 -3.25,4.52 -0.55,0.8 -1.94,4.78 -2.14,5.48 -0.2,0.7 -2.17,7.73 -2.22,9.4 -0.04,1.67 -2.93,5.91 -4.31,7.11 -1.38,1.2 -2.98,2.96 -5.03,3.85 -2.06,0.89 -3.84,1.56 -5.48,1.88 -1.64,0.32 -4.06,0.85 -5.87,4.39 -1.81,3.54 -3.36,3.55 -1.6,6.87 1.75,3.32 3.45,8.29 5.39,9.1 1.94,0.81 3.96,1.88 6.26,2.09 2.3,0.21 4.45,0.45 5.67,2.1 1.22,1.66 3.83,4.98 5.99,5.36 2.16,0.37 3.85,0.57 5.34,2.05 1.49,1.49 4.7,4.78 5.8,5.48 1.1,0.7 7.29,4.41 10.04,5.43 2.75,1.02 8.97,2.96 10.92,3.82 1.95,0.86 5.24,1.24 5.93,2.87 0.69,1.63 2.72,10.36 2.94,13.27 0.22,2.92 -0.66,5.93 0.87,6.62 1.53,0.69 6.7,2.78 8.19,2.73 1.49,-0.05 3,-0.27 3.63,0.56 0.63,0.83 5.02,6.35 5.55,6.9 0.52,0.55 9.19,5.96 11.9,6.41 2.71,0.46 12.96,6.34 14.27,7.17 1.32,0.82 7.61,4.94 8.24,5.52 0.63,0.58 9.73,9.93 10.94,11 1.2,1.07 7.19,4.88 10.47,6.47 3.29,1.59 10.26,5.03 12.7,6.14 2.44,1.11 6.27,3.01 7.46,4.24 1.18,1.23 1.63,3.26 2.57,4.59 0.93,1.33 2.88,3.4 5.52,3.77 2.64,0.36 10.14,0.67 11.8,0.2 1.67,-0.47 3.37,-1.5 6.43,-4.94 3.06,-3.44 4.52,-5.75 6.1,-6.77 1.57,-1.03 2.84,-1.44 5.47,-0.47 2.63,0.97 6.95,3.22 8.72,3.69 1.78,0.47 0.96,1.87 6.42,-0.23 5.46,-2.11 12.23,-5.41 12.23,-5.41 0,0 7.95,-6.08 9.03,-7.13 1.09,-1.05 1.75,-2.14 4.75,-2.73 3,-0.59 9.06,-2.68 10.06,-2.92 1,-0.24 5.03,-0.64 6.5,-1.52 1.47,-0.88 3.07,-1.76 3.76,-6.57 0.68,-4.81 1.18,-9.3 2.67,-11.52 1.49,-2.22 3.69,-4.73 7.2,-5.21 3.51,-0.48 4.28,0.09 6.84,0.55 2.56,0.46 4.54,0.04 5.91,-1.18 1.37,-1.22 5.36,-5.46 6.12,-7.32 0.77,-1.86 2.22,-8.43 2.73,-10.07 0.52,-1.64 1.44,-4.13 3.24,-6.11 1.8,-1.97 10.12,-10.79 10.12,-10.79l11.78 -10.26c0,0 5.63,-3.59 7.36,-4.51 1.73,-0.92 4.42,-1.73 6.46,-4.81 2.04,-3.08 8.86,-14.66 8.86,-14.66 0,0 4.15,-8.33 5.41,-9.65 1.26,-1.31 3.15,-3.13 4.55,-3.14 1.4,-0 3.77,0.42 5.47,1.64 1.7,1.21 5.36,4.31 6.08,4.88 0.73,0.57 1.06,1.91 4.14,1.5 3.08,-0.41 3.13,-0.52 5.16,-3.02 2.04,-2.5 4.57,-5.07 5.93,-6.11 1.36,-1.04 5.93,-4.28 7,-5.21 1.07,-0.93 6.93,-2.72 5.98,-4.15 -0.95,-1.44 -6.81,-0.79 -11.01,-2.9 -4.19,-2.11 -7.03,-4.06 -9.01,-5.3 -1.98,-1.24 -3.12,-2.07 -4.63,-2.31 -1.51,-0.24 -5.54,-0.11 -8.02,1.18 -2.48,1.29 -2.91,2.71 -6,1.66 -3.09,-1.05 -9.1,-5.24 -11.77,-6.72 -2.68,-1.48 -9.49,-5.45 -9.49,-5.45l-7.37 -4.53c0,0 -3.85,-2.83 -4.45,-5.8 -0.59,-2.97 -1.51,-11.65 -1.51,-11.65 0,0 -0.47,-5.28 -1.21,-6.57 -0.74,-1.29 -4.82,-4.44 -6.31,-5.89 -1.49,-1.44 -3.76,-3.69 -4.05,-7.35 -0.29,-3.66 0.34,-7.73 0.28,-10.78 -0.06,-3.04 0.2,-6.6 -1.28,-8.19 -1.47,-1.59 -6.29,-6.27 -8.76,-8.22 -2.47,-1.95 -3.6,-2.22 -5.18,-3.63 -1.58,-1.42 -1.92,-2.05 -2.54,-3.2 -0.62,-1.15 -4.24,-8.93 -4.24,-8.93z"/>
   <path id="marsella" class="fil0 str0" d="M876.44 869.23c-1.21,-3.49 -4.96,-11.67 -5.92,-13.46 -0.96,-1.79 -3.91,-7.09 -5.13,-9.29 -1.22,-2.19 -4.24,-7.81 -5.01,-9.9 -0.77,-2.09 -3.2,-10.38 -3.72,-11.86 -0.52,-1.47 -0.73,-2.23 -1.77,-3.32 -1.04,-1.09 -5.29,-7.52 -6.08,-9.47 -0.79,-1.95 -3.55,-8.88 -4.29,-10.86 -0.73,-1.98 -2.46,-7.08 -3.35,-8.55 -0.88,-1.47 -1.68,-3.26 -3.15,-3.14 -1.47,0.12 -6.4,2.12 -7.65,3.07 -1.25,0.95 -7.76,5.52 -8.58,7.7 -0.82,2.18 -2.42,10.49 -2.73,11.43 -0.31,0.95 -2.27,4.8 -2.73,5.45 -0.46,0.65 -2.2,2.53 -3.16,2.87 -0.96,0.34 -6.45,1.02 -8.17,2.08 -1.72,1.06 -4.86,4.45 -5.17,5.55 -0.31,1.09 -0.57,5.49 -0.29,6.28 0.27,0.78 2.59,4.41 2.87,4.82 0.28,0.42 0.99,1.49 0.95,2.53 -0.04,1.05 -1.01,2.33 -1.91,3.19 -0.9,0.86 -1.92,1.76 -3.53,1.25 -1.61,-0.51 -4.85,-2.65 -5.22,-3.17 -0.37,-0.52 -0.92,-1.79 -2.02,-1.75 -1.1,0.05 -1.71,-0.17 -2.14,1.06 -0.43,1.23 -1.32,7.3 -1.1,8.14 0.22,0.84 -0.33,3.06 -0.92,3.78 -0.59,0.72 -3.12,1.9 -3.07,3.38 0.04,1.48 0.69,3.92 1.59,4.83 0.9,0.9 3.26,2.93 3.02,3.95 -0.24,1.02 -0.12,2.02 -1.75,2.6 -1.63,0.58 -4.68,0.84 -4.92,2.14 -0.24,1.3 -0.5,5.24 -0.59,5.64 -0.09,0.39 -0.26,1.25 -1.36,1.77 -1.1,0.51 -5.95,3.42 -6.58,4.36 -0.63,0.95 -1.67,2.91 -1.05,6.07 0.62,3.16 0.51,4.59 -0.38,6.27 -0.88,1.68 -1.91,3.48 -2.27,4.31 -0.36,0.84 -1.23,4.1 -1.06,5.17 0.17,1.06 1.38,6.1 1.52,6.82 0.14,0.71 1.14,5.69 1.63,6.85 0.5,1.16 2.88,5 3.39,5.77 0.5,0.77 1.6,2.49 1.6,3.81 0,1.32 -0.2,5.1 -1.1,7.45 -0.91,2.34 -2.32,6.53 -2.63,7.51 -0.31,0.98 -1.08,2.83 -1.47,3.12 -0.39,0.29 -1.95,0.68 -4.54,0.11 -2.59,-0.57 -4.15,-0.98 -5.83,-0.23 -1.68,0.75 -4.63,3.42 -6.07,5.46 -1.44,2.04 -4.66,6.69 -5.22,7.38 -0.56,0.69 -1.48,1.86 -3.11,3.29 -1.63,1.43 -5.57,6.11 -6.81,8.75 -1.23,2.63 -2.3,3.13 -1.64,6.75 0.66,3.62 2.42,9.09 4.07,11.64 1.65,2.55 3.81,7.4 4.26,8.24 0.44,0.84 2.77,5.26 3.38,6.99 0.62,1.72 0.41,4.08 3.05,5.59 2.65,1.51 6.42,4.11 8.41,4.81 1.99,0.7 8.83,1.87 10.64,2.12 1.81,0.25 4.9,0.97 7.44,0.71 2.55,-0.27 2.97,-1.14 5.6,-0.49 2.62,0.65 3.29,0.32 4.47,3.68 1.18,3.35 4.33,13.37 5.28,15.08 0.94,1.72 2.83,4.85 3.66,6.13 0.83,1.28 1.43,1.28 2.03,1.07 0.6,-0.21 1.81,-0.26 2.81,0.02 1,0.28 2.29,0.9 3.77,-0.29 1.48,-1.19 7.35,-6.91 7.35,-6.91 0,0 4.2,-4.11 5.55,-4.74 1.35,-0.63 11.04,-5.64 11.04,-5.64 0,0 5.81,-3.07 6.99,-3.81 1.18,-0.74 3.54,-2.73 5.18,-3.89 1.64,-1.16 5.24,-3.37 6.74,-3.81 1.51,-0.44 3.77,-0.57 5.03,-0.26 1.27,0.32 6.59,2.09 7.98,2.88 1.39,0.8 5.27,3.6 6.15,4.43 0.88,0.83 1.49,1.14 2.69,1.24 1.2,0.09 2.78,-0.08 3.35,-0.41 0.58,-0.33 1.41,-0.97 1.83,-0.9 0.42,0.07 3.23,2.6 3.89,3.6 0.66,1 4.02,7.09 4.11,7.27 0.09,0.18 3.38,6.35 3.65,6.74 0.27,0.39 0.74,1.36 1.63,1.74 0.89,0.38 3.35,1.12 4.9,1.35 1.56,0.23 2.12,2.14 3.92,-0.14 1.8,-2.28 6.07,-8.03 6.07,-8.03 0,0 6.28,-6.81 7.01,-7.51 0.73,-0.71 4.88,-4.59 5.72,-5.31 0.84,-0.72 3.03,-1.48 3.35,-3.76 0.32,-2.28 1.18,-7.51 1.34,-8.02 0.15,-0.51 2.3,-5.88 2.66,-7.19 0.36,-1.31 0.78,-3.29 0.07,-4.29 -0.71,-1 -2.52,-3.71 -3.95,-4.5 -1.44,-0.79 -7.05,-4.62 -7.7,-5.03 -0.65,-0.42 -4.37,-2.8 -5.13,-3.25 -0.76,-0.46 -2.07,-1.3 -2.61,-1.87 -0.54,-0.57 -3.27,-4.03 -3.43,-4.39 -0.16,-0.36 -2.79,-4.51 -2.92,-4.89 -0.14,-0.37 -0.79,-1.76 -1.14,-2.15 -0.35,-0.39 -3.59,-3.02 -4.01,-3.34 -0.41,-0.32 -4.09,-2.73 -4.47,-3.03 -0.38,-0.31 -0.85,-0.54 -1.23,-1.29 -0.38,-0.75 -1.7,-3.77 -1.86,-4.28 -0.16,-0.51 -2.42,-7.73 -3.53,-8.94 -1.11,-1.21 -3.26,-6.08 -3.27,-7.18 -0,-1.1 0.51,-6.11 0.76,-7.63 0.25,-1.52 1.66,-8.46 2,-9.72 0.34,-1.25 1.33,-3.06 1.7,-4.81 0.37,-1.74 -0.17,-10.94 -0.34,-12.19 -0.17,-1.25 -1.46,-16.09 -1.46,-16.09 0,0 -0.47,-6.74 -0.59,-7.62 -0.12,-0.88 -0.68,-3.66 -0.93,-4.15 -0.25,-0.48 -1.73,-2.57 -2.12,-4.36 -0.39,-1.78 -2.25,-7.01 -2.25,-7.01z"/>
   <path id="la_x0020_virginia" class="fil0 str0" d="M737.91 977.39c-0.18,-1.08 -0.52,-2.26 -0.19,-3.34 0.34,-1.08 2.24,-4.81 2.84,-5.69 0.6,-0.88 2.33,-2.45 3.17,-4.17 0.84,-1.72 1.69,-1.56 -1.66,-2.42 -3.35,-0.86 -4.6,-1.89 -6.11,-2.84 -1.51,-0.95 -5.43,-4.17 -5.87,-4.68 -0.43,-0.51 -1.45,-1.93 -2.27,-2.18 -0.81,-0.25 -2.62,-0.03 -3.22,0.28 -0.6,0.31 -5.79,3.34 -7.18,4.14 -1.4,0.8 -3.9,2.81 -5.39,2.75 -1.49,-0.06 -5.83,-1.87 -6.44,-2 -0.61,-0.13 -8,0.65 -9.97,0.39 -1.98,-0.26 -4.04,-2.34 -6.55,-3.04 -2.5,-0.7 -2.27,-0.77 -3.66,-0.76 -1.4,0.01 -4.01,0.12 -5.15,-0.28 -1.14,-0.4 -4.7,-2.28 -6,-3.19 -1.3,-0.91 -2.01,-1.88 -3.82,-1.88 -1.81,0 -5.1,0.08 -5.84,1.89 -0.74,1.81 0.16,3.7 0.49,5.02 0.33,1.32 0.9,2.63 -0.41,3.87 -1.32,1.24 -2.8,3.78 -3.62,5.27 -0.82,1.48 -2.3,7.49 -2.22,9.3 0.08,1.81 0.58,3.46 -1.4,3.95 -1.97,0.49 -4.11,-0.17 -6.5,-0.08 -2.39,0.08 -2.06,-0.49 -4.86,-0.25 -2.8,0.25 -3.62,1.81 -5.92,2.14 -2.3,0.33 -4.77,2.22 -4.94,4.28 -0.16,2.06 1.15,5.1 1.23,6.83 0.08,1.73 -1.81,9.13 -1.81,10.7 0,1.56 -0.99,5.03 1.69,6.7 2.68,1.67 9.96,4.4 10.43,4.6 0.46,0.2 5.14,2.79 5.95,3.4 0.8,0.61 4.82,4.35 6.13,4.84 1.32,0.49 8.43,3.53 9.05,3.72 0.61,0.19 7.85,3.19 8.78,3.7 0.94,0.51 8.53,4.8 10.59,5.98 2.07,1.17 4.58,3.14 5.26,3.68 0.67,0.55 2.62,2.01 3.15,2.25 0.53,0.24 1.78,0.63 3.62,0.15 1.84,-0.49 3.93,-0.59 4.56,-1.65 0.63,-1.06 1.69,-5.23 2.26,-7.2 0.58,-1.98 0.76,-4.5 1.63,-6.86 0.87,-2.36 3.41,-6.99 3.81,-7.95 0.41,-0.97 1.56,-4.74 2.4,-6.18 0.84,-1.44 4.37,-6.28 5.08,-7.2 0.71,-0.92 6.06,-8.55 7.94,-9.46 1.87,-0.91 6.52,-4.05 7.12,-4.69 0.6,-0.64 3.71,-2.53 4.4,-3.1 0.7,-0.56 0.99,-1.51 0.45,-3.49 -0.54,-1.98 -1.03,-5.25 -1.03,-5.25z"/>
   <path id="balboa" class="fil0 str1" d="M493.44 943.91c-0.5,-4.69 -0.66,-6.5 -2.72,-8.06 -2.06,-1.56 -5.92,-4.12 -7.41,-6.75 -1.48,-2.63 -2.06,-5.35 -0.82,-6.42 1.23,-1.07 4.44,-1.4 6.75,-1.64 2.3,-0.25 5.1,-3.21 5.6,-5.27 0.49,-2.06 -0.41,-4.28 -0.74,-6.5 -0.33,-2.22 0.9,-3.29 3.37,-3.54 2.47,-0.25 9.96,0.66 12.67,0 2.72,-0.66 9.05,-4.03 11.11,-9.63 2.06,-5.6 3.7,-16.29 5.43,-19.67 1.73,-3.37 4.11,-5.68 7.74,-5.51 3.62,0.16 4.03,2.88 6.83,1.56 2.8,-1.32 9.13,-2.22 11.85,-2.14 2.72,0.08 7.08,0.99 8.64,2.72 1.56,1.73 3.62,5.27 3.7,8.31 0.08,3.04 -1.23,7.16 1.07,9.46 2.3,2.3 11.85,9.13 13.41,10.37 1.56,1.23 9.54,9.71 10.78,12.34 1.23,2.63 1.15,4.77 1.89,7.08 0.74,2.3 3.78,3.29 5.59,3.95 1.81,0.66 7.74,8.31 9.79,10.04 2.06,1.73 4.44,0.41 6.34,1.65 1.89,1.23 5.76,6.17 6.83,8.64 1.07,2.47 0.99,4.12 3.79,4.77 2.8,0.66 5.59,5.51 8.64,7.57 3.04,2.06 7.16,3.13 8.56,4.44 1.4,1.32 2.3,4.36 2.14,6.83 -0.16,2.47 0.21,7.72 -0.49,8.8 -0.7,1.09 -4.54,2.21 -5.66,2.94 -1.12,0.73 -1.66,0.76 -1.91,2.49 -0.25,1.73 -0.49,3.41 -0.13,5.94 0.36,2.53 -0.46,7.22 -0.73,8.53 -0.27,1.31 -0.65,6.03 -0.83,7.83 -0.19,1.8 -1.16,4.01 -2.63,5.7 -1.48,1.69 -6.14,7.55 -6.14,7.55l-4.22 5.8c0,0 -4.82,4.59 -5.58,5.23 -0.76,0.64 -2.3,1.93 -3.16,2.49 -0.86,0.57 -1.1,1.22 -1.93,1.06 -0.82,-0.16 -1.8,-1.43 -2.22,-3.23 -0.42,-1.8 -1.07,-5 -1.58,-5.77 -0.51,-0.77 -2.23,-2.46 -3.95,-2.09 -1.73,0.37 -3.54,-0.77 -5.61,1.45 -2.07,2.22 -1.95,1.8 -2.31,2.63 -0.36,0.82 -1.43,3.62 -1.16,5.41 0.27,1.8 0.41,2.85 0.27,4.12 -0.13,1.27 -3.73,3.17 -4.86,4.17 -1.12,0.99 -8.25,7.46 -8.85,8.13 -0.6,0.67 -3.04,3.64 -3.46,4.21 -0.41,0.57 -1.24,1.83 -2.02,2.43 -0.79,0.61 -1.55,2 -4.14,2.49 -2.59,0.48 -6.96,1.14 -8.48,1.12 -1.52,-0.02 -6.33,-0.55 -7.54,-0.96 -1.21,-0.41 -4.88,-1.23 -7.15,-1.52 -2.26,-0.29 -9.53,-1.43 -11.28,-1.66 -1.74,-0.23 -4.49,-0.7 -5.84,-0.6 -1.35,0.11 -4.28,0.89 -5.97,1.54 -1.69,0.65 -7.13,2.27 -8.67,2.14 -1.54,-0.13 -5.72,-0.84 -6.91,-1.67 -1.19,-0.82 -5.54,-4.13 -6.87,-5.22 -1.33,-1.09 -3.27,-3.74 -4.49,-5.39 -1.21,-1.65 -4.37,-4.57 -5.82,-7.05 -1.44,-2.49 -3.22,-6.42 -3.67,-8.28 -0.45,-1.86 -0.72,-4.58 -0.35,-5.67 0.37,-1.08 1.01,-1.56 1.2,-3.23 0.2,-1.67 0.28,-7.43 0.41,-8.4 0.13,-0.97 1.13,-6.59 1.37,-8.24 0.24,-1.66 1.06,-9.33 1.1,-10.15 0.05,-0.82 0.07,-8.32 -0.21,-9.22 -0.27,-0.9 -1.52,-2.42 -2.1,-3.47 -0.58,-1.05 -0.17,-2.08 -1.41,-4.79 -1.23,-2.71 -2.63,-3.17 -2.76,-6.09 -0.12,-2.92 0.47,-7.61 1.32,-8.78 0.84,-1.17 4.09,-6.65 5.04,-8.79 0.95,-2.14 1.52,-3.99 1.52,-4.77 0,-0.78 0.02,-3.78 0.02,-3.78z"/>
   <path id="la_x0020_celia" class="fil0 str1" d="M530.86 845.29c-1.48,-4.28 -2.88,-5.02 -3.04,-7.82 -0.16,-2.8 -0.58,-5.59 -2.14,-7.9 -1.56,-2.3 -3.37,-5.51 -5.68,-5.35 -2.3,0.16 -5.51,0.82 -8.89,2.22 -3.37,1.4 -6.34,3.13 -9.14,3.21 -2.8,0.08 -5.92,0.08 -7.57,-3.46 -1.65,-3.54 -3.87,-12.02 -6.58,-15.8 -2.71,-3.78 -5.84,-8.56 -8.14,-8.72 -2.3,-0.16 -16.95,-2.55 -20.24,-1.89 -3.29,0.66 -6.83,4.86 -9.79,7.98 -2.96,3.13 -6.91,7.65 -8.31,9.22 -1.4,1.56 -1.81,2.06 -5.02,1.98 -3.21,-0.08 -9.54,-3.62 -12.18,-4.36 -2.63,-0.74 -6.67,-1.24 -12.59,-1.73 -5.92,-0.49 -19.58,-1.07 -22.3,-2.3 -2.72,-1.23 -12.76,-12.59 -15.96,-15.14 -3.21,-2.55 -3.13,-4.61 -4.52,-3.62 -1.4,0.99 -1.07,4.2 -1.07,6.17 0,1.97 0.69,10.79 1.06,12.51 0.37,1.72 2.24,6.64 3.15,7.47 0.91,0.82 3.98,7.13 4.85,8.41 0.87,1.28 0.26,3.23 5.01,5.23 4.75,2 11.33,6.32 12.82,7.56 1.5,1.23 4.66,3.51 5.23,5.18 0.57,1.67 2.01,7.4 2.56,8.85 0.55,1.45 1.84,4.77 2.56,6.92 0.72,2.14 0.93,6.42 0.81,7.35 -0.12,0.93 -0.66,3.57 -0.17,4.77 0.49,1.2 5.86,9.37 6.65,10.73 0.79,1.35 8.45,17.48 9.18,19.35 0.73,1.87 2.64,10.52 3.36,12.38 0.72,1.86 3,13.41 3.75,15.12 0.75,1.71 3.41,10.8 5.81,12.91 2.4,2.11 9.15,6.38 11.69,8.6 2.55,2.21 9.12,9.05 10.93,10.45 1.81,1.4 7.57,5.43 9.57,6.87 2,1.44 9.52,7.18 9.52,7.18 0,0 3.85,3.59 5.56,3.75 1.72,0.17 4.53,0.02 5.55,0.28 1.02,0.26 2.81,1.01 1.99,-1.35 -0.82,-2.37 -2.94,-4.79 -3.26,-6.62 -0.32,-1.83 -0.12,-7 0.23,-8.34 0.34,-1.34 2.8,-4.56 3.42,-6.6 0.62,-2.04 4.16,-5.51 3.92,-10.43 -0.24,-4.92 0.35,-7.11 -1.17,-8.88 -1.52,-1.77 -7.66,-6.37 -8.53,-7.89 -0.86,-1.52 -2.54,-4.15 -1.88,-5.6 0.66,-1.45 1.64,-2.15 2.79,-2.39 1.14,-0.25 2.61,0.22 4.76,-0.72 2.15,-0.94 3.97,-1.98 4.72,-3.62 0.74,-1.63 1.08,-3.02 0.66,-4.9 -0.41,-1.89 -0.93,-4.56 -0.42,-5.2 0.5,-0.64 1.23,-1.66 3.86,-1.61 2.62,0.06 7.14,0.32 8.72,0.28 1.58,-0.04 5.64,-0.86 7.56,-2.21 1.92,-1.34 3.94,-2.65 5.13,-4.63 1.2,-1.98 4.68,-14.71 5.23,-16.83 0.55,-2.11 2.59,-7.48 3.49,-8.46 0.9,-0.98 1.57,-2.44 3.83,-2.68 2.26,-0.25 2.57,0.2 3.81,-0.46 1.23,-0.66 2.06,-1.73 0.9,-3.95 -1.15,-2.22 -1.81,-3.62 -2.72,-7.82 -0.9,-4.2 -1.89,-7.08 -2.22,-9.38 -0.33,-2.3 -1.07,-4.28 -1.07,-4.28z"/>
   <path id="santuario" class="fil0 str0" d="M349.84 687.54c1.32,-6.91 2.96,-13.82 3.46,-17.12 0.49,-3.29 2.3,-9.13 3.12,-15.22 0.82,-6.09 1.24,-11.11 2.63,-13.08 1.4,-1.97 5.43,1.24 7.65,2.39 2.22,1.15 7.24,3.21 9.05,3.7 1.81,0.49 9.22,8.39 11.27,10.78 2.06,2.39 3.78,6.42 5.18,6.5 1.4,0.08 4.77,0.82 6.34,2.55 1.56,1.73 5.27,4.28 7.08,2.22 1.81,-2.06 5.84,-6.25 8.72,-6.5 2.88,-0.25 6.5,3.29 10.37,1.98 3.87,-1.32 11.28,-5.84 13.99,-7.32 2.72,-1.48 9.3,-0.58 14.32,0.08 5.02,0.66 11.36,1.73 13.66,2.8 2.3,1.07 4.61,7.74 7.16,11.11 2.55,3.37 14.48,15.8 17.61,18.27 3.13,2.47 8.06,9.79 9.05,11.27 0.99,1.48 9.38,6.58 9.71,7.41 0.33,0.82 -0.25,4.52 0.49,7.08 0.74,2.55 0.33,5.18 2.72,5.18 2.39,0 3.46,-2.55 6.09,-1.32 2.63,1.23 13.74,10.78 16.54,10.28 2.8,-0.49 6.66,-2.8 9.63,-2.8 2.96,0 5.1,2.06 7.08,5.92 1.98,3.87 2.63,5.43 1.32,6.91 -1.32,1.48 -3.46,3.04 -3.21,5.76 0.25,2.72 -2.55,8.39 -2.96,11.11 -0.41,2.71 -2.88,7.49 -3.95,8.97 -1.07,1.48 -0.99,5.59 0.08,6.66 1.07,1.07 3.87,6.58 7.16,6.83 3.29,0.25 9.54,3.04 10.12,4.03 0.58,0.99 4.2,0.33 6.09,0.74 1.89,0.41 4.77,3.54 6.5,5.43 1.73,1.89 2.96,6.01 5.84,5.84 2.88,-0.16 7.37,1.09 8.53,2.86 1.16,1.77 5.28,5.71 6.89,7.78 1.62,2.07 2.89,5.54 4.97,7.61 2.08,2.06 7.65,3.3 9.19,5.06 1.54,1.76 3.9,7.04 3.99,8.7 0.09,1.66 -1.18,7.96 -1.58,8.98 -0.4,1.02 -2.89,8.87 -2.92,10.11 -0.03,1.24 2.08,8.48 2.31,9.92 0.23,1.45 0.96,8.93 2.03,10.95 1.07,2.01 5.86,9.38 6.52,11.24 0.65,1.86 2.22,10.37 2.49,11.52 0.27,1.15 2.64,6.29 3.1,7.07 0.46,0.78 2.46,5.3 2.51,6.46 0.05,1.16 1.52,6.67 2.61,7.56 1.09,0.89 6.45,2.27 8.59,2.67 2.14,0.4 4.09,1.05 4.72,2.11 0.64,1.06 0.64,2.64 1.2,3.89 0.56,1.25 2.79,2.96 4.9,4.05 2.11,1.1 8.87,5.4 9.96,5.92 1.09,0.53 5.61,4.35 6.23,4.93 0.62,0.58 2.72,2.21 2.7,4.02 -0.02,1.81 -0.07,2.42 -0.4,3.21 -0.34,0.79 -0.11,2.4 0.39,3 0.5,0.6 1.02,0.46 1.04,1.67 0.03,1.2 0.65,1.04 -0.92,1.24 -1.56,0.2 -3.39,0.4 -3.85,1.31 -0.46,0.92 -0.79,2.33 -0.31,3.94 0.47,1.61 1.05,3.93 0.75,4.48 -0.3,0.56 -3.65,5.44 -3.89,6.14 -0.25,0.7 -1.77,4.03 -2.08,5.58 -0.31,1.55 -0.51,3.95 -0.48,4.94 0.03,1 0.07,1.98 -0.47,2.33 -0.54,0.35 -2.55,0.74 -3.4,0.68 -0.85,-0.06 -3.95,-0.12 -5.03,-0.25 -1.08,-0.13 -2.11,-0.4 -3.28,-0.29 -1.16,0.11 -1.89,0.58 -2.3,-1.56 -0.41,-2.14 0.26,-6.29 -0.14,-8.08 -0.4,-1.79 -1.18,-5.6 -1.79,-6.11 -0.62,-0.51 -5.66,-2.41 -7.1,-3.21 -1.44,-0.8 -4.94,-4.1 -5.86,-5.09 -0.91,-0.98 -2.66,-2.83 -3.5,-3.22 -0.85,-0.39 -2.28,-0.37 -2.82,-1.05 -0.54,-0.68 -1.52,-2.95 -1.94,-3.86 -0.42,-0.91 -2.92,-5 -3.93,-6.14 -1.01,-1.13 -2.57,-2.75 -3.41,-3.03 -0.83,-0.27 -2.53,-0.18 -3.76,-0.51 -1.23,-0.33 -3.2,-1.71 -3.83,-2.56 -0.63,-0.86 -5.75,-6.46 -6.52,-7.16 -0.77,-0.69 -1.55,-1.06 -2.32,-1.5 -0.77,-0.43 -3.62,-1.67 -4.29,-2.76 -0.67,-1.09 -1.8,-6.22 -2.05,-6.87 -0.25,-0.65 -3.5,-5.4 -5.42,-7.5 -1.92,-2.1 -14.36,-12.37 -15.15,-12.98 -0.79,-0.61 -5.22,-4.19 -5.22,-5.4 0,-1.21 0.25,-7.78 -0.19,-9.21 -0.43,-1.43 -2.34,-5.46 -3.24,-6.3 -0.89,-0.84 -3.44,-2.36 -4.88,-2.64 -1.44,-0.29 -7.4,-0.29 -10,0.24 -2.6,0.53 -4.34,1.49 -5.83,1.57 -1.49,0.08 -2.8,-0.01 -3.71,-1.11 -0.92,-1.1 -1.41,-4.99 -1.84,-7.07 -0.43,-2.07 -5.03,-19.74 -5.55,-20.87 -0.52,-1.13 -2.23,-5.15 -2.37,-6.54 -0.13,-1.39 -1.25,-6.24 -2.84,-8.45 -1.59,-2.21 -2.69,-3.87 -3.81,-4.05 -1.12,-0.18 -3.79,0.05 -5.65,0.58 -1.86,0.54 -8.97,3.64 -10.49,4.06 -1.52,0.42 -4.59,1.04 -6.34,0.45 -1.75,-0.58 -3.16,-0.32 -4.53,-4 -1.37,-3.68 -4.31,-11.71 -5.05,-13.04 -0.74,-1.32 -4.59,-6.78 -5.33,-7.64 -0.74,-0.86 -2.14,-2.57 -3.09,-2.86 -0.95,-0.29 -10.48,-1.53 -11.74,-1.67 -1.26,-0.15 -7.68,-0.8 -9.24,-0.55 -1.56,0.25 -1.84,0.5 -2.78,1.16 -0.94,0.66 -12.08,12.18 -12.08,12.18 0,0 -4.4,5.46 -5.35,5.53 -0.94,0.06 -3.41,0.99 -6.7,-0.5 -3.3,-1.49 -8.37,-3.49 -9.26,-3.69 -0.89,-0.2 -23.87,-2.4 -23.87,-2.4l-10.37 -1.46c0,0 -6.26,-5.5 -8.12,-7.41 -1.86,-1.9 -9.37,-9.04 -10.06,-9.93 -0.69,-0.89 -2.08,0 -2.63,-4.56 -0.55,-4.57 -0.82,-16.01 -0.99,-17.49 -0.16,-1.48 -0.49,-7.9 -0.66,-9.54 -0.16,-1.65 -0.5,-4.77 -0.91,-6.87 -0.41,-2.1 -3.59,-8.06 -5.26,-9.43 -1.68,-1.37 -8.96,-11.64 -10.05,-13.07 -1.09,-1.43 -3.36,-3.72 -4.68,-5.45 -1.32,-1.73 -2.88,-2.18 -2.96,-3.58 -0.08,-1.4 2.51,-4.28 1.93,-5.76 -0.58,-1.48 -1.07,-4.03 -0.58,-6.83 0.49,-2.8 5.55,-23.1 5.55,-23.1z"/>
   <path id="apia" class="fil0 str0" d="M622.69 691.25c0.41,-1.78 1.42,-7.15 1.59,-9.23 0.17,-2.09 1.77,-8.4 2.84,-9.31 1.07,-0.91 1.59,-2.45 3.41,-4 1.81,-1.56 4.57,-1.7 6.14,-2.47 1.56,-0.77 1.89,-1.43 1.32,-2.91 -0.58,-1.48 -2.47,-6.66 -4.44,-7.98 -1.98,-1.32 -2.8,-3.04 -5.35,-2.39 -2.55,0.66 -5.68,0.91 -6.58,2.06 -0.91,1.15 -1.32,2.88 -2.72,3.13 -1.4,0.25 -4.86,1.15 -7.08,-7.41 -2.22,-8.56 -1.81,-8.15 -3.37,-10.2 -1.56,-2.06 -7.24,-8.15 -10.04,-11.77 -2.8,-3.62 -5.68,-8.15 -7.98,-11.27 -2.3,-3.13 -10.28,-10.2 -12.18,-11.77 -1.89,-1.56 -4.53,-2.55 -5.27,-7.65 -0.74,-5.1 -1.4,-24.69 -1.4,-24.69l0.58 -16.37c0,0 3.21,-1.89 4.86,-4.11 1.65,-2.22 2.14,-4.12 2.06,-7.82 -0.08,-3.7 -1.81,-6.66 -2.22,-9.71 -0.41,-3.04 -0.82,-7.41 -2.55,-6.91 -1.73,0.49 -8.39,4.03 -12.01,4.03 -3.62,0 -13.91,0.74 -18.93,1.56 -5.02,0.82 -15.39,2.3 -18.35,1.24 -2.96,-1.07 -7.9,-1.32 -9.38,-0.5 -1.48,0.82 -6.66,2.96 -7.9,5.43 -1.24,2.47 -2.14,5.68 -4.28,6.99 -2.14,1.32 -6.34,3.54 -7.98,7.41 -1.64,3.87 -1.23,6.58 -1.32,9.54 -0.08,2.96 3.46,9.87 4.69,10.78 1.24,0.91 4.69,7 3.37,11.11 -1.32,4.12 -0.25,13.99 0.41,15.8 0.66,1.81 3.54,6.58 3.05,8.89 -0.49,2.3 -2.63,9.38 -4.77,12.26 -2.14,2.88 -3.04,6.42 -6.75,6.34 -3.7,-0.08 -19.34,-5.68 -21.56,-7.16 -2.22,-1.48 -7.65,-3.21 -12.42,-1.73 -4.77,1.48 -10.2,4.53 -15.39,6.34 -5.18,1.81 -5.68,1.73 -9.54,1.07 -3.87,-0.66 -7.82,-3.13 -10.7,-1.24 -2.88,1.89 -4.52,5.02 -6.42,6.09 -1.89,1.07 -5.84,4.44 -7.98,2.47 -2.14,-1.97 -4.94,-5.26 -7.9,-5.1 -2.96,0.16 -8.8,1.48 -14.65,0.99 -5.84,-0.49 -11.44,-3.62 -15.14,-1.89 -3.7,1.73 -11.03,5.27 -11.11,7.98 -0.08,2.72 2.99,4.47 6.42,6.91 3.43,2.44 6.44,2.87 8.32,4.26 1.89,1.4 6.11,5.42 7.04,6.39 0.93,0.97 6.17,7.45 6.49,7.94 0.32,0.49 0.29,1.33 3.25,2.64 2.96,1.32 4.24,2.88 5.18,3.17 0.95,0.29 3.18,2.12 4.6,2.33 1.42,0.21 3.32,-0.99 4.44,-2.1 1.12,-1.11 4.59,-4.1 6.35,-4.39 1.77,-0.29 2.59,0.16 4.65,0.78 2.06,0.62 3.73,1.2 5.19,0.92 1.46,-0.28 9.1,-3.99 10.08,-4.55 0.98,-0.56 4.44,-3.12 6.38,-3.46 1.94,-0.33 8.65,0.21 10.43,0.11 1.78,-0.1 13.44,2.38 14.32,2.42 0.88,0.03 2.63,0.79 3.25,1.56 0.62,0.77 4.44,7.6 4.44,7.6 0,0 5.46,7.05 6.21,7.85 0.75,0.81 9.78,10.08 9.78,10.08l9.91 10.76c0,0 1.91,3.16 2.76,3.9 0.85,0.74 8.35,6.07 8.71,6.37 0.36,0.3 0.83,0.92 0.82,2.15 -0.02,1.23 0.73,7.46 0.93,8.32 0.2,0.86 0.71,2.27 1.44,2.37 0.73,0.1 3.19,-0.79 3.72,-1.04 0.52,-0.25 0.25,-0.51 1.96,-0.19 1.71,0.32 4.84,2.18 5.85,3.25 1.02,1.07 9.22,6.26 9.22,6.26 0,0 1.01,1.28 2.85,0.75 1.84,-0.54 2.47,-0.83 4.52,-1.54 2.05,-0.71 3.66,-1.33 4.86,-1.21 1.2,0.12 3.68,1.18 4.34,1.91 0.66,0.73 2.58,3.69 3.05,4.63 0.47,0.94 1.79,2.96 1.66,4.2 -0.12,1.24 -1.44,2.86 -2.03,3.54 -0.59,0.68 -1.61,1.31 -1.72,2.81 -0.11,1.5 -1.16,5.75 -1.29,6.89 -0.13,1.14 -2.97,9.52 -3.38,10.37 -0.4,0.85 -2.35,3.5 -2.51,4.56 -0.16,1.06 -0.8,2.34 -0.59,3.75 0.21,1.41 1.74,3.92 2.31,4.7 0.56,0.79 2.88,3.56 3.59,3.98 0.72,0.43 4.75,1.28 6.07,1.76 1.32,0.48 5.44,3.12 6.45,3.37 1.01,0.25 3.94,0.22 4.86,0.34 0.91,0.12 4.58,2.56 5.44,3.45 0.86,0.9 4.45,5.93 5.02,6.51 0.56,0.58 1.9,1.34 3.31,1.42 1.41,0.08 4.13,0.89 5.25,1.02 1.13,0.13 2.36,1.16 1.55,-0.72 -0.82,-1.88 -1.98,-5.14 -1.92,-6.47 0.06,-1.34 2.23,-9.46 2.64,-10.55 0.42,-1.08 4.16,-7.77 4.81,-8.55 0.65,-0.79 3.51,-3.59 3.76,-4.74 0.25,-1.15 0.62,-2.29 0.21,-3.12 -0.41,-0.83 -3.04,-5.03 -2.62,-6.43 0.42,-1.4 3.16,-4.75 3.52,-5.88 0.36,-1.13 0.36,-3.09 -0.08,-3.94 -0.44,-0.85 -1.35,-5.05 -1.3,-6.38 0.05,-1.32 1.57,-8.39 1.94,-9.15 0.37,-0.76 5.3,-8.82 6.17,-10.09 0.87,-1.27 6.03,-8.08 6.44,-8.88 0.41,-0.8 3.49,-3.33 4.43,-4.48 0.94,-1.15 5.04,-8.47 5.56,-9.83 0.52,-1.36 2.07,-6.53 2.07,-6.53z"/>
   <path id="belen_x0020_de_x0020_umbria" class="fil0 str0" d="M754.64 531.99c0,0 -0.33,-8.58 -0.42,-10.09 -0.09,-1.51 -0.56,-5.06 -0.8,-5.55 -0.24,-0.5 -0.56,-1.17 -1.27,-1.25 -0.7,-0.08 -8.81,-0.83 -9.32,-1.05 -0.51,-0.22 -2.86,-2.3 -3.38,-2.87 -0.52,-0.57 -4.22,-4.68 -4.68,-5.32 -0.47,-0.64 -2.76,-4.64 -3.2,-6.37 -0.44,-1.73 -2.17,-8.08 -2.45,-8.64 -0.28,-0.56 -1.88,-10.33 -2.09,-11.73 -0.21,-1.4 -1.02,-5.63 -1.25,-7.4 -0.23,-1.77 -0.47,-4.22 -1.62,-5.51 -1.15,-1.3 -4.22,-1.98 -6.5,-2.12 -2.28,-0.14 -8.76,-0.86 -9.59,-0.29 -0.82,0.58 -2.55,1.21 -4.48,0.6 -1.93,-0.62 -6.69,-0.84 -10.04,-1.36 -3.35,-0.51 -3.29,-2.26 -11.03,-0.45 -7.73,1.81 -12.51,1.81 -15.96,0.99 -3.46,-0.82 -5.1,-5.92 -7.24,-4.61 -2.14,1.32 -9.87,3.62 -13.16,4.11 -3.29,0.49 -8.23,1.15 -10.7,3.62 -2.47,2.47 -3.95,5.92 -4.61,8.72 -0.66,2.8 -0.82,4.61 -4.61,6.42 -3.78,1.81 -9.38,2.14 -12.51,1.48 -3.13,-0.66 -9.38,-1.15 -14.15,-0.66 -4.77,0.49 -13,1.65 -15.14,3.46 -2.14,1.81 -5.92,5.43 -5.92,6.91 0,1.48 0.49,2.3 1.32,5.1 0.82,2.8 -0.16,6.25 -0.82,8.89 -0.66,2.63 -1.63,17.68 -2.3,20.57 -0.68,2.89 -0.41,5.38 0.13,7.78 0.54,2.4 2.27,7.36 2.22,9.71 -0.05,2.35 -0.23,4.65 -0.86,5.82 -0.63,1.17 -3.3,4.22 -4.23,4.88 -0.93,0.66 -1.83,1.21 -1.93,4.09 -0.1,2.88 0.4,32.42 0.4,32.42 0,0 0.01,8.08 1.68,9.51 1.67,1.43 5.86,6.13 8.99,8.27 3.13,2.13 12.06,14.4 13.67,16.56 1.61,2.16 8.98,10.28 10.86,12.95 1.88,2.67 2.32,3.87 2.83,5.92 0.51,2.05 3.2,11.89 5.32,12.34 2.12,0.46 3.53,0.71 4.26,-0.41 0.73,-1.12 1.22,-2.74 2.77,-3.19 1.54,-0.45 5.02,-1.48 6.09,-1.4 1.07,0.08 4.09,0.89 5.67,3.57 1.59,2.68 3.26,6.39 3.71,7.22 0.45,0.82 0.48,2.9 3.41,2.27 2.93,-0.63 7.88,-3.54 9.33,-4.24 1.45,-0.71 3.88,-1.43 5.54,-1.18 1.66,0.25 3.78,1.01 5.84,2.84 2.05,1.83 4.17,1.99 5.47,3.46 1.3,1.48 1.95,2.16 3.35,6.7 1.4,4.54 2.87,10.88 3.09,11.63 0.22,0.75 1.11,4.06 2.73,4.9 1.62,0.83 7.69,4.79 8.59,5.47 0.9,0.69 4.68,4.76 5.95,5.38 1.27,0.62 2.01,1.78 2.96,1.26 0.95,-0.52 3.3,-3.54 3.61,-4.02 0.31,-0.48 1.24,-1.77 2.64,-2.79 1.4,-1.02 4.07,-1.81 4.94,-2.55 0.86,-0.74 3.09,-3.3 3.21,-4.81 0.12,-1.51 1.02,-6.34 0.21,-9.1 -0.81,-2.76 -2.75,-7.24 -2.31,-8.18 0.45,-0.94 1.54,-2.05 2.41,-3.4 0.87,-1.35 3.26,-8.96 3.26,-8.96l2.97 -11.63c0,0 0.86,-1.41 -0.41,-3.32 -1.27,-1.91 -3.16,-3.46 -2.84,-5.02 0.33,-1.56 2.42,-2.17 3.69,-3.13 1.27,-0.96 5.16,-5.98 5.77,-8.52 0.61,-2.53 2.95,-7.63 3.91,-8.93 0.96,-1.3 3.64,-8.73 4.35,-9.6 0.71,-0.86 3.72,-4.14 5.53,-6.53 1.81,-2.39 2.75,-5.79 3.22,-8.63 0.47,-2.83 1.34,-6.08 2.61,-7.28 1.27,-1.2 5.35,-3.27 6.22,-4.5 0.87,-1.23 5.66,-6.77 6.3,-7.78 0.65,-1.01 2.54,-5.97 2.56,-6.74 0.02,-0.78 -0.43,-3.02 -1.01,-3.66 -0.58,-0.65 -4,-3.3 -4.5,-4.63 -0.5,-1.34 -0.71,-4.9 -0.49,-7.31 0.22,-2.41 3.09,-11.35 3.34,-13.42 0.25,-2.08 0.89,-5.66 0.89,-5.66z"/>
   <path id="quinchia" class="fil0 str0" d="M996.32 387.1c0.31,-3.16 1.16,-6.59 1.42,-7.91 0.26,-1.31 0.96,-5.32 0.69,-6.66 -0.28,-1.33 -1.35,-3.09 -2.7,-3.81 -1.35,-0.72 -6.47,-1.92 -9.68,-4.42 -3.22,-2.5 -6.28,-4.66 -7.23,-7.17 -0.95,-2.5 -2.7,-7.86 -4.67,-8.11 -1.97,-0.24 -4.4,-0.29 -5.54,-0.05 -1.14,0.24 -3.13,1 -4.27,1.66 -1.14,0.66 -2.3,1.34 -3.54,1.3 -1.24,-0.04 -4.59,-0.99 -5.68,-2.28 -1.09,-1.3 -0.73,-3.04 -1.95,-4.06 -1.22,-1.01 -10.68,-6.17 -12.37,-7.51 -1.69,-1.34 -8.47,-4.74 -10.82,-6.89 -2.35,-2.16 -7.43,-9.11 -9.92,-10.32 -2.49,-1.21 -5.01,-0.23 -7.51,-1.58 -2.5,-1.35 -8.99,-6.76 -10.73,-9.79 -1.74,-3.03 -3.22,-7.38 -3.55,-9.44 -0.33,-2.06 -0.16,-5.68 -1.95,-5.88 -1.79,-0.19 -4.53,0.78 -6.19,0.39 -1.66,-0.4 -11.64,-7.94 -13.19,-9.06 -1.55,-1.12 -4.11,-4.09 -6.45,-3.9 -2.34,0.2 -8.11,1.46 -10.16,1.53 -2.05,0.08 -6.54,-0.57 -8.05,-0.48 -1.51,0.08 -4.06,0.41 -5.11,1.36 -1.05,0.96 -3.23,4.38 -3.54,4.87 -0.3,0.49 -1.53,3.22 -1.16,4.3 0.38,1.08 1.95,3.43 1.8,4.19 -0.14,0.75 -0.06,1.66 -0.94,1.92 -0.88,0.27 -8.15,-0.33 -8.94,-0.48 -0.79,-0.15 -3.26,0.88 -4.09,2.27 -0.82,1.4 -5.51,9.63 -5.88,11.23 -0.37,1.6 -2.1,11.56 -3.09,13.87 -0.99,2.3 -3.13,7.73 -4.12,8.88 -0.99,1.15 -1.97,2.14 -2.3,3.95 -0.33,1.81 -0.25,5.35 -1.64,7.57 -1.4,2.22 -19.01,31.93 -19.01,31.93 0,0 -12.51,16.87 -13.25,19.67 -0.74,2.8 -0.16,8.97 -0.25,10.37 -0.08,1.4 -0.41,9.38 -0.99,11.27 -0.58,1.89 -3.29,5.43 -2.14,6.58 1.15,1.15 6.17,2.47 11.19,1.65 5.02,-0.82 11.93,-2.72 17.36,-2.72 5.43,0 8.89,0.08 13.08,-0.16 4.2,-0.25 9.3,-0.33 10.53,1.4 1.24,1.73 2.63,5.6 2.88,7.73 0.25,2.14 1.15,6.34 1.98,8.48 0.82,2.14 3.08,11.66 4.17,12.66 1.09,1 8.32,7.35 9.07,8.48 0.75,1.13 4.47,6.74 6.31,7.4 1.84,0.66 20.85,5.35 20.85,5.35 0,0 15.67,1.31 18.37,1.48 2.7,0.17 13.46,0.44 15.59,0.99 2.13,0.55 7.16,3.64 8.53,3.91 1.37,0.27 3.18,1.08 10.03,-1.91 6.85,-2.99 18.77,-7.88 20.16,-8.63 1.4,-0.75 5.09,-2.88 5.52,-4.77 0.43,-1.89 0.09,-6.41 0.32,-8.16 0.23,-1.75 3.62,-12.03 4.42,-15.24 0.8,-3.21 4.36,-9.92 5.47,-11.63 1.1,-1.71 5.81,-11.13 6.82,-13.04 1.02,-1.91 2.94,-5.14 4.31,-5.97 1.36,-0.83 3.12,-1.64 5.37,-0.96 2.25,0.68 5.99,2.04 7.37,2.43 1.38,0.39 2.91,0.85 4.56,0.37 1.65,-0.48 0.86,-1.52 2.16,-3.55 1.31,-2.03 3.77,-11.17 3.81,-12.41 0.04,-1.24 -0.74,-6.47 -0.93,-7.59 -0.19,-1.12 -0.62,-4.91 -0.62,-4.91z"/>
   <path id="guatica" class="fil0 str0" d="M680.86 376.4c0.41,-2.8 1.23,-5.43 2.06,-6.5 0.82,-1.07 1.98,-1.32 4.53,-1.48 2.55,-0.16 4.69,0.99 6.58,-1.15 1.89,-2.14 5.02,-7.74 6.91,-9.22 1.89,-1.48 4.11,-2.3 5.1,-5.1 0.99,-2.8 4.61,-11.93 5.35,-13.74 0.74,-1.81 0.84,-4.76 2.22,-5.84 1.38,-1.08 3.53,-2.91 4.3,-3.69 0.78,-0.78 1.41,-1.87 2.73,-1.91 1.32,-0.04 2.75,1.35 4.96,1.85 2.21,0.5 7.15,1.92 8.49,1.52 1.33,-0.4 5.19,-2.4 7.08,-1.84 1.89,0.56 3.41,2.16 7.48,1.35 4.07,-0.81 12.5,-3.54 14.69,-4.32 2.18,-0.78 7.83,-1.62 9.81,-1.94 1.98,-0.32 3.47,0.1 5.26,-2.01 1.79,-2.11 7.97,-7.06 9.5,-8 1.53,-0.93 8.25,-4.88 9.69,-5.33 1.43,-0.45 8.62,-6.11 10.47,-7.3 1.85,-1.19 8.02,-4.36 9.48,-4.64 1.46,-0.28 7.93,0.84 9.34,0.95 1.42,0.11 3.55,-0.65 4.59,0.3 1.04,0.95 -0.79,2.07 -1.19,2.75 -0.4,0.69 -4.36,6.87 -4.56,8.29 -0.2,1.43 -2.11,7.16 -2.69,9.92 -0.58,2.75 -2.77,9.42 -3.19,10.42 -0.43,0.99 -3.61,5.64 -4.27,7.47 -0.67,1.84 -0.53,5 -1.42,7.2 -0.89,2.2 -4.94,8.94 -5.54,9.96 -0.61,1.02 -3.93,6.6 -4.4,7.4 -0.47,0.8 -5.84,9.83 -6.42,10.81 -0.58,0.98 -6.28,9.71 -6.94,10.62 -0.65,0.91 -5.87,8.33 -6.5,9.28 -0.63,0.95 -3.26,4.34 -3.47,6.26 -0.21,1.93 -0.05,7.1 -0.12,9.09 -0.07,1.99 -0.47,9.29 -0.73,10.66 -0.26,1.36 -2.03,4.83 -2.31,5.66 -0.28,0.83 -1.67,1.87 -0.09,2.28 1.57,0.42 4.14,2.16 7.66,1.9 3.53,-0.26 6.43,-0.79 8.29,-1.17 1.87,-0.38 6.15,-1.27 8.22,-1.48 2.08,-0.22 9.98,-0.28 12.04,-0.31 2.06,-0.03 9.76,-0.41 11.35,-0.24 1.59,0.17 3.85,0.2 4.6,1.47 0.76,1.27 2.68,6.29 2.85,7.5 0.17,1.21 1.43,7.05 1.68,7.76 0.24,0.71 1.12,2.81 0.59,3.67 -0.53,0.86 -1.52,-0.35 -2.62,-0.31 -1.1,0.04 -3.31,0.27 -4.71,0.93 -1.4,0.66 -2.59,1.37 -2.79,2.16 -0.2,0.79 -3.8,5.75 -4.75,6.37 -0.95,0.63 -8.17,5.52 -9.05,5.66 -0.89,0.13 -12.04,-1.16 -12.77,-1.34 -0.73,-0.19 -6.21,-2.1 -7.98,-3.61 -1.77,-1.51 -7.93,-6.64 -8.54,-7.27 -0.61,-0.63 -3.48,-3.93 -4.57,-5.04 -1.09,-1.11 -2.92,-2.27 -3.59,-2.34 -0.67,-0.07 -1.93,0.31 -2.42,0.83 -0.49,0.52 -2.87,4.12 -3.09,4.55 -0.22,0.43 -2.66,4.26 -3.01,4.57 -0.35,0.31 -1.14,1.31 -1.96,1.4 -0.82,0.09 -3.74,-0.46 -4.46,-0.7 -0.72,-0.24 -1.21,-0.8 -2.2,-0.62 -0.99,0.18 -3.35,1.9 -4.03,2.6 -0.68,0.7 -12.73,9.22 -12.73,9.22 0,0 -4.63,2.11 -5.37,2.14 -0.74,0.03 -2.82,0.04 -4.26,0.53 -1.44,0.49 -2.51,1.6 -3.58,1.6 -1.07,0 -1.46,-0.93 -3.2,-1.39 -1.74,-0.46 -9.15,-1.72 -10.96,-1.8 -1.8,-0.08 -5.39,1.44 -7.58,0.95 -2.19,-0.49 -8.68,-1.34 -11.12,-1.58 -2.45,-0.25 -4.58,-0.41 -4.75,-2.55 -0.16,-2.14 1.32,-2.63 0.66,-5.68 -0.66,-3.04 -2.47,-3.87 -1.24,-8.23 1.24,-4.36 3.37,-5.68 2.55,-7.82 -0.82,-2.14 -3.38,-3.95 -3.13,-10.37 0.25,-6.42 1.48,-6.83 -1.4,-9.3 -2.88,-2.47 -6.01,-2.8 -6.83,-7.49 -0.82,-4.69 -0.9,-5.84 -1.98,-11.27 -1.07,-5.43 -1.89,-13 -1.23,-15.14 0.66,-2.14 4.65,-8.79 4.65,-8.79z"/>
   <path id="mistrato" class="fil0 str0" d="M337.11 296c-9.71,-13.66 -14.15,-21.07 -17.12,-25.02 -2.96,-3.95 -3.87,-5.18 -4.81,-5.18 -0.95,0 -6.62,3 -7.9,3.87 -1.28,0.86 -19.79,12.06 -21.31,12.01 -1.52,-0.04 -2.76,0.58 -5.39,-1.28 -2.63,-1.85 -27.65,-19.09 -30.24,-24.07 -2.59,-4.98 -4.24,-7.32 -3.91,-9.71 0.33,-2.39 1.81,-6.99 2.02,-8.23 0.21,-1.23 0.99,-3.58 2.88,-3.87 1.89,-0.29 9.63,-1.77 11.72,-1.98 2.1,-0.2 17.98,-1.79 17.98,-1.79l14.41 -1.18 8.45 -0.66c0,0 4.41,-0.69 5.63,-1.39 1.21,-0.7 3.67,-2.23 4.59,-3.25 0.92,-1.02 5.35,-8.22 6.07,-9.18 0.72,-0.96 3.42,-3.89 4.38,-4.57 0.96,-0.68 3.97,-2.52 6.08,-3.05 2.11,-0.53 5.35,-0.98 6.81,-1.27 1.47,-0.28 3.03,-0.57 4.79,-2.03 1.76,-1.47 4.54,-4.95 4.84,-5.38 0.3,-0.43 5.38,-7.09 5.5,-10.71 0.12,-3.62 0.21,-5.81 0.02,-6.98 -0.19,-1.18 -3.45,-11.1 -4.28,-14.52 -0.83,-3.42 -1.56,-8.24 -1.53,-9.23 0.03,-0.99 0.6,-4.07 1.02,-5.14 0.43,-1.08 3.04,-18.17 2.88,-19.49 -0.16,-1.32 -2.73,-12.47 -2.89,-14.96 -0.16,-2.48 1.31,-7.59 -1.82,-17.87 -3.13,-10.28 -3.74,-19.38 -3.72,-21.31 0.02,-1.93 0.58,-3.54 2.07,-7.16 1.49,-3.62 7.03,-11.73 7.85,-12.86 0.83,-1.13 6.36,-6.43 7.85,-7.74 1.49,-1.31 22.24,-18.92 22.24,-18.92 0,0 6.99,-5.85 7.93,-6.48 0.95,-0.63 29.57,-15.37 30.9,-15.98 1.33,-0.61 6.96,-3.22 8.58,-3.56 1.62,-0.34 3.77,-0.67 6.12,0.63 2.35,1.3 11.65,7.23 15.31,10.88 3.65,3.65 11.02,11.97 11.63,13 0.61,1.04 1.25,2.31 2.16,5.62 0.91,3.31 5.14,21.28 5.61,22.86 0.47,1.59 3.24,11.09 3.49,12.1 0.25,1.01 0.65,6.05 1.17,8.43 0.52,2.38 1.19,7.34 1.71,8.24 0.52,0.89 2.32,4.56 3.89,4.19 1.57,-0.37 1.77,-1.54 4.21,-0.57 2.44,0.97 6.17,3.77 8.14,5.92 1.97,2.15 6.01,9.33 8.55,10.14 2.54,0.81 7.94,3.77 9.26,4.67 1.32,0.9 3.93,2.66 5.9,2.92 1.97,0.25 6.43,0.43 7.73,0.92 1.29,0.49 3.31,1.75 4.2,4.13 0.89,2.38 1.17,3.73 1.83,4.26 0.66,0.53 1.16,1 2.52,0.67 1.36,-0.33 3.7,-1.33 5.45,-1.8 1.75,-0.48 4.84,-0.82 6.49,-0.89 1.64,-0.07 13.25,-0.34 14.9,-0.35 1.64,-0.02 11.04,0.4 12.29,0.62 1.24,0.22 4.32,0.75 5.29,1.31 0.97,0.56 2.14,1.96 2.62,3.19 0.48,1.24 1.09,3.24 1.14,4.51 0.05,1.27 -0.24,2.95 0.01,4.3 0.25,1.35 -0.33,1.53 1.16,3.17 1.49,1.64 8.07,7.53 9.45,8.45 1.38,0.92 13.29,5.89 14.72,6.56 1.43,0.67 8.71,4.63 9.7,4.79 0.99,0.16 16.57,1.18 19.5,0.08 2.93,-1.1 9.18,-4.17 11.27,-5.74 2.09,-1.56 7.01,-5.64 9.1,-5.91 2.09,-0.28 3.72,-0.36 5.14,0.34 1.43,0.69 2.76,1.28 3.24,-0.12 0.48,-1.4 3.12,-15.72 3.12,-15.72 0,0 1.37,-4.38 1.81,-5.03 0.44,-0.65 1.76,-1.82 2.81,-1.69 1.05,0.13 2.91,0.61 4.29,1.56 1.38,0.95 4.15,3.41 4.8,5.08 0.65,1.67 1.38,4.09 1.31,5.26 -0.07,1.17 -0.87,4.02 -1.23,4.73 -0.36,0.7 -1.56,3.21 -1.41,4.33 0.14,1.12 3.41,8.84 3.67,9.76 0.26,0.92 0.8,4.43 0.83,5.13 0.03,0.7 -0.24,11.3 -0.35,12.43 -0.11,1.13 -2.09,8.64 -1.73,10.81 0.36,2.17 0.83,3.68 0.54,4.74 -0.29,1.06 -1.2,6.54 -1.11,8.48 0.09,1.94 0.85,10.85 0.85,10.85 0,0 -0.15,4.49 -0.76,5.92 -0.61,1.44 -3.93,6.78 -4.32,7.77 -0.4,0.98 -1.22,5.19 -1.25,6.72 -0.03,1.53 0.07,7.65 0.9,8.88 0.84,1.23 4.71,4.56 5.52,5.84 0.81,1.28 2.22,8.51 2.34,10.31 0.12,1.8 0.76,7.48 0.6,8.83 -0.16,1.36 -1.8,6.87 -2,7.89 -0.2,1.02 -0.1,8.07 -0.31,9.18 -0.2,1.11 -0.78,1.36 -1.07,3.99 -0.29,2.63 -0.52,10.91 -0.45,11.4 0.07,0.49 -0.22,1.62 -1.98,2.76 -1.75,1.14 -2.29,2.46 -2.47,4.07 -0.17,1.62 0.77,5.62 0.67,6.51 -0.1,0.89 -1.32,5.84 -1.45,6.69 -0.14,0.85 -0.85,3.08 1.03,2.81 1.87,-0.27 5.06,-1.46 6.65,-0.79 1.58,0.67 4.18,2.93 4.92,3.34 0.74,0.41 6.67,1.84 9.01,1.87 2.34,0.03 6.62,-0.44 7.38,0.62 0.77,1.05 2.71,3.37 3.37,5 0.66,1.63 0.98,2.97 1.56,3.9 0.58,0.94 2.06,1.31 1.8,3.05 -0.26,1.75 -3.39,9.72 -3.75,11.38 -0.36,1.66 -2.35,6.63 -2.92,7.59 -0.57,0.95 -3.65,3.55 -4.23,3.97 -0.58,0.43 -3.09,3.4 -3.62,4.18 -0.52,0.77 -4.21,6.32 -5.4,6.55 -1.19,0.23 -5.02,-0.54 -6.68,0.22 -1.66,0.76 -2.48,-1.46 -4.83,5.74 -2.34,7.2 -3.16,7.32 -3.77,8.6 -0.61,1.28 -1.38,4.18 -1.18,6.7 0.2,2.52 2.33,15.76 2.85,18.88 0.53,3.12 0.98,5.85 1.94,6.49 0.95,0.64 6.33,4.52 6.77,5.52 0.44,1 0.51,3.04 0.1,6.88 -0.41,3.83 1.04,7.83 1.65,8.84 0.61,1.01 2.01,2.08 1.61,3.55 -0.39,1.48 -2.31,5.39 -2.56,6.25 -0.25,0.86 -0.76,2.65 -0.57,3.72 0.19,1.06 1.65,4.57 1.73,5.57 0.08,1 -0.54,3.11 -0.65,3.92 -0.11,0.82 0.66,2.61 -0.19,2.58 -0.85,-0.02 -3.98,0.28 -5.51,0.62 -1.53,0.35 -6.24,1.33 -8.25,1.48 -2.01,0.15 -5.01,0.29 -6.7,-0.03 -1.69,-0.32 -3.23,-0.43 -4.31,-1.87 -1.08,-1.43 -2.58,-2.92 -3.23,-3.1 -0.65,-0.17 -1.18,0.03 -2.16,0.45 -0.97,0.43 -9.31,3.13 -10.85,3.42 -1.54,0.29 -7.31,-0.01 -9.77,1.95 -2.46,1.96 -4.1,3.58 -4.96,5.29 -0.86,1.71 -2.41,7.07 -2.76,7.9 -0.35,0.83 -1.71,3.25 -6.23,4.43 -4.52,1.18 -6.75,1.14 -9.09,0.95 -2.34,-0.2 -9.97,-1.11 -13.57,-0.77 -3.6,0.34 -10.52,1.04 -12.4,1.83 -1.88,0.79 -5.49,2.57 -6.66,3.74 -1.17,1.17 -2.23,2.64 -3.54,4.23 -1.31,1.58 -3.69,2.08 -6.62,1.33 -2.92,-0.74 -9.92,-4.32 -12.51,-5.06 -2.59,-0.74 -3.42,-0.37 -5.96,-0.66 -2.55,-0.29 -3.37,-1.6 -3.46,-4.73 -0.08,-3.13 1.07,-4.2 -0.45,-7.28 -1.52,-3.09 -8.31,-9.71 -7.9,-12.1 0.41,-2.39 1.52,-2.22 0.86,-7.28 -0.66,-5.06 -0.91,-5.56 -2.14,-7.45 -1.23,-1.89 -12.51,-9.22 -11.93,-12.59 0.58,-3.37 2.47,-11.52 2.8,-14.32 0.33,-2.8 -1.32,-13.5 0,-18.02 1.32,-4.53 6.75,-9.71 7.82,-12.01 1.07,-2.3 4.44,-8.56 3.62,-14.07 -0.82,-5.51 -5.02,-15.88 -7.24,-17.61 -2.22,-1.73 -33.08,-15.72 -35.71,-17.61 -2.63,-1.89 -15.39,-8.39 -17.94,-8.56 -2.55,-0.16 -72.66,-1.07 -72.66,-1.07l-49.79 -10.28c0,0 -5.68,-7.16 -8.56,-9.71 -2.88,-2.55 -13.83,-17.25 -13.83,-17.25z"/>
   <path id="pueblo_x0020_rico" class="fil0 str0" d="M79.63 546.61c-0.3,-6.08 -0.78,-12.47 -1.18,-13.82 -0.41,-1.36 -2.34,-2.79 -3.46,-4.27 -1.12,-1.48 -3.07,-5.69 -3.75,-8.97 -0.67,-3.28 -1.71,-8.33 -0.83,-9.38 0.88,-1.05 3.27,-2.46 4.55,-2.87 1.28,-0.4 3.38,-0.36 3.54,-1.94 0.16,-1.59 -0.31,-3.29 -0.95,-3.97 -0.64,-0.68 -2.28,-1.44 -3.24,-1.58 -0.96,-0.14 -5.75,-0.53 -6.88,-0.87 -1.13,-0.34 -2.23,-0.77 -2.17,-2.12 0.07,-1.35 0.6,-4.24 0.42,-5.21 -0.19,-0.97 -0.34,-2.24 -1.31,-2.61 -0.98,-0.36 -3.83,-0.52 -4.55,-1.09 -0.72,-0.56 -3.26,-4.1 -3.15,-4.97 0.11,-0.87 0.79,-1.52 1.28,-2.34 0.49,-0.82 1.11,-4.27 0.79,-5.64 -0.32,-1.37 -0.03,-1.64 -1.02,-1.43 -0.99,0.21 -5.7,2.65 -6.29,2.25 -0.59,-0.4 -2.06,-2.78 -2.66,-3.81 -0.6,-1.03 -2.03,-1.32 -3.43,-1.38 -1.4,-0.06 -5.23,-0.46 -5.75,-0.7 -0.52,-0.24 -1.39,-0.46 -1.71,-1.44 -0.33,-0.98 -0.36,-3.85 -0.61,-5.83 -0.25,-1.98 -0.37,-3.12 -1.36,-3.98 -0.99,-0.86 -6.23,-4.29 -7,-5.92 -0.77,-1.63 -1.62,-5.55 -1.52,-6.68 0.1,-1.13 0.83,-4.58 0.26,-5.93 -0.58,-1.35 -1.38,-2.3 -2.38,-2.64 -1,-0.35 -0.62,-0.81 -2.32,0.1 -1.7,0.9 -5.13,2.92 -6.39,2.75 -1.26,-0.16 -6.81,-0.57 -7.76,-1.33 -0.95,-0.76 -1.51,-2.34 -2.27,-3.85 -0.75,-1.51 -0.95,-3.06 -0.95,-4.2 0,-1.14 0.75,-2.87 1.42,-3.83 0.66,-0.96 3.07,-4.28 4.78,-5.14 1.71,-0.86 5.98,-1.99 7.95,-1.95 1.97,0.04 6.98,0.92 8.18,1.24 1.2,0.32 3.1,1.03 3.51,0.43 0.41,-0.6 2.08,-3.51 2.48,-4.77 0.4,-1.26 0.12,-4.62 0.3,-6.57 0.19,-1.95 0.65,-3.67 2.42,-4.97 1.76,-1.29 9.09,-5.7 10.47,-7.09 1.39,-1.39 3.94,-6.48 3.91,-7.57 -0.03,-1.09 -0.11,-2.17 1.26,-3.51 1.37,-1.34 6.61,-3.1 8.78,-3.73 2.17,-0.63 4.99,-1.26 5.93,-2.15 0.94,-0.89 3.78,-8.53 4.44,-9.78 0.66,-1.25 3.06,-5.97 3.42,-7.06 0.35,-1.09 2.05,-8.79 2.42,-9.7 0.38,-0.9 3.51,-7.08 4.2,-8.08 0.69,-1 2.24,-15.69 2.24,-15.69 0,0 0.39,-4.2 1.47,-5.23 1.08,-1.03 1.59,-1.49 3.22,-1.98 1.63,-0.48 3.97,-0.57 5.84,-0.25 1.88,0.31 6.15,1.13 6.93,1.28 0.78,0.15 28.97,4.15 28.97,4.15 0,0 5.49,0.27 6.4,-0.02 0.91,-0.29 2.37,-0.67 2.82,-1.7 0.45,-1.03 1.58,-9.17 1.58,-10.85 0,-1.69 -1.82,-11.92 -1.12,-15.02 0.71,-3.1 1.38,-6.28 2.44,-7.29 1.06,-1.01 2.73,-2.69 4.17,-3.13 1.45,-0.44 3.72,-0.45 7.55,-1.13 3.83,-0.69 14.52,-2.03 14.52,-2.03 0,0 3.03,-1.03 3.66,-2.17 0.63,-1.14 3.47,-4.66 5.33,-6.81 1.86,-2.15 11.25,-13.84 11.25,-13.84l24.38 -23.91c0,0 3.12,-1.58 6.39,-2.42 3.27,-0.84 17.96,-3.39 19.91,-3.63 1.94,-0.24 8.66,-1.07 9.48,-1.17 0.81,-0.1 1.83,0.43 1.12,1.29 -0.71,0.86 -1.47,2.71 -1.59,3.25 -0.12,0.55 -1.71,7.96 -1.71,7.96 0,0 0.89,4.9 1.43,5.91 0.54,1.01 3.39,6.18 4.83,7.17 1.44,0.99 6.28,5.4 7.98,6.7 1.69,1.31 3.73,2.88 5.97,4.52 2.24,1.64 9.59,6.92 10.9,7.83 1.31,0.92 4.7,3.77 5.97,3.49 1.27,-0.27 2.97,-0.51 4.08,-1.07 1.1,-0.56 26.33,-14.61 26.33,-14.61 0,0 0.68,-0.94 2.01,-0.02 1.33,0.92 23.85,33.63 23.85,33.63l19.21 22.76 49.73 10.51 72.18 1.1c0,0 17.73,7.39 29.01,13.52 11.27,6.13 25.41,12.67 25.41,12.67 0,0 3.37,4.55 4.41,8.04 1.04,3.49 3.15,9.12 2.96,11.43 -0.19,2.31 -0.68,4.8 -1.1,6.01 -0.42,1.2 -2.08,5.58 -3.06,6.94 -0.98,1.36 -6.57,8.82 -7.03,10.24 -0.47,1.42 -0.94,7.4 -0.75,10.42 0.19,3.02 0.55,7.96 0.21,9.81 -0.34,1.84 -2.89,12.73 -2.64,13.6 0.26,0.87 2.17,4.14 6.14,7.11 3.97,2.97 5.7,4.08 6.48,6.8 0.78,2.72 2.23,5.73 1.52,9.96 -0.71,4.23 -2.59,4.36 0.5,7.74 3.09,3.37 5.16,5.27 5.57,5.87 0.41,0.61 1.89,2.87 1.71,4.62 -0.18,1.75 -0.82,5.51 0.34,6.79 1.15,1.28 0.37,1.68 5.39,2.24 5.02,0.56 15.27,5.33 16.3,5.41 1.03,0.08 5.31,-0.94 5.76,0.86 0.45,1.81 2.14,4.51 1.85,6.8 -0.29,2.29 -1.41,7.48 -1.54,8.68 -0.13,1.2 -1.66,16.61 -1.77,17.18 -0.11,0.57 -0.74,1.92 -1.63,1.68 -0.9,-0.24 -3.56,0.86 -4.9,1.42 -1.34,0.56 -13.19,2.56 -14.99,2.7 -1.8,0.13 -14.5,1.75 -18.41,2.18 -3.9,0.43 -9.45,0.82 -10.67,0.56 -1.22,-0.26 -5.22,-1.46 -6.58,-1.35 -1.36,0.11 -9.93,3.89 -10.51,4.55 -0.58,0.66 -1.73,2.34 -2.72,4.63 -0.99,2.28 -2.13,2.99 -2.55,3.42 -0.42,0.43 -6.58,4.38 -7.1,5.47 -0.51,1.09 -2.55,4.81 -2.49,8.54 0.06,3.72 0.44,7.24 1.51,9.06 1.07,1.82 2.96,4.97 3.92,6.07 0.96,1.1 3,6.26 2.79,7.62 -0.21,1.36 -0.89,5.21 -0.99,6.18 -0.1,0.97 0.59,10.12 1.12,12.13 0.53,2.01 2.98,5.21 2.83,7.77 -0.14,2.56 -2.96,10.8 -3.7,12.01 -0.75,1.21 -3.96,6.32 -4.81,6.83 -0.85,0.51 -1.55,1.02 -2.8,0.87 -1.25,-0.15 -16.09,-4.7 -18.11,-5.56 -2.02,-0.86 -8.19,-3.66 -10.2,-3.58 -2.02,0.08 -4.74,-0.54 -12.64,3.04 -7.89,3.58 -12.48,5.23 -14.48,5.05 -1.99,-0.18 -7.82,-1.89 -9.73,-2.13 -1.91,-0.24 -2.67,-0.84 -4.23,0.32 -1.56,1.16 -5.45,4.97 -6.32,5.76 -0.87,0.8 -2.2,2.15 -3.53,2.48 -1.33,0.32 -3.17,2.04 -4.08,1.15 -0.91,-0.9 -5.61,-5.13 -6.61,-5.43 -1,-0.3 -7.01,0.51 -8.8,0.44 -1.79,-0.07 -9.79,0 -13.72,-0.96 -3.93,-0.96 -6.65,-2 -9.26,-0.75 -2.61,1.25 -9.93,4.49 -10.75,6.91 -0.82,2.42 0.44,3.18 -0.98,4.48 -1.43,1.3 -2.63,3.43 -2.97,5.43 -0.34,2 -3.94,21.93 -3.94,21.93l-8.01 36.22c0,0 -1.68,6.16 -1.66,8.05 0.02,1.9 1.14,4.68 0.82,5.53 -0.32,0.85 -2.15,4.22 -1.98,5.2 0.16,0.98 0.51,1.08 0.51,1.98 0,0.9 0.7,1.89 -2.14,0.9 -2.84,-0.99 -19.18,-10.17 -19.18,-10.17 0,0 -6.58,-3.69 -7.16,-4.93 -0.58,-1.23 -1.83,-1.83 -2.63,-5.76 -0.8,-3.93 -4.18,-25.07 -4.18,-25.07 0,0 -2.17,-11.93 -2.66,-13 -0.49,-1.07 -2.69,-6.14 -3.37,-7.24 -0.68,-1.11 -15.37,-18.85 -17.77,-21.49 -2.4,-2.64 -10.79,-11.7 -13.57,-13.61 -2.78,-1.91 -21.56,-11.42 -24.4,-12.49 -2.84,-1.07 -12.4,-4.58 -14.42,-4.98 -2.01,-0.4 -7.51,-1.02 -11.22,-0.86 -3.71,0.16 -13.81,1.32 -16.38,1.86 -2.57,0.54 -17.54,4.41 -19.86,5.29 -2.33,0.87 -19.92,7.54 -22.13,8.31 -2.22,0.77 -3.81,1.18 -5.15,2.65 -1.34,1.48 -7.06,10.8 -7.83,12.53 -0.77,1.73 -3.5,8.35 -4.35,10.41 -0.85,2.05 -3.39,7.95 -3.8,8.82 -0.41,0.86 -2.26,4.23 -3.12,5.02 -0.86,0.79 -3.28,2.76 -5.26,3.91 -1.98,1.15 -8.35,4.38 -9.84,5.02 -1.5,0.64 -2.89,1.71 -5.33,2.12 -2.44,0.41 -5.95,0.51 -8.5,-0.07 -2.54,-0.58 -8.79,-2.62 -9.81,-4.22 -1.02,-1.59 -1.7,-1.87 -1.62,-4.29 0.08,-2.42 0.66,-6.2 1,-8.04 0.34,-1.84 1.9,-8.67 2.47,-11.04 0.57,-2.37 3.73,-16.29 3.73,-16.29 0,0 1.27,-6.58 0.63,-8.6 -0.64,-2.02 -5.02,-10.2 -6.1,-11.52 -1.08,-1.32 -3.75,-4.66 -6.09,-5.68 -2.34,-1.02 -6.62,-3.82 -7.52,-6.12 -0.9,-2.3 -9.1,-22.65 -9.15,-25.09 -0.05,-2.45 0.64,-4.88 1.19,-8.45 0.55,-3.57 1.52,-4.37 1.63,-6.93 0.11,-2.56 0.07,-9.18 0.07,-9.18z"/>
  </g>
 </g>
</svg>
